G04 #@! TF.GenerationSoftware,KiCad,Pcbnew,(5.99.0-73-g24ea8f970)*
G04 #@! TF.CreationDate,2019-09-05T17:19:17-04:00*
G04 #@! TF.ProjectId,headers,68656164-6572-4732-9e6b-696361645f70,rev?*
G04 #@! TF.SameCoordinates,Original*
G04 #@! TF.FileFunction,Copper,L1,Top*
G04 #@! TF.FilePolarity,Positive*
%FSLAX46Y46*%
G04 Gerber Fmt 4.6, Leading zero omitted, Abs format (unit mm)*
G04 Created by KiCad (PCBNEW (5.99.0-73-g24ea8f970)) date 2019-09-05 17:19:17*
%MOMM*%
%LPD*%
G04 APERTURE LIST*
%ADD10O,1.700000X1.700000*%
%ADD11R,1.700000X1.700000*%
%ADD12C,0.800000*%
%ADD13C,6.400000*%
%ADD14C,0.254000*%
G04 APERTURE END LIST*
D10*
X143637000Y-92773500D03*
X146177000Y-92773500D03*
X143637000Y-95313500D03*
X146177000Y-95313500D03*
X143637000Y-97853500D03*
X146177000Y-97853500D03*
X143637000Y-100393500D03*
X146177000Y-100393500D03*
X143637000Y-102933500D03*
X146177000Y-102933500D03*
X143637000Y-105473500D03*
X146177000Y-105473500D03*
X143637000Y-108013500D03*
X146177000Y-108013500D03*
X143637000Y-110553500D03*
D11*
X146177000Y-110553500D03*
D10*
X143637000Y-65849500D03*
X146177000Y-65849500D03*
X143637000Y-68389500D03*
X146177000Y-68389500D03*
X143637000Y-70929500D03*
X146177000Y-70929500D03*
X143637000Y-73469500D03*
X146177000Y-73469500D03*
X143637000Y-76009500D03*
X146177000Y-76009500D03*
X143637000Y-78549500D03*
X146177000Y-78549500D03*
X143637000Y-81089500D03*
X146177000Y-81089500D03*
X143637000Y-83629500D03*
X146177000Y-83629500D03*
X143637000Y-86169500D03*
X146177000Y-86169500D03*
X143637000Y-88709500D03*
D11*
X146177000Y-88709500D03*
D10*
X95377000Y-110553500D03*
X92837000Y-110553500D03*
X95377000Y-108013500D03*
X92837000Y-108013500D03*
X95377000Y-105473500D03*
X92837000Y-105473500D03*
X95377000Y-102933500D03*
X92837000Y-102933500D03*
X95377000Y-100393500D03*
X92837000Y-100393500D03*
X95377000Y-97853500D03*
D11*
X92837000Y-97853500D03*
D10*
X95377000Y-92773500D03*
X92837000Y-92773500D03*
X95377000Y-90233500D03*
X92837000Y-90233500D03*
X95377000Y-87693500D03*
X92837000Y-87693500D03*
X95377000Y-85153500D03*
X92837000Y-85153500D03*
X95377000Y-82613500D03*
X92837000Y-82613500D03*
X95377000Y-80073500D03*
X92837000Y-80073500D03*
X95377000Y-77533500D03*
X92837000Y-77533500D03*
X95377000Y-74993500D03*
D11*
X92837000Y-74993500D03*
D12*
X148001056Y-126763444D03*
X146304000Y-126060500D03*
X144606944Y-126763444D03*
X143904000Y-128460500D03*
X144606944Y-130157556D03*
X146304000Y-130860500D03*
X148001056Y-130157556D03*
X148704000Y-128460500D03*
D13*
X146304000Y-128460500D03*
D12*
X148001056Y-48912444D03*
X146304000Y-48209500D03*
X144606944Y-48912444D03*
X143904000Y-50609500D03*
X144606944Y-52306556D03*
X146304000Y-53009500D03*
X148001056Y-52306556D03*
X148704000Y-50609500D03*
D13*
X146304000Y-50609500D03*
D14*
G36*
X144928132Y-47025241D02*
G01*
X144561012Y-47188693D01*
X144212988Y-47389625D01*
X143887875Y-47625834D01*
X143684485Y-47808966D01*
X146304000Y-50428481D01*
X148923515Y-47808966D01*
X148720125Y-47625834D01*
X148395012Y-47389625D01*
X148046988Y-47188693D01*
X147679868Y-47025241D01*
X147669955Y-47022020D01*
X149417660Y-47022020D01*
X149418410Y-47022216D01*
X149434335Y-47023933D01*
X149574423Y-47038163D01*
X149646453Y-47060735D01*
X149712472Y-47097330D01*
X149769789Y-47146457D01*
X149816054Y-47206101D01*
X149849383Y-47273835D01*
X149870396Y-47354507D01*
X149878669Y-47462011D01*
X149881321Y-47473923D01*
X149881321Y-49218049D01*
X149724807Y-48866512D01*
X149523875Y-48518488D01*
X149287666Y-48193375D01*
X149104534Y-47989985D01*
X146485019Y-50609500D01*
X149104534Y-53229015D01*
X149287666Y-53025625D01*
X149523875Y-52700512D01*
X149724807Y-52352488D01*
X149881321Y-52000951D01*
X149881320Y-127069047D01*
X149724807Y-126717512D01*
X149523875Y-126369488D01*
X149287666Y-126044375D01*
X149104534Y-125840985D01*
X146485019Y-128460500D01*
X149104534Y-131080015D01*
X149287666Y-130876625D01*
X149523875Y-130551512D01*
X149724807Y-130203488D01*
X149881320Y-129851953D01*
X149881320Y-131574161D01*
X149881124Y-131574911D01*
X149879407Y-131590836D01*
X149865177Y-131730923D01*
X149842605Y-131802950D01*
X149806009Y-131868973D01*
X149756879Y-131926293D01*
X149697242Y-131972552D01*
X149629505Y-132005883D01*
X149548834Y-132026896D01*
X149441329Y-132035169D01*
X149429422Y-132037820D01*
X147695453Y-132037820D01*
X148046988Y-131881307D01*
X148395012Y-131680375D01*
X148720125Y-131444166D01*
X148923515Y-131261034D01*
X146304000Y-128641519D01*
X143684485Y-131261034D01*
X143887875Y-131444166D01*
X144212988Y-131680375D01*
X144561012Y-131881307D01*
X144912547Y-132037820D01*
X87203659Y-132037820D01*
X87202909Y-132037624D01*
X87186984Y-132035907D01*
X87046897Y-132021677D01*
X86974870Y-131999105D01*
X86908847Y-131962509D01*
X86851527Y-131913379D01*
X86805268Y-131853742D01*
X86771937Y-131786005D01*
X86750924Y-131705334D01*
X86742651Y-131597829D01*
X86740000Y-131585922D01*
X86740000Y-128259569D01*
X142470001Y-128259569D01*
X142470001Y-128661431D01*
X142512006Y-129061093D01*
X142595558Y-129454174D01*
X142719741Y-129836368D01*
X142883193Y-130203488D01*
X143084125Y-130551512D01*
X143320334Y-130876625D01*
X143503466Y-131080015D01*
X146122981Y-128460500D01*
X143503466Y-125840985D01*
X143320334Y-126044375D01*
X143084125Y-126369488D01*
X142883193Y-126717512D01*
X142719741Y-127084632D01*
X142595558Y-127466826D01*
X142512006Y-127859907D01*
X142470001Y-128259569D01*
X86740000Y-128259569D01*
X86740000Y-125659966D01*
X143684485Y-125659966D01*
X146304000Y-128279481D01*
X148923515Y-125659966D01*
X148720125Y-125476834D01*
X148395012Y-125240625D01*
X148046988Y-125039693D01*
X147679868Y-124876241D01*
X147297674Y-124752058D01*
X146904593Y-124668506D01*
X146504931Y-124626501D01*
X146103069Y-124626501D01*
X145703407Y-124668506D01*
X145310326Y-124752058D01*
X144928132Y-124876241D01*
X144561012Y-125039693D01*
X144212988Y-125240625D01*
X143887875Y-125476834D01*
X143684485Y-125659966D01*
X86740000Y-125659966D01*
X86740000Y-74132476D01*
X91345163Y-74132476D01*
X91345163Y-75860088D01*
X91425795Y-76161012D01*
X91573185Y-76336665D01*
X91766814Y-76448456D01*
X91814876Y-76456931D01*
X91695848Y-76575959D01*
X91546909Y-76788665D01*
X91437169Y-77024004D01*
X91369963Y-77274822D01*
X91347332Y-77533500D01*
X91369963Y-77792178D01*
X91437169Y-78042996D01*
X91546909Y-78278334D01*
X91695848Y-78491041D01*
X91879459Y-78674652D01*
X92063473Y-78803500D01*
X91879459Y-78932348D01*
X91695848Y-79115959D01*
X91546909Y-79328665D01*
X91437169Y-79564004D01*
X91369963Y-79814822D01*
X91347332Y-80073500D01*
X91369963Y-80332178D01*
X91437169Y-80582996D01*
X91546909Y-80818334D01*
X91695848Y-81031041D01*
X91879459Y-81214652D01*
X92063473Y-81343500D01*
X91879459Y-81472348D01*
X91695848Y-81655959D01*
X91546909Y-81868665D01*
X91437169Y-82104004D01*
X91369963Y-82354822D01*
X91347332Y-82613500D01*
X91369963Y-82872178D01*
X91437169Y-83122996D01*
X91546909Y-83358334D01*
X91695848Y-83571041D01*
X91879459Y-83754652D01*
X92063473Y-83883500D01*
X91879459Y-84012348D01*
X91695848Y-84195959D01*
X91546909Y-84408665D01*
X91437169Y-84644004D01*
X91369963Y-84894822D01*
X91347332Y-85153500D01*
X91369963Y-85412178D01*
X91437169Y-85662996D01*
X91546909Y-85898334D01*
X91695848Y-86111041D01*
X91879459Y-86294652D01*
X92063473Y-86423500D01*
X91879459Y-86552348D01*
X91695848Y-86735959D01*
X91546909Y-86948665D01*
X91437169Y-87184004D01*
X91369963Y-87434822D01*
X91347332Y-87693500D01*
X91369963Y-87952178D01*
X91437169Y-88202996D01*
X91546909Y-88438334D01*
X91695848Y-88651041D01*
X91879459Y-88834652D01*
X92063473Y-88963500D01*
X91879459Y-89092348D01*
X91695848Y-89275959D01*
X91546909Y-89488665D01*
X91437169Y-89724004D01*
X91369963Y-89974822D01*
X91347332Y-90233500D01*
X91369963Y-90492178D01*
X91437169Y-90742996D01*
X91546909Y-90978334D01*
X91695848Y-91191041D01*
X91879459Y-91374652D01*
X92063473Y-91503500D01*
X91879459Y-91632348D01*
X91695848Y-91815959D01*
X91546909Y-92028665D01*
X91437169Y-92264004D01*
X91369963Y-92514822D01*
X91347332Y-92773500D01*
X91369963Y-93032178D01*
X91437169Y-93282996D01*
X91546909Y-93518334D01*
X91695848Y-93731041D01*
X91879459Y-93914652D01*
X92092166Y-94063591D01*
X92327504Y-94173331D01*
X92578322Y-94240537D01*
X92772212Y-94257500D01*
X92901788Y-94257500D01*
X93095678Y-94240537D01*
X93346496Y-94173331D01*
X93581834Y-94063591D01*
X93794541Y-93914652D01*
X93978152Y-93731041D01*
X94107000Y-93547027D01*
X94235848Y-93731041D01*
X94419459Y-93914652D01*
X94632166Y-94063591D01*
X94867504Y-94173331D01*
X95118322Y-94240537D01*
X95312212Y-94257500D01*
X95441788Y-94257500D01*
X95635678Y-94240537D01*
X95886496Y-94173331D01*
X96121834Y-94063591D01*
X96334541Y-93914652D01*
X96518152Y-93731041D01*
X96521000Y-93726974D01*
X96521000Y-96900026D01*
X96518152Y-96895959D01*
X96334541Y-96712348D01*
X96121834Y-96563409D01*
X95886496Y-96453669D01*
X95635678Y-96386463D01*
X95441788Y-96369500D01*
X95312212Y-96369500D01*
X95118322Y-96386463D01*
X94867504Y-96453669D01*
X94632166Y-96563409D01*
X94419459Y-96712348D01*
X94289966Y-96841841D01*
X94248205Y-96685989D01*
X94100815Y-96510335D01*
X93907186Y-96398544D01*
X93698024Y-96361663D01*
X91970412Y-96361663D01*
X91669489Y-96442295D01*
X91493835Y-96589685D01*
X91382044Y-96783314D01*
X91345163Y-96992476D01*
X91345163Y-98720088D01*
X91425795Y-99021012D01*
X91573185Y-99196665D01*
X91766814Y-99308456D01*
X91814876Y-99316931D01*
X91695848Y-99435959D01*
X91546909Y-99648665D01*
X91437169Y-99884004D01*
X91369963Y-100134822D01*
X91347332Y-100393500D01*
X91369963Y-100652178D01*
X91437169Y-100902996D01*
X91546909Y-101138334D01*
X91695848Y-101351041D01*
X91879459Y-101534652D01*
X92063473Y-101663500D01*
X91879459Y-101792348D01*
X91695848Y-101975959D01*
X91546909Y-102188665D01*
X91437169Y-102424004D01*
X91369963Y-102674822D01*
X91347332Y-102933500D01*
X91369963Y-103192178D01*
X91437169Y-103442996D01*
X91546909Y-103678334D01*
X91695848Y-103891041D01*
X91879459Y-104074652D01*
X92063473Y-104203500D01*
X91879459Y-104332348D01*
X91695848Y-104515959D01*
X91546909Y-104728665D01*
X91437169Y-104964004D01*
X91369963Y-105214822D01*
X91347332Y-105473500D01*
X91369963Y-105732178D01*
X91437169Y-105982996D01*
X91546909Y-106218334D01*
X91695848Y-106431041D01*
X91879459Y-106614652D01*
X92063473Y-106743500D01*
X91879459Y-106872348D01*
X91695848Y-107055959D01*
X91546909Y-107268665D01*
X91437169Y-107504004D01*
X91369963Y-107754822D01*
X91347332Y-108013500D01*
X91369963Y-108272178D01*
X91437169Y-108522996D01*
X91546909Y-108758334D01*
X91695848Y-108971041D01*
X91879459Y-109154652D01*
X92063473Y-109283500D01*
X91879459Y-109412348D01*
X91695848Y-109595959D01*
X91546909Y-109808665D01*
X91437169Y-110044004D01*
X91369963Y-110294822D01*
X91347332Y-110553500D01*
X91369963Y-110812178D01*
X91437169Y-111062996D01*
X91546909Y-111298334D01*
X91695848Y-111511041D01*
X91879459Y-111694652D01*
X92092166Y-111843591D01*
X92327504Y-111953331D01*
X92578322Y-112020537D01*
X92772212Y-112037500D01*
X92901788Y-112037500D01*
X93095678Y-112020537D01*
X93346496Y-111953331D01*
X93581834Y-111843591D01*
X93794541Y-111694652D01*
X93978152Y-111511041D01*
X94107000Y-111327027D01*
X94235848Y-111511041D01*
X94419459Y-111694652D01*
X94632166Y-111843591D01*
X94867504Y-111953331D01*
X95118322Y-112020537D01*
X95312212Y-112037500D01*
X95441788Y-112037500D01*
X95635678Y-112020537D01*
X95886496Y-111953331D01*
X96121834Y-111843591D01*
X96334541Y-111694652D01*
X96518152Y-111511041D01*
X96521000Y-111506974D01*
X96521000Y-123689461D01*
X96520417Y-123784927D01*
X96533493Y-123830678D01*
X96540237Y-123877769D01*
X96558318Y-123917538D01*
X96570322Y-123959539D01*
X96595706Y-123999771D01*
X96615402Y-124043089D01*
X96643920Y-124076184D01*
X96667227Y-124113126D01*
X96702889Y-124144621D01*
X96733946Y-124180664D01*
X96770601Y-124204422D01*
X96803346Y-124233342D01*
X96846416Y-124253564D01*
X96886338Y-124279439D01*
X96928183Y-124291953D01*
X96968088Y-124310689D01*
X97013546Y-124317483D01*
X97060327Y-124331473D01*
X97109168Y-124331772D01*
X97110694Y-124332000D01*
X97146461Y-124332000D01*
X97241926Y-124332583D01*
X97243966Y-124332000D01*
X141723462Y-124332000D01*
X141818927Y-124332583D01*
X141864672Y-124319509D01*
X141911768Y-124312764D01*
X141951533Y-124294684D01*
X141993540Y-124282677D01*
X142033771Y-124257294D01*
X142077089Y-124237598D01*
X142110184Y-124209080D01*
X142147126Y-124185773D01*
X142178621Y-124150111D01*
X142214664Y-124119054D01*
X142238422Y-124082399D01*
X142267342Y-124049654D01*
X142287564Y-124006584D01*
X142313439Y-123966662D01*
X142325953Y-123924817D01*
X142344689Y-123884912D01*
X142351483Y-123839454D01*
X142365473Y-123792673D01*
X142365772Y-123743832D01*
X142366000Y-123742306D01*
X142366000Y-123706539D01*
X142366583Y-123611073D01*
X142366000Y-123609033D01*
X142366000Y-111325599D01*
X142495848Y-111511041D01*
X142679459Y-111694652D01*
X142892166Y-111843591D01*
X143127504Y-111953331D01*
X143378322Y-112020537D01*
X143572212Y-112037500D01*
X143701788Y-112037500D01*
X143895678Y-112020537D01*
X144146496Y-111953331D01*
X144381834Y-111843591D01*
X144594541Y-111694652D01*
X144724034Y-111565159D01*
X144765795Y-111721012D01*
X144913185Y-111896665D01*
X145106814Y-112008456D01*
X145315976Y-112045337D01*
X147043588Y-112045337D01*
X147344512Y-111964705D01*
X147520165Y-111817315D01*
X147631956Y-111623686D01*
X147668837Y-111414524D01*
X147668837Y-109686912D01*
X147588205Y-109385989D01*
X147440815Y-109210335D01*
X147247186Y-109098544D01*
X147199124Y-109090069D01*
X147318152Y-108971041D01*
X147467091Y-108758335D01*
X147576831Y-108522996D01*
X147644037Y-108272178D01*
X147666668Y-108013500D01*
X147644037Y-107754822D01*
X147576831Y-107504004D01*
X147467091Y-107268666D01*
X147318152Y-107055959D01*
X147134541Y-106872348D01*
X146950527Y-106743500D01*
X147134541Y-106614652D01*
X147318152Y-106431041D01*
X147467091Y-106218335D01*
X147576831Y-105982996D01*
X147644037Y-105732178D01*
X147666668Y-105473500D01*
X147644037Y-105214822D01*
X147576831Y-104964004D01*
X147467091Y-104728666D01*
X147318152Y-104515959D01*
X147134541Y-104332348D01*
X146950527Y-104203500D01*
X147134541Y-104074652D01*
X147318152Y-103891041D01*
X147467091Y-103678335D01*
X147576831Y-103442996D01*
X147644037Y-103192178D01*
X147666668Y-102933500D01*
X147644037Y-102674822D01*
X147576831Y-102424004D01*
X147467091Y-102188666D01*
X147318152Y-101975959D01*
X147134541Y-101792348D01*
X146950527Y-101663500D01*
X147134541Y-101534652D01*
X147318152Y-101351041D01*
X147467091Y-101138335D01*
X147576831Y-100902996D01*
X147644037Y-100652178D01*
X147666668Y-100393500D01*
X147644037Y-100134822D01*
X147576831Y-99884004D01*
X147467091Y-99648666D01*
X147318152Y-99435959D01*
X147134541Y-99252348D01*
X146950527Y-99123500D01*
X147134541Y-98994652D01*
X147318152Y-98811041D01*
X147467091Y-98598335D01*
X147576831Y-98362996D01*
X147644037Y-98112178D01*
X147666668Y-97853500D01*
X147644037Y-97594822D01*
X147576831Y-97344004D01*
X147467091Y-97108666D01*
X147318152Y-96895959D01*
X147134541Y-96712348D01*
X146950527Y-96583500D01*
X147134541Y-96454652D01*
X147318152Y-96271041D01*
X147467091Y-96058335D01*
X147576831Y-95822996D01*
X147644037Y-95572178D01*
X147666668Y-95313500D01*
X147644037Y-95054822D01*
X147576831Y-94804004D01*
X147467091Y-94568666D01*
X147318152Y-94355959D01*
X147134541Y-94172348D01*
X146950527Y-94043500D01*
X147134541Y-93914652D01*
X147318152Y-93731041D01*
X147467091Y-93518335D01*
X147576831Y-93282996D01*
X147644037Y-93032178D01*
X147666668Y-92773500D01*
X147644037Y-92514822D01*
X147576831Y-92264004D01*
X147467091Y-92028666D01*
X147318152Y-91815959D01*
X147134541Y-91632348D01*
X146921834Y-91483409D01*
X146686496Y-91373669D01*
X146435678Y-91306463D01*
X146241788Y-91289500D01*
X146112212Y-91289500D01*
X145918322Y-91306463D01*
X145667504Y-91373669D01*
X145432166Y-91483409D01*
X145219459Y-91632348D01*
X145035848Y-91815959D01*
X144907000Y-91999973D01*
X144778152Y-91815959D01*
X144594541Y-91632348D01*
X144381834Y-91483409D01*
X144146496Y-91373669D01*
X143895678Y-91306463D01*
X143701788Y-91289500D01*
X143572212Y-91289500D01*
X143378322Y-91306463D01*
X143127504Y-91373669D01*
X142892166Y-91483409D01*
X142679459Y-91632348D01*
X142495848Y-91815959D01*
X142366000Y-92001400D01*
X142366000Y-89481599D01*
X142495848Y-89667041D01*
X142679459Y-89850652D01*
X142892166Y-89999591D01*
X143127504Y-90109331D01*
X143378322Y-90176537D01*
X143572212Y-90193500D01*
X143701788Y-90193500D01*
X143895678Y-90176537D01*
X144146496Y-90109331D01*
X144381834Y-89999591D01*
X144594541Y-89850652D01*
X144724034Y-89721159D01*
X144765795Y-89877012D01*
X144913185Y-90052665D01*
X145106814Y-90164456D01*
X145315976Y-90201337D01*
X147043588Y-90201337D01*
X147344512Y-90120705D01*
X147520165Y-89973315D01*
X147631956Y-89779686D01*
X147668837Y-89570524D01*
X147668837Y-87842912D01*
X147588205Y-87541989D01*
X147440815Y-87366335D01*
X147247186Y-87254544D01*
X147199124Y-87246069D01*
X147318152Y-87127041D01*
X147467091Y-86914335D01*
X147576831Y-86678996D01*
X147644037Y-86428178D01*
X147666668Y-86169500D01*
X147644037Y-85910822D01*
X147576831Y-85660004D01*
X147467091Y-85424666D01*
X147318152Y-85211959D01*
X147134541Y-85028348D01*
X146950527Y-84899500D01*
X147134541Y-84770652D01*
X147318152Y-84587041D01*
X147467091Y-84374335D01*
X147576831Y-84138996D01*
X147644037Y-83888178D01*
X147666668Y-83629500D01*
X147644037Y-83370822D01*
X147576831Y-83120004D01*
X147467091Y-82884666D01*
X147318152Y-82671959D01*
X147134541Y-82488348D01*
X146950527Y-82359500D01*
X147134541Y-82230652D01*
X147318152Y-82047041D01*
X147467091Y-81834335D01*
X147576831Y-81598996D01*
X147644037Y-81348178D01*
X147666668Y-81089500D01*
X147644037Y-80830822D01*
X147576831Y-80580004D01*
X147467091Y-80344666D01*
X147318152Y-80131959D01*
X147134541Y-79948348D01*
X146950527Y-79819500D01*
X147134541Y-79690652D01*
X147318152Y-79507041D01*
X147467091Y-79294335D01*
X147576831Y-79058996D01*
X147644037Y-78808178D01*
X147666668Y-78549500D01*
X147644037Y-78290822D01*
X147576831Y-78040004D01*
X147467091Y-77804666D01*
X147318152Y-77591959D01*
X147134541Y-77408348D01*
X146950527Y-77279500D01*
X147134541Y-77150652D01*
X147318152Y-76967041D01*
X147467091Y-76754335D01*
X147576831Y-76518996D01*
X147644037Y-76268178D01*
X147666668Y-76009500D01*
X147644037Y-75750822D01*
X147576831Y-75500004D01*
X147467091Y-75264666D01*
X147318152Y-75051959D01*
X147134541Y-74868348D01*
X146950527Y-74739500D01*
X147134541Y-74610652D01*
X147318152Y-74427041D01*
X147467091Y-74214335D01*
X147576831Y-73978996D01*
X147644037Y-73728178D01*
X147666668Y-73469500D01*
X147644037Y-73210822D01*
X147576831Y-72960004D01*
X147467091Y-72724666D01*
X147318152Y-72511959D01*
X147134541Y-72328348D01*
X146950527Y-72199500D01*
X147134541Y-72070652D01*
X147318152Y-71887041D01*
X147467091Y-71674335D01*
X147576831Y-71438996D01*
X147644037Y-71188178D01*
X147666668Y-70929500D01*
X147644037Y-70670822D01*
X147576831Y-70420004D01*
X147467091Y-70184666D01*
X147318152Y-69971959D01*
X147134541Y-69788348D01*
X146950527Y-69659500D01*
X147134541Y-69530652D01*
X147318152Y-69347041D01*
X147467091Y-69134335D01*
X147576831Y-68898996D01*
X147679053Y-68517500D01*
X146049000Y-68517500D01*
X146049000Y-68261500D01*
X147679053Y-68261500D01*
X147576831Y-67880004D01*
X147467091Y-67644666D01*
X147318152Y-67431959D01*
X147134541Y-67248348D01*
X146950527Y-67119500D01*
X147134541Y-66990652D01*
X147318152Y-66807041D01*
X147467091Y-66594335D01*
X147576831Y-66358996D01*
X147644037Y-66108178D01*
X147666668Y-65849500D01*
X147644037Y-65590822D01*
X147576831Y-65340004D01*
X147467091Y-65104666D01*
X147318152Y-64891959D01*
X147134541Y-64708348D01*
X146921834Y-64559409D01*
X146686496Y-64449669D01*
X146435678Y-64382463D01*
X146241788Y-64365500D01*
X146112212Y-64365500D01*
X145918322Y-64382463D01*
X145667504Y-64449669D01*
X145432166Y-64559409D01*
X145219459Y-64708348D01*
X145035848Y-64891959D01*
X144907000Y-65075973D01*
X144778152Y-64891959D01*
X144594541Y-64708348D01*
X144381834Y-64559409D01*
X144146496Y-64449669D01*
X143895678Y-64382463D01*
X143701788Y-64365500D01*
X143572212Y-64365500D01*
X143378322Y-64382463D01*
X143127504Y-64449669D01*
X142892166Y-64559409D01*
X142679459Y-64708348D01*
X142495848Y-64891959D01*
X142366000Y-65077400D01*
X142366000Y-55380539D01*
X142366583Y-55285073D01*
X142353509Y-55239328D01*
X142346764Y-55192232D01*
X142328684Y-55152467D01*
X142316677Y-55110460D01*
X142291294Y-55070229D01*
X142271598Y-55026911D01*
X142243080Y-54993816D01*
X142219773Y-54956874D01*
X142184111Y-54925378D01*
X142153053Y-54889335D01*
X142116399Y-54865578D01*
X142083654Y-54836658D01*
X142040578Y-54816434D01*
X142000661Y-54790561D01*
X141958818Y-54778048D01*
X141918911Y-54759311D01*
X141873455Y-54752518D01*
X141826672Y-54738527D01*
X141777832Y-54738228D01*
X141776306Y-54738000D01*
X141740538Y-54738000D01*
X141645073Y-54737417D01*
X141643033Y-54738000D01*
X97163539Y-54738000D01*
X97068075Y-54737417D01*
X97022322Y-54750492D01*
X96975230Y-54757237D01*
X96935459Y-54775319D01*
X96893462Y-54787322D01*
X96853231Y-54812706D01*
X96809912Y-54832402D01*
X96776817Y-54860919D01*
X96739875Y-54884228D01*
X96708383Y-54919886D01*
X96672336Y-54950946D01*
X96648576Y-54987604D01*
X96619659Y-55020346D01*
X96599440Y-55063411D01*
X96573561Y-55103338D01*
X96561043Y-55145194D01*
X96542312Y-55185089D01*
X96535519Y-55230540D01*
X96521527Y-55277327D01*
X96521228Y-55326173D01*
X96521001Y-55327692D01*
X96521001Y-55363299D01*
X96520417Y-55458932D01*
X96521001Y-55460975D01*
X96521001Y-74040028D01*
X96518152Y-74035959D01*
X96334541Y-73852348D01*
X96121834Y-73703409D01*
X95886496Y-73593669D01*
X95635678Y-73526463D01*
X95441788Y-73509500D01*
X95312212Y-73509500D01*
X95118322Y-73526463D01*
X94867504Y-73593669D01*
X94632166Y-73703409D01*
X94419459Y-73852348D01*
X94289966Y-73981841D01*
X94248205Y-73825989D01*
X94100815Y-73650335D01*
X93907186Y-73538544D01*
X93698024Y-73501663D01*
X91970412Y-73501663D01*
X91669489Y-73582295D01*
X91493835Y-73729685D01*
X91382044Y-73923314D01*
X91345163Y-74132476D01*
X86740000Y-74132476D01*
X86740000Y-53410034D01*
X143684485Y-53410034D01*
X143887875Y-53593166D01*
X144212988Y-53829375D01*
X144561012Y-54030307D01*
X144928132Y-54193759D01*
X145310326Y-54317942D01*
X145703407Y-54401494D01*
X146103069Y-54443499D01*
X146504931Y-54443499D01*
X146904593Y-54401494D01*
X147297674Y-54317942D01*
X147679868Y-54193759D01*
X148046988Y-54030307D01*
X148395012Y-53829375D01*
X148720125Y-53593166D01*
X148923515Y-53410034D01*
X146304000Y-50790519D01*
X143684485Y-53410034D01*
X86740000Y-53410034D01*
X86740000Y-50408569D01*
X142470001Y-50408569D01*
X142470001Y-50810431D01*
X142512006Y-51210093D01*
X142595558Y-51603174D01*
X142719741Y-51985368D01*
X142883193Y-52352488D01*
X143084125Y-52700512D01*
X143320334Y-53025625D01*
X143503466Y-53229015D01*
X146122981Y-50609500D01*
X143503466Y-47989985D01*
X143320334Y-48193375D01*
X143084125Y-48518488D01*
X142883193Y-48866512D01*
X142719741Y-49233632D01*
X142595558Y-49615826D01*
X142512006Y-50008907D01*
X142470001Y-50408569D01*
X86740000Y-50408569D01*
X86740000Y-47485680D01*
X86740196Y-47484930D01*
X86741913Y-47469005D01*
X86756143Y-47328917D01*
X86778715Y-47256887D01*
X86815310Y-47190868D01*
X86864437Y-47133551D01*
X86924081Y-47087286D01*
X86991815Y-47053957D01*
X87072487Y-47032944D01*
X87179991Y-47024671D01*
X87191898Y-47022020D01*
X144938045Y-47022020D01*
X144928132Y-47025241D01*
X144928132Y-47025241D01*
G37*
X144928132Y-47025241D02*
X144561012Y-47188693D01*
X144212988Y-47389625D01*
X143887875Y-47625834D01*
X143684485Y-47808966D01*
X146304000Y-50428481D01*
X148923515Y-47808966D01*
X148720125Y-47625834D01*
X148395012Y-47389625D01*
X148046988Y-47188693D01*
X147679868Y-47025241D01*
X147669955Y-47022020D01*
X149417660Y-47022020D01*
X149418410Y-47022216D01*
X149434335Y-47023933D01*
X149574423Y-47038163D01*
X149646453Y-47060735D01*
X149712472Y-47097330D01*
X149769789Y-47146457D01*
X149816054Y-47206101D01*
X149849383Y-47273835D01*
X149870396Y-47354507D01*
X149878669Y-47462011D01*
X149881321Y-47473923D01*
X149881321Y-49218049D01*
X149724807Y-48866512D01*
X149523875Y-48518488D01*
X149287666Y-48193375D01*
X149104534Y-47989985D01*
X146485019Y-50609500D01*
X149104534Y-53229015D01*
X149287666Y-53025625D01*
X149523875Y-52700512D01*
X149724807Y-52352488D01*
X149881321Y-52000951D01*
X149881320Y-127069047D01*
X149724807Y-126717512D01*
X149523875Y-126369488D01*
X149287666Y-126044375D01*
X149104534Y-125840985D01*
X146485019Y-128460500D01*
X149104534Y-131080015D01*
X149287666Y-130876625D01*
X149523875Y-130551512D01*
X149724807Y-130203488D01*
X149881320Y-129851953D01*
X149881320Y-131574161D01*
X149881124Y-131574911D01*
X149879407Y-131590836D01*
X149865177Y-131730923D01*
X149842605Y-131802950D01*
X149806009Y-131868973D01*
X149756879Y-131926293D01*
X149697242Y-131972552D01*
X149629505Y-132005883D01*
X149548834Y-132026896D01*
X149441329Y-132035169D01*
X149429422Y-132037820D01*
X147695453Y-132037820D01*
X148046988Y-131881307D01*
X148395012Y-131680375D01*
X148720125Y-131444166D01*
X148923515Y-131261034D01*
X146304000Y-128641519D01*
X143684485Y-131261034D01*
X143887875Y-131444166D01*
X144212988Y-131680375D01*
X144561012Y-131881307D01*
X144912547Y-132037820D01*
X87203659Y-132037820D01*
X87202909Y-132037624D01*
X87186984Y-132035907D01*
X87046897Y-132021677D01*
X86974870Y-131999105D01*
X86908847Y-131962509D01*
X86851527Y-131913379D01*
X86805268Y-131853742D01*
X86771937Y-131786005D01*
X86750924Y-131705334D01*
X86742651Y-131597829D01*
X86740000Y-131585922D01*
X86740000Y-128259569D01*
X142470001Y-128259569D01*
X142470001Y-128661431D01*
X142512006Y-129061093D01*
X142595558Y-129454174D01*
X142719741Y-129836368D01*
X142883193Y-130203488D01*
X143084125Y-130551512D01*
X143320334Y-130876625D01*
X143503466Y-131080015D01*
X146122981Y-128460500D01*
X143503466Y-125840985D01*
X143320334Y-126044375D01*
X143084125Y-126369488D01*
X142883193Y-126717512D01*
X142719741Y-127084632D01*
X142595558Y-127466826D01*
X142512006Y-127859907D01*
X142470001Y-128259569D01*
X86740000Y-128259569D01*
X86740000Y-125659966D01*
X143684485Y-125659966D01*
X146304000Y-128279481D01*
X148923515Y-125659966D01*
X148720125Y-125476834D01*
X148395012Y-125240625D01*
X148046988Y-125039693D01*
X147679868Y-124876241D01*
X147297674Y-124752058D01*
X146904593Y-124668506D01*
X146504931Y-124626501D01*
X146103069Y-124626501D01*
X145703407Y-124668506D01*
X145310326Y-124752058D01*
X144928132Y-124876241D01*
X144561012Y-125039693D01*
X144212988Y-125240625D01*
X143887875Y-125476834D01*
X143684485Y-125659966D01*
X86740000Y-125659966D01*
X86740000Y-74132476D01*
X91345163Y-74132476D01*
X91345163Y-75860088D01*
X91425795Y-76161012D01*
X91573185Y-76336665D01*
X91766814Y-76448456D01*
X91814876Y-76456931D01*
X91695848Y-76575959D01*
X91546909Y-76788665D01*
X91437169Y-77024004D01*
X91369963Y-77274822D01*
X91347332Y-77533500D01*
X91369963Y-77792178D01*
X91437169Y-78042996D01*
X91546909Y-78278334D01*
X91695848Y-78491041D01*
X91879459Y-78674652D01*
X92063473Y-78803500D01*
X91879459Y-78932348D01*
X91695848Y-79115959D01*
X91546909Y-79328665D01*
X91437169Y-79564004D01*
X91369963Y-79814822D01*
X91347332Y-80073500D01*
X91369963Y-80332178D01*
X91437169Y-80582996D01*
X91546909Y-80818334D01*
X91695848Y-81031041D01*
X91879459Y-81214652D01*
X92063473Y-81343500D01*
X91879459Y-81472348D01*
X91695848Y-81655959D01*
X91546909Y-81868665D01*
X91437169Y-82104004D01*
X91369963Y-82354822D01*
X91347332Y-82613500D01*
X91369963Y-82872178D01*
X91437169Y-83122996D01*
X91546909Y-83358334D01*
X91695848Y-83571041D01*
X91879459Y-83754652D01*
X92063473Y-83883500D01*
X91879459Y-84012348D01*
X91695848Y-84195959D01*
X91546909Y-84408665D01*
X91437169Y-84644004D01*
X91369963Y-84894822D01*
X91347332Y-85153500D01*
X91369963Y-85412178D01*
X91437169Y-85662996D01*
X91546909Y-85898334D01*
X91695848Y-86111041D01*
X91879459Y-86294652D01*
X92063473Y-86423500D01*
X91879459Y-86552348D01*
X91695848Y-86735959D01*
X91546909Y-86948665D01*
X91437169Y-87184004D01*
X91369963Y-87434822D01*
X91347332Y-87693500D01*
X91369963Y-87952178D01*
X91437169Y-88202996D01*
X91546909Y-88438334D01*
X91695848Y-88651041D01*
X91879459Y-88834652D01*
X92063473Y-88963500D01*
X91879459Y-89092348D01*
X91695848Y-89275959D01*
X91546909Y-89488665D01*
X91437169Y-89724004D01*
X91369963Y-89974822D01*
X91347332Y-90233500D01*
X91369963Y-90492178D01*
X91437169Y-90742996D01*
X91546909Y-90978334D01*
X91695848Y-91191041D01*
X91879459Y-91374652D01*
X92063473Y-91503500D01*
X91879459Y-91632348D01*
X91695848Y-91815959D01*
X91546909Y-92028665D01*
X91437169Y-92264004D01*
X91369963Y-92514822D01*
X91347332Y-92773500D01*
X91369963Y-93032178D01*
X91437169Y-93282996D01*
X91546909Y-93518334D01*
X91695848Y-93731041D01*
X91879459Y-93914652D01*
X92092166Y-94063591D01*
X92327504Y-94173331D01*
X92578322Y-94240537D01*
X92772212Y-94257500D01*
X92901788Y-94257500D01*
X93095678Y-94240537D01*
X93346496Y-94173331D01*
X93581834Y-94063591D01*
X93794541Y-93914652D01*
X93978152Y-93731041D01*
X94107000Y-93547027D01*
X94235848Y-93731041D01*
X94419459Y-93914652D01*
X94632166Y-94063591D01*
X94867504Y-94173331D01*
X95118322Y-94240537D01*
X95312212Y-94257500D01*
X95441788Y-94257500D01*
X95635678Y-94240537D01*
X95886496Y-94173331D01*
X96121834Y-94063591D01*
X96334541Y-93914652D01*
X96518152Y-93731041D01*
X96521000Y-93726974D01*
X96521000Y-96900026D01*
X96518152Y-96895959D01*
X96334541Y-96712348D01*
X96121834Y-96563409D01*
X95886496Y-96453669D01*
X95635678Y-96386463D01*
X95441788Y-96369500D01*
X95312212Y-96369500D01*
X95118322Y-96386463D01*
X94867504Y-96453669D01*
X94632166Y-96563409D01*
X94419459Y-96712348D01*
X94289966Y-96841841D01*
X94248205Y-96685989D01*
X94100815Y-96510335D01*
X93907186Y-96398544D01*
X93698024Y-96361663D01*
X91970412Y-96361663D01*
X91669489Y-96442295D01*
X91493835Y-96589685D01*
X91382044Y-96783314D01*
X91345163Y-96992476D01*
X91345163Y-98720088D01*
X91425795Y-99021012D01*
X91573185Y-99196665D01*
X91766814Y-99308456D01*
X91814876Y-99316931D01*
X91695848Y-99435959D01*
X91546909Y-99648665D01*
X91437169Y-99884004D01*
X91369963Y-100134822D01*
X91347332Y-100393500D01*
X91369963Y-100652178D01*
X91437169Y-100902996D01*
X91546909Y-101138334D01*
X91695848Y-101351041D01*
X91879459Y-101534652D01*
X92063473Y-101663500D01*
X91879459Y-101792348D01*
X91695848Y-101975959D01*
X91546909Y-102188665D01*
X91437169Y-102424004D01*
X91369963Y-102674822D01*
X91347332Y-102933500D01*
X91369963Y-103192178D01*
X91437169Y-103442996D01*
X91546909Y-103678334D01*
X91695848Y-103891041D01*
X91879459Y-104074652D01*
X92063473Y-104203500D01*
X91879459Y-104332348D01*
X91695848Y-104515959D01*
X91546909Y-104728665D01*
X91437169Y-104964004D01*
X91369963Y-105214822D01*
X91347332Y-105473500D01*
X91369963Y-105732178D01*
X91437169Y-105982996D01*
X91546909Y-106218334D01*
X91695848Y-106431041D01*
X91879459Y-106614652D01*
X92063473Y-106743500D01*
X91879459Y-106872348D01*
X91695848Y-107055959D01*
X91546909Y-107268665D01*
X91437169Y-107504004D01*
X91369963Y-107754822D01*
X91347332Y-108013500D01*
X91369963Y-108272178D01*
X91437169Y-108522996D01*
X91546909Y-108758334D01*
X91695848Y-108971041D01*
X91879459Y-109154652D01*
X92063473Y-109283500D01*
X91879459Y-109412348D01*
X91695848Y-109595959D01*
X91546909Y-109808665D01*
X91437169Y-110044004D01*
X91369963Y-110294822D01*
X91347332Y-110553500D01*
X91369963Y-110812178D01*
X91437169Y-111062996D01*
X91546909Y-111298334D01*
X91695848Y-111511041D01*
X91879459Y-111694652D01*
X92092166Y-111843591D01*
X92327504Y-111953331D01*
X92578322Y-112020537D01*
X92772212Y-112037500D01*
X92901788Y-112037500D01*
X93095678Y-112020537D01*
X93346496Y-111953331D01*
X93581834Y-111843591D01*
X93794541Y-111694652D01*
X93978152Y-111511041D01*
X94107000Y-111327027D01*
X94235848Y-111511041D01*
X94419459Y-111694652D01*
X94632166Y-111843591D01*
X94867504Y-111953331D01*
X95118322Y-112020537D01*
X95312212Y-112037500D01*
X95441788Y-112037500D01*
X95635678Y-112020537D01*
X95886496Y-111953331D01*
X96121834Y-111843591D01*
X96334541Y-111694652D01*
X96518152Y-111511041D01*
X96521000Y-111506974D01*
X96521000Y-123689461D01*
X96520417Y-123784927D01*
X96533493Y-123830678D01*
X96540237Y-123877769D01*
X96558318Y-123917538D01*
X96570322Y-123959539D01*
X96595706Y-123999771D01*
X96615402Y-124043089D01*
X96643920Y-124076184D01*
X96667227Y-124113126D01*
X96702889Y-124144621D01*
X96733946Y-124180664D01*
X96770601Y-124204422D01*
X96803346Y-124233342D01*
X96846416Y-124253564D01*
X96886338Y-124279439D01*
X96928183Y-124291953D01*
X96968088Y-124310689D01*
X97013546Y-124317483D01*
X97060327Y-124331473D01*
X97109168Y-124331772D01*
X97110694Y-124332000D01*
X97146461Y-124332000D01*
X97241926Y-124332583D01*
X97243966Y-124332000D01*
X141723462Y-124332000D01*
X141818927Y-124332583D01*
X141864672Y-124319509D01*
X141911768Y-124312764D01*
X141951533Y-124294684D01*
X141993540Y-124282677D01*
X142033771Y-124257294D01*
X142077089Y-124237598D01*
X142110184Y-124209080D01*
X142147126Y-124185773D01*
X142178621Y-124150111D01*
X142214664Y-124119054D01*
X142238422Y-124082399D01*
X142267342Y-124049654D01*
X142287564Y-124006584D01*
X142313439Y-123966662D01*
X142325953Y-123924817D01*
X142344689Y-123884912D01*
X142351483Y-123839454D01*
X142365473Y-123792673D01*
X142365772Y-123743832D01*
X142366000Y-123742306D01*
X142366000Y-123706539D01*
X142366583Y-123611073D01*
X142366000Y-123609033D01*
X142366000Y-111325599D01*
X142495848Y-111511041D01*
X142679459Y-111694652D01*
X142892166Y-111843591D01*
X143127504Y-111953331D01*
X143378322Y-112020537D01*
X143572212Y-112037500D01*
X143701788Y-112037500D01*
X143895678Y-112020537D01*
X144146496Y-111953331D01*
X144381834Y-111843591D01*
X144594541Y-111694652D01*
X144724034Y-111565159D01*
X144765795Y-111721012D01*
X144913185Y-111896665D01*
X145106814Y-112008456D01*
X145315976Y-112045337D01*
X147043588Y-112045337D01*
X147344512Y-111964705D01*
X147520165Y-111817315D01*
X147631956Y-111623686D01*
X147668837Y-111414524D01*
X147668837Y-109686912D01*
X147588205Y-109385989D01*
X147440815Y-109210335D01*
X147247186Y-109098544D01*
X147199124Y-109090069D01*
X147318152Y-108971041D01*
X147467091Y-108758335D01*
X147576831Y-108522996D01*
X147644037Y-108272178D01*
X147666668Y-108013500D01*
X147644037Y-107754822D01*
X147576831Y-107504004D01*
X147467091Y-107268666D01*
X147318152Y-107055959D01*
X147134541Y-106872348D01*
X146950527Y-106743500D01*
X147134541Y-106614652D01*
X147318152Y-106431041D01*
X147467091Y-106218335D01*
X147576831Y-105982996D01*
X147644037Y-105732178D01*
X147666668Y-105473500D01*
X147644037Y-105214822D01*
X147576831Y-104964004D01*
X147467091Y-104728666D01*
X147318152Y-104515959D01*
X147134541Y-104332348D01*
X146950527Y-104203500D01*
X147134541Y-104074652D01*
X147318152Y-103891041D01*
X147467091Y-103678335D01*
X147576831Y-103442996D01*
X147644037Y-103192178D01*
X147666668Y-102933500D01*
X147644037Y-102674822D01*
X147576831Y-102424004D01*
X147467091Y-102188666D01*
X147318152Y-101975959D01*
X147134541Y-101792348D01*
X146950527Y-101663500D01*
X147134541Y-101534652D01*
X147318152Y-101351041D01*
X147467091Y-101138335D01*
X147576831Y-100902996D01*
X147644037Y-100652178D01*
X147666668Y-100393500D01*
X147644037Y-100134822D01*
X147576831Y-99884004D01*
X147467091Y-99648666D01*
X147318152Y-99435959D01*
X147134541Y-99252348D01*
X146950527Y-99123500D01*
X147134541Y-98994652D01*
X147318152Y-98811041D01*
X147467091Y-98598335D01*
X147576831Y-98362996D01*
X147644037Y-98112178D01*
X147666668Y-97853500D01*
X147644037Y-97594822D01*
X147576831Y-97344004D01*
X147467091Y-97108666D01*
X147318152Y-96895959D01*
X147134541Y-96712348D01*
X146950527Y-96583500D01*
X147134541Y-96454652D01*
X147318152Y-96271041D01*
X147467091Y-96058335D01*
X147576831Y-95822996D01*
X147644037Y-95572178D01*
X147666668Y-95313500D01*
X147644037Y-95054822D01*
X147576831Y-94804004D01*
X147467091Y-94568666D01*
X147318152Y-94355959D01*
X147134541Y-94172348D01*
X146950527Y-94043500D01*
X147134541Y-93914652D01*
X147318152Y-93731041D01*
X147467091Y-93518335D01*
X147576831Y-93282996D01*
X147644037Y-93032178D01*
X147666668Y-92773500D01*
X147644037Y-92514822D01*
X147576831Y-92264004D01*
X147467091Y-92028666D01*
X147318152Y-91815959D01*
X147134541Y-91632348D01*
X146921834Y-91483409D01*
X146686496Y-91373669D01*
X146435678Y-91306463D01*
X146241788Y-91289500D01*
X146112212Y-91289500D01*
X145918322Y-91306463D01*
X145667504Y-91373669D01*
X145432166Y-91483409D01*
X145219459Y-91632348D01*
X145035848Y-91815959D01*
X144907000Y-91999973D01*
X144778152Y-91815959D01*
X144594541Y-91632348D01*
X144381834Y-91483409D01*
X144146496Y-91373669D01*
X143895678Y-91306463D01*
X143701788Y-91289500D01*
X143572212Y-91289500D01*
X143378322Y-91306463D01*
X143127504Y-91373669D01*
X142892166Y-91483409D01*
X142679459Y-91632348D01*
X142495848Y-91815959D01*
X142366000Y-92001400D01*
X142366000Y-89481599D01*
X142495848Y-89667041D01*
X142679459Y-89850652D01*
X142892166Y-89999591D01*
X143127504Y-90109331D01*
X143378322Y-90176537D01*
X143572212Y-90193500D01*
X143701788Y-90193500D01*
X143895678Y-90176537D01*
X144146496Y-90109331D01*
X144381834Y-89999591D01*
X144594541Y-89850652D01*
X144724034Y-89721159D01*
X144765795Y-89877012D01*
X144913185Y-90052665D01*
X145106814Y-90164456D01*
X145315976Y-90201337D01*
X147043588Y-90201337D01*
X147344512Y-90120705D01*
X147520165Y-89973315D01*
X147631956Y-89779686D01*
X147668837Y-89570524D01*
X147668837Y-87842912D01*
X147588205Y-87541989D01*
X147440815Y-87366335D01*
X147247186Y-87254544D01*
X147199124Y-87246069D01*
X147318152Y-87127041D01*
X147467091Y-86914335D01*
X147576831Y-86678996D01*
X147644037Y-86428178D01*
X147666668Y-86169500D01*
X147644037Y-85910822D01*
X147576831Y-85660004D01*
X147467091Y-85424666D01*
X147318152Y-85211959D01*
X147134541Y-85028348D01*
X146950527Y-84899500D01*
X147134541Y-84770652D01*
X147318152Y-84587041D01*
X147467091Y-84374335D01*
X147576831Y-84138996D01*
X147644037Y-83888178D01*
X147666668Y-83629500D01*
X147644037Y-83370822D01*
X147576831Y-83120004D01*
X147467091Y-82884666D01*
X147318152Y-82671959D01*
X147134541Y-82488348D01*
X146950527Y-82359500D01*
X147134541Y-82230652D01*
X147318152Y-82047041D01*
X147467091Y-81834335D01*
X147576831Y-81598996D01*
X147644037Y-81348178D01*
X147666668Y-81089500D01*
X147644037Y-80830822D01*
X147576831Y-80580004D01*
X147467091Y-80344666D01*
X147318152Y-80131959D01*
X147134541Y-79948348D01*
X146950527Y-79819500D01*
X147134541Y-79690652D01*
X147318152Y-79507041D01*
X147467091Y-79294335D01*
X147576831Y-79058996D01*
X147644037Y-78808178D01*
X147666668Y-78549500D01*
X147644037Y-78290822D01*
X147576831Y-78040004D01*
X147467091Y-77804666D01*
X147318152Y-77591959D01*
X147134541Y-77408348D01*
X146950527Y-77279500D01*
X147134541Y-77150652D01*
X147318152Y-76967041D01*
X147467091Y-76754335D01*
X147576831Y-76518996D01*
X147644037Y-76268178D01*
X147666668Y-76009500D01*
X147644037Y-75750822D01*
X147576831Y-75500004D01*
X147467091Y-75264666D01*
X147318152Y-75051959D01*
X147134541Y-74868348D01*
X146950527Y-74739500D01*
X147134541Y-74610652D01*
X147318152Y-74427041D01*
X147467091Y-74214335D01*
X147576831Y-73978996D01*
X147644037Y-73728178D01*
X147666668Y-73469500D01*
X147644037Y-73210822D01*
X147576831Y-72960004D01*
X147467091Y-72724666D01*
X147318152Y-72511959D01*
X147134541Y-72328348D01*
X146950527Y-72199500D01*
X147134541Y-72070652D01*
X147318152Y-71887041D01*
X147467091Y-71674335D01*
X147576831Y-71438996D01*
X147644037Y-71188178D01*
X147666668Y-70929500D01*
X147644037Y-70670822D01*
X147576831Y-70420004D01*
X147467091Y-70184666D01*
X147318152Y-69971959D01*
X147134541Y-69788348D01*
X146950527Y-69659500D01*
X147134541Y-69530652D01*
X147318152Y-69347041D01*
X147467091Y-69134335D01*
X147576831Y-68898996D01*
X147679053Y-68517500D01*
X146049000Y-68517500D01*
X146049000Y-68261500D01*
X147679053Y-68261500D01*
X147576831Y-67880004D01*
X147467091Y-67644666D01*
X147318152Y-67431959D01*
X147134541Y-67248348D01*
X146950527Y-67119500D01*
X147134541Y-66990652D01*
X147318152Y-66807041D01*
X147467091Y-66594335D01*
X147576831Y-66358996D01*
X147644037Y-66108178D01*
X147666668Y-65849500D01*
X147644037Y-65590822D01*
X147576831Y-65340004D01*
X147467091Y-65104666D01*
X147318152Y-64891959D01*
X147134541Y-64708348D01*
X146921834Y-64559409D01*
X146686496Y-64449669D01*
X146435678Y-64382463D01*
X146241788Y-64365500D01*
X146112212Y-64365500D01*
X145918322Y-64382463D01*
X145667504Y-64449669D01*
X145432166Y-64559409D01*
X145219459Y-64708348D01*
X145035848Y-64891959D01*
X144907000Y-65075973D01*
X144778152Y-64891959D01*
X144594541Y-64708348D01*
X144381834Y-64559409D01*
X144146496Y-64449669D01*
X143895678Y-64382463D01*
X143701788Y-64365500D01*
X143572212Y-64365500D01*
X143378322Y-64382463D01*
X143127504Y-64449669D01*
X142892166Y-64559409D01*
X142679459Y-64708348D01*
X142495848Y-64891959D01*
X142366000Y-65077400D01*
X142366000Y-55380539D01*
X142366583Y-55285073D01*
X142353509Y-55239328D01*
X142346764Y-55192232D01*
X142328684Y-55152467D01*
X142316677Y-55110460D01*
X142291294Y-55070229D01*
X142271598Y-55026911D01*
X142243080Y-54993816D01*
X142219773Y-54956874D01*
X142184111Y-54925378D01*
X142153053Y-54889335D01*
X142116399Y-54865578D01*
X142083654Y-54836658D01*
X142040578Y-54816434D01*
X142000661Y-54790561D01*
X141958818Y-54778048D01*
X141918911Y-54759311D01*
X141873455Y-54752518D01*
X141826672Y-54738527D01*
X141777832Y-54738228D01*
X141776306Y-54738000D01*
X141740538Y-54738000D01*
X141645073Y-54737417D01*
X141643033Y-54738000D01*
X97163539Y-54738000D01*
X97068075Y-54737417D01*
X97022322Y-54750492D01*
X96975230Y-54757237D01*
X96935459Y-54775319D01*
X96893462Y-54787322D01*
X96853231Y-54812706D01*
X96809912Y-54832402D01*
X96776817Y-54860919D01*
X96739875Y-54884228D01*
X96708383Y-54919886D01*
X96672336Y-54950946D01*
X96648576Y-54987604D01*
X96619659Y-55020346D01*
X96599440Y-55063411D01*
X96573561Y-55103338D01*
X96561043Y-55145194D01*
X96542312Y-55185089D01*
X96535519Y-55230540D01*
X96521527Y-55277327D01*
X96521228Y-55326173D01*
X96521001Y-55327692D01*
X96521001Y-55363299D01*
X96520417Y-55458932D01*
X96521001Y-55460975D01*
X96521001Y-74040028D01*
X96518152Y-74035959D01*
X96334541Y-73852348D01*
X96121834Y-73703409D01*
X95886496Y-73593669D01*
X95635678Y-73526463D01*
X95441788Y-73509500D01*
X95312212Y-73509500D01*
X95118322Y-73526463D01*
X94867504Y-73593669D01*
X94632166Y-73703409D01*
X94419459Y-73852348D01*
X94289966Y-73981841D01*
X94248205Y-73825989D01*
X94100815Y-73650335D01*
X93907186Y-73538544D01*
X93698024Y-73501663D01*
X91970412Y-73501663D01*
X91669489Y-73582295D01*
X91493835Y-73729685D01*
X91382044Y-73923314D01*
X91345163Y-74132476D01*
X86740000Y-74132476D01*
X86740000Y-53410034D01*
X143684485Y-53410034D01*
X143887875Y-53593166D01*
X144212988Y-53829375D01*
X144561012Y-54030307D01*
X144928132Y-54193759D01*
X145310326Y-54317942D01*
X145703407Y-54401494D01*
X146103069Y-54443499D01*
X146504931Y-54443499D01*
X146904593Y-54401494D01*
X147297674Y-54317942D01*
X147679868Y-54193759D01*
X148046988Y-54030307D01*
X148395012Y-53829375D01*
X148720125Y-53593166D01*
X148923515Y-53410034D01*
X146304000Y-50790519D01*
X143684485Y-53410034D01*
X86740000Y-53410034D01*
X86740000Y-50408569D01*
X142470001Y-50408569D01*
X142470001Y-50810431D01*
X142512006Y-51210093D01*
X142595558Y-51603174D01*
X142719741Y-51985368D01*
X142883193Y-52352488D01*
X143084125Y-52700512D01*
X143320334Y-53025625D01*
X143503466Y-53229015D01*
X146122981Y-50609500D01*
X143503466Y-47989985D01*
X143320334Y-48193375D01*
X143084125Y-48518488D01*
X142883193Y-48866512D01*
X142719741Y-49233632D01*
X142595558Y-49615826D01*
X142512006Y-50008907D01*
X142470001Y-50408569D01*
X86740000Y-50408569D01*
X86740000Y-47485680D01*
X86740196Y-47484930D01*
X86741913Y-47469005D01*
X86756143Y-47328917D01*
X86778715Y-47256887D01*
X86815310Y-47190868D01*
X86864437Y-47133551D01*
X86924081Y-47087286D01*
X86991815Y-47053957D01*
X87072487Y-47032944D01*
X87179991Y-47024671D01*
X87191898Y-47022020D01*
X144938045Y-47022020D01*
X144928132Y-47025241D01*
M02*
