M48
; DRILL file {KiCad (5.99.0-73-g24ea8f970)} date Thu 05 Sep 2019 05:19:19 PM EDT
; FORMAT={-:-/ absolute / inch / decimal}
; #@! TF.CreationDate,2019-09-05T17:19:19-04:00
; #@! TF.GenerationSoftware,Kicad,Pcbnew,(5.99.0-73-g24ea8f970)
; #@! TF.FileFunction,Plated,1,2,PTH
FMAT,2
INCH
T1C0.0197
T2C0.0394
T3C0.1260
%
G90
G05
T1
X5.6655Y-5.0575
X5.6932Y-4.9907
X5.6932Y-5.1243
X5.76Y-4.963
X5.76Y-5.152
X5.8268Y-4.9907
X5.8268Y-5.1243
X5.8545Y-5.0575
X5.6655Y-1.9925
X5.6932Y-1.9257
X5.6932Y-2.0593
X5.76Y-1.898
X5.76Y-2.087
X5.8268Y-1.9257
X5.8268Y-2.0593
X5.8545Y-1.9925
T2
X3.655Y-3.8525
X3.655Y-3.9525
X3.655Y-4.0525
X3.655Y-4.1525
X3.655Y-4.2525
X3.655Y-4.3525
X3.755Y-3.8525
X3.755Y-3.9525
X3.755Y-4.0525
X3.755Y-4.1525
X3.755Y-4.2525
X3.755Y-4.3525
X5.655Y-3.6525
X5.655Y-3.7525
X5.655Y-3.8525
X5.655Y-3.9525
X5.655Y-4.0525
X5.655Y-4.1525
X5.655Y-4.2525
X5.655Y-4.3525
X5.755Y-3.6525
X5.755Y-3.7525
X5.755Y-3.8525
X5.755Y-3.9525
X5.755Y-4.0525
X5.755Y-4.1525
X5.755Y-4.2525
X5.755Y-4.3525
X5.655Y-2.5925
X5.655Y-2.6925
X5.655Y-2.7925
X5.655Y-2.8925
X5.655Y-2.9925
X5.655Y-3.0925
X5.655Y-3.1925
X5.655Y-3.2925
X5.655Y-3.3925
X5.655Y-3.4925
X5.755Y-2.5925
X5.755Y-2.6925
X5.755Y-2.7925
X5.755Y-2.8925
X5.755Y-2.9925
X5.755Y-3.0925
X5.755Y-3.1925
X5.755Y-3.2925
X5.755Y-3.3925
X5.755Y-3.4925
X3.655Y-2.9525
X3.655Y-3.0525
X3.655Y-3.1525
X3.655Y-3.2525
X3.655Y-3.3525
X3.655Y-3.4525
X3.655Y-3.5525
X3.655Y-3.6525
X3.755Y-2.9525
X3.755Y-3.0525
X3.755Y-3.1525
X3.755Y-3.2525
X3.755Y-3.3525
X3.755Y-3.4525
X3.755Y-3.5525
X3.755Y-3.6525
T3
X5.76Y-5.0575
X5.76Y-1.9925
T0
M30
