G04 #@! TF.GenerationSoftware,KiCad,Pcbnew,(5.99.0-73-g24ea8f970)*
G04 #@! TF.CreationDate,2019-09-05T17:19:17-04:00*
G04 #@! TF.ProjectId,headers,68656164-6572-4732-9e6b-696361645f70,rev?*
G04 #@! TF.SameCoordinates,Original*
G04 #@! TF.FileFunction,Copper,L2,Bot*
G04 #@! TF.FilePolarity,Positive*
%FSLAX46Y46*%
G04 Gerber Fmt 4.6, Leading zero omitted, Abs format (unit mm)*
G04 Created by KiCad (PCBNEW (5.99.0-73-g24ea8f970)) date 2019-09-05 17:19:17*
%MOMM*%
%LPD*%
G04 APERTURE LIST*
%ADD10O,1.700000X1.700000*%
%ADD11R,1.700000X1.700000*%
%ADD12C,0.800000*%
%ADD13C,6.400000*%
G04 APERTURE END LIST*
D10*
X143637000Y-92773500D03*
X146177000Y-92773500D03*
X143637000Y-95313500D03*
X146177000Y-95313500D03*
X143637000Y-97853500D03*
X146177000Y-97853500D03*
X143637000Y-100393500D03*
X146177000Y-100393500D03*
X143637000Y-102933500D03*
X146177000Y-102933500D03*
X143637000Y-105473500D03*
X146177000Y-105473500D03*
X143637000Y-108013500D03*
X146177000Y-108013500D03*
X143637000Y-110553500D03*
D11*
X146177000Y-110553500D03*
D10*
X143637000Y-65849500D03*
X146177000Y-65849500D03*
X143637000Y-68389500D03*
X146177000Y-68389500D03*
X143637000Y-70929500D03*
X146177000Y-70929500D03*
X143637000Y-73469500D03*
X146177000Y-73469500D03*
X143637000Y-76009500D03*
X146177000Y-76009500D03*
X143637000Y-78549500D03*
X146177000Y-78549500D03*
X143637000Y-81089500D03*
X146177000Y-81089500D03*
X143637000Y-83629500D03*
X146177000Y-83629500D03*
X143637000Y-86169500D03*
X146177000Y-86169500D03*
X143637000Y-88709500D03*
D11*
X146177000Y-88709500D03*
D10*
X95377000Y-110553500D03*
X92837000Y-110553500D03*
X95377000Y-108013500D03*
X92837000Y-108013500D03*
X95377000Y-105473500D03*
X92837000Y-105473500D03*
X95377000Y-102933500D03*
X92837000Y-102933500D03*
X95377000Y-100393500D03*
X92837000Y-100393500D03*
X95377000Y-97853500D03*
D11*
X92837000Y-97853500D03*
D10*
X95377000Y-92773500D03*
X92837000Y-92773500D03*
X95377000Y-90233500D03*
X92837000Y-90233500D03*
X95377000Y-87693500D03*
X92837000Y-87693500D03*
X95377000Y-85153500D03*
X92837000Y-85153500D03*
X95377000Y-82613500D03*
X92837000Y-82613500D03*
X95377000Y-80073500D03*
X92837000Y-80073500D03*
X95377000Y-77533500D03*
X92837000Y-77533500D03*
X95377000Y-74993500D03*
D11*
X92837000Y-74993500D03*
D12*
X148001056Y-126763444D03*
X146304000Y-126060500D03*
X144606944Y-126763444D03*
X143904000Y-128460500D03*
X144606944Y-130157556D03*
X146304000Y-130860500D03*
X148001056Y-130157556D03*
X148704000Y-128460500D03*
D13*
X146304000Y-128460500D03*
D12*
X148001056Y-48912444D03*
X146304000Y-48209500D03*
X144606944Y-48912444D03*
X143904000Y-50609500D03*
X144606944Y-52306556D03*
X146304000Y-53009500D03*
X148001056Y-52306556D03*
X148704000Y-50609500D03*
D13*
X146304000Y-50609500D03*
M02*
