G04 #@! TF.GenerationSoftware,KiCad,Pcbnew,(5.99.0-73-g24ea8f970)*
G04 #@! TF.CreationDate,2019-09-05T17:19:17-04:00*
G04 #@! TF.ProjectId,headers,68656164-6572-4732-9e6b-696361645f70,rev?*
G04 #@! TF.SameCoordinates,Original*
G04 #@! TF.FileFunction,Legend,Top*
G04 #@! TF.FilePolarity,Positive*
%FSLAX46Y46*%
G04 Gerber Fmt 4.6, Leading zero omitted, Abs format (unit mm)*
G04 Created by KiCad (PCBNEW (5.99.0-73-g24ea8f970)) date 2019-09-05 17:19:17*
%MOMM*%
%LPD*%
G04 APERTURE LIST*
%ADD10C,0.120000*%
%ADD11C,0.100000*%
%ADD12C,0.150000*%
G04 APERTURE END LIST*
D10*
X147507000Y-111883500D02*
X146177000Y-111883500D01*
X147507000Y-110553500D02*
X147507000Y-111883500D01*
X144907000Y-111883500D02*
X142307000Y-111883500D01*
X144907000Y-109283500D02*
X144907000Y-111883500D01*
X147507000Y-109283500D02*
X144907000Y-109283500D01*
X142307000Y-111883500D02*
X142307000Y-91443500D01*
X147507000Y-109283500D02*
X147507000Y-91443500D01*
X147507000Y-91443500D02*
X142307000Y-91443500D01*
X147507000Y-90039500D02*
X146177000Y-90039500D01*
X147507000Y-88709500D02*
X147507000Y-90039500D01*
X144907000Y-90039500D02*
X142307000Y-90039500D01*
X144907000Y-87439500D02*
X144907000Y-90039500D01*
X147507000Y-87439500D02*
X144907000Y-87439500D01*
X142307000Y-90039500D02*
X142307000Y-64519500D01*
X147507000Y-87439500D02*
X147507000Y-64519500D01*
X147507000Y-64519500D02*
X142307000Y-64519500D01*
X91507000Y-96523500D02*
X92837000Y-96523500D01*
X91507000Y-97853500D02*
X91507000Y-96523500D01*
X94107000Y-96523500D02*
X96707000Y-96523500D01*
X94107000Y-99123500D02*
X94107000Y-96523500D01*
X91507000Y-99123500D02*
X94107000Y-99123500D01*
X96707000Y-96523500D02*
X96707000Y-111883500D01*
X91507000Y-99123500D02*
X91507000Y-111883500D01*
X91507000Y-111883500D02*
X96707000Y-111883500D01*
X91507000Y-73663500D02*
X92837000Y-73663500D01*
X91507000Y-74993500D02*
X91507000Y-73663500D01*
X94107000Y-73663500D02*
X96707000Y-73663500D01*
X94107000Y-76263500D02*
X94107000Y-73663500D01*
X91507000Y-76263500D02*
X94107000Y-76263500D01*
X96707000Y-73663500D02*
X96707000Y-94103500D01*
X91507000Y-76263500D02*
X91507000Y-94103500D01*
X91507000Y-94103500D02*
X96707000Y-94103500D01*
D11*
G36*
X93147884Y-131179059D02*
G01*
X93120882Y-131179059D01*
X93120882Y-130954041D01*
X93147884Y-130954041D01*
X93147884Y-131179059D01*
X93147884Y-131179059D01*
G37*
G36*
X93242684Y-130954627D02*
G01*
X93256477Y-130955541D01*
X93283937Y-131024003D01*
X93311397Y-131092466D01*
X93312202Y-131023253D01*
X93313008Y-130954041D01*
X93339899Y-130954041D01*
X93339899Y-131179059D01*
X93314014Y-131179059D01*
X93285703Y-131109411D01*
X93257393Y-131039763D01*
X93256587Y-131109411D01*
X93255782Y-131179059D01*
X93228890Y-131179059D01*
X93228890Y-130953712D01*
X93242684Y-130954627D01*
X93242684Y-130954627D01*
G37*
G36*
X93531914Y-131179387D02*
G01*
X93504086Y-131177559D01*
X93449408Y-131043147D01*
X93448601Y-131111103D01*
X93447795Y-131179059D01*
X93420906Y-131179059D01*
X93420906Y-130954041D01*
X93446408Y-130954053D01*
X93474048Y-131022303D01*
X93501688Y-131090552D01*
X93501800Y-131022296D01*
X93501912Y-130954041D01*
X93531914Y-130954041D01*
X93531914Y-131179387D01*
X93531914Y-131179387D01*
G37*
G36*
X93610694Y-131016958D02*
G01*
X93613497Y-130998648D01*
X93617750Y-130984275D01*
X93623639Y-130973174D01*
X93631351Y-130964678D01*
X93639077Y-130959239D01*
X93650694Y-130955116D01*
X93665193Y-130953676D01*
X93680076Y-130954945D01*
X93692374Y-130958717D01*
X93703172Y-130966946D01*
X93712200Y-130980084D01*
X93718856Y-130997157D01*
X93720631Y-131004443D01*
X93721795Y-131013105D01*
X93722779Y-131026247D01*
X93723503Y-131042347D01*
X93723888Y-131059886D01*
X93723929Y-131067567D01*
X93723475Y-131094490D01*
X93721966Y-131116239D01*
X93719181Y-131133584D01*
X93714902Y-131147294D01*
X93708907Y-131158139D01*
X93700977Y-131166886D01*
X93693958Y-131172308D01*
X93682606Y-131177097D01*
X93668329Y-131179041D01*
X93653524Y-131178060D01*
X93640591Y-131174076D01*
X93640577Y-131174069D01*
X93630623Y-131167451D01*
X93622767Y-131158113D01*
X93616835Y-131145475D01*
X93612651Y-131128957D01*
X93610042Y-131107978D01*
X93608833Y-131081958D01*
X93608698Y-131068050D01*
X93608722Y-131066550D01*
X93636956Y-131066550D01*
X93637264Y-131088654D01*
X93638303Y-131105693D01*
X93640243Y-131118574D01*
X93643254Y-131128206D01*
X93647506Y-131135498D01*
X93650534Y-131138939D01*
X93659249Y-131144868D01*
X93668923Y-131145424D01*
X93677140Y-131142640D01*
X93683608Y-131138290D01*
X93688491Y-131131411D01*
X93692014Y-131121233D01*
X93694402Y-131106986D01*
X93695880Y-131087899D01*
X93696325Y-131077018D01*
X93696526Y-131049510D01*
X93695071Y-131027469D01*
X93691847Y-131010563D01*
X93686743Y-130998463D01*
X93679649Y-130990836D01*
X93670452Y-130987351D01*
X93666084Y-130987044D01*
X93656875Y-130988504D01*
X93649653Y-130993211D01*
X93644241Y-131001653D01*
X93640458Y-131014318D01*
X93638126Y-131031697D01*
X93637066Y-131054276D01*
X93636956Y-131066550D01*
X93608722Y-131066550D01*
X93609157Y-131039870D01*
X93610694Y-131016958D01*
X93610694Y-131016958D01*
G37*
G36*
X93831246Y-131029797D02*
G01*
X93835349Y-131049937D01*
X93839154Y-131067721D01*
X93842492Y-131082432D01*
X93845194Y-131093352D01*
X93847093Y-131099764D01*
X93847989Y-131101052D01*
X93849017Y-131096944D01*
X93851014Y-131087817D01*
X93853799Y-131074542D01*
X93857190Y-131057987D01*
X93861007Y-131039025D01*
X93863735Y-131025297D01*
X93877816Y-130954041D01*
X93892705Y-130954041D01*
X93901485Y-130954255D01*
X93905621Y-130955359D01*
X93906464Y-130958042D01*
X93905930Y-130960791D01*
X93904829Y-130965754D01*
X93902760Y-130975539D01*
X93899887Y-130989342D01*
X93896374Y-131006359D01*
X93892383Y-131025788D01*
X93888080Y-131046823D01*
X93883627Y-131068662D01*
X93879187Y-131090501D01*
X93874925Y-131111536D01*
X93871004Y-131130963D01*
X93867587Y-131147979D01*
X93864838Y-131161781D01*
X93862921Y-131171563D01*
X93861999Y-131176523D01*
X93861940Y-131176957D01*
X93859241Y-131178156D01*
X93852339Y-131178917D01*
X93846939Y-131179059D01*
X93838380Y-131178735D01*
X93832948Y-131177906D01*
X93831938Y-131177258D01*
X93831362Y-131174005D01*
X93829742Y-131165676D01*
X93827241Y-131153074D01*
X93824022Y-131137002D01*
X93820249Y-131118262D01*
X93816083Y-131097656D01*
X93811690Y-131075987D01*
X93807230Y-131054057D01*
X93802868Y-131032670D01*
X93798767Y-131012626D01*
X93795089Y-130994730D01*
X93791997Y-130979782D01*
X93789655Y-130968586D01*
X93788226Y-130961944D01*
X93787958Y-130960791D01*
X93787436Y-130956792D01*
X93789365Y-130954793D01*
X93795095Y-130954108D01*
X93801226Y-130954041D01*
X93816167Y-130954041D01*
X93831246Y-131029797D01*
X93831246Y-131029797D01*
G37*
G36*
X93965045Y-131080268D02*
G01*
X93968829Y-131063550D01*
X93974199Y-131039853D01*
X93979199Y-131017881D01*
X93983663Y-130998355D01*
X93987426Y-130981999D01*
X93990320Y-130969533D01*
X93992181Y-130961680D01*
X93992787Y-130959291D01*
X93995368Y-130955886D01*
X94001400Y-130954318D01*
X94008404Y-130954052D01*
X94022453Y-130954063D01*
X94047356Y-131064311D01*
X94052955Y-131089179D01*
X94058107Y-131112212D01*
X94062667Y-131132754D01*
X94066491Y-131150147D01*
X94069434Y-131163736D01*
X94071353Y-131172862D01*
X94072103Y-131176870D01*
X94072108Y-131176973D01*
X94069334Y-131178207D01*
X94062445Y-131178639D01*
X94057706Y-131178473D01*
X94043455Y-131177559D01*
X94035009Y-131136843D01*
X94007729Y-131137699D01*
X93980450Y-131138555D01*
X93972048Y-131179059D01*
X93957172Y-131179059D01*
X93948386Y-131178899D01*
X93944264Y-131177844D01*
X93943470Y-131175035D01*
X93944368Y-131170808D01*
X93945510Y-131165973D01*
X93947802Y-131156035D01*
X93951073Y-131141746D01*
X93955151Y-131123854D01*
X93959652Y-131104053D01*
X93987836Y-131104053D01*
X94007720Y-131104053D01*
X94018291Y-131103933D01*
X94024093Y-131103270D01*
X94026355Y-131101613D01*
X94026309Y-131098506D01*
X94026047Y-131097302D01*
X94024787Y-131091822D01*
X94022512Y-131081906D01*
X94019545Y-131068965D01*
X94016241Y-131054549D01*
X94007993Y-131018546D01*
X94000023Y-131053049D01*
X93996667Y-131067504D01*
X93993612Y-131080532D01*
X93991219Y-131090598D01*
X93989945Y-131095802D01*
X93987836Y-131104053D01*
X93959652Y-131104053D01*
X93959866Y-131103112D01*
X93965045Y-131080268D01*
X93965045Y-131080268D01*
G37*
G36*
X94221969Y-130987044D02*
G01*
X94188966Y-130987044D01*
X94188966Y-131179059D01*
X94158964Y-131179059D01*
X94158964Y-130987044D01*
X94125961Y-130987044D01*
X94125961Y-130954041D01*
X94221969Y-130954041D01*
X94221969Y-130987044D01*
X94221969Y-130987044D01*
G37*
G36*
X94320976Y-131179059D02*
G01*
X94293974Y-131179059D01*
X94293974Y-130954041D01*
X94320976Y-130954041D01*
X94320976Y-131179059D01*
X94320976Y-131179059D01*
G37*
G36*
X94396877Y-131034570D02*
G01*
X94399627Y-131009683D01*
X94404398Y-130989842D01*
X94411335Y-130974697D01*
X94420579Y-130963899D01*
X94432275Y-130957097D01*
X94441162Y-130954671D01*
X94460533Y-130953532D01*
X94476935Y-130957587D01*
X94490294Y-130966779D01*
X94500540Y-130981046D01*
X94507597Y-131000329D01*
X94509783Y-131011052D01*
X94511410Y-131025528D01*
X94512430Y-131043913D01*
X94512839Y-131064294D01*
X94512633Y-131084762D01*
X94511806Y-131103405D01*
X94510354Y-131118311D01*
X94510049Y-131120308D01*
X94505199Y-131139611D01*
X94497728Y-131156011D01*
X94488262Y-131168294D01*
X94483296Y-131172304D01*
X94470806Y-131177539D01*
X94455751Y-131179451D01*
X94440520Y-131178044D01*
X94427500Y-131173324D01*
X94425678Y-131172192D01*
X94415989Y-131163676D01*
X94408416Y-131152284D01*
X94402794Y-131137425D01*
X94398962Y-131118506D01*
X94396754Y-131094935D01*
X94396007Y-131066120D01*
X94396006Y-131064970D01*
X94424759Y-131064970D01*
X94425059Y-131082740D01*
X94425815Y-131098847D01*
X94426934Y-131111899D01*
X94428323Y-131120504D01*
X94428495Y-131121143D01*
X94433886Y-131132602D01*
X94441951Y-131141244D01*
X94451283Y-131145722D01*
X94454487Y-131146056D01*
X94461534Y-131144238D01*
X94469011Y-131139895D01*
X94474538Y-131134019D01*
X94478635Y-131125768D01*
X94481465Y-131114346D01*
X94483193Y-131098956D01*
X94483980Y-131078804D01*
X94484072Y-131066550D01*
X94483480Y-131041167D01*
X94481595Y-131021234D01*
X94478258Y-131006309D01*
X94473308Y-130995950D01*
X94466584Y-130989715D01*
X94457927Y-130987160D01*
X94455224Y-130987044D01*
X94445542Y-130988347D01*
X94437987Y-130992612D01*
X94432352Y-131000368D01*
X94428429Y-131012145D01*
X94426013Y-131028474D01*
X94424894Y-131049884D01*
X94424759Y-131064970D01*
X94396006Y-131064970D01*
X94396005Y-131064851D01*
X94396877Y-131034570D01*
X94396877Y-131034570D01*
G37*
G36*
X94646624Y-131020696D02*
G01*
X94673504Y-131087352D01*
X94674312Y-131020696D01*
X94675119Y-130954041D01*
X94705007Y-130954041D01*
X94705007Y-131179387D01*
X94691233Y-131178473D01*
X94677460Y-131177559D01*
X94649333Y-131108553D01*
X94621206Y-131039548D01*
X94621103Y-131109303D01*
X94621000Y-131179059D01*
X94593998Y-131179059D01*
X94593998Y-130954041D01*
X94619743Y-130954041D01*
X94646624Y-131020696D01*
X94646624Y-131020696D01*
G37*
G36*
X94899052Y-130954627D02*
G01*
X94913083Y-130955541D01*
X94940305Y-131022708D01*
X94967527Y-131089876D01*
X94968334Y-131021958D01*
X94969140Y-130954041D01*
X94996030Y-130954041D01*
X94996030Y-131179059D01*
X94983279Y-131179012D01*
X94970528Y-131178964D01*
X94915246Y-131042548D01*
X94915135Y-131110803D01*
X94915023Y-131179059D01*
X94885021Y-131179059D01*
X94885021Y-130953712D01*
X94899052Y-130954627D01*
X94899052Y-130954627D01*
G37*
G36*
X95161043Y-130987044D02*
G01*
X95104038Y-130987044D01*
X95104038Y-131053049D01*
X95152042Y-131053049D01*
X95152042Y-131089052D01*
X95104038Y-131089052D01*
X95104038Y-131143056D01*
X95164043Y-131143056D01*
X95164043Y-131179059D01*
X95077036Y-131179059D01*
X95077036Y-130954041D01*
X95161043Y-130954041D01*
X95161043Y-130987044D01*
X95161043Y-130987044D01*
G37*
G36*
X95326056Y-130987044D02*
G01*
X95293053Y-130987044D01*
X95293053Y-131179059D01*
X95263051Y-131179059D01*
X95263051Y-130987044D01*
X95230048Y-130987044D01*
X95230048Y-130954041D01*
X95326056Y-130954041D01*
X95326056Y-130987044D01*
X95326056Y-130987044D01*
G37*
G36*
X95484401Y-130954200D02*
G01*
X95491869Y-130954878D01*
X95496511Y-130955813D01*
X95497095Y-130956291D01*
X95497605Y-130959772D01*
X95499019Y-130968295D01*
X95501189Y-130980998D01*
X95503967Y-130997014D01*
X95507204Y-131015481D01*
X95509070Y-131026047D01*
X95512507Y-131045523D01*
X95515582Y-131063062D01*
X95518143Y-131077786D01*
X95520038Y-131088818D01*
X95521115Y-131095281D01*
X95521301Y-131096552D01*
X95521864Y-131094294D01*
X95523332Y-131087095D01*
X95525523Y-131075914D01*
X95528258Y-131061711D01*
X95531355Y-131045447D01*
X95534635Y-131028080D01*
X95537915Y-131010571D01*
X95541016Y-130993880D01*
X95543757Y-130978967D01*
X95545958Y-130966791D01*
X95547436Y-130958312D01*
X95547984Y-130954791D01*
X95550725Y-130954343D01*
X95557557Y-130954075D01*
X95561574Y-130954041D01*
X95570165Y-130954509D01*
X95574209Y-130956276D01*
X95575124Y-130959291D01*
X95574632Y-130963373D01*
X95573213Y-130972664D01*
X95570983Y-130986464D01*
X95568057Y-131004073D01*
X95564552Y-131024791D01*
X95560584Y-131047917D01*
X95556436Y-131071800D01*
X95537700Y-131179059D01*
X95507481Y-131179059D01*
X95495795Y-131112303D01*
X95492349Y-131092820D01*
X95489161Y-131075178D01*
X95486400Y-131060287D01*
X95484237Y-131049054D01*
X95482841Y-131042391D01*
X95482493Y-131041082D01*
X95481558Y-131042627D01*
X95479790Y-131049345D01*
X95477347Y-131060492D01*
X95474387Y-131075324D01*
X95471065Y-131093096D01*
X95468574Y-131107087D01*
X95456271Y-131177559D01*
X95440667Y-131178465D01*
X95431596Y-131178473D01*
X95426058Y-131177429D01*
X95425063Y-131176396D01*
X95424564Y-131172869D01*
X95423160Y-131164252D01*
X95420994Y-131151362D01*
X95418208Y-131135015D01*
X95414945Y-131116031D01*
X95411348Y-131095225D01*
X95407559Y-131073416D01*
X95403719Y-131051421D01*
X95399973Y-131030058D01*
X95396461Y-131010144D01*
X95393327Y-130992496D01*
X95390713Y-130977933D01*
X95388762Y-130967271D01*
X95387615Y-130961329D01*
X95387498Y-130960791D01*
X95387056Y-130956802D01*
X95389034Y-130954801D01*
X95394789Y-130954110D01*
X95401004Y-130954041D01*
X95409582Y-130954394D01*
X95415036Y-130955298D01*
X95416063Y-130956011D01*
X95416557Y-130959725D01*
X95417919Y-130968289D01*
X95419965Y-130980646D01*
X95422513Y-130995738D01*
X95425381Y-131012507D01*
X95428385Y-131029897D01*
X95431343Y-131046848D01*
X95434072Y-131062305D01*
X95436390Y-131075209D01*
X95438113Y-131084502D01*
X95439041Y-131089052D01*
X95440169Y-131088915D01*
X95442140Y-131082967D01*
X95444924Y-131071334D01*
X95448491Y-131054140D01*
X95452813Y-131031512D01*
X95453820Y-131026047D01*
X95457439Y-131006300D01*
X95460681Y-130988626D01*
X95463394Y-130973843D01*
X95465429Y-130962771D01*
X95466634Y-130956231D01*
X95466903Y-130954791D01*
X95469732Y-130954047D01*
X95476293Y-130953887D01*
X95484401Y-130954200D01*
X95484401Y-130954200D01*
G37*
G36*
X95638854Y-131016958D02*
G01*
X95641656Y-130998648D01*
X95645909Y-130984275D01*
X95651799Y-130973174D01*
X95659510Y-130964678D01*
X95667237Y-130959239D01*
X95678854Y-130955116D01*
X95693353Y-130953676D01*
X95708236Y-130954945D01*
X95720534Y-130958717D01*
X95730401Y-130965298D01*
X95738231Y-130975003D01*
X95744173Y-130988339D01*
X95748375Y-131005815D01*
X95750982Y-131027940D01*
X95752145Y-131055221D01*
X95752238Y-131067882D01*
X95751746Y-131094831D01*
X95750170Y-131116608D01*
X95747289Y-131133982D01*
X95742881Y-131147718D01*
X95736727Y-131158584D01*
X95728603Y-131167346D01*
X95722117Y-131172308D01*
X95710766Y-131177097D01*
X95696489Y-131179041D01*
X95681684Y-131178060D01*
X95668751Y-131174076D01*
X95668737Y-131174069D01*
X95658783Y-131167451D01*
X95650927Y-131158113D01*
X95644994Y-131145475D01*
X95640811Y-131128957D01*
X95638202Y-131107978D01*
X95636992Y-131081958D01*
X95636858Y-131068050D01*
X95637070Y-131054980D01*
X95665387Y-131054980D01*
X95665625Y-131074671D01*
X95666274Y-131093912D01*
X95667149Y-131108146D01*
X95668364Y-131118365D01*
X95670032Y-131125562D01*
X95671949Y-131130156D01*
X95679785Y-131140698D01*
X95689100Y-131145471D01*
X95700201Y-131144590D01*
X95705300Y-131142640D01*
X95711768Y-131138290D01*
X95716651Y-131131411D01*
X95720174Y-131121233D01*
X95722561Y-131106986D01*
X95724039Y-131087899D01*
X95724485Y-131077018D01*
X95724686Y-131049510D01*
X95723230Y-131027469D01*
X95720006Y-131010563D01*
X95714903Y-130998463D01*
X95707808Y-130990836D01*
X95698612Y-130987351D01*
X95694244Y-130987044D01*
X95684913Y-130988558D01*
X95677585Y-130993399D01*
X95672115Y-131002014D01*
X95668356Y-131014852D01*
X95666162Y-131032358D01*
X95665387Y-131054980D01*
X95637070Y-131054980D01*
X95637317Y-131039870D01*
X95638854Y-131016958D01*
X95638854Y-131016958D01*
G37*
G36*
X95856347Y-130954058D02*
G01*
X95875026Y-130954586D01*
X95889080Y-130956407D01*
X95899822Y-130959918D01*
X95908560Y-130965513D01*
X95915033Y-130971807D01*
X95924490Y-130986557D01*
X95930061Y-131005632D01*
X95931777Y-131029159D01*
X95931308Y-131041101D01*
X95928551Y-131062070D01*
X95923280Y-131078409D01*
X95915151Y-131091084D01*
X95912564Y-131093862D01*
X95904696Y-131101730D01*
X95919900Y-131137154D01*
X95925632Y-131150751D01*
X95930376Y-131162461D01*
X95933678Y-131171131D01*
X95935084Y-131175606D01*
X95935104Y-131175819D01*
X95932365Y-131177781D01*
X95925156Y-131178911D01*
X95920536Y-131179059D01*
X95905969Y-131179059D01*
X95890100Y-131143056D01*
X95883415Y-131128169D01*
X95878444Y-131117988D01*
X95874643Y-131111656D01*
X95871467Y-131108319D01*
X95868372Y-131107124D01*
X95867165Y-131107053D01*
X95864187Y-131107236D01*
X95862191Y-131108450D01*
X95860981Y-131111697D01*
X95860359Y-131117975D01*
X95860130Y-131128285D01*
X95860098Y-131143056D01*
X95860098Y-131179059D01*
X95830095Y-131179059D01*
X95830095Y-130987044D01*
X95860098Y-130987044D01*
X95860098Y-131074831D01*
X95873935Y-131073271D01*
X95884809Y-131070759D01*
X95892921Y-131066484D01*
X95893759Y-131065724D01*
X95899013Y-131057018D01*
X95902359Y-131044507D01*
X95903658Y-131030121D01*
X95902770Y-131015790D01*
X95899555Y-131003443D01*
X95898448Y-131001041D01*
X95893120Y-130995665D01*
X95884159Y-130990865D01*
X95873911Y-130987708D01*
X95867695Y-130987044D01*
X95860098Y-130987044D01*
X95830095Y-130987044D01*
X95830095Y-130954041D01*
X95856347Y-130954058D01*
X95856347Y-130954058D01*
G37*
G36*
X96035611Y-131043845D02*
G01*
X96082545Y-130954041D01*
X96098831Y-130954041D01*
X96107801Y-130954513D01*
X96113716Y-130955731D01*
X96115118Y-130956880D01*
X96113766Y-130960285D01*
X96109996Y-130968126D01*
X96104235Y-130979556D01*
X96096911Y-130993729D01*
X96088453Y-131009796D01*
X96086899Y-131012720D01*
X96058680Y-131065721D01*
X96086899Y-131120407D01*
X96095399Y-131136973D01*
X96102874Y-131151717D01*
X96108912Y-131163813D01*
X96113103Y-131172437D01*
X96115035Y-131176765D01*
X96115118Y-131177076D01*
X96112405Y-131178167D01*
X96105416Y-131178887D01*
X96098789Y-131179059D01*
X96082461Y-131179059D01*
X96062225Y-131139742D01*
X96054317Y-131124540D01*
X96048583Y-131114056D01*
X96044550Y-131107626D01*
X96041743Y-131104585D01*
X96039688Y-131104267D01*
X96038050Y-131105813D01*
X96035999Y-131111578D01*
X96034710Y-131122438D01*
X96034145Y-131138766D01*
X96034111Y-131145129D01*
X96034111Y-131179059D01*
X96007109Y-131179059D01*
X96007109Y-130954041D01*
X96033955Y-130954041D01*
X96035611Y-131043845D01*
X96035611Y-131043845D01*
G37*
G36*
X93138650Y-130588551D02*
G01*
X93140803Y-130590729D01*
X93142702Y-130595006D01*
X93144583Y-130602042D01*
X93146678Y-130612497D01*
X93149224Y-130627030D01*
X93152454Y-130646302D01*
X93155510Y-130664518D01*
X93158699Y-130683319D01*
X93161581Y-130700145D01*
X93163998Y-130714087D01*
X93165791Y-130724235D01*
X93166803Y-130729680D01*
X93166940Y-130730294D01*
X93167689Y-130728460D01*
X93169256Y-130721622D01*
X93171455Y-130710688D01*
X93174101Y-130696570D01*
X93176117Y-130685290D01*
X93179398Y-130666662D01*
X93182731Y-130647853D01*
X93185796Y-130630657D01*
X93188275Y-130616869D01*
X93189021Y-130612764D01*
X93193541Y-130588012D01*
X93208216Y-130588012D01*
X93216713Y-130588150D01*
X93222103Y-130588503D01*
X93223076Y-130588762D01*
X93223639Y-130591795D01*
X93225125Y-130599921D01*
X93227384Y-130612328D01*
X93230270Y-130628206D01*
X93233635Y-130646741D01*
X93236315Y-130661518D01*
X93239920Y-130681225D01*
X93243164Y-130698623D01*
X93245902Y-130712957D01*
X93247988Y-130723472D01*
X93249275Y-130729413D01*
X93249630Y-130730399D01*
X93250213Y-130726658D01*
X93251702Y-130717892D01*
X93253943Y-130704980D01*
X93256785Y-130688804D01*
X93260072Y-130670244D01*
X93261893Y-130660018D01*
X93265335Y-130640627D01*
X93268392Y-130623217D01*
X93270913Y-130608654D01*
X93272750Y-130597808D01*
X93273752Y-130591546D01*
X93273894Y-130590386D01*
X93276596Y-130589041D01*
X93283514Y-130588180D01*
X93289134Y-130588012D01*
X93298064Y-130588172D01*
X93302354Y-130589205D01*
X93303364Y-130591942D01*
X93302652Y-130596263D01*
X93301723Y-130601169D01*
X93299956Y-130610925D01*
X93297492Y-130624719D01*
X93294472Y-130641743D01*
X93291039Y-130661186D01*
X93287334Y-130682239D01*
X93283500Y-130704093D01*
X93279677Y-130725938D01*
X93276009Y-130746964D01*
X93272636Y-130766361D01*
X93269700Y-130783320D01*
X93267344Y-130797032D01*
X93265708Y-130806686D01*
X93264936Y-130811473D01*
X93264893Y-130811834D01*
X93262194Y-130812522D01*
X93255264Y-130812669D01*
X93249248Y-130812437D01*
X93233602Y-130811530D01*
X93221603Y-130741795D01*
X93218170Y-130722444D01*
X93214960Y-130705465D01*
X93212133Y-130691618D01*
X93209848Y-130681664D01*
X93208266Y-130676360D01*
X93207679Y-130675790D01*
X93206631Y-130679721D01*
X93204761Y-130688673D01*
X93202239Y-130701748D01*
X93199235Y-130718049D01*
X93195922Y-130736678D01*
X93194256Y-130746275D01*
X93182759Y-130813030D01*
X93168228Y-130813030D01*
X93158442Y-130812269D01*
X93153023Y-130810175D01*
X93152408Y-130809280D01*
X93151531Y-130805291D01*
X93149803Y-130796227D01*
X93147367Y-130782916D01*
X93144366Y-130766187D01*
X93140945Y-130746867D01*
X93137246Y-130725787D01*
X93133414Y-130703774D01*
X93129592Y-130681658D01*
X93125924Y-130660267D01*
X93122553Y-130640430D01*
X93119623Y-130622976D01*
X93117278Y-130608733D01*
X93115660Y-130598530D01*
X93114915Y-130593196D01*
X93114882Y-130592717D01*
X93116454Y-130589651D01*
X93121969Y-130588240D01*
X93128325Y-130588012D01*
X93132645Y-130587852D01*
X93136009Y-130587812D01*
X93138650Y-130588551D01*
X93138650Y-130588551D01*
G37*
G36*
X93383082Y-130704659D02*
G01*
X93388492Y-130680944D01*
X93393550Y-130658731D01*
X93398080Y-130638794D01*
X93401907Y-130621906D01*
X93404857Y-130608840D01*
X93406752Y-130600370D01*
X93407322Y-130597763D01*
X93408956Y-130591894D01*
X93411804Y-130589029D01*
X93417681Y-130588093D01*
X93423819Y-130588012D01*
X93432762Y-130588398D01*
X93437453Y-130590038D01*
X93439614Y-130593655D01*
X93439915Y-130594763D01*
X93440956Y-130599215D01*
X93443157Y-130608790D01*
X93446351Y-130622758D01*
X93450372Y-130640389D01*
X93455054Y-130660954D01*
X93460231Y-130683723D01*
X93464386Y-130702021D01*
X93469815Y-130725896D01*
X93474872Y-130748048D01*
X93479393Y-130767762D01*
X93483212Y-130784321D01*
X93486164Y-130797011D01*
X93488085Y-130805115D01*
X93488757Y-130807779D01*
X93488871Y-130810915D01*
X93485943Y-130812492D01*
X93478700Y-130813007D01*
X93475350Y-130813030D01*
X93466418Y-130812792D01*
X93461719Y-130811401D01*
X93459487Y-130807842D01*
X93458400Y-130803279D01*
X93456229Y-130793403D01*
X93453678Y-130782799D01*
X93453546Y-130782277D01*
X93450677Y-130771026D01*
X93397502Y-130771026D01*
X93393941Y-130786778D01*
X93391104Y-130799211D01*
X93388888Y-130806939D01*
X93386456Y-130811076D01*
X93382969Y-130812739D01*
X93377588Y-130813041D01*
X93374200Y-130813030D01*
X93365779Y-130812591D01*
X93361841Y-130810860D01*
X93360901Y-130807417D01*
X93361551Y-130803224D01*
X93363395Y-130793918D01*
X93366275Y-130780229D01*
X93370033Y-130762891D01*
X93374511Y-130742635D01*
X93376244Y-130734914D01*
X93405904Y-130734914D01*
X93408691Y-130736617D01*
X93416220Y-130737716D01*
X93425058Y-130738024D01*
X93444212Y-130738024D01*
X93436845Y-130707271D01*
X93433561Y-130693298D01*
X93430659Y-130680469D01*
X93428536Y-130670561D01*
X93427771Y-130666590D01*
X93426072Y-130660640D01*
X93424103Y-130658855D01*
X93423787Y-130659089D01*
X93422434Y-130662633D01*
X93420171Y-130670653D01*
X93417326Y-130681751D01*
X93414231Y-130694533D01*
X93411212Y-130707603D01*
X93408601Y-130719564D01*
X93406725Y-130729021D01*
X93405914Y-130734578D01*
X93405904Y-130734914D01*
X93376244Y-130734914D01*
X93379551Y-130720193D01*
X93383082Y-130704659D01*
X93383082Y-130704659D01*
G37*
G36*
X93609477Y-130588012D02*
G01*
X93624403Y-130588149D01*
X93634769Y-130588710D01*
X93642012Y-130589925D01*
X93647571Y-130592020D01*
X93652230Y-130594787D01*
X93664184Y-130606273D01*
X93672005Y-130622044D01*
X93675647Y-130641995D01*
X93675926Y-130650249D01*
X93675263Y-130663764D01*
X93673502Y-130675817D01*
X93671503Y-130682797D01*
X93669077Y-130689507D01*
X93669063Y-130694566D01*
X93671865Y-130700468D01*
X93675219Y-130705682D01*
X93679929Y-130714079D01*
X93682701Y-130723021D01*
X93684158Y-130734823D01*
X93684471Y-130740029D01*
X93684786Y-130758198D01*
X93683442Y-130771877D01*
X93680166Y-130782412D01*
X93674685Y-130791153D01*
X93673949Y-130792048D01*
X93666727Y-130799578D01*
X93658963Y-130804939D01*
X93649413Y-130808541D01*
X93636834Y-130810793D01*
X93619984Y-130812107D01*
X93612171Y-130812447D01*
X93576918Y-130813769D01*
X93576918Y-130717022D01*
X93603920Y-130717022D01*
X93603920Y-130777027D01*
X93620570Y-130777027D01*
X93631672Y-130776228D01*
X93641637Y-130774189D01*
X93645691Y-130772647D01*
X93653300Y-130765591D01*
X93657415Y-130755079D01*
X93657745Y-130742729D01*
X93653997Y-130730160D01*
X93653535Y-130729238D01*
X93649624Y-130723147D01*
X93644633Y-130719469D01*
X93637053Y-130717626D01*
X93625379Y-130717040D01*
X93621676Y-130717022D01*
X93603920Y-130717022D01*
X93576918Y-130717022D01*
X93576918Y-130620272D01*
X93603920Y-130620272D01*
X93603920Y-130681019D01*
X93618921Y-130681019D01*
X93630338Y-130680059D01*
X93637833Y-130676834D01*
X93639847Y-130675095D01*
X93646703Y-130664138D01*
X93648490Y-130650363D01*
X93647715Y-130644018D01*
X93644592Y-130633167D01*
X93639317Y-130626537D01*
X93630525Y-130622991D01*
X93620871Y-130621677D01*
X93603920Y-130620272D01*
X93576918Y-130620272D01*
X93576918Y-130588012D01*
X93609477Y-130588012D01*
X93609477Y-130588012D01*
G37*
G36*
X93789859Y-130701185D02*
G01*
X93790513Y-130698271D01*
X93815257Y-130588012D01*
X93829396Y-130588012D01*
X93838713Y-130588589D01*
X93843564Y-130590642D01*
X93845093Y-130593262D01*
X93846108Y-130597349D01*
X93848280Y-130606573D01*
X93851447Y-130620217D01*
X93855442Y-130637567D01*
X93860101Y-130657906D01*
X93865258Y-130680518D01*
X93869464Y-130699021D01*
X93874904Y-130722976D01*
X93879977Y-130745280D01*
X93884515Y-130765203D01*
X93888352Y-130782017D01*
X93891322Y-130794992D01*
X93893258Y-130803398D01*
X93893935Y-130806279D01*
X93894446Y-130810282D01*
X93892504Y-130812281D01*
X93886758Y-130812964D01*
X93880685Y-130813030D01*
X93865776Y-130813030D01*
X93861465Y-130792778D01*
X93857153Y-130772527D01*
X93802817Y-130770813D01*
X93798490Y-130791171D01*
X93794163Y-130811530D01*
X93780048Y-130812444D01*
X93771780Y-130812520D01*
X93766657Y-130811683D01*
X93765851Y-130810944D01*
X93766468Y-130807567D01*
X93768263Y-130798994D01*
X93771091Y-130785881D01*
X93774808Y-130768887D01*
X93779271Y-130748668D01*
X93782244Y-130735290D01*
X93810936Y-130735290D01*
X93813673Y-130736680D01*
X93820835Y-130737665D01*
X93830495Y-130738024D01*
X93850054Y-130738024D01*
X93847945Y-130729773D01*
X93846437Y-130723599D01*
X93843947Y-130713110D01*
X93840835Y-130699838D01*
X93837858Y-130687020D01*
X93829880Y-130652517D01*
X93820408Y-130692536D01*
X93816947Y-130707350D01*
X93814053Y-130720099D01*
X93811981Y-130729631D01*
X93810987Y-130734794D01*
X93810936Y-130735290D01*
X93782244Y-130735290D01*
X93784336Y-130725882D01*
X93789859Y-130701185D01*
X93789859Y-130701185D01*
G37*
G36*
X94040264Y-130588251D02*
G01*
X94053405Y-130593380D01*
X94064565Y-130603468D01*
X94073222Y-130617655D01*
X94078859Y-130635081D01*
X94080955Y-130654886D01*
X94080958Y-130655665D01*
X94080958Y-130666018D01*
X94050955Y-130666018D01*
X94050955Y-130651422D01*
X94049067Y-130637358D01*
X94043665Y-130627345D01*
X94035145Y-130621930D01*
X94028986Y-130621110D01*
X94017239Y-130623865D01*
X94008573Y-130631313D01*
X94003724Y-130642624D01*
X94002951Y-130650415D01*
X94005380Y-130660790D01*
X94012899Y-130670536D01*
X94025862Y-130680030D01*
X94035515Y-130685319D01*
X94053762Y-130695682D01*
X94066811Y-130706195D01*
X94075392Y-130717918D01*
X94080237Y-130731916D01*
X94082079Y-130749249D01*
X94082150Y-130753025D01*
X94080270Y-130773799D01*
X94074295Y-130790365D01*
X94064282Y-130802602D01*
X94057002Y-130807481D01*
X94045265Y-130811330D01*
X94030693Y-130812837D01*
X94016009Y-130811935D01*
X94004452Y-130808795D01*
X93990809Y-130799569D01*
X93980801Y-130785940D01*
X93974748Y-130768507D01*
X93972949Y-130750121D01*
X93972949Y-130732023D01*
X93999951Y-130732023D01*
X93999951Y-130744173D01*
X94002241Y-130759163D01*
X94008762Y-130770526D01*
X94018994Y-130777675D01*
X94031731Y-130780027D01*
X94040839Y-130777314D01*
X94048505Y-130770320D01*
X94053197Y-130760764D01*
X94053955Y-130755066D01*
X94051941Y-130744490D01*
X94045527Y-130734987D01*
X94034152Y-130725934D01*
X94021219Y-130718657D01*
X94003690Y-130707956D01*
X93989832Y-130695653D01*
X93980476Y-130682605D01*
X93976935Y-130672948D01*
X93974913Y-130653340D01*
X93976630Y-130634319D01*
X93981734Y-130617203D01*
X93989876Y-130603310D01*
X93997376Y-130596075D01*
X94009801Y-130590171D01*
X94025201Y-130587478D01*
X94040264Y-130588251D01*
X94040264Y-130588251D01*
G37*
G36*
X94200967Y-130696021D02*
G01*
X94245971Y-130696021D01*
X94245971Y-130588012D01*
X94272973Y-130588012D01*
X94272973Y-130813030D01*
X94245971Y-130813030D01*
X94245971Y-130729023D01*
X94200967Y-130729023D01*
X94200967Y-130813030D01*
X94173965Y-130813030D01*
X94173965Y-130588012D01*
X94200967Y-130588012D01*
X94200967Y-130696021D01*
X94200967Y-130696021D01*
G37*
G36*
X94509991Y-130696021D02*
G01*
X94554995Y-130696021D01*
X94554995Y-130588012D01*
X94581997Y-130588012D01*
X94581997Y-130813030D01*
X94554995Y-130813030D01*
X94554995Y-130729023D01*
X94509991Y-130729023D01*
X94509991Y-130813030D01*
X94479989Y-130813030D01*
X94479989Y-130588012D01*
X94509991Y-130588012D01*
X94509991Y-130696021D01*
X94509991Y-130696021D01*
G37*
G36*
X94759011Y-130621015D02*
G01*
X94702006Y-130621015D01*
X94702006Y-130687020D01*
X94750010Y-130687020D01*
X94750010Y-130723023D01*
X94702006Y-130723023D01*
X94702006Y-130777027D01*
X94762011Y-130777027D01*
X94762011Y-130813030D01*
X94672004Y-130813030D01*
X94672004Y-130588012D01*
X94759011Y-130588012D01*
X94759011Y-130621015D01*
X94759011Y-130621015D01*
G37*
G36*
X94867271Y-130698246D02*
G01*
X94867606Y-130696771D01*
X94892285Y-130588012D01*
X94906452Y-130588012D01*
X94915775Y-130588585D01*
X94920631Y-130590628D01*
X94922171Y-130593262D01*
X94923184Y-130597349D01*
X94925354Y-130606573D01*
X94928518Y-130620218D01*
X94932511Y-130637568D01*
X94937167Y-130657907D01*
X94942322Y-130680519D01*
X94946526Y-130699021D01*
X94951965Y-130722976D01*
X94957037Y-130745280D01*
X94961575Y-130765204D01*
X94965413Y-130782018D01*
X94968385Y-130794993D01*
X94970324Y-130803398D01*
X94971003Y-130806279D01*
X94971525Y-130810282D01*
X94969592Y-130812280D01*
X94963853Y-130812964D01*
X94957770Y-130813030D01*
X94942861Y-130813030D01*
X94938550Y-130792778D01*
X94934238Y-130772527D01*
X94906865Y-130771667D01*
X94879491Y-130770808D01*
X94876078Y-130788168D01*
X94873637Y-130800228D01*
X94871524Y-130807581D01*
X94868828Y-130811390D01*
X94864639Y-130812819D01*
X94858045Y-130813031D01*
X94856613Y-130813030D01*
X94847155Y-130812239D01*
X94843103Y-130809932D01*
X94842972Y-130809280D01*
X94843606Y-130805590D01*
X94845431Y-130796723D01*
X94848300Y-130783351D01*
X94852065Y-130766145D01*
X94856581Y-130745778D01*
X94858820Y-130735774D01*
X94888013Y-130735774D01*
X94890756Y-130736912D01*
X94897935Y-130737721D01*
X94907844Y-130738024D01*
X94918972Y-130737697D01*
X94924889Y-130736614D01*
X94926353Y-130734619D01*
X94926251Y-130734274D01*
X94925070Y-130730038D01*
X94922875Y-130721209D01*
X94919971Y-130709045D01*
X94916664Y-130694806D01*
X94916409Y-130693691D01*
X94913100Y-130680027D01*
X94910084Y-130669032D01*
X94907668Y-130661722D01*
X94906158Y-130659115D01*
X94906031Y-130659188D01*
X94904811Y-130662656D01*
X94902646Y-130670606D01*
X94899864Y-130681656D01*
X94896789Y-130694423D01*
X94893746Y-130707525D01*
X94891061Y-130719579D01*
X94889060Y-130729204D01*
X94888066Y-130735015D01*
X94888013Y-130735774D01*
X94858820Y-130735774D01*
X94861698Y-130722921D01*
X94867271Y-130698246D01*
X94867271Y-130698246D01*
G37*
G36*
X95050034Y-130588012D02*
G01*
X95079401Y-130588012D01*
X95099957Y-130588928D01*
X95115756Y-130591957D01*
X95127798Y-130597525D01*
X95137083Y-130606056D01*
X95143041Y-130615014D01*
X95146273Y-130621343D01*
X95148420Y-130627442D01*
X95149700Y-130634750D01*
X95150332Y-130644705D01*
X95150533Y-130658745D01*
X95150542Y-130664518D01*
X95150411Y-130680484D01*
X95149888Y-130691871D01*
X95148777Y-130700097D01*
X95146882Y-130706582D01*
X95144007Y-130712743D01*
X95143831Y-130713074D01*
X95138448Y-130721640D01*
X95132840Y-130728347D01*
X95130985Y-130729925D01*
X95128634Y-130731804D01*
X95127425Y-130734087D01*
X95127590Y-130737722D01*
X95129360Y-130743655D01*
X95132967Y-130752832D01*
X95138641Y-130766200D01*
X95141445Y-130772708D01*
X95147429Y-130786645D01*
X95152454Y-130798467D01*
X95156091Y-130807156D01*
X95157913Y-130811696D01*
X95158042Y-130812112D01*
X95155334Y-130812624D01*
X95148373Y-130812957D01*
X95142206Y-130813030D01*
X95126370Y-130813030D01*
X95111373Y-130777777D01*
X95105021Y-130763104D01*
X95100301Y-130753093D01*
X95096629Y-130746831D01*
X95093419Y-130743402D01*
X95090087Y-130741893D01*
X95088206Y-130741575D01*
X95080036Y-130740626D01*
X95080036Y-130813030D01*
X95067035Y-130813030D01*
X95058616Y-130812604D01*
X95052965Y-130811536D01*
X95052034Y-130811030D01*
X95051579Y-130807673D01*
X95051161Y-130798995D01*
X95050790Y-130785671D01*
X95050481Y-130768381D01*
X95050243Y-130747802D01*
X95050090Y-130724613D01*
X95050055Y-130708837D01*
X95050034Y-130699490D01*
X95050034Y-130620234D01*
X95080036Y-130620234D01*
X95080036Y-130708837D01*
X95094287Y-130706952D01*
X95107113Y-130703529D01*
X95114996Y-130697717D01*
X95120986Y-130686959D01*
X95124065Y-130672991D01*
X95124235Y-130657850D01*
X95121494Y-130643575D01*
X95115842Y-130632203D01*
X95114998Y-130631164D01*
X95107400Y-130625192D01*
X95096530Y-130622130D01*
X95094188Y-130621829D01*
X95080036Y-130620234D01*
X95050034Y-130620234D01*
X95050034Y-130588012D01*
X95050034Y-130588012D01*
G37*
G36*
X95332056Y-130621015D02*
G01*
X95296053Y-130621015D01*
X95296053Y-130813030D01*
X95269051Y-130813030D01*
X95269051Y-130621015D01*
X95233048Y-130621015D01*
X95233048Y-130588012D01*
X95332056Y-130588012D01*
X95332056Y-130621015D01*
X95332056Y-130621015D01*
G37*
G36*
X95446065Y-130777027D02*
G01*
X95503070Y-130777027D01*
X95503070Y-130813030D01*
X95419063Y-130813030D01*
X95419063Y-130588012D01*
X95446065Y-130588012D01*
X95446065Y-130777027D01*
X95446065Y-130777027D01*
G37*
G36*
X95606051Y-130698424D02*
G01*
X95606259Y-130697521D01*
X95631112Y-130589512D01*
X95660464Y-130589512D01*
X95685190Y-130697521D01*
X95690817Y-130722189D01*
X95695999Y-130745078D01*
X95700587Y-130765514D01*
X95704430Y-130782823D01*
X95707380Y-130796330D01*
X95709286Y-130805363D01*
X95710000Y-130809245D01*
X95710001Y-130809280D01*
X95707173Y-130811874D01*
X95698559Y-130812985D01*
X95695565Y-130813030D01*
X95681044Y-130813030D01*
X95673538Y-130771026D01*
X95618040Y-130771026D01*
X95614286Y-130792028D01*
X95610533Y-130813030D01*
X95595804Y-130813030D01*
X95585740Y-130812315D01*
X95581428Y-130810158D01*
X95581241Y-130809280D01*
X95581931Y-130805589D01*
X95583824Y-130796727D01*
X95586769Y-130783367D01*
X95590615Y-130766183D01*
X95595212Y-130745848D01*
X95597506Y-130735774D01*
X95626193Y-130735774D01*
X95628871Y-130736910D01*
X95635999Y-130737719D01*
X95645931Y-130738024D01*
X95656486Y-130737907D01*
X95662259Y-130737254D01*
X95664467Y-130735610D01*
X95664327Y-130732520D01*
X95664017Y-130731273D01*
X95662675Y-130725792D01*
X95660330Y-130715874D01*
X95657315Y-130702932D01*
X95653994Y-130688530D01*
X95645736Y-130652537D01*
X95636021Y-130693030D01*
X95632488Y-130707878D01*
X95629513Y-130720614D01*
X95627354Y-130730114D01*
X95626270Y-130735250D01*
X95626193Y-130735774D01*
X95597506Y-130735774D01*
X95600407Y-130723037D01*
X95606051Y-130698424D01*
X95606051Y-130698424D01*
G37*
G36*
X95811344Y-130588598D02*
G01*
X95825595Y-130589512D01*
X95852597Y-130656359D01*
X95879599Y-130723205D01*
X95880406Y-130655609D01*
X95881212Y-130588012D01*
X95908101Y-130588012D01*
X95908101Y-130813375D01*
X95895440Y-130812452D01*
X95882779Y-130811530D01*
X95855687Y-130744538D01*
X95828595Y-130677547D01*
X95827789Y-130745288D01*
X95826982Y-130813030D01*
X95797093Y-130813030D01*
X95797093Y-130587683D01*
X95811344Y-130588598D01*
X95811344Y-130588598D01*
G37*
G36*
X96035708Y-130588012D02*
G01*
X96054770Y-130588506D01*
X96069049Y-130590227D01*
X96079701Y-130593537D01*
X96087881Y-130598795D01*
X96094744Y-130606361D01*
X96094806Y-130606445D01*
X96100726Y-130615600D01*
X96105075Y-130625587D01*
X96108231Y-130637778D01*
X96110570Y-130653542D01*
X96112056Y-130669018D01*
X96113397Y-130696632D01*
X96112887Y-130722840D01*
X96110631Y-130746552D01*
X96106735Y-130766676D01*
X96101307Y-130782118D01*
X96100982Y-130782779D01*
X96094878Y-130793503D01*
X96088251Y-130801213D01*
X96079966Y-130806445D01*
X96068886Y-130809735D01*
X96053876Y-130811620D01*
X96038097Y-130812484D01*
X96004109Y-130813785D01*
X96004109Y-130621015D01*
X96031111Y-130621015D01*
X96031111Y-130777027D01*
X96047749Y-130777027D01*
X96058600Y-130776467D01*
X96065744Y-130774346D01*
X96071397Y-130770016D01*
X96077435Y-130760675D01*
X96081699Y-130746360D01*
X96084242Y-130726806D01*
X96085114Y-130701748D01*
X96085115Y-130700783D01*
X96084461Y-130675855D01*
X96082334Y-130656294D01*
X96078483Y-130641589D01*
X96072661Y-130631234D01*
X96064618Y-130624719D01*
X96054106Y-130621537D01*
X96046065Y-130621015D01*
X96031111Y-130621015D01*
X96004109Y-130621015D01*
X96004109Y-130588012D01*
X96035708Y-130588012D01*
X96035708Y-130588012D01*
G37*
G36*
X94290811Y-129750196D02*
G01*
X94256011Y-129826057D01*
X94223628Y-129896631D01*
X94193584Y-129962087D01*
X94165799Y-130022597D01*
X94140195Y-130078330D01*
X94116694Y-130129455D01*
X94095216Y-130176143D01*
X94075684Y-130218565D01*
X94058018Y-130256888D01*
X94042139Y-130291285D01*
X94027970Y-130321923D01*
X94015431Y-130348975D01*
X94004444Y-130372609D01*
X93994930Y-130392995D01*
X93986811Y-130410303D01*
X93980007Y-130424704D01*
X93974441Y-130436367D01*
X93970033Y-130445462D01*
X93966705Y-130452160D01*
X93964378Y-130456629D01*
X93962974Y-130459040D01*
X93962465Y-130459602D01*
X93960834Y-130456935D01*
X93956890Y-130449189D01*
X93950810Y-130436743D01*
X93942774Y-130419978D01*
X93932958Y-130399272D01*
X93921543Y-130375005D01*
X93908705Y-130347556D01*
X93894624Y-130317305D01*
X93879478Y-130284631D01*
X93863446Y-130249915D01*
X93846705Y-130213534D01*
X93843488Y-130206528D01*
X93826615Y-130169788D01*
X93810426Y-130134567D01*
X93795100Y-130101253D01*
X93780815Y-130070231D01*
X93767750Y-130041889D01*
X93756083Y-130016615D01*
X93745993Y-129994793D01*
X93737659Y-129976812D01*
X93731258Y-129963058D01*
X93726970Y-129953918D01*
X93724974Y-129949779D01*
X93724874Y-129949599D01*
X93723193Y-129951582D01*
X93719117Y-129958946D01*
X93712696Y-129971589D01*
X93703976Y-129989409D01*
X93693007Y-130012306D01*
X93679835Y-130040178D01*
X93664510Y-130072925D01*
X93647078Y-130110445D01*
X93627589Y-130152638D01*
X93606089Y-130199401D01*
X93604040Y-130203869D01*
X93587044Y-130240888D01*
X93570743Y-130276319D01*
X93555312Y-130309787D01*
X93540926Y-130340915D01*
X93527759Y-130369328D01*
X93515986Y-130394650D01*
X93505781Y-130416506D01*
X93497320Y-130434520D01*
X93490777Y-130448317D01*
X93486327Y-130457521D01*
X93484145Y-130461757D01*
X93483958Y-130462002D01*
X93482526Y-130459328D01*
X93478726Y-130451508D01*
X93472700Y-130438847D01*
X93464590Y-130421650D01*
X93454537Y-130400221D01*
X93442684Y-130374865D01*
X93429173Y-130345887D01*
X93414145Y-130313591D01*
X93397742Y-130278283D01*
X93380107Y-130240266D01*
X93361381Y-130199846D01*
X93341706Y-130157327D01*
X93321225Y-130113014D01*
X93301929Y-130071221D01*
X93121592Y-129680441D01*
X93183276Y-129679628D01*
X93205323Y-129679427D01*
X93221999Y-129679500D01*
X93233929Y-129679877D01*
X93241738Y-129680587D01*
X93246050Y-129681658D01*
X93247310Y-129682617D01*
X93248881Y-129685840D01*
X93252780Y-129694128D01*
X93258827Y-129707095D01*
X93266846Y-129724353D01*
X93276655Y-129745517D01*
X93288078Y-129770199D01*
X93300933Y-129798014D01*
X93315044Y-129828574D01*
X93330231Y-129861493D01*
X93346314Y-129896384D01*
X93363116Y-129932861D01*
X93366034Y-129939200D01*
X93382906Y-129975813D01*
X93399075Y-130010835D01*
X93414365Y-130043886D01*
X93428600Y-130074588D01*
X93441601Y-130102561D01*
X93453194Y-130127427D01*
X93463200Y-130148805D01*
X93471442Y-130166318D01*
X93477745Y-130179586D01*
X93481932Y-130188230D01*
X93483824Y-130191870D01*
X93483910Y-130191965D01*
X93485350Y-130189298D01*
X93489114Y-130181553D01*
X93495025Y-130169107D01*
X93502908Y-130152339D01*
X93512588Y-130131626D01*
X93523888Y-130107345D01*
X93536633Y-130079874D01*
X93550647Y-130049591D01*
X93565755Y-130016872D01*
X93581781Y-129982096D01*
X93598550Y-129945640D01*
X93602654Y-129936708D01*
X93619592Y-129899895D01*
X93635854Y-129864670D01*
X93651263Y-129831411D01*
X93665641Y-129800496D01*
X93678810Y-129772302D01*
X93690593Y-129747209D01*
X93700812Y-129725594D01*
X93709290Y-129707834D01*
X93715849Y-129694309D01*
X93720311Y-129685396D01*
X93722498Y-129681472D01*
X93722663Y-129681316D01*
X93724265Y-129683962D01*
X93728204Y-129691702D01*
X93734312Y-129704178D01*
X93742422Y-129721032D01*
X93752366Y-129741906D01*
X93763977Y-129766440D01*
X93777086Y-129794277D01*
X93791527Y-129825057D01*
X93807132Y-129858424D01*
X93823732Y-129894018D01*
X93841161Y-129931480D01*
X93859251Y-129970454D01*
X93877834Y-130010579D01*
X93896742Y-130051499D01*
X93915809Y-130092854D01*
X93934866Y-130134286D01*
X93952620Y-130172981D01*
X93962474Y-130194485D01*
X94080971Y-129936762D01*
X94199467Y-129679040D01*
X94261481Y-129678990D01*
X94323495Y-129678941D01*
X94290811Y-129750196D01*
X94290811Y-129750196D01*
G37*
G36*
X94515992Y-130005966D02*
G01*
X94948026Y-130005966D01*
X94948026Y-129678941D01*
X95053034Y-129678941D01*
X95053034Y-130462002D01*
X94948026Y-130462002D01*
X94948026Y-130134976D01*
X94515992Y-130134976D01*
X94515992Y-130462002D01*
X94410984Y-130462002D01*
X94410984Y-129678941D01*
X94515992Y-129678941D01*
X94515992Y-130005966D01*
X94515992Y-130005966D01*
G37*
G36*
X95308054Y-130462002D02*
G01*
X95203046Y-130462002D01*
X95203046Y-129678941D01*
X95308054Y-129678941D01*
X95308054Y-130462002D01*
X95308054Y-130462002D01*
G37*
G36*
X96115118Y-130070721D02*
G01*
X96115098Y-130118853D01*
X96115042Y-130165244D01*
X96114951Y-130209549D01*
X96114828Y-130251419D01*
X96114674Y-130290506D01*
X96114492Y-130326463D01*
X96114285Y-130358943D01*
X96114055Y-130387598D01*
X96113803Y-130412081D01*
X96113533Y-130432043D01*
X96113246Y-130447138D01*
X96112945Y-130457017D01*
X96112632Y-130461334D01*
X96112549Y-130461502D01*
X96110115Y-130459325D01*
X96103641Y-130453216D01*
X96093388Y-130443428D01*
X96079617Y-130430212D01*
X96062589Y-130413822D01*
X96042566Y-130394509D01*
X96019808Y-130372525D01*
X95994577Y-130348123D01*
X95967134Y-130321555D01*
X95937740Y-130293074D01*
X95906656Y-130262931D01*
X95874143Y-130231378D01*
X95841778Y-130199947D01*
X95573575Y-129939393D01*
X95572809Y-130200697D01*
X95572042Y-130462002D01*
X95467067Y-130462002D01*
X95467067Y-130070471D01*
X95467084Y-130022526D01*
X95467133Y-129976265D01*
X95467213Y-129932042D01*
X95467321Y-129890208D01*
X95467456Y-129851114D01*
X95467615Y-129815112D01*
X95467796Y-129782553D01*
X95467998Y-129753789D01*
X95468218Y-129729172D01*
X95468454Y-129709053D01*
X95468705Y-129693784D01*
X95468968Y-129683715D01*
X95469241Y-129679200D01*
X95469317Y-129678979D01*
X95471711Y-129681033D01*
X95478146Y-129687020D01*
X95488362Y-129696688D01*
X95502098Y-129709786D01*
X95519094Y-129726064D01*
X95539088Y-129745271D01*
X95561821Y-129767155D01*
X95587031Y-129791466D01*
X95614458Y-129817953D01*
X95643842Y-129846365D01*
X95674921Y-129876451D01*
X95707435Y-129907960D01*
X95740088Y-129939636D01*
X96008609Y-130200256D01*
X96009376Y-129939598D01*
X96010142Y-129678941D01*
X96115118Y-129678941D01*
X96115118Y-130070721D01*
X96115118Y-130070721D01*
G37*
G36*
X87737118Y-130957153D02*
G01*
X87727534Y-130958282D01*
X87721506Y-130959336D01*
X87716308Y-130960831D01*
X87714062Y-130961865D01*
X87712037Y-130963267D01*
X87710356Y-130964889D01*
X87708988Y-130967036D01*
X87707901Y-130970013D01*
X87707062Y-130974126D01*
X87706440Y-130979679D01*
X87706002Y-130986978D01*
X87705716Y-130996326D01*
X87705550Y-131008029D01*
X87705473Y-131022393D01*
X87705451Y-131039722D01*
X87705451Y-131043733D01*
X87705475Y-131062582D01*
X87705566Y-131078420D01*
X87705757Y-131091572D01*
X87706076Y-131102360D01*
X87706556Y-131111108D01*
X87707226Y-131118140D01*
X87708118Y-131123778D01*
X87709262Y-131128346D01*
X87710688Y-131132167D01*
X87712428Y-131135565D01*
X87714476Y-131138808D01*
X87720283Y-131145663D01*
X87727367Y-131150517D01*
X87736290Y-131153621D01*
X87747611Y-131155228D01*
X87751405Y-131155449D01*
X87764691Y-131155300D01*
X87775552Y-131153465D01*
X87784525Y-131149785D01*
X87792149Y-131144102D01*
X87793087Y-131143189D01*
X87796063Y-131140148D01*
X87798550Y-131137283D01*
X87800593Y-131134273D01*
X87802241Y-131130797D01*
X87803538Y-131126534D01*
X87804533Y-131121163D01*
X87805271Y-131114362D01*
X87805800Y-131105810D01*
X87806165Y-131095187D01*
X87806414Y-131082171D01*
X87806592Y-131066441D01*
X87806736Y-131049112D01*
X87806860Y-131031595D01*
X87806929Y-131017089D01*
X87806934Y-131005271D01*
X87806865Y-130995821D01*
X87806713Y-130988415D01*
X87806470Y-130982731D01*
X87806126Y-130978447D01*
X87805673Y-130975240D01*
X87805101Y-130972790D01*
X87804551Y-130971154D01*
X87801582Y-130965588D01*
X87797257Y-130961841D01*
X87790854Y-130959437D01*
X87785034Y-130958340D01*
X87777118Y-130957188D01*
X87777118Y-130934891D01*
X87878784Y-130934891D01*
X87878784Y-130956966D01*
X87871909Y-130958066D01*
X87864860Y-130959697D01*
X87860178Y-130962276D01*
X87856912Y-130966433D01*
X87855745Y-130968777D01*
X87855078Y-130970607D01*
X87854512Y-130973092D01*
X87854034Y-130976534D01*
X87853629Y-130981233D01*
X87853285Y-130987490D01*
X87852988Y-130995605D01*
X87852723Y-131005880D01*
X87852478Y-131018615D01*
X87852238Y-131034112D01*
X87852014Y-131050732D01*
X87851767Y-131069516D01*
X87851524Y-131085307D01*
X87851245Y-131098445D01*
X87850892Y-131109268D01*
X87850425Y-131118116D01*
X87849805Y-131125331D01*
X87848993Y-131131250D01*
X87847949Y-131136214D01*
X87846636Y-131140563D01*
X87845012Y-131144636D01*
X87843041Y-131148774D01*
X87840681Y-131153315D01*
X87840058Y-131154492D01*
X87832085Y-131166043D01*
X87821506Y-131175615D01*
X87808462Y-131183114D01*
X87793097Y-131188446D01*
X87786415Y-131189935D01*
X87779089Y-131190931D01*
X87769540Y-131191649D01*
X87758665Y-131192081D01*
X87747361Y-131192217D01*
X87736527Y-131192049D01*
X87727060Y-131191569D01*
X87719857Y-131190767D01*
X87718909Y-131190596D01*
X87701660Y-131186017D01*
X87687056Y-131179511D01*
X87674942Y-131170955D01*
X87665163Y-131160229D01*
X87657565Y-131147214D01*
X87654941Y-131140915D01*
X87654127Y-131138605D01*
X87653445Y-131136186D01*
X87652877Y-131133344D01*
X87652408Y-131129765D01*
X87652023Y-131125135D01*
X87651706Y-131119140D01*
X87651441Y-131111467D01*
X87651213Y-131101800D01*
X87651005Y-131089828D01*
X87650803Y-131075235D01*
X87650591Y-131057708D01*
X87650529Y-131052399D01*
X87650307Y-131033916D01*
X87650095Y-131018471D01*
X87649880Y-131005768D01*
X87649647Y-130995512D01*
X87649385Y-130987406D01*
X87649078Y-130981157D01*
X87648714Y-130976467D01*
X87648279Y-130973041D01*
X87647761Y-130970584D01*
X87647144Y-130968800D01*
X87646684Y-130967859D01*
X87643509Y-130963261D01*
X87639483Y-130960397D01*
X87633496Y-130958553D01*
X87631670Y-130958188D01*
X87625451Y-130957021D01*
X87625451Y-130945956D01*
X87625452Y-130934891D01*
X87737118Y-130934891D01*
X87737118Y-130957153D01*
X87737118Y-130957153D01*
G37*
G36*
X90830525Y-130931018D02*
G01*
X90854906Y-130934448D01*
X90864618Y-130936270D01*
X90882951Y-130939943D01*
X90883401Y-130975336D01*
X90883850Y-131010729D01*
X90851120Y-131010729D01*
X90851778Y-131005093D01*
X90851703Y-130997911D01*
X90850288Y-130989558D01*
X90847883Y-130981540D01*
X90844898Y-130975453D01*
X90838496Y-130968277D01*
X90830218Y-130963188D01*
X90819750Y-130960057D01*
X90806781Y-130958760D01*
X90803684Y-130958708D01*
X90790517Y-130959613D01*
X90779639Y-130962560D01*
X90770590Y-130967706D01*
X90766250Y-130971506D01*
X90759939Y-130979886D01*
X90756659Y-130988982D01*
X90756345Y-130998274D01*
X90758932Y-131007244D01*
X90764354Y-131015372D01*
X90772547Y-131022139D01*
X90772605Y-131022175D01*
X90775672Y-131023741D01*
X90781317Y-131026312D01*
X90789018Y-131029662D01*
X90798254Y-131033566D01*
X90808502Y-131037799D01*
X90813784Y-131039945D01*
X90824645Y-131044413D01*
X90835023Y-131048831D01*
X90844327Y-131052935D01*
X90851962Y-131056463D01*
X90857337Y-131059150D01*
X90858784Y-131059968D01*
X90870861Y-131068954D01*
X90880782Y-131079800D01*
X90886591Y-131089068D01*
X90888602Y-131093227D01*
X90889940Y-131096921D01*
X90890741Y-131100994D01*
X90891140Y-131106295D01*
X90891274Y-131113669D01*
X90891284Y-131118271D01*
X90891238Y-131126894D01*
X90890997Y-131133071D01*
X90890405Y-131137693D01*
X90889309Y-131141647D01*
X90887553Y-131145821D01*
X90885882Y-131149282D01*
X90877983Y-131161621D01*
X90867451Y-131171980D01*
X90854384Y-131180292D01*
X90838881Y-131186489D01*
X90828014Y-131189255D01*
X90820368Y-131190606D01*
X90812340Y-131191502D01*
X90803082Y-131192002D01*
X90791748Y-131192162D01*
X90785451Y-131192136D01*
X90775822Y-131192022D01*
X90767024Y-131191853D01*
X90759747Y-131191649D01*
X90754683Y-131191426D01*
X90752951Y-131191286D01*
X90744770Y-131190197D01*
X90735577Y-131188857D01*
X90726234Y-131187407D01*
X90717602Y-131185982D01*
X90710540Y-131184721D01*
X90705910Y-131183761D01*
X90705868Y-131183751D01*
X90698784Y-131182011D01*
X90698784Y-131110736D01*
X90730451Y-131110736D01*
X90730451Y-131117934D01*
X90731893Y-131129921D01*
X90736050Y-131140732D01*
X90742667Y-131149709D01*
X90742795Y-131149837D01*
X90749255Y-131155305D01*
X90756404Y-131159174D01*
X90764906Y-131161649D01*
X90775422Y-131162932D01*
X90786284Y-131163239D01*
X90794667Y-131163165D01*
X90800664Y-131162837D01*
X90805221Y-131162094D01*
X90809286Y-131160777D01*
X90813803Y-131158728D01*
X90814203Y-131158532D01*
X90822944Y-131152876D01*
X90828843Y-131145731D01*
X90832104Y-131136761D01*
X90832951Y-131127404D01*
X90831885Y-131117344D01*
X90828482Y-131109325D01*
X90822432Y-131102742D01*
X90819085Y-131100299D01*
X90815484Y-131098277D01*
X90809439Y-131095280D01*
X90801591Y-131091608D01*
X90792575Y-131087560D01*
X90784500Y-131084060D01*
X90766835Y-131076361D01*
X90752031Y-131069495D01*
X90739781Y-131063264D01*
X90729778Y-131057471D01*
X90721713Y-131051916D01*
X90715278Y-131046401D01*
X90710167Y-131040729D01*
X90706071Y-131034700D01*
X90705052Y-131032900D01*
X90700467Y-131021259D01*
X90698281Y-131008156D01*
X90698498Y-130994450D01*
X90701122Y-130980999D01*
X90704703Y-130971532D01*
X90709774Y-130963451D01*
X90717080Y-130955224D01*
X90725690Y-130947756D01*
X90734677Y-130941956D01*
X90735332Y-130941618D01*
X90749882Y-130935837D01*
X90766954Y-130931875D01*
X90786271Y-130929743D01*
X90807554Y-130929454D01*
X90830525Y-130931018D01*
X90830525Y-130931018D01*
G37*
G36*
X92475148Y-131113833D02*
G01*
X92480665Y-131101976D01*
X92488578Y-131091548D01*
X92498661Y-131082993D01*
X92510690Y-131076758D01*
X92514406Y-131075479D01*
X92528050Y-131072916D01*
X92541569Y-131073439D01*
X92554487Y-131076843D01*
X92566329Y-131082927D01*
X92576619Y-131091486D01*
X92584883Y-131102318D01*
X92587189Y-131106569D01*
X92589053Y-131110757D01*
X92590255Y-131114803D01*
X92590933Y-131119617D01*
X92591229Y-131126111D01*
X92591284Y-131133237D01*
X92591197Y-131141753D01*
X92590842Y-131147848D01*
X92590079Y-131152434D01*
X92588767Y-131156420D01*
X92587171Y-131159906D01*
X92581322Y-131169034D01*
X92573376Y-131177708D01*
X92564397Y-131184878D01*
X92558373Y-131188299D01*
X92553680Y-131190258D01*
X92549172Y-131191467D01*
X92543815Y-131192087D01*
X92536574Y-131192280D01*
X92532951Y-131192274D01*
X92523584Y-131191939D01*
X92515669Y-131191116D01*
X92510104Y-131189903D01*
X92509779Y-131189789D01*
X92499818Y-131184587D01*
X92490452Y-131176841D01*
X92482431Y-131167337D01*
X92476505Y-131156861D01*
X92475201Y-131153512D01*
X92472191Y-131140047D01*
X92472231Y-131130598D01*
X92482177Y-131130598D01*
X92482902Y-131141983D01*
X92486158Y-131152937D01*
X92491833Y-131162986D01*
X92499810Y-131171654D01*
X92509976Y-131178465D01*
X92516271Y-131181181D01*
X92526380Y-131183322D01*
X92537527Y-131183255D01*
X92548309Y-131181045D01*
X92552304Y-131179531D01*
X92563033Y-131173107D01*
X92571650Y-131164194D01*
X92577039Y-131155368D01*
X92581198Y-131143530D01*
X92582282Y-131131351D01*
X92580414Y-131119391D01*
X92575720Y-131108209D01*
X92568323Y-131098365D01*
X92563458Y-131093967D01*
X92552354Y-131087124D01*
X92540624Y-131083424D01*
X92528670Y-131082838D01*
X92516896Y-131085337D01*
X92505707Y-131090895D01*
X92496346Y-131098614D01*
X92488785Y-131108438D01*
X92484100Y-131119258D01*
X92482177Y-131130598D01*
X92472231Y-131130598D01*
X92472248Y-131126672D01*
X92475148Y-131113833D01*
X92475148Y-131113833D01*
G37*
G36*
X89231766Y-130946558D02*
G01*
X89231284Y-130958226D01*
X89221284Y-130959189D01*
X89212145Y-130960728D01*
X89206058Y-130963359D01*
X89202890Y-130967193D01*
X89202507Y-130972343D01*
X89203006Y-130974477D01*
X89203710Y-130976604D01*
X89205373Y-130981507D01*
X89207867Y-130988813D01*
X89211061Y-130998147D01*
X89214828Y-131009135D01*
X89219039Y-131021401D01*
X89223564Y-131034572D01*
X89228275Y-131048274D01*
X89233044Y-131062131D01*
X89237741Y-131075770D01*
X89242238Y-131088816D01*
X89246405Y-131100894D01*
X89250115Y-131111631D01*
X89253238Y-131120652D01*
X89255645Y-131127583D01*
X89257208Y-131132048D01*
X89257317Y-131132356D01*
X89257808Y-131133574D01*
X89258338Y-131134236D01*
X89258999Y-131134105D01*
X89259885Y-131132942D01*
X89261087Y-131130508D01*
X89262699Y-131126565D01*
X89264811Y-131120875D01*
X89267518Y-131113199D01*
X89270910Y-131103298D01*
X89275082Y-131090935D01*
X89280124Y-131075871D01*
X89285742Y-131059031D01*
X89292840Y-131037591D01*
X89298839Y-131019141D01*
X89303732Y-131003705D01*
X89307513Y-130991307D01*
X89310174Y-130981973D01*
X89311707Y-130975725D01*
X89312118Y-130972862D01*
X89311139Y-130966986D01*
X89307949Y-130962993D01*
X89302170Y-130960536D01*
X89297710Y-130959708D01*
X89290951Y-130958779D01*
X89286826Y-130957802D01*
X89284688Y-130956144D01*
X89283888Y-130953174D01*
X89283779Y-130948258D01*
X89283784Y-130946110D01*
X89283783Y-130934891D01*
X89387117Y-130934891D01*
X89387117Y-130946975D01*
X89386999Y-130953348D01*
X89386545Y-130957048D01*
X89385608Y-130958729D01*
X89384398Y-130959059D01*
X89379737Y-130960388D01*
X89374437Y-130963864D01*
X89369481Y-130968725D01*
X89366504Y-130972955D01*
X89365285Y-130975694D01*
X89363065Y-130981297D01*
X89359947Y-130989486D01*
X89356033Y-130999980D01*
X89351427Y-131012498D01*
X89346232Y-131026760D01*
X89340550Y-131042486D01*
X89334485Y-131059395D01*
X89328138Y-131077209D01*
X89325269Y-131085301D01*
X89287951Y-131190707D01*
X89257118Y-131190712D01*
X89226284Y-131190716D01*
X89188929Y-131089472D01*
X89182339Y-131071646D01*
X89175982Y-131054511D01*
X89169967Y-131038362D01*
X89164406Y-131023495D01*
X89159411Y-131010207D01*
X89155092Y-130998793D01*
X89151562Y-130989549D01*
X89148931Y-130982770D01*
X89147310Y-130978753D01*
X89147082Y-130978227D01*
X89142022Y-130969000D01*
X89136419Y-130962829D01*
X89130025Y-130959448D01*
X89129419Y-130959275D01*
X89126889Y-130958421D01*
X89125410Y-130957002D01*
X89124645Y-130954203D01*
X89124259Y-130949209D01*
X89124137Y-130946444D01*
X89123656Y-130934891D01*
X89232247Y-130934891D01*
X89231766Y-130946558D01*
X89231766Y-130946558D01*
G37*
G36*
X88266284Y-130934100D02*
G01*
X88305378Y-131017834D01*
X88312965Y-131034076D01*
X88320361Y-131049897D01*
X88327404Y-131064946D01*
X88333930Y-131078877D01*
X88339775Y-131091341D01*
X88344776Y-131101988D01*
X88348770Y-131110470D01*
X88351593Y-131116440D01*
X88352449Y-131118236D01*
X88360426Y-131134904D01*
X88360022Y-131054899D01*
X88359924Y-131036475D01*
X88359825Y-131021087D01*
X88359711Y-131008434D01*
X88359568Y-130998220D01*
X88359384Y-130990144D01*
X88359145Y-130983910D01*
X88358838Y-130979217D01*
X88358450Y-130975767D01*
X88357967Y-130973262D01*
X88357376Y-130971404D01*
X88356663Y-130969893D01*
X88356201Y-130969077D01*
X88352198Y-130963910D01*
X88346952Y-130960580D01*
X88339593Y-130958602D01*
X88336701Y-130958182D01*
X88328784Y-130957188D01*
X88328784Y-130934891D01*
X88435451Y-130934891D01*
X88435451Y-130957188D01*
X88427534Y-130958340D01*
X88419265Y-130960150D01*
X88413568Y-130963028D01*
X88409739Y-130967424D01*
X88408157Y-130970696D01*
X88407601Y-130972375D01*
X88407126Y-130974589D01*
X88406725Y-130977593D01*
X88406392Y-130981640D01*
X88406121Y-130986984D01*
X88405907Y-130993879D01*
X88405742Y-131002579D01*
X88405621Y-131013339D01*
X88405537Y-131026411D01*
X88405485Y-131042051D01*
X88405459Y-131060512D01*
X88405451Y-131082047D01*
X88405451Y-131187473D01*
X88369580Y-131187023D01*
X88333710Y-131186574D01*
X88287087Y-131087546D01*
X88279083Y-131070553D01*
X88271501Y-131054469D01*
X88264459Y-131039544D01*
X88258076Y-131026029D01*
X88252470Y-131014175D01*
X88247759Y-131004232D01*
X88244063Y-130996451D01*
X88241501Y-130991082D01*
X88240189Y-130988376D01*
X88240041Y-130988095D01*
X88239968Y-130989621D01*
X88239923Y-130994157D01*
X88239906Y-131001381D01*
X88239916Y-131010971D01*
X88239953Y-131022605D01*
X88240015Y-131035958D01*
X88240102Y-131050710D01*
X88240211Y-131066281D01*
X88240415Y-131088042D01*
X88240674Y-131106510D01*
X88240988Y-131121725D01*
X88241360Y-131133727D01*
X88241789Y-131142556D01*
X88242279Y-131148251D01*
X88242711Y-131150572D01*
X88246184Y-131156769D01*
X88251914Y-131160931D01*
X88260199Y-131163252D01*
X88262632Y-131163560D01*
X88272118Y-131164539D01*
X88272118Y-131186623D01*
X88163784Y-131186623D01*
X88163784Y-131164073D01*
X88169584Y-131164073D01*
X88177762Y-131162884D01*
X88185081Y-131159656D01*
X88190491Y-131154892D01*
X88191370Y-131153607D01*
X88192113Y-131152239D01*
X88192736Y-131150607D01*
X88193253Y-131148416D01*
X88193677Y-131145373D01*
X88194020Y-131141186D01*
X88194295Y-131135561D01*
X88194514Y-131128204D01*
X88194692Y-131118823D01*
X88194839Y-131107124D01*
X88194970Y-131092813D01*
X88195096Y-131075598D01*
X88195157Y-131066566D01*
X88195277Y-131046210D01*
X88195334Y-131028913D01*
X88195305Y-131014401D01*
X88195169Y-131002400D01*
X88194903Y-130992635D01*
X88194486Y-130984833D01*
X88193895Y-130978719D01*
X88193109Y-130974019D01*
X88192105Y-130970459D01*
X88190862Y-130967765D01*
X88189358Y-130965663D01*
X88187570Y-130963877D01*
X88186883Y-130963285D01*
X88182637Y-130960509D01*
X88178629Y-130959102D01*
X88178031Y-130959059D01*
X88173550Y-130958724D01*
X88168993Y-130958017D01*
X88163784Y-130956976D01*
X88163784Y-130934058D01*
X88266284Y-130934100D01*
X88266284Y-130934100D01*
G37*
G36*
X88843784Y-130946040D02*
G01*
X88843784Y-130957188D01*
X88835868Y-130958340D01*
X88829962Y-130959567D01*
X88824636Y-130961263D01*
X88823236Y-130961886D01*
X88821223Y-130962971D01*
X88819518Y-130964195D01*
X88818095Y-130965826D01*
X88816930Y-130968134D01*
X88815996Y-130971387D01*
X88815268Y-130975855D01*
X88814721Y-130981805D01*
X88814328Y-130989508D01*
X88814064Y-130999232D01*
X88813904Y-131011246D01*
X88813821Y-131025819D01*
X88813791Y-131043220D01*
X88813787Y-131061096D01*
X88813795Y-131080320D01*
X88813824Y-131096496D01*
X88813884Y-131109911D01*
X88813982Y-131120848D01*
X88814130Y-131129595D01*
X88814334Y-131136437D01*
X88814606Y-131141660D01*
X88814953Y-131145549D01*
X88815386Y-131148390D01*
X88815912Y-131150469D01*
X88816542Y-131152071D01*
X88816703Y-131152405D01*
X88821363Y-131158234D01*
X88828187Y-131162282D01*
X88836258Y-131164037D01*
X88837534Y-131164070D01*
X88843784Y-131164073D01*
X88843784Y-131186587D01*
X88784618Y-131186619D01*
X88725451Y-131186651D01*
X88725451Y-131164497D01*
X88733908Y-131163684D01*
X88739927Y-131162524D01*
X88745217Y-131160541D01*
X88746825Y-131159572D01*
X88748864Y-131158048D01*
X88750587Y-131156556D01*
X88752020Y-131154816D01*
X88753190Y-131152551D01*
X88754124Y-131149483D01*
X88754848Y-131145332D01*
X88755389Y-131139821D01*
X88755774Y-131132671D01*
X88756029Y-131123604D01*
X88756181Y-131112341D01*
X88756256Y-131098604D01*
X88756282Y-131082114D01*
X88756284Y-131062594D01*
X88756284Y-131060733D01*
X88756277Y-131041494D01*
X88756250Y-131025304D01*
X88756194Y-131011881D01*
X88756099Y-131000938D01*
X88755956Y-130992194D01*
X88755756Y-130985363D01*
X88755491Y-130980162D01*
X88755150Y-130976307D01*
X88754725Y-130973513D01*
X88754206Y-130971497D01*
X88753584Y-130969975D01*
X88753333Y-130969492D01*
X88749449Y-130964143D01*
X88744296Y-130960699D01*
X88737016Y-130958655D01*
X88734201Y-130958228D01*
X88725451Y-130957080D01*
X88725451Y-130945985D01*
X88725450Y-130934891D01*
X88843783Y-130934891D01*
X88843784Y-130946040D01*
X88843784Y-130946040D01*
G37*
G36*
X89872118Y-131005729D02*
G01*
X89847118Y-131005729D01*
X89847115Y-130996145D01*
X89845918Y-130985862D01*
X89842320Y-130977873D01*
X89836303Y-130972136D01*
X89835451Y-130971617D01*
X89833277Y-130970500D01*
X89830783Y-130969644D01*
X89827492Y-130969005D01*
X89822927Y-130968541D01*
X89816612Y-130968208D01*
X89808071Y-130967961D01*
X89796827Y-130967759D01*
X89792534Y-130967695D01*
X89755451Y-130967164D01*
X89755451Y-131044364D01*
X89770034Y-131043186D01*
X89780736Y-131041968D01*
X89788608Y-131040048D01*
X89794141Y-131037055D01*
X89797823Y-131032617D01*
X89800141Y-131026364D01*
X89801407Y-131019324D01*
X89802547Y-131010729D01*
X89825451Y-131010729D01*
X89825451Y-131102402D01*
X89802322Y-131102402D01*
X89801170Y-131094485D01*
X89799392Y-131085970D01*
X89796584Y-131079804D01*
X89792248Y-131075599D01*
X89785886Y-131072967D01*
X89777001Y-131071518D01*
X89771217Y-131071104D01*
X89755451Y-131070279D01*
X89755451Y-131155739D01*
X89787534Y-131155699D01*
X89798020Y-131155608D01*
X89807785Y-131155380D01*
X89816174Y-131155040D01*
X89822529Y-131154616D01*
X89826155Y-131154143D01*
X89834897Y-131150693D01*
X89841417Y-131144865D01*
X89845783Y-131136569D01*
X89848059Y-131125717D01*
X89848171Y-131124532D01*
X89848842Y-131116855D01*
X89849598Y-131111896D01*
X89850925Y-131109063D01*
X89853303Y-131107764D01*
X89857218Y-131107407D01*
X89862149Y-131107402D01*
X89873784Y-131107402D01*
X89873784Y-131187407D01*
X89667118Y-131187407D01*
X89667118Y-131164539D01*
X89676136Y-131163608D01*
X89685017Y-131161787D01*
X89691348Y-131158282D01*
X89695591Y-131152836D01*
X89695611Y-131152799D01*
X89696152Y-131150104D01*
X89696650Y-131144470D01*
X89697103Y-131136292D01*
X89697507Y-131125964D01*
X89697858Y-131113880D01*
X89698153Y-131100434D01*
X89698390Y-131086022D01*
X89698564Y-131071038D01*
X89698672Y-131055875D01*
X89698712Y-131040929D01*
X89698679Y-131026593D01*
X89698571Y-131013263D01*
X89698384Y-131001332D01*
X89698115Y-130991196D01*
X89697760Y-130983247D01*
X89697317Y-130977882D01*
X89697086Y-130976410D01*
X89694409Y-130968490D01*
X89689936Y-130963048D01*
X89683221Y-130959696D01*
X89676402Y-130958313D01*
X89667118Y-130957153D01*
X89667118Y-130935724D01*
X89872118Y-130935724D01*
X89872118Y-131005729D01*
X89872118Y-131005729D01*
G37*
G36*
X90198741Y-131023934D02*
G01*
X90198650Y-131009681D01*
X90198479Y-130997955D01*
X90198201Y-130988486D01*
X90197791Y-130981007D01*
X90197223Y-130975248D01*
X90196472Y-130970939D01*
X90195512Y-130967814D01*
X90195104Y-130967058D01*
X90255451Y-130967058D01*
X90255451Y-131047733D01*
X90276701Y-131047099D01*
X90286457Y-131046701D01*
X90293650Y-131046106D01*
X90299046Y-131045207D01*
X90303414Y-131043891D01*
X90305632Y-131042963D01*
X90311303Y-131039555D01*
X90316427Y-131035156D01*
X90317850Y-131033510D01*
X90322006Y-131025636D01*
X90324338Y-131015943D01*
X90324840Y-131005411D01*
X90323502Y-130995018D01*
X90320318Y-130985742D01*
X90318271Y-130982179D01*
X90314621Y-130978252D01*
X90309386Y-130974278D01*
X90306333Y-130972492D01*
X90302471Y-130970673D01*
X90298683Y-130969418D01*
X90294178Y-130968595D01*
X90288165Y-130968077D01*
X90279850Y-130967732D01*
X90276750Y-130967642D01*
X90255451Y-130967058D01*
X90195104Y-130967058D01*
X90194317Y-130965601D01*
X90192862Y-130964033D01*
X90191122Y-130962840D01*
X90189332Y-130961886D01*
X90184716Y-130960159D01*
X90178788Y-130958696D01*
X90176701Y-130958340D01*
X90168784Y-130957188D01*
X90168784Y-130934058D01*
X90220034Y-130934082D01*
X90234195Y-130934145D01*
X90248533Y-130934308D01*
X90262362Y-130934558D01*
X90274993Y-130934878D01*
X90285739Y-130935255D01*
X90293914Y-130935673D01*
X90294618Y-130935720D01*
X90313770Y-130937686D01*
X90329995Y-130940799D01*
X90343534Y-130945169D01*
X90354627Y-130950909D01*
X90363517Y-130958131D01*
X90370445Y-130966944D01*
X90373318Y-130972126D01*
X90375272Y-130976338D01*
X90376585Y-130980086D01*
X90377381Y-130984198D01*
X90377790Y-130989503D01*
X90377936Y-130996827D01*
X90377951Y-131002395D01*
X90377900Y-131011286D01*
X90377661Y-131017673D01*
X90377108Y-131022383D01*
X90376113Y-131026245D01*
X90374550Y-131030089D01*
X90373300Y-131032700D01*
X90366494Y-131043201D01*
X90357375Y-131051471D01*
X90348310Y-131056633D01*
X90340117Y-131060429D01*
X90347548Y-131063716D01*
X90355528Y-131068938D01*
X90362054Y-131076555D01*
X90365484Y-131083241D01*
X90366537Y-131086482D01*
X90368234Y-131092304D01*
X90370394Y-131100060D01*
X90372837Y-131109100D01*
X90374747Y-131116344D01*
X90377377Y-131125989D01*
X90380011Y-131134885D01*
X90382436Y-131142365D01*
X90384439Y-131147763D01*
X90385517Y-131150012D01*
X90391628Y-131156830D01*
X90399969Y-131161513D01*
X90407735Y-131163468D01*
X90415451Y-131164526D01*
X90415451Y-131187407D01*
X90339024Y-131187407D01*
X90335487Y-131177955D01*
X90330463Y-131162679D01*
X90325644Y-131144305D01*
X90322121Y-131128237D01*
X90318919Y-131113836D01*
X90315598Y-131102407D01*
X90311821Y-131093592D01*
X90307252Y-131087037D01*
X90301551Y-131082386D01*
X90294383Y-131079284D01*
X90285409Y-131077375D01*
X90274293Y-131076303D01*
X90272741Y-131076210D01*
X90255111Y-131075212D01*
X90255730Y-131110892D01*
X90256004Y-131123923D01*
X90256383Y-131134073D01*
X90256959Y-131141794D01*
X90257824Y-131147539D01*
X90259073Y-131151759D01*
X90260799Y-131154907D01*
X90263093Y-131157436D01*
X90265743Y-131159572D01*
X90270153Y-131161732D01*
X90276079Y-131163320D01*
X90278660Y-131163684D01*
X90287118Y-131164497D01*
X90287118Y-131186597D01*
X90168784Y-131186597D01*
X90168784Y-131164073D01*
X90175034Y-131164070D01*
X90183214Y-131162709D01*
X90190287Y-131158975D01*
X90195334Y-131153384D01*
X90195865Y-131152405D01*
X90196520Y-131150873D01*
X90197069Y-131148930D01*
X90197523Y-131146291D01*
X90197889Y-131142671D01*
X90198177Y-131137783D01*
X90198397Y-131131342D01*
X90198557Y-131123063D01*
X90198666Y-131112659D01*
X90198733Y-131099845D01*
X90198769Y-131084335D01*
X90198781Y-131065843D01*
X90198782Y-131061096D01*
X90198779Y-131047733D01*
X90198776Y-131040982D01*
X90198741Y-131023934D01*
X90198741Y-131023934D01*
G37*
G36*
X91305451Y-130957153D02*
G01*
X91295874Y-130958349D01*
X91286912Y-130960621D01*
X91280491Y-130964989D01*
X91276421Y-130971641D01*
X91274678Y-130979150D01*
X91274467Y-130982639D01*
X91274291Y-130989089D01*
X91274153Y-130998127D01*
X91274054Y-131009381D01*
X91273998Y-131022477D01*
X91273986Y-131037044D01*
X91274021Y-131052709D01*
X91274100Y-131068233D01*
X91274228Y-131087362D01*
X91274365Y-131103443D01*
X91274537Y-131116762D01*
X91274775Y-131127604D01*
X91275108Y-131136255D01*
X91275563Y-131143000D01*
X91276170Y-131148125D01*
X91276957Y-131151916D01*
X91277954Y-131154657D01*
X91279189Y-131156636D01*
X91280690Y-131158137D01*
X91282488Y-131159445D01*
X91283356Y-131160018D01*
X91287361Y-131161724D01*
X91293069Y-131163123D01*
X91296433Y-131163608D01*
X91305451Y-131164539D01*
X91305451Y-131186651D01*
X91246284Y-131186619D01*
X91187118Y-131186587D01*
X91187118Y-131164497D01*
X91195575Y-131163684D01*
X91204465Y-131161584D01*
X91210921Y-131157244D01*
X91214901Y-131150693D01*
X91214940Y-131150582D01*
X91215439Y-131148035D01*
X91215863Y-131143355D01*
X91216213Y-131136370D01*
X91216496Y-131126908D01*
X91216714Y-131114798D01*
X91216872Y-131099868D01*
X91216974Y-131081945D01*
X91217023Y-131061183D01*
X91217035Y-131042005D01*
X91217016Y-131025872D01*
X91216960Y-131012496D01*
X91216857Y-131001586D01*
X91216699Y-130992855D01*
X91216478Y-130986014D01*
X91216186Y-130980774D01*
X91215814Y-130976846D01*
X91215354Y-130973943D01*
X91214798Y-130971774D01*
X91214411Y-130970696D01*
X91211319Y-130965261D01*
X91206749Y-130961592D01*
X91199999Y-130959243D01*
X91195034Y-130958340D01*
X91187118Y-130957188D01*
X91187118Y-130934891D01*
X91305451Y-130934891D01*
X91305451Y-130957153D01*
X91305451Y-130957153D01*
G37*
G36*
X91818784Y-131012396D02*
G01*
X91788784Y-131012396D01*
X91788748Y-131000312D01*
X91788056Y-130989541D01*
X91785851Y-130981247D01*
X91781825Y-130975164D01*
X91775669Y-130971025D01*
X91767077Y-130968564D01*
X91755741Y-130967514D01*
X91750813Y-130967430D01*
X91733675Y-130967393D01*
X91734146Y-131057816D01*
X91734252Y-131077491D01*
X91734356Y-131094112D01*
X91734470Y-131107956D01*
X91734603Y-131119303D01*
X91734769Y-131128431D01*
X91734977Y-131135618D01*
X91735239Y-131141143D01*
X91735567Y-131145284D01*
X91735971Y-131148322D01*
X91736463Y-131150533D01*
X91737055Y-131152196D01*
X91737756Y-131153591D01*
X91738033Y-131154072D01*
X91742706Y-131159334D01*
X91749535Y-131162572D01*
X91758840Y-131163924D01*
X91760868Y-131163979D01*
X91768784Y-131164073D01*
X91768784Y-131186627D01*
X91642118Y-131186627D01*
X91642118Y-131164529D01*
X91652684Y-131163681D01*
X91659002Y-131162797D01*
X91664534Y-131161377D01*
X91667427Y-131160096D01*
X91669285Y-131158852D01*
X91670864Y-131157571D01*
X91672187Y-131155987D01*
X91673279Y-131153830D01*
X91674164Y-131150834D01*
X91674867Y-131146732D01*
X91675412Y-131141255D01*
X91675823Y-131134136D01*
X91676126Y-131125107D01*
X91676343Y-131113902D01*
X91676501Y-131100252D01*
X91676622Y-131083889D01*
X91676732Y-131064547D01*
X91676769Y-131057642D01*
X91677253Y-130967047D01*
X91656473Y-130967636D01*
X91647449Y-130967963D01*
X91641079Y-130968413D01*
X91636686Y-130969095D01*
X91633592Y-130970117D01*
X91631118Y-130971584D01*
X91630988Y-130971678D01*
X91625777Y-130976787D01*
X91622445Y-130983373D01*
X91620766Y-130992034D01*
X91620453Y-130999479D01*
X91620451Y-131012396D01*
X91592118Y-131012396D01*
X91592118Y-130934891D01*
X91818784Y-130934891D01*
X91818784Y-131012396D01*
X91818784Y-131012396D01*
G37*
G36*
X92202118Y-130957241D02*
G01*
X92195868Y-130958337D01*
X92188447Y-130960405D01*
X92183971Y-130963598D01*
X92182178Y-130968126D01*
X92182118Y-130969349D01*
X92182800Y-130972084D01*
X92184689Y-130977131D01*
X92187547Y-130983985D01*
X92191135Y-130992142D01*
X92195215Y-131001098D01*
X92199550Y-131010351D01*
X92203902Y-131019396D01*
X92208032Y-131027730D01*
X92211702Y-131034850D01*
X92214675Y-131040250D01*
X92216712Y-131043429D01*
X92217426Y-131044065D01*
X92218544Y-131042637D01*
X92220894Y-131038638D01*
X92224248Y-131032491D01*
X92228375Y-131024620D01*
X92233049Y-131015450D01*
X92235480Y-131010588D01*
X92241715Y-130997842D01*
X92246422Y-130987665D01*
X92249692Y-130979710D01*
X92251616Y-130973631D01*
X92252286Y-130969083D01*
X92251793Y-130965721D01*
X92250229Y-130963199D01*
X92248413Y-130961654D01*
X92244213Y-130959650D01*
X92241050Y-130959059D01*
X92236559Y-130958722D01*
X92233878Y-130957269D01*
X92232555Y-130954034D01*
X92232135Y-130948353D01*
X92232117Y-130945963D01*
X92232117Y-130934891D01*
X92333783Y-130934891D01*
X92333784Y-130946077D01*
X92333784Y-130957264D01*
X92327118Y-130959059D01*
X92320968Y-130961896D01*
X92314884Y-130966680D01*
X92314201Y-130967370D01*
X92311934Y-130970246D01*
X92308179Y-130975621D01*
X92303169Y-130983136D01*
X92297136Y-130992434D01*
X92290311Y-131003158D01*
X92282926Y-131014949D01*
X92275212Y-131027450D01*
X92274201Y-131029103D01*
X92240451Y-131084321D01*
X92240457Y-131117113D01*
X92240487Y-131128545D01*
X92240602Y-131137153D01*
X92240844Y-131143445D01*
X92241257Y-131147929D01*
X92241884Y-131151115D01*
X92242769Y-131153511D01*
X92243704Y-131155220D01*
X92248587Y-131160096D01*
X92256133Y-131163039D01*
X92266376Y-131164062D01*
X92266701Y-131164063D01*
X92273784Y-131164073D01*
X92273784Y-131186630D01*
X92153784Y-131186630D01*
X92153784Y-131164073D01*
X92160868Y-131163979D01*
X92170561Y-131162741D01*
X92178242Y-131159431D01*
X92182795Y-131155200D01*
X92184015Y-131153321D01*
X92184930Y-131151097D01*
X92185597Y-131148022D01*
X92186071Y-131143590D01*
X92186408Y-131137295D01*
X92186665Y-131128632D01*
X92186874Y-131118316D01*
X92187464Y-131086138D01*
X92156041Y-131031367D01*
X92146686Y-131015153D01*
X92138734Y-131001619D01*
X92131995Y-130990514D01*
X92126281Y-130981589D01*
X92121403Y-130974592D01*
X92117174Y-130969275D01*
X92113404Y-130965387D01*
X92109905Y-130962677D01*
X92106488Y-130960896D01*
X92102966Y-130959794D01*
X92101922Y-130959570D01*
X92094618Y-130958131D01*
X92094136Y-130946511D01*
X92093655Y-130934891D01*
X92202118Y-130934891D01*
X92202118Y-130957241D01*
X92202118Y-130957241D01*
G37*
G36*
X92348784Y-130807383D02*
G01*
X87597118Y-130807383D01*
X87597118Y-130760713D01*
X92348784Y-130760713D01*
X92348784Y-130807383D01*
X92348784Y-130807383D01*
G37*
G36*
X88755451Y-129946928D02*
G01*
X88729201Y-129947754D01*
X88712402Y-129948759D01*
X88698497Y-129950749D01*
X88687140Y-129953921D01*
X88677987Y-129958469D01*
X88670691Y-129964592D01*
X88664909Y-129972485D01*
X88660294Y-129982344D01*
X88658319Y-129988062D01*
X88654618Y-129999830D01*
X88654618Y-130247798D01*
X88654622Y-130275937D01*
X88654632Y-130301112D01*
X88654650Y-130323506D01*
X88654680Y-130343304D01*
X88654725Y-130360692D01*
X88654787Y-130375853D01*
X88654869Y-130388972D01*
X88654974Y-130400234D01*
X88655105Y-130409822D01*
X88655264Y-130417922D01*
X88655455Y-130424718D01*
X88655681Y-130430394D01*
X88655943Y-130435135D01*
X88656246Y-130439126D01*
X88656592Y-130442551D01*
X88656983Y-130445594D01*
X88657423Y-130448440D01*
X88657914Y-130451273D01*
X88658262Y-130453193D01*
X88662850Y-130474700D01*
X88668342Y-130493385D01*
X88674935Y-130509682D01*
X88682828Y-130524028D01*
X88692219Y-130536857D01*
X88700378Y-130545760D01*
X88712812Y-130556865D01*
X88725861Y-130565694D01*
X88740454Y-130572796D01*
X88754618Y-130577839D01*
X88764146Y-130580627D01*
X88773010Y-130582770D01*
X88781884Y-130584345D01*
X88791441Y-130585430D01*
X88802357Y-130586105D01*
X88815305Y-130586447D01*
X88829618Y-130586535D01*
X88845035Y-130586430D01*
X88857798Y-130586065D01*
X88868582Y-130585361D01*
X88878061Y-130584240D01*
X88886910Y-130582624D01*
X88895804Y-130580434D01*
X88904618Y-130577841D01*
X88923800Y-130570494D01*
X88940772Y-130561010D01*
X88955625Y-130549273D01*
X88968448Y-130535168D01*
X88979333Y-130518580D01*
X88988368Y-130499393D01*
X88995646Y-130477494D01*
X89000754Y-130455439D01*
X89001290Y-130452601D01*
X89001771Y-130449838D01*
X89002200Y-130446960D01*
X89002582Y-130443779D01*
X89002920Y-130440107D01*
X89003217Y-130435756D01*
X89003477Y-130430536D01*
X89003704Y-130424260D01*
X89003901Y-130416739D01*
X89004071Y-130407784D01*
X89004218Y-130397207D01*
X89004346Y-130384819D01*
X89004458Y-130370433D01*
X89004557Y-130353859D01*
X89004648Y-130334908D01*
X89004734Y-130313394D01*
X89004818Y-130289126D01*
X89004904Y-130261917D01*
X89004995Y-130231577D01*
X89005003Y-130229011D01*
X89005094Y-130194098D01*
X89005152Y-130162439D01*
X89005175Y-130133954D01*
X89005163Y-130108565D01*
X89005115Y-130086191D01*
X89005032Y-130066753D01*
X89004912Y-130050173D01*
X89004755Y-130036370D01*
X89004561Y-130025265D01*
X89004330Y-130016779D01*
X89004060Y-130010832D01*
X89003776Y-130007523D01*
X89000749Y-129991902D01*
X88996106Y-129979059D01*
X88989750Y-129968806D01*
X88981584Y-129960954D01*
X88979009Y-129959192D01*
X88972557Y-129955511D01*
X88965917Y-129952721D01*
X88958453Y-129950685D01*
X88949527Y-129949266D01*
X88938501Y-129948327D01*
X88925868Y-129947766D01*
X88898784Y-129946893D01*
X88898784Y-129891489D01*
X89207117Y-129891489D01*
X89207117Y-129919408D01*
X89207118Y-129947326D01*
X89187293Y-129947326D01*
X89170838Y-129948146D01*
X89157050Y-129950731D01*
X89145661Y-129955265D01*
X89136401Y-129961936D01*
X89129003Y-129970929D01*
X89123196Y-129982430D01*
X89119295Y-129994381D01*
X89118881Y-129996155D01*
X89118507Y-129998356D01*
X89118168Y-130001160D01*
X89117862Y-130004744D01*
X89117586Y-130009285D01*
X89117337Y-130014960D01*
X89117111Y-130021947D01*
X89116905Y-130030421D01*
X89116716Y-130040561D01*
X89116542Y-130052543D01*
X89116378Y-130066544D01*
X89116223Y-130082742D01*
X89116072Y-130101312D01*
X89115922Y-130122433D01*
X89115772Y-130146282D01*
X89115616Y-130173034D01*
X89115453Y-130202868D01*
X89115381Y-130216510D01*
X89115180Y-130252239D01*
X89114970Y-130284696D01*
X89114752Y-130313944D01*
X89114523Y-130340043D01*
X89114283Y-130363055D01*
X89114032Y-130383043D01*
X89113768Y-130400069D01*
X89113491Y-130414193D01*
X89113199Y-130425478D01*
X89112892Y-130433986D01*
X89112569Y-130439778D01*
X89112319Y-130442359D01*
X89107728Y-130471150D01*
X89102210Y-130497012D01*
X89095635Y-130520249D01*
X89087871Y-130541168D01*
X89078790Y-130560075D01*
X89068261Y-130577276D01*
X89056155Y-130593079D01*
X89042340Y-130607788D01*
X89041864Y-130608249D01*
X89025927Y-130622338D01*
X89009528Y-130634131D01*
X88991888Y-130644093D01*
X88972226Y-130652684D01*
X88958986Y-130657423D01*
X88942381Y-130662365D01*
X88923750Y-130666893D01*
X88904399Y-130670726D01*
X88885632Y-130673581D01*
X88882118Y-130674004D01*
X88873070Y-130674801D01*
X88861455Y-130675464D01*
X88848025Y-130675983D01*
X88833536Y-130676347D01*
X88818742Y-130676545D01*
X88804397Y-130676566D01*
X88791257Y-130676399D01*
X88780075Y-130676033D01*
X88772951Y-130675582D01*
X88739369Y-130671556D01*
X88708317Y-130665436D01*
X88679700Y-130657182D01*
X88653422Y-130646754D01*
X88629389Y-130634113D01*
X88607505Y-130619220D01*
X88587677Y-130602036D01*
X88582068Y-130596379D01*
X88566622Y-130578514D01*
X88553348Y-130559332D01*
X88542098Y-130538506D01*
X88532723Y-130515710D01*
X88525073Y-130490618D01*
X88518998Y-130462901D01*
X88517736Y-130455693D01*
X88517307Y-130452905D01*
X88516919Y-130449806D01*
X88516569Y-130446214D01*
X88516252Y-130441946D01*
X88515968Y-130436821D01*
X88515711Y-130430657D01*
X88515480Y-130423272D01*
X88515270Y-130414484D01*
X88515080Y-130404112D01*
X88514906Y-130391974D01*
X88514744Y-130377887D01*
X88514593Y-130361671D01*
X88514447Y-130343143D01*
X88514306Y-130322121D01*
X88514165Y-130298423D01*
X88514021Y-130271869D01*
X88513872Y-130242275D01*
X88513775Y-130222344D01*
X88513622Y-130190282D01*
X88513482Y-130161376D01*
X88513348Y-130135448D01*
X88513210Y-130112322D01*
X88513063Y-130091820D01*
X88512898Y-130073764D01*
X88512707Y-130057978D01*
X88512484Y-130044284D01*
X88512219Y-130032505D01*
X88511906Y-130022462D01*
X88511538Y-130013980D01*
X88511105Y-130006880D01*
X88510601Y-130000985D01*
X88510018Y-129996118D01*
X88509349Y-129992101D01*
X88508585Y-129988758D01*
X88507720Y-129985910D01*
X88506745Y-129983380D01*
X88505653Y-129980992D01*
X88504436Y-129978567D01*
X88503158Y-129976071D01*
X88497372Y-129967471D01*
X88489523Y-129959668D01*
X88480684Y-129953629D01*
X88475775Y-129951405D01*
X88468886Y-129949715D01*
X88458850Y-129948479D01*
X88446701Y-129947749D01*
X88425451Y-129946932D01*
X88425451Y-129891489D01*
X88755451Y-129891489D01*
X88755451Y-129946928D01*
X88755451Y-129946928D01*
G37*
G36*
X91208784Y-129947326D02*
G01*
X91186701Y-129947355D01*
X91169256Y-129947933D01*
X91154761Y-129949639D01*
X91143016Y-129952505D01*
X91135831Y-129955466D01*
X91127768Y-129961142D01*
X91120434Y-129969199D01*
X91114606Y-129978684D01*
X91112238Y-129984416D01*
X91111222Y-129987603D01*
X91110309Y-129990958D01*
X91109495Y-129994662D01*
X91108773Y-129998896D01*
X91108141Y-130003843D01*
X91107592Y-130009685D01*
X91107123Y-130016604D01*
X91106728Y-130024782D01*
X91106403Y-130034401D01*
X91106143Y-130045643D01*
X91105943Y-130058690D01*
X91105799Y-130073723D01*
X91105706Y-130090926D01*
X91105659Y-130110479D01*
X91105653Y-130132565D01*
X91105684Y-130157367D01*
X91105747Y-130185065D01*
X91105837Y-130215842D01*
X91105880Y-130229011D01*
X91105982Y-130259207D01*
X91106084Y-130286262D01*
X91106186Y-130310367D01*
X91106294Y-130331713D01*
X91106410Y-130350493D01*
X91106536Y-130366899D01*
X91106677Y-130381122D01*
X91106835Y-130393354D01*
X91107014Y-130403787D01*
X91107216Y-130412613D01*
X91107445Y-130420023D01*
X91107704Y-130426210D01*
X91107996Y-130431365D01*
X91108324Y-130435680D01*
X91108692Y-130439347D01*
X91109102Y-130442557D01*
X91109407Y-130444583D01*
X91113404Y-130465889D01*
X91118223Y-130484508D01*
X91124032Y-130501022D01*
X91128724Y-130511530D01*
X91138510Y-130528597D01*
X91150125Y-130543360D01*
X91163693Y-130555878D01*
X91179338Y-130566213D01*
X91197183Y-130574426D01*
X91217352Y-130580576D01*
X91239969Y-130584724D01*
X91265158Y-130586931D01*
X91283784Y-130587354D01*
X91310793Y-130586330D01*
X91335232Y-130583223D01*
X91357189Y-130577958D01*
X91376753Y-130570459D01*
X91394015Y-130560652D01*
X91409062Y-130548463D01*
X91421985Y-130533817D01*
X91432871Y-130516639D01*
X91441811Y-130496855D01*
X91448893Y-130474391D01*
X91454207Y-130449171D01*
X91455030Y-130444025D01*
X91455466Y-130440955D01*
X91455857Y-130437649D01*
X91456205Y-130433921D01*
X91456513Y-130429579D01*
X91456782Y-130424436D01*
X91457016Y-130418301D01*
X91457217Y-130410987D01*
X91457388Y-130402303D01*
X91457530Y-130392061D01*
X91457647Y-130380072D01*
X91457740Y-130366146D01*
X91457813Y-130350095D01*
X91457867Y-130331729D01*
X91457906Y-130310860D01*
X91457931Y-130287297D01*
X91457945Y-130260853D01*
X91457950Y-130231338D01*
X91457951Y-130219011D01*
X91457950Y-130187521D01*
X91457944Y-130159182D01*
X91457925Y-130133814D01*
X91457888Y-130111233D01*
X91457826Y-130091259D01*
X91457732Y-130073709D01*
X91457600Y-130058401D01*
X91457423Y-130045153D01*
X91457195Y-130033785D01*
X91456909Y-130024113D01*
X91456560Y-130015956D01*
X91456139Y-130009132D01*
X91455642Y-130003459D01*
X91455060Y-129998756D01*
X91454389Y-129994840D01*
X91453621Y-129991530D01*
X91452749Y-129988643D01*
X91451768Y-129985999D01*
X91450671Y-129983414D01*
X91449451Y-129980708D01*
X91449430Y-129980662D01*
X91443797Y-129970846D01*
X91436518Y-129962903D01*
X91427340Y-129956720D01*
X91416007Y-129952187D01*
X91402265Y-129949194D01*
X91385861Y-129947630D01*
X91372804Y-129947326D01*
X91352118Y-129947326D01*
X91352117Y-129919408D01*
X91352117Y-129891489D01*
X91658784Y-129891489D01*
X91658784Y-129946948D01*
X91635780Y-129947580D01*
X91626453Y-129947874D01*
X91619667Y-129948255D01*
X91614631Y-129948863D01*
X91610554Y-129949840D01*
X91606643Y-129951326D01*
X91602107Y-129953464D01*
X91601716Y-129953656D01*
X91592386Y-129959137D01*
X91585416Y-129965569D01*
X91579855Y-129973932D01*
X91577629Y-129978433D01*
X91576326Y-129981257D01*
X91575151Y-129983893D01*
X91574097Y-129986519D01*
X91573156Y-129989313D01*
X91572320Y-129992455D01*
X91571582Y-129996123D01*
X91570934Y-130000496D01*
X91570368Y-130005753D01*
X91569877Y-130012073D01*
X91569454Y-130019635D01*
X91569090Y-130028616D01*
X91568778Y-130039196D01*
X91568510Y-130051555D01*
X91568280Y-130065870D01*
X91568079Y-130082320D01*
X91567899Y-130101084D01*
X91567734Y-130122341D01*
X91567575Y-130146270D01*
X91567414Y-130173050D01*
X91567245Y-130202858D01*
X91567118Y-130225678D01*
X91566941Y-130256853D01*
X91566777Y-130284882D01*
X91566623Y-130309953D01*
X91566474Y-130332252D01*
X91566327Y-130351967D01*
X91566178Y-130369285D01*
X91566023Y-130384394D01*
X91565859Y-130397481D01*
X91565681Y-130408734D01*
X91565486Y-130418339D01*
X91565271Y-130426485D01*
X91565031Y-130433358D01*
X91564764Y-130439146D01*
X91564464Y-130444037D01*
X91564128Y-130448217D01*
X91563754Y-130451874D01*
X91563336Y-130455195D01*
X91562871Y-130458369D01*
X91562418Y-130461201D01*
X91556144Y-130492338D01*
X91547926Y-130520801D01*
X91537694Y-130546656D01*
X91525381Y-130569967D01*
X91510917Y-130590802D01*
X91494234Y-130609225D01*
X91475264Y-130625302D01*
X91453937Y-130639098D01*
X91430186Y-130650679D01*
X91403941Y-130660110D01*
X91375134Y-130667457D01*
X91343697Y-130672785D01*
X91340451Y-130673204D01*
X91332195Y-130674022D01*
X91321361Y-130674773D01*
X91308684Y-130675435D01*
X91294896Y-130675987D01*
X91280731Y-130676407D01*
X91266920Y-130676674D01*
X91254199Y-130676766D01*
X91243299Y-130676662D01*
X91234954Y-130676340D01*
X91234618Y-130676318D01*
X91200421Y-130672782D01*
X91168356Y-130666963D01*
X91138494Y-130658887D01*
X91110907Y-130648583D01*
X91085668Y-130636079D01*
X91062847Y-130621402D01*
X91042517Y-130604580D01*
X91037805Y-130600016D01*
X91021087Y-130581198D01*
X91006631Y-130560391D01*
X90994356Y-130537431D01*
X90984183Y-130512157D01*
X90976033Y-130484406D01*
X90971763Y-130464860D01*
X90971254Y-130462137D01*
X90970795Y-130459424D01*
X90970383Y-130456537D01*
X90970013Y-130453293D01*
X90969684Y-130449508D01*
X90969389Y-130444999D01*
X90969127Y-130439583D01*
X90968894Y-130433075D01*
X90968686Y-130425293D01*
X90968498Y-130416052D01*
X90968329Y-130405170D01*
X90968174Y-130392462D01*
X90968029Y-130377746D01*
X90967891Y-130360838D01*
X90967757Y-130341553D01*
X90967622Y-130319710D01*
X90967483Y-130295124D01*
X90967337Y-130267611D01*
X90967179Y-130236989D01*
X90967143Y-130229845D01*
X90966979Y-130197783D01*
X90966825Y-130168876D01*
X90966676Y-130142943D01*
X90966524Y-130119806D01*
X90966365Y-130099286D01*
X90966191Y-130081202D01*
X90965996Y-130065376D01*
X90965775Y-130051628D01*
X90965520Y-130039779D01*
X90965226Y-130029650D01*
X90964887Y-130021061D01*
X90964496Y-130013833D01*
X90964047Y-130007787D01*
X90963534Y-130002743D01*
X90962951Y-129998522D01*
X90962291Y-129994945D01*
X90961549Y-129991833D01*
X90960718Y-129989005D01*
X90959791Y-129986284D01*
X90958763Y-129983488D01*
X90958598Y-129983047D01*
X90953440Y-129972070D01*
X90946866Y-129963596D01*
X90938223Y-129956885D01*
X90933070Y-129954032D01*
X90928215Y-129951669D01*
X90924175Y-129950032D01*
X90920126Y-129948964D01*
X90915245Y-129948307D01*
X90908707Y-129947905D01*
X90899690Y-129947600D01*
X90899320Y-129947589D01*
X90877118Y-129946940D01*
X90877117Y-129919215D01*
X90877117Y-129891489D01*
X91208784Y-129891489D01*
X91208784Y-129947326D01*
X91208784Y-129947326D01*
G37*
G36*
X87853287Y-129698990D02*
G01*
X87885906Y-129699031D01*
X87916206Y-129699097D01*
X87944085Y-129699189D01*
X87969438Y-129699306D01*
X87992165Y-129699447D01*
X88012162Y-129699611D01*
X88029327Y-129699797D01*
X88043556Y-129700006D01*
X88054748Y-129700235D01*
X88062799Y-129700485D01*
X88067201Y-129700721D01*
X88105575Y-129704728D01*
X88141390Y-129710573D01*
X88174599Y-129718240D01*
X88205149Y-129727716D01*
X88232993Y-129738985D01*
X88258081Y-129752034D01*
X88270328Y-129759724D01*
X88291783Y-129775952D01*
X88310567Y-129794099D01*
X88326707Y-129814209D01*
X88340230Y-129836329D01*
X88351163Y-129860503D01*
X88359533Y-129886777D01*
X88365366Y-129915196D01*
X88366355Y-129922066D01*
X88367497Y-129933567D01*
X88368261Y-129947475D01*
X88368648Y-129962884D01*
X88368662Y-129978887D01*
X88368301Y-129994580D01*
X88367569Y-130009056D01*
X88366465Y-130021410D01*
X88366207Y-130023496D01*
X88361154Y-130052289D01*
X88353798Y-130078901D01*
X88344092Y-130103373D01*
X88331987Y-130125744D01*
X88317436Y-130146058D01*
X88300389Y-130164354D01*
X88280800Y-130180675D01*
X88258619Y-130195061D01*
X88233799Y-130207553D01*
X88206292Y-130218193D01*
X88176049Y-130227022D01*
X88143023Y-130234081D01*
X88115185Y-130238399D01*
X88109939Y-130239010D01*
X88103905Y-130239541D01*
X88096798Y-130240000D01*
X88088332Y-130240394D01*
X88078222Y-130240734D01*
X88066183Y-130241025D01*
X88051929Y-130241278D01*
X88035175Y-130241499D01*
X88015636Y-130241698D01*
X87994961Y-130241868D01*
X87895305Y-130242618D01*
X87895892Y-130377907D01*
X87896006Y-130402692D01*
X87896121Y-130424372D01*
X87896242Y-130443177D01*
X87896375Y-130459334D01*
X87896525Y-130473074D01*
X87896697Y-130484624D01*
X87896897Y-130494213D01*
X87897130Y-130502072D01*
X87897401Y-130508427D01*
X87897715Y-130513509D01*
X87898078Y-130517545D01*
X87898494Y-130520766D01*
X87898970Y-130523399D01*
X87899268Y-130524718D01*
X87904630Y-130541471D01*
X87911955Y-130555530D01*
X87921243Y-130566896D01*
X87932496Y-130575571D01*
X87935186Y-130577092D01*
X87942671Y-130580671D01*
X87950416Y-130583426D01*
X87959045Y-130585476D01*
X87969181Y-130586940D01*
X87981448Y-130587938D01*
X87995034Y-130588543D01*
X88023784Y-130589490D01*
X88023784Y-130659397D01*
X87981701Y-130658100D01*
X87971297Y-130657843D01*
X87957951Y-130657615D01*
X87942021Y-130657417D01*
X87923867Y-130657248D01*
X87903846Y-130657109D01*
X87882319Y-130656999D01*
X87859644Y-130656919D01*
X87836179Y-130656868D01*
X87812284Y-130656846D01*
X87788318Y-130656854D01*
X87764639Y-130656891D01*
X87741606Y-130656958D01*
X87719578Y-130657054D01*
X87698914Y-130657179D01*
X87679973Y-130657334D01*
X87663114Y-130657519D01*
X87648695Y-130657732D01*
X87637075Y-130657975D01*
X87632534Y-130658104D01*
X87592118Y-130659395D01*
X87592118Y-130589461D01*
X87620034Y-130588554D01*
X87637466Y-130587608D01*
X87652078Y-130585907D01*
X87664324Y-130583307D01*
X87674661Y-130579662D01*
X87683545Y-130574828D01*
X87691432Y-130568661D01*
X87695566Y-130564589D01*
X87702192Y-130556490D01*
X87707523Y-130547377D01*
X87711700Y-130536799D01*
X87714868Y-130524302D01*
X87717170Y-130509436D01*
X87718748Y-130491749D01*
X87718777Y-130491314D01*
X87718976Y-130486506D01*
X87719162Y-130478581D01*
X87719334Y-130467756D01*
X87719494Y-130454246D01*
X87719640Y-130438270D01*
X87719772Y-130420043D01*
X87719892Y-130399782D01*
X87719998Y-130377704D01*
X87720090Y-130354025D01*
X87720170Y-130328961D01*
X87720236Y-130302729D01*
X87720288Y-130275546D01*
X87720328Y-130247628D01*
X87720354Y-130219192D01*
X87720366Y-130190455D01*
X87720365Y-130161632D01*
X87720351Y-130132940D01*
X87720324Y-130104597D01*
X87720283Y-130076818D01*
X87720229Y-130049820D01*
X87720161Y-130023820D01*
X87720080Y-129999033D01*
X87719985Y-129975678D01*
X87719878Y-129953970D01*
X87719756Y-129934125D01*
X87719622Y-129916361D01*
X87719473Y-129900894D01*
X87719312Y-129887940D01*
X87719137Y-129877716D01*
X87718949Y-129870439D01*
X87718791Y-129866924D01*
X87717556Y-129851671D01*
X87715934Y-129839064D01*
X87713787Y-129828423D01*
X87710975Y-129819071D01*
X87707359Y-129810329D01*
X87707041Y-129809657D01*
X87700310Y-129798364D01*
X87693214Y-129790649D01*
X87895451Y-129790649D01*
X87895451Y-130157340D01*
X87946875Y-130157340D01*
X87960917Y-130157281D01*
X87975009Y-130157113D01*
X87988494Y-130156854D01*
X88000715Y-130156517D01*
X88011015Y-130156120D01*
X88018737Y-130155677D01*
X88019629Y-130155608D01*
X88048371Y-130152157D01*
X88074485Y-130146664D01*
X88098007Y-130139098D01*
X88118969Y-130129425D01*
X88137404Y-130117613D01*
X88153348Y-130103628D01*
X88166832Y-130087439D01*
X88177892Y-130069012D01*
X88186560Y-130048314D01*
X88192870Y-130025313D01*
X88196855Y-129999976D01*
X88198251Y-129981495D01*
X88198209Y-129956379D01*
X88195778Y-129932486D01*
X88191027Y-129910201D01*
X88184024Y-129889911D01*
X88180346Y-129881911D01*
X88174241Y-129870524D01*
X88168053Y-129861050D01*
X88160894Y-129852289D01*
X88151880Y-129843040D01*
X88151025Y-129842217D01*
X88136575Y-129829797D01*
X88121151Y-129819479D01*
X88104202Y-129810986D01*
X88085177Y-129804044D01*
X88063525Y-129798375D01*
X88063426Y-129798353D01*
X88053754Y-129796360D01*
X88044185Y-129794724D01*
X88034266Y-129793415D01*
X88023542Y-129792401D01*
X88011559Y-129791651D01*
X87997862Y-129791133D01*
X87981998Y-129790816D01*
X87963512Y-129790669D01*
X87951828Y-129790649D01*
X87895451Y-129790649D01*
X87693214Y-129790649D01*
X87691732Y-129789038D01*
X87681117Y-129781596D01*
X87668272Y-129775954D01*
X87653007Y-129772026D01*
X87635131Y-129769730D01*
X87614450Y-129768981D01*
X87592118Y-129768981D01*
X87592118Y-129698977D01*
X87818451Y-129698977D01*
X87853287Y-129698990D01*
X87853287Y-129698990D01*
G37*
G36*
X89372518Y-129992076D02*
G01*
X89366656Y-129978603D01*
X89359158Y-129967712D01*
X89356496Y-129965316D01*
X89518784Y-129965316D01*
X89518784Y-130244538D01*
X89569201Y-130243464D01*
X89582985Y-130243101D01*
X89596565Y-130242616D01*
X89609327Y-130242039D01*
X89620660Y-130241402D01*
X89629951Y-130240736D01*
X89636587Y-130240073D01*
X89637118Y-130240003D01*
X89659379Y-130236299D01*
X89678784Y-130231585D01*
X89695694Y-130225713D01*
X89710474Y-130218533D01*
X89723486Y-130209896D01*
X89734769Y-130199979D01*
X89745897Y-130186886D01*
X89754553Y-130172165D01*
X89760953Y-130155397D01*
X89764013Y-130143172D01*
X89765406Y-130135858D01*
X89766314Y-130129281D01*
X89766794Y-130122503D01*
X89766902Y-130114586D01*
X89766693Y-130104592D01*
X89766564Y-130100670D01*
X89765031Y-130079238D01*
X89761939Y-130060469D01*
X89757167Y-130044018D01*
X89750591Y-130029537D01*
X89742087Y-130016681D01*
X89733144Y-130006665D01*
X89722852Y-129997343D01*
X89712565Y-129990005D01*
X89701217Y-129984008D01*
X89687741Y-129978705D01*
X89685792Y-129978038D01*
X89677441Y-129975324D01*
X89669656Y-129973078D01*
X89661995Y-129971250D01*
X89654016Y-129969792D01*
X89645277Y-129968653D01*
X89635337Y-129967786D01*
X89623752Y-129967140D01*
X89610082Y-129966666D01*
X89593883Y-129966316D01*
X89578368Y-129966085D01*
X89518784Y-129965316D01*
X89356496Y-129965316D01*
X89350190Y-129959642D01*
X89349869Y-129959426D01*
X89343340Y-129955504D01*
X89336679Y-129952576D01*
X89329203Y-129950483D01*
X89320229Y-129949063D01*
X89309072Y-129948158D01*
X89300034Y-129947759D01*
X89275451Y-129946914D01*
X89275451Y-129890492D01*
X89472534Y-129891125D01*
X89502886Y-129891227D01*
X89530099Y-129891329D01*
X89554364Y-129891434D01*
X89575876Y-129891545D01*
X89594829Y-129891665D01*
X89611414Y-129891798D01*
X89625827Y-129891945D01*
X89638259Y-129892111D01*
X89648905Y-129892299D01*
X89657957Y-129892511D01*
X89665610Y-129892750D01*
X89672056Y-129893020D01*
X89677488Y-129893323D01*
X89682101Y-129893663D01*
X89686087Y-129894043D01*
X89689640Y-129894465D01*
X89690303Y-129894553D01*
X89721810Y-129899634D01*
X89750344Y-129905977D01*
X89776036Y-129913623D01*
X89799013Y-129922615D01*
X89819406Y-129932992D01*
X89828782Y-129938785D01*
X89837415Y-129945209D01*
X89846917Y-129953474D01*
X89856315Y-129962641D01*
X89864636Y-129971771D01*
X89869861Y-129978415D01*
X89880348Y-129995751D01*
X89888856Y-130015330D01*
X89895310Y-130036657D01*
X89899637Y-130059240D01*
X89901762Y-130082586D01*
X89901612Y-130106202D01*
X89899113Y-130129596D01*
X89895283Y-130148173D01*
X89888081Y-130170322D01*
X89878177Y-130190603D01*
X89865410Y-130209299D01*
X89852178Y-130224166D01*
X89833925Y-130240355D01*
X89814002Y-130253782D01*
X89792113Y-130264630D01*
X89780034Y-130269251D01*
X89774527Y-130271283D01*
X89770517Y-130272977D01*
X89768799Y-130273996D01*
X89768784Y-130274046D01*
X89770265Y-130274854D01*
X89774107Y-130276058D01*
X89778368Y-130277132D01*
X89788548Y-130280239D01*
X89799841Y-130284904D01*
X89810859Y-130290487D01*
X89820211Y-130296344D01*
X89820778Y-130296756D01*
X89832200Y-130306981D01*
X89842869Y-130320249D01*
X89852638Y-130336322D01*
X89861361Y-130354966D01*
X89867829Y-130372613D01*
X89869605Y-130378442D01*
X89872038Y-130386996D01*
X89874991Y-130397761D01*
X89878328Y-130410225D01*
X89881910Y-130423876D01*
X89885601Y-130438201D01*
X89888618Y-130450118D01*
X89893891Y-130470911D01*
X89898554Y-130488773D01*
X89902716Y-130504024D01*
X89906488Y-130516990D01*
X89909980Y-130527992D01*
X89913302Y-130537352D01*
X89916564Y-130545395D01*
X89919876Y-130552442D01*
X89923348Y-130558816D01*
X89927091Y-130564841D01*
X89928457Y-130566885D01*
X89938581Y-130579385D01*
X89950159Y-130589073D01*
X89963398Y-130596051D01*
X89978505Y-130600421D01*
X89995685Y-130602283D01*
X90000678Y-130602369D01*
X90013784Y-130602369D01*
X90013784Y-130659039D01*
X89805861Y-130659039D01*
X89798981Y-130639455D01*
X89792552Y-130620457D01*
X89786475Y-130600992D01*
X89780625Y-130580586D01*
X89774877Y-130558762D01*
X89769106Y-130535045D01*
X89763185Y-130508958D01*
X89757129Y-130480694D01*
X89750770Y-130452656D01*
X89744043Y-130427773D01*
X89736862Y-130405879D01*
X89729139Y-130386809D01*
X89720790Y-130370396D01*
X89711725Y-130356474D01*
X89701859Y-130344876D01*
X89691106Y-130335437D01*
X89679377Y-130327991D01*
X89676625Y-130326588D01*
X89669101Y-130323141D01*
X89661616Y-130320268D01*
X89653763Y-130317911D01*
X89645136Y-130316011D01*
X89635330Y-130314509D01*
X89623939Y-130313347D01*
X89610556Y-130312466D01*
X89594776Y-130311808D01*
X89576192Y-130311314D01*
X89569951Y-130311188D01*
X89518617Y-130310209D01*
X89519217Y-130427537D01*
X89519340Y-130450381D01*
X89519462Y-130470140D01*
X89519590Y-130487060D01*
X89519732Y-130501390D01*
X89519894Y-130513378D01*
X89520082Y-130523271D01*
X89520305Y-130531318D01*
X89520569Y-130537765D01*
X89520881Y-130542861D01*
X89521248Y-130546853D01*
X89521676Y-130549990D01*
X89522173Y-130552519D01*
X89522745Y-130554688D01*
X89522771Y-130554775D01*
X89528103Y-130568888D01*
X89534937Y-130580177D01*
X89543491Y-130588896D01*
X89553979Y-130595296D01*
X89559300Y-130597456D01*
X89564173Y-130598973D01*
X89569418Y-130600088D01*
X89575757Y-130600888D01*
X89583912Y-130601463D01*
X89594604Y-130601901D01*
X89595868Y-130601942D01*
X89622118Y-130602767D01*
X89622118Y-130658206D01*
X89275451Y-130658206D01*
X89275451Y-130602732D01*
X89300034Y-130601970D01*
X89314108Y-130601266D01*
X89325468Y-130600006D01*
X89334710Y-130598017D01*
X89342432Y-130595126D01*
X89349230Y-130591159D01*
X89355703Y-130585942D01*
X89355972Y-130585696D01*
X89363312Y-130577743D01*
X89368365Y-130569611D01*
X89368692Y-130568879D01*
X89369779Y-130566362D01*
X89370771Y-130563993D01*
X89371669Y-130561614D01*
X89372479Y-130559066D01*
X89373205Y-130556192D01*
X89373851Y-130552833D01*
X89374421Y-130548830D01*
X89374921Y-130544025D01*
X89375353Y-130538259D01*
X89375722Y-130531374D01*
X89376032Y-130523211D01*
X89376288Y-130513612D01*
X89376494Y-130502418D01*
X89376654Y-130489471D01*
X89376773Y-130474612D01*
X89376854Y-130457683D01*
X89376902Y-130438526D01*
X89376922Y-130416981D01*
X89376916Y-130392891D01*
X89376891Y-130366096D01*
X89376849Y-130336439D01*
X89376795Y-130303761D01*
X89376736Y-130268977D01*
X89376695Y-130244538D01*
X89376284Y-130003163D01*
X89372518Y-129992076D01*
X89372518Y-129992076D01*
G37*
G36*
X90149105Y-130569726D02*
G01*
X90153929Y-130556792D01*
X90156334Y-130546543D01*
X90156694Y-130542966D01*
X90157029Y-130536281D01*
X90157339Y-130526714D01*
X90157623Y-130514489D01*
X90157883Y-130499833D01*
X90158117Y-130482971D01*
X90158325Y-130464128D01*
X90158509Y-130443530D01*
X90158667Y-130421402D01*
X90158801Y-130397969D01*
X90158909Y-130373458D01*
X90158991Y-130348094D01*
X90159049Y-130322101D01*
X90159081Y-130295706D01*
X90159089Y-130269134D01*
X90159071Y-130242611D01*
X90159027Y-130216361D01*
X90158959Y-130190611D01*
X90158865Y-130165586D01*
X90158746Y-130141511D01*
X90158602Y-130118611D01*
X90158433Y-130097113D01*
X90158239Y-130077242D01*
X90158019Y-130059222D01*
X90157774Y-130043280D01*
X90157504Y-130029642D01*
X90157209Y-130018531D01*
X90156888Y-130010175D01*
X90156543Y-130004798D01*
X90156334Y-130003153D01*
X90152565Y-129988510D01*
X90147214Y-129976353D01*
X90140075Y-129966534D01*
X90137032Y-129963994D01*
X90300451Y-129963994D01*
X90300451Y-130584387D01*
X90370868Y-130583563D01*
X90390605Y-130583297D01*
X90407343Y-130582989D01*
X90421414Y-130582625D01*
X90433152Y-130582192D01*
X90442889Y-130581677D01*
X90450960Y-130581066D01*
X90457697Y-130580347D01*
X90460326Y-130579993D01*
X90490776Y-130574588D01*
X90518524Y-130567506D01*
X90543804Y-130558645D01*
X90566852Y-130547901D01*
X90587904Y-130535173D01*
X90607193Y-130520359D01*
X90616126Y-130512257D01*
X90633844Y-130493025D01*
X90649432Y-130471272D01*
X90662873Y-130447055D01*
X90674151Y-130420430D01*
X90683248Y-130391454D01*
X90690150Y-130360184D01*
X90694838Y-130326677D01*
X90697296Y-130290989D01*
X90697507Y-130253177D01*
X90696913Y-130236482D01*
X90694402Y-130203728D01*
X90690053Y-130173615D01*
X90683799Y-130145958D01*
X90675570Y-130120570D01*
X90665297Y-130097267D01*
X90652912Y-130075864D01*
X90638345Y-130056175D01*
X90623999Y-130040451D01*
X90605480Y-130023756D01*
X90585724Y-130009610D01*
X90564226Y-129997709D01*
X90540477Y-129987752D01*
X90529618Y-129984046D01*
X90513913Y-129979366D01*
X90498058Y-129975403D01*
X90481655Y-129972114D01*
X90464306Y-129969453D01*
X90445614Y-129967376D01*
X90425180Y-129965839D01*
X90402607Y-129964797D01*
X90377498Y-129964205D01*
X90350868Y-129964020D01*
X90300451Y-129963994D01*
X90137032Y-129963994D01*
X90130938Y-129958909D01*
X90119596Y-129953331D01*
X90105840Y-129949654D01*
X90089463Y-129947733D01*
X90076701Y-129947355D01*
X90057118Y-129947326D01*
X90057118Y-129890656D01*
X90253368Y-129890663D01*
X90283439Y-129890679D01*
X90311955Y-129890725D01*
X90338748Y-129890799D01*
X90363648Y-129890900D01*
X90386485Y-129891027D01*
X90407090Y-129891177D01*
X90425294Y-129891351D01*
X90440926Y-129891547D01*
X90453819Y-129891763D01*
X90463802Y-129891997D01*
X90470705Y-129892250D01*
X90472951Y-129892382D01*
X90515168Y-129896546D01*
X90554702Y-129902655D01*
X90591593Y-129910729D01*
X90625878Y-129920790D01*
X90657598Y-129932859D01*
X90686791Y-129946957D01*
X90713497Y-129963105D01*
X90737755Y-129981323D01*
X90759605Y-130001634D01*
X90779084Y-130024058D01*
X90796233Y-130048616D01*
X90810220Y-130073579D01*
X90821483Y-130099242D01*
X90830852Y-130127374D01*
X90838296Y-130157676D01*
X90843780Y-130189848D01*
X90847272Y-130223594D01*
X90848738Y-130258614D01*
X90848144Y-130294609D01*
X90845458Y-130331282D01*
X90842055Y-130359020D01*
X90835562Y-130394326D01*
X90826565Y-130427548D01*
X90815088Y-130458646D01*
X90801152Y-130487580D01*
X90784782Y-130514311D01*
X90766001Y-130538799D01*
X90744832Y-130561004D01*
X90721297Y-130580886D01*
X90707118Y-130590974D01*
X90684491Y-130604786D01*
X90660349Y-130616939D01*
X90634413Y-130627525D01*
X90606406Y-130636637D01*
X90576050Y-130644366D01*
X90543067Y-130650805D01*
X90512951Y-130655307D01*
X90509622Y-130655695D01*
X90505727Y-130656046D01*
X90501086Y-130656364D01*
X90495520Y-130656650D01*
X90488853Y-130656907D01*
X90480905Y-130657137D01*
X90471497Y-130657343D01*
X90460452Y-130657527D01*
X90447592Y-130657692D01*
X90432736Y-130657839D01*
X90415709Y-130657972D01*
X90396330Y-130658093D01*
X90374421Y-130658205D01*
X90349805Y-130658309D01*
X90322303Y-130658408D01*
X90291736Y-130658505D01*
X90275034Y-130658554D01*
X90057118Y-130659179D01*
X90057118Y-130602369D01*
X90076701Y-130602340D01*
X90094983Y-130601531D01*
X90110502Y-130599066D01*
X90123465Y-130594799D01*
X90134081Y-130588584D01*
X90138363Y-130584387D01*
X90142559Y-130580275D01*
X90149105Y-130569726D01*
X90149105Y-130569726D01*
G37*
G36*
X92343784Y-130095669D02*
G01*
X92277118Y-130095669D01*
X92277118Y-130070886D01*
X92276562Y-130050831D01*
X92274831Y-130033689D01*
X92271827Y-130019218D01*
X92267454Y-130007178D01*
X92261615Y-129997326D01*
X92254212Y-129989422D01*
X92245149Y-129983223D01*
X92241089Y-129981191D01*
X92237306Y-129979496D01*
X92233698Y-129978019D01*
X92230013Y-129976744D01*
X92226000Y-129975654D01*
X92221407Y-129974733D01*
X92215985Y-129973963D01*
X92209481Y-129973329D01*
X92201644Y-129972814D01*
X92192225Y-129972400D01*
X92180970Y-129972072D01*
X92167630Y-129971813D01*
X92151953Y-129971606D01*
X92133688Y-129971435D01*
X92112584Y-129971282D01*
X92089201Y-129971137D01*
X91970451Y-129970425D01*
X91970451Y-130229011D01*
X92002534Y-130228988D01*
X92018273Y-130228853D01*
X92033926Y-130228491D01*
X92049010Y-130227930D01*
X92063044Y-130227198D01*
X92075546Y-130226322D01*
X92086033Y-130225331D01*
X92094023Y-130224254D01*
X92098023Y-130223423D01*
X92109248Y-130219630D01*
X92118533Y-130214646D01*
X92126052Y-130208169D01*
X92131984Y-130199899D01*
X92136502Y-130189534D01*
X92139783Y-130176773D01*
X92142004Y-130161315D01*
X92143174Y-130146089D01*
X92144292Y-130125671D01*
X92202118Y-130125671D01*
X92202118Y-130400689D01*
X92145750Y-130400689D01*
X92144682Y-130386105D01*
X92142878Y-130367321D01*
X92140329Y-130351531D01*
X92136855Y-130338444D01*
X92132274Y-130327769D01*
X92126405Y-130319213D01*
X92119066Y-130312486D01*
X92110076Y-130307295D01*
X92099253Y-130303351D01*
X92092025Y-130301510D01*
X92087501Y-130300665D01*
X92081923Y-130299960D01*
X92074908Y-130299377D01*
X92066079Y-130298893D01*
X92055053Y-130298488D01*
X92041452Y-130298141D01*
X92025034Y-130297833D01*
X91970451Y-130296934D01*
X91970451Y-130582368D01*
X92051701Y-130582297D01*
X92083215Y-130582190D01*
X92111617Y-130581929D01*
X92136875Y-130581514D01*
X92158962Y-130580947D01*
X92177849Y-130580228D01*
X92193505Y-130579358D01*
X92205902Y-130578339D01*
X92215011Y-130577172D01*
X92217951Y-130576615D01*
X92225578Y-130574493D01*
X92234192Y-130571408D01*
X92241639Y-130568161D01*
X92250751Y-130562719D01*
X92258534Y-130555879D01*
X92265079Y-130547398D01*
X92270478Y-130537029D01*
X92274823Y-130524527D01*
X92278206Y-130509646D01*
X92280718Y-130492141D01*
X92282451Y-130471767D01*
X92283200Y-130456943D01*
X92284305Y-130429024D01*
X92348784Y-130429024D01*
X92348784Y-130659039D01*
X91722118Y-130659039D01*
X91722118Y-130602369D01*
X91745034Y-130602340D01*
X91761031Y-130601911D01*
X91774306Y-130600607D01*
X91785378Y-130598339D01*
X91794764Y-130595016D01*
X91798973Y-130592938D01*
X91807223Y-130587434D01*
X91813639Y-130580592D01*
X91819032Y-130571502D01*
X91820041Y-130569374D01*
X91821167Y-130566927D01*
X91822193Y-130564604D01*
X91823123Y-130562247D01*
X91823962Y-130559697D01*
X91824714Y-130556798D01*
X91825383Y-130553392D01*
X91825975Y-130549321D01*
X91826492Y-130544427D01*
X91826940Y-130538552D01*
X91827323Y-130531539D01*
X91827645Y-130523230D01*
X91827910Y-130513468D01*
X91828123Y-130502094D01*
X91828289Y-130488951D01*
X91828411Y-130473881D01*
X91828495Y-130456727D01*
X91828543Y-130437330D01*
X91828561Y-130415534D01*
X91828554Y-130391179D01*
X91828524Y-130364110D01*
X91828478Y-130334167D01*
X91828418Y-130301193D01*
X91828356Y-130268075D01*
X91828289Y-130233203D01*
X91828223Y-130201507D01*
X91828158Y-130172828D01*
X91828090Y-130147008D01*
X91828018Y-130123890D01*
X91827939Y-130103316D01*
X91827853Y-130085127D01*
X91827756Y-130069165D01*
X91827646Y-130055273D01*
X91827523Y-130043292D01*
X91827383Y-130033065D01*
X91827224Y-130024433D01*
X91827046Y-130017239D01*
X91826845Y-130011323D01*
X91826620Y-130006530D01*
X91826368Y-130002699D01*
X91826088Y-129999674D01*
X91825777Y-129997296D01*
X91825435Y-129995408D01*
X91825057Y-129993851D01*
X91824860Y-129993162D01*
X91819228Y-129979215D01*
X91811466Y-129967817D01*
X91801586Y-129958986D01*
X91789605Y-129952736D01*
X91788269Y-129952245D01*
X91783233Y-129950691D01*
X91777763Y-129949554D01*
X91771117Y-129948742D01*
X91762553Y-129948160D01*
X91752534Y-129947756D01*
X91727118Y-129946921D01*
X91727118Y-129893989D01*
X92343784Y-129893989D01*
X92343784Y-130095669D01*
X92343784Y-130095669D01*
G37*
G36*
X92527534Y-131099364D02*
G01*
X92538076Y-131099917D01*
X92545816Y-131100888D01*
X92551282Y-131102487D01*
X92554997Y-131104923D01*
X92557489Y-131108406D01*
X92558878Y-131111855D01*
X92559920Y-131118172D01*
X92559231Y-131124385D01*
X92557118Y-131129653D01*
X92553886Y-131133136D01*
X92550782Y-131134071D01*
X92549894Y-131134861D01*
X92551797Y-131137290D01*
X92552640Y-131138096D01*
X92555514Y-131141275D01*
X92557348Y-131144956D01*
X92558450Y-131150072D01*
X92559130Y-131157559D01*
X92559147Y-131157822D01*
X92559642Y-131165739D01*
X92553380Y-131165739D01*
X92549388Y-131165565D01*
X92547602Y-131164405D01*
X92547134Y-131161303D01*
X92547118Y-131158990D01*
X92546178Y-131151780D01*
X92543629Y-131145976D01*
X92539872Y-131142375D01*
X92538434Y-131141806D01*
X92534303Y-131141142D01*
X92528855Y-131140781D01*
X92527534Y-131140761D01*
X92520451Y-131140738D01*
X92520451Y-131165739D01*
X92507118Y-131165739D01*
X92507118Y-131109069D01*
X92520451Y-131109069D01*
X92520451Y-131130737D01*
X92528706Y-131130737D01*
X92534534Y-131130347D01*
X92539635Y-131129363D01*
X92541174Y-131128817D01*
X92545437Y-131125324D01*
X92546884Y-131120129D01*
X92546388Y-131116390D01*
X92543951Y-131112498D01*
X92538860Y-131110094D01*
X92530932Y-131109105D01*
X92528676Y-131109069D01*
X92520451Y-131109069D01*
X92507118Y-131109069D01*
X92507118Y-131098666D01*
X92527534Y-131099364D01*
X92527534Y-131099364D01*
G37*
G36*
X88581133Y-127080997D02*
G01*
X88574120Y-127088010D01*
X88567107Y-127080997D01*
X88574120Y-127073984D01*
X88581133Y-127080997D01*
X88581133Y-127080997D01*
G37*
G36*
X93697279Y-126358795D02*
G01*
X93843600Y-126359101D01*
X93978966Y-126359589D01*
X94101016Y-126360240D01*
X94207390Y-126361035D01*
X94295727Y-126361958D01*
X94363667Y-126362988D01*
X94408848Y-126364108D01*
X94428910Y-126365300D01*
X94429724Y-126365597D01*
X94426119Y-126382628D01*
X94416321Y-126420714D01*
X94401862Y-126474416D01*
X94384271Y-126538297D01*
X94365077Y-126606920D01*
X94345811Y-126674848D01*
X94328003Y-126736643D01*
X94313182Y-126786867D01*
X94302879Y-126820083D01*
X94298814Y-126830884D01*
X94282441Y-126831783D01*
X94249661Y-126826014D01*
X94238291Y-126823207D01*
X94190459Y-126812742D01*
X94124756Y-126801116D01*
X94049403Y-126789484D01*
X93972620Y-126779003D01*
X93902630Y-126770830D01*
X93847652Y-126766121D01*
X93827529Y-126765425D01*
X93768911Y-126765425D01*
X93773943Y-127596430D01*
X93775033Y-127770521D01*
X93776088Y-127918906D01*
X93777195Y-128043932D01*
X93778440Y-128147944D01*
X93779909Y-128233288D01*
X93781688Y-128302309D01*
X93783865Y-128357353D01*
X93786525Y-128400766D01*
X93789754Y-128434892D01*
X93793640Y-128462078D01*
X93798268Y-128484669D01*
X93803725Y-128505011D01*
X93807904Y-128518600D01*
X93824228Y-128568854D01*
X93838545Y-128610877D01*
X93847260Y-128634310D01*
X93848859Y-128641601D01*
X93844733Y-128647289D01*
X93831895Y-128651573D01*
X93807354Y-128654650D01*
X93768122Y-128656717D01*
X93711209Y-128657972D01*
X93633627Y-128658613D01*
X93532386Y-128658837D01*
X93475862Y-128658854D01*
X93094040Y-128658854D01*
X93103227Y-128627297D01*
X93117728Y-128578001D01*
X93130061Y-128535843D01*
X93140416Y-128498165D01*
X93148981Y-128462312D01*
X93155945Y-128425627D01*
X93161498Y-128385454D01*
X93165829Y-128339136D01*
X93169126Y-128284017D01*
X93171579Y-128217441D01*
X93173377Y-128136750D01*
X93174709Y-128039290D01*
X93175764Y-127922403D01*
X93176731Y-127783433D01*
X93177800Y-127619723D01*
X93178099Y-127575392D01*
X93183648Y-126765425D01*
X93066846Y-126765465D01*
X92941339Y-126770249D01*
X92808366Y-126783487D01*
X92680864Y-126803626D01*
X92599633Y-126821548D01*
X92551337Y-126833413D01*
X92515262Y-126841383D01*
X92498443Y-126843918D01*
X92498055Y-126843786D01*
X92501237Y-126830230D01*
X92512013Y-126794331D01*
X92529043Y-126740335D01*
X92550991Y-126672491D01*
X92574941Y-126599788D01*
X92655003Y-126358689D01*
X93542364Y-126358689D01*
X93697279Y-126358795D01*
X93697279Y-126358795D01*
G37*
G36*
X90665208Y-127463220D02*
G01*
X90724239Y-127320083D01*
X90781995Y-127179426D01*
X90837305Y-127044086D01*
X90888996Y-126916901D01*
X90935898Y-126800707D01*
X90976838Y-126698340D01*
X91010644Y-126612639D01*
X91036145Y-126546438D01*
X91052169Y-126502576D01*
X91054418Y-126495862D01*
X91098692Y-126359540D01*
X91344136Y-126359134D01*
X91589581Y-126358728D01*
X91615071Y-126446367D01*
X91624493Y-126473252D01*
X91643657Y-126523345D01*
X91671465Y-126593981D01*
X91706821Y-126682493D01*
X91748629Y-126786217D01*
X91795791Y-126902488D01*
X91847212Y-127028640D01*
X91901794Y-127162009D01*
X91958441Y-127299929D01*
X92016057Y-127439735D01*
X92073544Y-127578761D01*
X92129807Y-127714344D01*
X92183748Y-127843817D01*
X92234272Y-127964515D01*
X92280280Y-128073773D01*
X92320678Y-128168927D01*
X92354368Y-128247310D01*
X92380254Y-128306257D01*
X92381132Y-128308219D01*
X92414756Y-128379954D01*
X92451917Y-128453984D01*
X92487128Y-128519588D01*
X92505730Y-128551591D01*
X92533029Y-128596996D01*
X92553551Y-128632360D01*
X92563796Y-128651610D01*
X92564346Y-128653275D01*
X92550948Y-128654804D01*
X92513265Y-128656173D01*
X92455062Y-128657322D01*
X92380103Y-128658190D01*
X92292154Y-128658718D01*
X92215523Y-128658854D01*
X91866699Y-128658854D01*
X91857109Y-128578208D01*
X91848793Y-128535888D01*
X91832472Y-128474523D01*
X91810235Y-128401242D01*
X91784172Y-128323171D01*
X91773867Y-128294194D01*
X91700215Y-128090826D01*
X91321697Y-128087099D01*
X90943179Y-128083373D01*
X90870162Y-128307317D01*
X90840699Y-128401953D01*
X90817993Y-128483777D01*
X90803132Y-128548496D01*
X90797205Y-128591819D01*
X90797146Y-128595057D01*
X90797146Y-128658854D01*
X90460536Y-128658854D01*
X90366717Y-128658586D01*
X90282965Y-128657833D01*
X90213111Y-128656672D01*
X90160990Y-128655179D01*
X90130433Y-128653432D01*
X90123927Y-128652114D01*
X90130898Y-128637686D01*
X90149059Y-128606816D01*
X90171135Y-128571468D01*
X90201632Y-128520794D01*
X90236756Y-128458113D01*
X90269057Y-128396734D01*
X90269931Y-128395000D01*
X90287700Y-128357196D01*
X90314741Y-128296341D01*
X90349882Y-128215271D01*
X90391951Y-128116825D01*
X90439777Y-128003837D01*
X90492187Y-127879147D01*
X90548010Y-127745589D01*
X90576509Y-127677076D01*
X91078562Y-127677076D01*
X91553306Y-127677076D01*
X91506124Y-127547341D01*
X91482349Y-127481903D01*
X91452847Y-127400609D01*
X91421435Y-127313983D01*
X91392920Y-127235276D01*
X91368030Y-127167215D01*
X91345817Y-127107728D01*
X91328356Y-127062279D01*
X91317719Y-127036328D01*
X91316304Y-127033407D01*
X91307262Y-127036082D01*
X91292190Y-127064620D01*
X91271743Y-127117642D01*
X91259800Y-127152623D01*
X91237080Y-127220401D01*
X91208526Y-127304269D01*
X91177684Y-127393883D01*
X91148096Y-127478894D01*
X91146226Y-127484227D01*
X91078562Y-127677076D01*
X90576509Y-127677076D01*
X90606075Y-127606001D01*
X90665208Y-127463220D01*
X90665208Y-127463220D01*
G37*
G36*
X87623618Y-127220328D02*
G01*
X87659419Y-127087323D01*
X87681819Y-127028721D01*
X87759566Y-126882305D01*
X87860809Y-126747620D01*
X87982285Y-126627990D01*
X88120727Y-126526738D01*
X88237510Y-126463070D01*
X88411865Y-126396381D01*
X88596842Y-126354878D01*
X88789905Y-126338977D01*
X88955591Y-126345625D01*
X89125620Y-126369569D01*
X89275866Y-126408625D01*
X89411548Y-126465187D01*
X89537885Y-126541649D01*
X89660099Y-126640408D01*
X89717656Y-126695265D01*
X89824624Y-126814620D01*
X89907851Y-126937615D01*
X89969790Y-127069444D01*
X90012890Y-127215303D01*
X90039211Y-127376839D01*
X90047033Y-127561455D01*
X90029226Y-127739588D01*
X89986479Y-127909032D01*
X89919482Y-128067582D01*
X89828925Y-128213031D01*
X89747438Y-128310625D01*
X89621448Y-128429298D01*
X89487922Y-128524178D01*
X89343735Y-128596649D01*
X89185762Y-128648097D01*
X89010877Y-128679905D01*
X88889691Y-128690535D01*
X88828848Y-128692889D01*
X88770781Y-128693344D01*
X88728399Y-128691822D01*
X88531489Y-128663722D01*
X88350232Y-128613772D01*
X88185624Y-128542777D01*
X88038661Y-128451541D01*
X87910340Y-128340868D01*
X87801658Y-128211562D01*
X87713611Y-128064427D01*
X87647194Y-127900267D01*
X87618683Y-127796292D01*
X87597798Y-127662467D01*
X87592118Y-127516279D01*
X87599061Y-127398268D01*
X88235391Y-127398268D01*
X88236484Y-127550790D01*
X88258720Y-127695396D01*
X88302302Y-127827601D01*
X88315189Y-127855421D01*
X88383287Y-127963028D01*
X88473653Y-128057024D01*
X88583139Y-128135671D01*
X88708601Y-128197232D01*
X88846891Y-128239969D01*
X88994863Y-128262145D01*
X89056625Y-128264877D01*
X89146418Y-128266143D01*
X89069910Y-128185497D01*
X89025703Y-128136489D01*
X88982926Y-128085072D01*
X88950736Y-128042261D01*
X88950378Y-128041737D01*
X88919578Y-127991891D01*
X88881665Y-127923584D01*
X88840367Y-127844227D01*
X88799408Y-127761232D01*
X88762514Y-127682009D01*
X88733412Y-127613972D01*
X88726869Y-127597143D01*
X88711726Y-127554143D01*
X88692944Y-127496621D01*
X88672033Y-127429727D01*
X88650508Y-127358611D01*
X88629881Y-127288421D01*
X88611666Y-127224309D01*
X88597375Y-127171422D01*
X88588522Y-127134912D01*
X88586619Y-127119926D01*
X88586645Y-127119898D01*
X88593254Y-127129605D01*
X88606270Y-127159389D01*
X88622891Y-127202830D01*
X88623092Y-127203383D01*
X88706506Y-127412667D01*
X88799418Y-127604433D01*
X88906950Y-127788870D01*
X88952881Y-127859407D01*
X89002709Y-127935545D01*
X89049957Y-128010786D01*
X89091111Y-128079303D01*
X89122654Y-128135270D01*
X89138681Y-128167260D01*
X89179023Y-128257719D01*
X89224648Y-128191405D01*
X89301585Y-128054891D01*
X89356335Y-127901287D01*
X89388868Y-127730710D01*
X89399167Y-127550848D01*
X89398253Y-127469116D01*
X89394882Y-127407509D01*
X89388123Y-127358141D01*
X89377047Y-127313126D01*
X89367749Y-127284365D01*
X89322956Y-127178842D01*
X89263923Y-127086431D01*
X89184545Y-126997803D01*
X89172623Y-126986273D01*
X89070985Y-126904609D01*
X88957152Y-126843095D01*
X88827883Y-126800468D01*
X88679937Y-126775460D01*
X88619745Y-126770415D01*
X88557378Y-126767025D01*
X88515882Y-126767079D01*
X88488193Y-126771509D01*
X88467245Y-126781250D01*
X88451684Y-126792619D01*
X88428142Y-126819025D01*
X88398405Y-126863127D01*
X88367652Y-126916976D01*
X88356931Y-126938029D01*
X88295819Y-127087405D01*
X88255237Y-127242312D01*
X88235391Y-127398268D01*
X87599061Y-127398268D01*
X87600954Y-127366106D01*
X87623618Y-127220328D01*
X87623618Y-127220328D01*
G37*
G36*
X95565873Y-126361856D02*
G01*
X95695668Y-126378799D01*
X95820908Y-126406257D01*
X95877847Y-126423229D01*
X95944468Y-126445095D01*
X95944468Y-126961350D01*
X95870834Y-126905353D01*
X95786675Y-126851543D01*
X95701381Y-126815205D01*
X95618217Y-126795742D01*
X95540444Y-126792560D01*
X95471325Y-126805062D01*
X95414123Y-126832653D01*
X95372102Y-126874737D01*
X95348522Y-126930719D01*
X95346649Y-127000003D01*
X95346787Y-127001028D01*
X95357046Y-127048747D01*
X95376008Y-127092570D01*
X95406960Y-127136808D01*
X95453194Y-127185773D01*
X95517997Y-127243777D01*
X95556596Y-127276039D01*
X95685837Y-127387694D01*
X95791007Y-127490794D01*
X95873775Y-127587936D01*
X95935810Y-127681718D01*
X95978780Y-127774737D01*
X96004353Y-127869590D01*
X96014198Y-127968874D01*
X96014428Y-127988791D01*
X96002482Y-128130956D01*
X95966588Y-128259097D01*
X95906017Y-128374928D01*
X95820042Y-128480164D01*
X95795529Y-128504051D01*
X95693432Y-128584984D01*
X95581526Y-128644763D01*
X95457102Y-128684149D01*
X95317451Y-128703900D01*
X95159864Y-128704780D01*
X95095931Y-128700428D01*
X94997159Y-128686530D01*
X94890697Y-128662468D01*
X94832955Y-128645530D01*
X94696207Y-128601436D01*
X94696207Y-128038922D01*
X94773380Y-128109453D01*
X94865847Y-128182157D01*
X94959381Y-128230161D01*
X95060451Y-128256290D01*
X95123982Y-128262482D01*
X95186666Y-128264093D01*
X95230438Y-128260727D01*
X95264176Y-128251198D01*
X95285274Y-128240949D01*
X95340964Y-128196800D01*
X95375187Y-128136661D01*
X95388930Y-128058577D01*
X95389265Y-128034724D01*
X95386178Y-127982117D01*
X95376775Y-127935845D01*
X95358492Y-127892361D01*
X95328766Y-127848117D01*
X95285033Y-127799563D01*
X95224730Y-127743152D01*
X95145294Y-127675335D01*
X95106547Y-127643365D01*
X94972403Y-127523355D01*
X94866050Y-127406056D01*
X94787517Y-127291508D01*
X94736831Y-127179752D01*
X94714021Y-127070829D01*
X94713946Y-127069915D01*
X94715038Y-126974783D01*
X94730784Y-126873087D01*
X94758708Y-126776516D01*
X94791095Y-126705569D01*
X94864596Y-126603913D01*
X94959371Y-126514436D01*
X95069784Y-126441396D01*
X95190200Y-126389049D01*
X95223302Y-126379122D01*
X95322275Y-126361518D01*
X95438937Y-126355930D01*
X95565873Y-126361856D01*
X95565873Y-126361856D01*
G37*
D12*
X144573666Y-112335880D02*
X144573666Y-113050166D01*
X144526047Y-113193023D01*
X144430809Y-113288261D01*
X144287952Y-113335880D01*
X144192714Y-113335880D01*
X144954619Y-112335880D02*
X145621285Y-112335880D01*
X145192714Y-113335880D01*
X144573666Y-90491880D02*
X144573666Y-91206166D01*
X144526047Y-91349023D01*
X144430809Y-91444261D01*
X144287952Y-91491880D01*
X144192714Y-91491880D01*
X145478428Y-90491880D02*
X145287952Y-90491880D01*
X145192714Y-90539500D01*
X145145095Y-90587119D01*
X145049857Y-90729976D01*
X145002238Y-90920452D01*
X145002238Y-91301404D01*
X145049857Y-91396642D01*
X145097476Y-91444261D01*
X145192714Y-91491880D01*
X145383190Y-91491880D01*
X145478428Y-91444261D01*
X145526047Y-91396642D01*
X145573666Y-91301404D01*
X145573666Y-91063309D01*
X145526047Y-90968071D01*
X145478428Y-90920452D01*
X145383190Y-90872833D01*
X145192714Y-90872833D01*
X145097476Y-90920452D01*
X145049857Y-90968071D01*
X145002238Y-91063309D01*
X93773666Y-94975880D02*
X93773666Y-95690166D01*
X93726047Y-95833023D01*
X93630809Y-95928261D01*
X93487952Y-95975880D01*
X93392714Y-95975880D01*
X94726047Y-94975880D02*
X94249857Y-94975880D01*
X94202238Y-95452071D01*
X94249857Y-95404452D01*
X94345095Y-95356833D01*
X94583190Y-95356833D01*
X94678428Y-95404452D01*
X94726047Y-95452071D01*
X94773666Y-95547309D01*
X94773666Y-95785404D01*
X94726047Y-95880642D01*
X94678428Y-95928261D01*
X94583190Y-95975880D01*
X94345095Y-95975880D01*
X94249857Y-95928261D01*
X94202238Y-95880642D01*
X93773666Y-72115880D02*
X93773666Y-72830166D01*
X93726047Y-72973023D01*
X93630809Y-73068261D01*
X93487952Y-73115880D01*
X93392714Y-73115880D01*
X94678428Y-72449214D02*
X94678428Y-73115880D01*
X94440333Y-72068261D02*
X94202238Y-72782547D01*
X94821285Y-72782547D01*
M02*
