G04 #@! TF.GenerationSoftware,KiCad,Pcbnew,(5.99.0-73-g24ea8f970)*
G04 #@! TF.CreationDate,2019-09-05T17:19:17-04:00*
G04 #@! TF.ProjectId,headers,68656164-6572-4732-9e6b-696361645f70,rev?*
G04 #@! TF.SameCoordinates,Original*
G04 #@! TF.FileFunction,Legend,Bot*
G04 #@! TF.FilePolarity,Positive*
%FSLAX46Y46*%
G04 Gerber Fmt 4.6, Leading zero omitted, Abs format (unit mm)*
G04 Created by KiCad (PCBNEW (5.99.0-73-g24ea8f970)) date 2019-09-05 17:19:17*
%MOMM*%
%LPD*%
G04 APERTURE LIST*
%ADD10C,0.010000*%
G04 APERTURE END LIST*
D10*
G36*
X118875437Y-125154938D02*
G01*
X118875685Y-125054023D01*
X118875724Y-124978362D01*
X118875979Y-124900453D01*
X118876623Y-124840443D01*
X118876799Y-124833890D01*
X119022440Y-124833890D01*
X119022440Y-125274157D01*
X119098640Y-125274171D01*
X119101668Y-125274162D01*
X119152788Y-125272197D01*
X119212891Y-125267472D01*
X119269599Y-125260944D01*
X119319557Y-125251648D01*
X119394309Y-125225379D01*
X119451818Y-125186080D01*
X119493319Y-125133046D01*
X119514536Y-125081779D01*
X119515954Y-125033953D01*
X119497672Y-124983018D01*
X119468002Y-124937101D01*
X119421305Y-124894692D01*
X119359915Y-124864889D01*
X119280769Y-124845753D01*
X119279279Y-124845515D01*
X119230308Y-124839723D01*
X119171614Y-124835583D01*
X119115573Y-124833975D01*
X119022440Y-124833890D01*
X118876799Y-124833890D01*
X118877827Y-124795715D01*
X118879764Y-124763653D01*
X118882604Y-124741639D01*
X118886519Y-124727055D01*
X118891681Y-124717285D01*
X118898262Y-124709712D01*
X118905230Y-124703478D01*
X118918228Y-124696178D01*
X118937376Y-124691425D01*
X118966779Y-124688687D01*
X119010545Y-124687434D01*
X119072779Y-124687134D01*
X119121725Y-124687510D01*
X119228585Y-124691938D01*
X119317813Y-124702026D01*
X119392611Y-124718614D01*
X119456182Y-124742544D01*
X119511728Y-124774658D01*
X119562453Y-124815797D01*
X119568441Y-124821649D01*
X119605308Y-124870158D01*
X119636408Y-124930966D01*
X119657890Y-124995210D01*
X119665907Y-125054023D01*
X119664628Y-125075240D01*
X119652316Y-125132656D01*
X119629787Y-125192566D01*
X119600557Y-125246616D01*
X119568140Y-125286447D01*
X119548599Y-125303469D01*
X119493887Y-125342657D01*
X119433584Y-125372786D01*
X119364388Y-125394747D01*
X119282996Y-125409429D01*
X119186107Y-125417720D01*
X119070418Y-125420512D01*
X119030936Y-125420913D01*
X118985225Y-125421326D01*
X118949424Y-125419522D01*
X118922333Y-125413240D01*
X118902751Y-125400220D01*
X118889477Y-125378201D01*
X118881309Y-125344924D01*
X118877047Y-125298128D01*
X118876450Y-125274157D01*
X118875490Y-125235552D01*
X118875437Y-125154938D01*
X118875437Y-125154938D01*
G37*
X118875437Y-125154938D02*
X118875685Y-125054023D01*
X118875724Y-124978362D01*
X118875979Y-124900453D01*
X118876623Y-124840443D01*
X118876799Y-124833890D01*
X119022440Y-124833890D01*
X119022440Y-125274157D01*
X119098640Y-125274171D01*
X119101668Y-125274162D01*
X119152788Y-125272197D01*
X119212891Y-125267472D01*
X119269599Y-125260944D01*
X119319557Y-125251648D01*
X119394309Y-125225379D01*
X119451818Y-125186080D01*
X119493319Y-125133046D01*
X119514536Y-125081779D01*
X119515954Y-125033953D01*
X119497672Y-124983018D01*
X119468002Y-124937101D01*
X119421305Y-124894692D01*
X119359915Y-124864889D01*
X119280769Y-124845753D01*
X119279279Y-124845515D01*
X119230308Y-124839723D01*
X119171614Y-124835583D01*
X119115573Y-124833975D01*
X119022440Y-124833890D01*
X118876799Y-124833890D01*
X118877827Y-124795715D01*
X118879764Y-124763653D01*
X118882604Y-124741639D01*
X118886519Y-124727055D01*
X118891681Y-124717285D01*
X118898262Y-124709712D01*
X118905230Y-124703478D01*
X118918228Y-124696178D01*
X118937376Y-124691425D01*
X118966779Y-124688687D01*
X119010545Y-124687434D01*
X119072779Y-124687134D01*
X119121725Y-124687510D01*
X119228585Y-124691938D01*
X119317813Y-124702026D01*
X119392611Y-124718614D01*
X119456182Y-124742544D01*
X119511728Y-124774658D01*
X119562453Y-124815797D01*
X119568441Y-124821649D01*
X119605308Y-124870158D01*
X119636408Y-124930966D01*
X119657890Y-124995210D01*
X119665907Y-125054023D01*
X119664628Y-125075240D01*
X119652316Y-125132656D01*
X119629787Y-125192566D01*
X119600557Y-125246616D01*
X119568140Y-125286447D01*
X119548599Y-125303469D01*
X119493887Y-125342657D01*
X119433584Y-125372786D01*
X119364388Y-125394747D01*
X119282996Y-125409429D01*
X119186107Y-125417720D01*
X119070418Y-125420512D01*
X119030936Y-125420913D01*
X118985225Y-125421326D01*
X118949424Y-125419522D01*
X118922333Y-125413240D01*
X118902751Y-125400220D01*
X118889477Y-125378201D01*
X118881309Y-125344924D01*
X118877047Y-125298128D01*
X118876450Y-125274157D01*
X118875490Y-125235552D01*
X118875437Y-125154938D01*
G36*
X120390993Y-124687146D02*
G01*
X120472140Y-124687328D01*
X120534632Y-124687881D01*
X120581198Y-124688997D01*
X120614566Y-124690866D01*
X120637463Y-124693681D01*
X120652619Y-124697633D01*
X120662761Y-124702913D01*
X120670618Y-124709712D01*
X120685344Y-124731312D01*
X120693196Y-124760512D01*
X120687697Y-124784419D01*
X120670618Y-124811312D01*
X120665639Y-124815920D01*
X120655864Y-124822207D01*
X120641748Y-124826833D01*
X120620253Y-124830049D01*
X120588339Y-124832109D01*
X120542965Y-124833267D01*
X120481094Y-124833777D01*
X120399685Y-124833890D01*
X120151329Y-124833890D01*
X120151329Y-124991934D01*
X120312506Y-124991934D01*
X120348324Y-124992080D01*
X120413948Y-124993803D01*
X120461189Y-124998238D01*
X120492924Y-125006342D01*
X120512030Y-125019073D01*
X120521384Y-125037387D01*
X120523862Y-125062241D01*
X120523065Y-125082497D01*
X120517813Y-125104323D01*
X120505019Y-125119675D01*
X120481679Y-125129670D01*
X120444790Y-125135426D01*
X120391348Y-125138060D01*
X120318349Y-125138690D01*
X120150202Y-125138690D01*
X120153588Y-125203601D01*
X120156973Y-125268512D01*
X120404690Y-125271561D01*
X120467281Y-125272440D01*
X120535742Y-125273884D01*
X120586646Y-125275815D01*
X120622899Y-125278465D01*
X120647406Y-125282069D01*
X120663072Y-125286858D01*
X120672801Y-125293066D01*
X120678816Y-125299469D01*
X120691825Y-125331151D01*
X120688264Y-125366837D01*
X120668489Y-125397895D01*
X120665238Y-125400818D01*
X120656258Y-125407169D01*
X120644154Y-125412022D01*
X120626148Y-125415576D01*
X120599460Y-125418033D01*
X120561310Y-125419594D01*
X120508921Y-125420461D01*
X120439513Y-125420833D01*
X120350306Y-125420912D01*
X120295573Y-125420896D01*
X120218476Y-125420704D01*
X120159530Y-125420119D01*
X120115943Y-125418928D01*
X120084924Y-125416915D01*
X120063682Y-125413867D01*
X120049425Y-125409570D01*
X120039362Y-125403807D01*
X120030701Y-125396367D01*
X120028916Y-125394686D01*
X120021672Y-125387147D01*
X120016030Y-125378129D01*
X120011790Y-125364995D01*
X120008751Y-125345107D01*
X120006713Y-125315828D01*
X120005477Y-125274521D01*
X120004842Y-125218548D01*
X120004607Y-125145272D01*
X120004573Y-125052056D01*
X120004610Y-124979266D01*
X120004859Y-124901090D01*
X120005495Y-124840876D01*
X120006692Y-124795997D01*
X120008623Y-124763827D01*
X120011461Y-124741740D01*
X120015380Y-124727109D01*
X120020552Y-124717309D01*
X120027151Y-124709712D01*
X120030485Y-124706535D01*
X120039007Y-124700425D01*
X120051009Y-124695750D01*
X120069220Y-124692320D01*
X120096367Y-124689943D01*
X120135178Y-124688427D01*
X120188383Y-124687581D01*
X120258709Y-124687214D01*
X120348885Y-124687134D01*
X120390993Y-124687146D01*
X120390993Y-124687146D01*
G37*
X120390993Y-124687146D02*
X120472140Y-124687328D01*
X120534632Y-124687881D01*
X120581198Y-124688997D01*
X120614566Y-124690866D01*
X120637463Y-124693681D01*
X120652619Y-124697633D01*
X120662761Y-124702913D01*
X120670618Y-124709712D01*
X120685344Y-124731312D01*
X120693196Y-124760512D01*
X120687697Y-124784419D01*
X120670618Y-124811312D01*
X120665639Y-124815920D01*
X120655864Y-124822207D01*
X120641748Y-124826833D01*
X120620253Y-124830049D01*
X120588339Y-124832109D01*
X120542965Y-124833267D01*
X120481094Y-124833777D01*
X120399685Y-124833890D01*
X120151329Y-124833890D01*
X120151329Y-124991934D01*
X120312506Y-124991934D01*
X120348324Y-124992080D01*
X120413948Y-124993803D01*
X120461189Y-124998238D01*
X120492924Y-125006342D01*
X120512030Y-125019073D01*
X120521384Y-125037387D01*
X120523862Y-125062241D01*
X120523065Y-125082497D01*
X120517813Y-125104323D01*
X120505019Y-125119675D01*
X120481679Y-125129670D01*
X120444790Y-125135426D01*
X120391348Y-125138060D01*
X120318349Y-125138690D01*
X120150202Y-125138690D01*
X120153588Y-125203601D01*
X120156973Y-125268512D01*
X120404690Y-125271561D01*
X120467281Y-125272440D01*
X120535742Y-125273884D01*
X120586646Y-125275815D01*
X120622899Y-125278465D01*
X120647406Y-125282069D01*
X120663072Y-125286858D01*
X120672801Y-125293066D01*
X120678816Y-125299469D01*
X120691825Y-125331151D01*
X120688264Y-125366837D01*
X120668489Y-125397895D01*
X120665238Y-125400818D01*
X120656258Y-125407169D01*
X120644154Y-125412022D01*
X120626148Y-125415576D01*
X120599460Y-125418033D01*
X120561310Y-125419594D01*
X120508921Y-125420461D01*
X120439513Y-125420833D01*
X120350306Y-125420912D01*
X120295573Y-125420896D01*
X120218476Y-125420704D01*
X120159530Y-125420119D01*
X120115943Y-125418928D01*
X120084924Y-125416915D01*
X120063682Y-125413867D01*
X120049425Y-125409570D01*
X120039362Y-125403807D01*
X120030701Y-125396367D01*
X120028916Y-125394686D01*
X120021672Y-125387147D01*
X120016030Y-125378129D01*
X120011790Y-125364995D01*
X120008751Y-125345107D01*
X120006713Y-125315828D01*
X120005477Y-125274521D01*
X120004842Y-125218548D01*
X120004607Y-125145272D01*
X120004573Y-125052056D01*
X120004610Y-124979266D01*
X120004859Y-124901090D01*
X120005495Y-124840876D01*
X120006692Y-124795997D01*
X120008623Y-124763827D01*
X120011461Y-124741740D01*
X120015380Y-124727109D01*
X120020552Y-124717309D01*
X120027151Y-124709712D01*
X120030485Y-124706535D01*
X120039007Y-124700425D01*
X120051009Y-124695750D01*
X120069220Y-124692320D01*
X120096367Y-124689943D01*
X120135178Y-124688427D01*
X120188383Y-124687581D01*
X120258709Y-124687214D01*
X120348885Y-124687134D01*
X120390993Y-124687146D01*
G36*
X121445563Y-124691238D02*
G01*
X121525615Y-124699244D01*
X121590794Y-124713776D01*
X121644490Y-124735830D01*
X121690091Y-124766403D01*
X121730984Y-124806493D01*
X121751105Y-124832720D01*
X121762731Y-124862267D01*
X121765640Y-124901984D01*
X121765499Y-124913953D01*
X121761626Y-124946634D01*
X121749242Y-124973160D01*
X121724077Y-125004008D01*
X121702865Y-125026148D01*
X121676469Y-125048694D01*
X121646752Y-125067062D01*
X121610522Y-125082318D01*
X121564590Y-125095530D01*
X121505763Y-125107765D01*
X121430851Y-125120090D01*
X121336662Y-125133573D01*
X121291350Y-125140583D01*
X121223396Y-125155142D01*
X121174260Y-125171642D01*
X121144693Y-125189540D01*
X121135443Y-125208294D01*
X121147259Y-125227364D01*
X121180891Y-125246208D01*
X121183937Y-125247422D01*
X121230296Y-125259500D01*
X121292946Y-125267700D01*
X121366380Y-125271860D01*
X121445090Y-125271818D01*
X121523568Y-125267410D01*
X121596307Y-125258474D01*
X121600234Y-125257825D01*
X121649050Y-125250118D01*
X121681302Y-125246506D01*
X121702299Y-125247103D01*
X121717353Y-125252025D01*
X121731773Y-125261383D01*
X121732943Y-125262254D01*
X121757460Y-125292628D01*
X121762253Y-125328129D01*
X121746447Y-125362710D01*
X121741901Y-125367166D01*
X121712287Y-125382306D01*
X121665305Y-125395429D01*
X121605001Y-125406229D01*
X121535419Y-125414398D01*
X121460604Y-125419628D01*
X121384601Y-125421612D01*
X121311454Y-125420043D01*
X121245207Y-125414613D01*
X121189907Y-125405015D01*
X121139024Y-125390154D01*
X121067712Y-125357021D01*
X121016555Y-125314339D01*
X120985732Y-125262274D01*
X120975418Y-125200996D01*
X120976355Y-125169747D01*
X120982147Y-125144950D01*
X120996954Y-125123280D01*
X121024927Y-125095930D01*
X121032905Y-125088601D01*
X121056615Y-125067698D01*
X121079009Y-125050728D01*
X121103042Y-125036774D01*
X121131670Y-125024923D01*
X121167847Y-125014259D01*
X121214527Y-125003868D01*
X121274666Y-124992833D01*
X121351217Y-124980241D01*
X121447136Y-124965175D01*
X121465499Y-124962141D01*
X121527829Y-124948521D01*
X121573047Y-124932787D01*
X121599331Y-124915716D01*
X121604860Y-124898082D01*
X121602239Y-124893811D01*
X121584307Y-124878746D01*
X121556181Y-124862112D01*
X121543381Y-124856122D01*
X121522083Y-124848929D01*
X121495697Y-124844152D01*
X121459853Y-124841333D01*
X121410179Y-124840015D01*
X121342307Y-124839742D01*
X121324522Y-124839815D01*
X121256901Y-124840926D01*
X121191962Y-124843151D01*
X121136337Y-124846217D01*
X121096656Y-124849852D01*
X121061145Y-124853920D01*
X121031892Y-124854703D01*
X121012992Y-124850103D01*
X120997878Y-124839428D01*
X120994222Y-124835835D01*
X120977880Y-124804061D01*
X120979200Y-124768407D01*
X120998157Y-124737789D01*
X121018527Y-124726183D01*
X121054511Y-124713488D01*
X121096935Y-124703438D01*
X121100385Y-124702839D01*
X121143055Y-124697623D01*
X121200441Y-124693249D01*
X121265458Y-124690161D01*
X121331018Y-124688802D01*
X121347250Y-124688761D01*
X121445563Y-124691238D01*
X121445563Y-124691238D01*
G37*
X121445563Y-124691238D02*
X121525615Y-124699244D01*
X121590794Y-124713776D01*
X121644490Y-124735830D01*
X121690091Y-124766403D01*
X121730984Y-124806493D01*
X121751105Y-124832720D01*
X121762731Y-124862267D01*
X121765640Y-124901984D01*
X121765499Y-124913953D01*
X121761626Y-124946634D01*
X121749242Y-124973160D01*
X121724077Y-125004008D01*
X121702865Y-125026148D01*
X121676469Y-125048694D01*
X121646752Y-125067062D01*
X121610522Y-125082318D01*
X121564590Y-125095530D01*
X121505763Y-125107765D01*
X121430851Y-125120090D01*
X121336662Y-125133573D01*
X121291350Y-125140583D01*
X121223396Y-125155142D01*
X121174260Y-125171642D01*
X121144693Y-125189540D01*
X121135443Y-125208294D01*
X121147259Y-125227364D01*
X121180891Y-125246208D01*
X121183937Y-125247422D01*
X121230296Y-125259500D01*
X121292946Y-125267700D01*
X121366380Y-125271860D01*
X121445090Y-125271818D01*
X121523568Y-125267410D01*
X121596307Y-125258474D01*
X121600234Y-125257825D01*
X121649050Y-125250118D01*
X121681302Y-125246506D01*
X121702299Y-125247103D01*
X121717353Y-125252025D01*
X121731773Y-125261383D01*
X121732943Y-125262254D01*
X121757460Y-125292628D01*
X121762253Y-125328129D01*
X121746447Y-125362710D01*
X121741901Y-125367166D01*
X121712287Y-125382306D01*
X121665305Y-125395429D01*
X121605001Y-125406229D01*
X121535419Y-125414398D01*
X121460604Y-125419628D01*
X121384601Y-125421612D01*
X121311454Y-125420043D01*
X121245207Y-125414613D01*
X121189907Y-125405015D01*
X121139024Y-125390154D01*
X121067712Y-125357021D01*
X121016555Y-125314339D01*
X120985732Y-125262274D01*
X120975418Y-125200996D01*
X120976355Y-125169747D01*
X120982147Y-125144950D01*
X120996954Y-125123280D01*
X121024927Y-125095930D01*
X121032905Y-125088601D01*
X121056615Y-125067698D01*
X121079009Y-125050728D01*
X121103042Y-125036774D01*
X121131670Y-125024923D01*
X121167847Y-125014259D01*
X121214527Y-125003868D01*
X121274666Y-124992833D01*
X121351217Y-124980241D01*
X121447136Y-124965175D01*
X121465499Y-124962141D01*
X121527829Y-124948521D01*
X121573047Y-124932787D01*
X121599331Y-124915716D01*
X121604860Y-124898082D01*
X121602239Y-124893811D01*
X121584307Y-124878746D01*
X121556181Y-124862112D01*
X121543381Y-124856122D01*
X121522083Y-124848929D01*
X121495697Y-124844152D01*
X121459853Y-124841333D01*
X121410179Y-124840015D01*
X121342307Y-124839742D01*
X121324522Y-124839815D01*
X121256901Y-124840926D01*
X121191962Y-124843151D01*
X121136337Y-124846217D01*
X121096656Y-124849852D01*
X121061145Y-124853920D01*
X121031892Y-124854703D01*
X121012992Y-124850103D01*
X120997878Y-124839428D01*
X120994222Y-124835835D01*
X120977880Y-124804061D01*
X120979200Y-124768407D01*
X120998157Y-124737789D01*
X121018527Y-124726183D01*
X121054511Y-124713488D01*
X121096935Y-124703438D01*
X121100385Y-124702839D01*
X121143055Y-124697623D01*
X121200441Y-124693249D01*
X121265458Y-124690161D01*
X121331018Y-124688802D01*
X121347250Y-124688761D01*
X121445563Y-124691238D01*
G36*
X122228485Y-124709712D02*
G01*
X122233791Y-124715581D01*
X122239241Y-124724665D01*
X122243407Y-124738006D01*
X122246461Y-124758222D01*
X122248575Y-124787930D01*
X122249921Y-124829747D01*
X122250669Y-124886290D01*
X122250993Y-124960177D01*
X122251062Y-125054023D01*
X122251023Y-125129685D01*
X122250768Y-125207594D01*
X122250124Y-125267604D01*
X122248920Y-125312331D01*
X122246983Y-125344394D01*
X122244143Y-125366408D01*
X122240228Y-125380992D01*
X122235065Y-125390761D01*
X122228485Y-125398334D01*
X122199301Y-125417356D01*
X122166170Y-125416516D01*
X122132016Y-125393203D01*
X122104307Y-125365494D01*
X122104307Y-125052442D01*
X122104348Y-124968412D01*
X122104606Y-124894190D01*
X122105277Y-124837438D01*
X122106555Y-124795467D01*
X122108634Y-124765590D01*
X122111708Y-124745118D01*
X122115973Y-124731365D01*
X122121623Y-124721642D01*
X122128852Y-124713262D01*
X122160316Y-124691798D01*
X122195481Y-124690032D01*
X122228485Y-124709712D01*
X122228485Y-124709712D01*
G37*
X122228485Y-124709712D02*
X122233791Y-124715581D01*
X122239241Y-124724665D01*
X122243407Y-124738006D01*
X122246461Y-124758222D01*
X122248575Y-124787930D01*
X122249921Y-124829747D01*
X122250669Y-124886290D01*
X122250993Y-124960177D01*
X122251062Y-125054023D01*
X122251023Y-125129685D01*
X122250768Y-125207594D01*
X122250124Y-125267604D01*
X122248920Y-125312331D01*
X122246983Y-125344394D01*
X122244143Y-125366408D01*
X122240228Y-125380992D01*
X122235065Y-125390761D01*
X122228485Y-125398334D01*
X122199301Y-125417356D01*
X122166170Y-125416516D01*
X122132016Y-125393203D01*
X122104307Y-125365494D01*
X122104307Y-125052442D01*
X122104348Y-124968412D01*
X122104606Y-124894190D01*
X122105277Y-124837438D01*
X122106555Y-124795467D01*
X122108634Y-124765590D01*
X122111708Y-124745118D01*
X122115973Y-124731365D01*
X122121623Y-124721642D01*
X122128852Y-124713262D01*
X122160316Y-124691798D01*
X122195481Y-124690032D01*
X122228485Y-124709712D01*
G36*
X123160949Y-124691393D02*
G01*
X123243438Y-124701639D01*
X123315021Y-124719509D01*
X123372079Y-124744471D01*
X123410996Y-124775991D01*
X123412371Y-124777967D01*
X123419459Y-124803193D01*
X123423698Y-124850444D01*
X123425107Y-124919908D01*
X123424247Y-124982141D01*
X123419527Y-125029523D01*
X123407837Y-125061626D01*
X123386068Y-125081179D01*
X123351109Y-125090909D01*
X123299851Y-125093546D01*
X123229184Y-125091818D01*
X123180564Y-125088806D01*
X123130368Y-125080613D01*
X123097874Y-125066560D01*
X123080415Y-125045325D01*
X123075324Y-125015585D01*
X123075430Y-125011043D01*
X123084132Y-124976249D01*
X123108142Y-124952832D01*
X123149407Y-124939632D01*
X123209876Y-124935490D01*
X123278351Y-124935490D01*
X123278351Y-124897138D01*
X123278301Y-124888003D01*
X123276080Y-124870752D01*
X123266813Y-124860458D01*
X123245432Y-124853520D01*
X123206871Y-124846338D01*
X123201397Y-124845404D01*
X123104447Y-124835501D01*
X123014455Y-124838420D01*
X122933547Y-124853150D01*
X122863848Y-124878680D01*
X122807483Y-124914001D01*
X122766578Y-124958100D01*
X122743256Y-125009967D01*
X122739644Y-125068591D01*
X122745162Y-125097485D01*
X122771846Y-125153375D01*
X122818034Y-125199034D01*
X122883016Y-125233871D01*
X122966078Y-125257289D01*
X122990752Y-125261738D01*
X123080081Y-125272237D01*
X123159888Y-125271008D01*
X123237981Y-125258073D01*
X123273124Y-125251283D01*
X123318562Y-125250266D01*
X123349877Y-125262797D01*
X123370030Y-125289584D01*
X123376414Y-125317831D01*
X123366928Y-125349055D01*
X123357599Y-125362480D01*
X123323364Y-125386012D01*
X123270742Y-125403884D01*
X123202226Y-125415380D01*
X123120307Y-125419787D01*
X123023157Y-125415800D01*
X122917150Y-125399485D01*
X122823338Y-125371434D01*
X122744542Y-125332527D01*
X122683588Y-125283645D01*
X122657518Y-125250784D01*
X122628010Y-125201585D01*
X122602739Y-125147727D01*
X122585089Y-125096560D01*
X122578449Y-125055435D01*
X122580009Y-125035720D01*
X122592950Y-124984387D01*
X122616113Y-124927861D01*
X122646005Y-124873944D01*
X122679134Y-124830440D01*
X122689330Y-124820092D01*
X122756415Y-124768317D01*
X122836541Y-124728425D01*
X122922751Y-124704023D01*
X122977715Y-124695911D01*
X123071168Y-124689306D01*
X123160949Y-124691393D01*
X123160949Y-124691393D01*
G37*
X123160949Y-124691393D02*
X123243438Y-124701639D01*
X123315021Y-124719509D01*
X123372079Y-124744471D01*
X123410996Y-124775991D01*
X123412371Y-124777967D01*
X123419459Y-124803193D01*
X123423698Y-124850444D01*
X123425107Y-124919908D01*
X123424247Y-124982141D01*
X123419527Y-125029523D01*
X123407837Y-125061626D01*
X123386068Y-125081179D01*
X123351109Y-125090909D01*
X123299851Y-125093546D01*
X123229184Y-125091818D01*
X123180564Y-125088806D01*
X123130368Y-125080613D01*
X123097874Y-125066560D01*
X123080415Y-125045325D01*
X123075324Y-125015585D01*
X123075430Y-125011043D01*
X123084132Y-124976249D01*
X123108142Y-124952832D01*
X123149407Y-124939632D01*
X123209876Y-124935490D01*
X123278351Y-124935490D01*
X123278351Y-124897138D01*
X123278301Y-124888003D01*
X123276080Y-124870752D01*
X123266813Y-124860458D01*
X123245432Y-124853520D01*
X123206871Y-124846338D01*
X123201397Y-124845404D01*
X123104447Y-124835501D01*
X123014455Y-124838420D01*
X122933547Y-124853150D01*
X122863848Y-124878680D01*
X122807483Y-124914001D01*
X122766578Y-124958100D01*
X122743256Y-125009967D01*
X122739644Y-125068591D01*
X122745162Y-125097485D01*
X122771846Y-125153375D01*
X122818034Y-125199034D01*
X122883016Y-125233871D01*
X122966078Y-125257289D01*
X122990752Y-125261738D01*
X123080081Y-125272237D01*
X123159888Y-125271008D01*
X123237981Y-125258073D01*
X123273124Y-125251283D01*
X123318562Y-125250266D01*
X123349877Y-125262797D01*
X123370030Y-125289584D01*
X123376414Y-125317831D01*
X123366928Y-125349055D01*
X123357599Y-125362480D01*
X123323364Y-125386012D01*
X123270742Y-125403884D01*
X123202226Y-125415380D01*
X123120307Y-125419787D01*
X123023157Y-125415800D01*
X122917150Y-125399485D01*
X122823338Y-125371434D01*
X122744542Y-125332527D01*
X122683588Y-125283645D01*
X122657518Y-125250784D01*
X122628010Y-125201585D01*
X122602739Y-125147727D01*
X122585089Y-125096560D01*
X122578449Y-125055435D01*
X122580009Y-125035720D01*
X122592950Y-124984387D01*
X122616113Y-124927861D01*
X122646005Y-124873944D01*
X122679134Y-124830440D01*
X122689330Y-124820092D01*
X122756415Y-124768317D01*
X122836541Y-124728425D01*
X122922751Y-124704023D01*
X122977715Y-124695911D01*
X123071168Y-124689306D01*
X123160949Y-124691393D01*
G36*
X124515424Y-124691343D02*
G01*
X124528868Y-124701772D01*
X124542380Y-124717505D01*
X124548625Y-124725988D01*
X124554257Y-124736566D01*
X124558468Y-124750724D01*
X124561420Y-124771176D01*
X124563275Y-124800637D01*
X124564194Y-124841818D01*
X124564339Y-124897435D01*
X124563872Y-124970200D01*
X124562955Y-125062828D01*
X124559640Y-125377780D01*
X124532989Y-125399346D01*
X124506924Y-125415538D01*
X124474066Y-125418309D01*
X124439535Y-125399356D01*
X124435223Y-125395771D01*
X124427091Y-125387242D01*
X124421062Y-125375650D01*
X124416701Y-125357744D01*
X124413573Y-125330273D01*
X124411244Y-125289985D01*
X124409278Y-125233628D01*
X124407240Y-125157950D01*
X124401596Y-124938101D01*
X124220973Y-125101895D01*
X124134235Y-125180528D01*
X124058464Y-125248921D01*
X123996327Y-125304271D01*
X123946229Y-125347641D01*
X123906572Y-125380098D01*
X123875759Y-125402706D01*
X123852193Y-125416531D01*
X123834277Y-125422636D01*
X123820414Y-125422087D01*
X123809006Y-125415950D01*
X123798457Y-125405288D01*
X123787171Y-125391168D01*
X123782718Y-125385207D01*
X123776719Y-125374711D01*
X123772140Y-125360886D01*
X123768788Y-125340981D01*
X123766474Y-125312247D01*
X123765006Y-125271934D01*
X123764194Y-125217292D01*
X123763847Y-125145572D01*
X123763773Y-125054023D01*
X123763796Y-124995493D01*
X123764015Y-124916406D01*
X123764624Y-124855463D01*
X123765815Y-124809917D01*
X123767778Y-124777016D01*
X123770704Y-124754011D01*
X123774784Y-124738153D01*
X123780210Y-124726693D01*
X123787171Y-124716879D01*
X123817599Y-124692486D01*
X123852542Y-124689607D01*
X123889523Y-124708697D01*
X123893707Y-124712172D01*
X123901883Y-124720700D01*
X123907943Y-124732251D01*
X123912326Y-124750083D01*
X123915468Y-124777455D01*
X123917805Y-124817625D01*
X123919776Y-124873851D01*
X123921818Y-124949390D01*
X123927462Y-125168521D01*
X124192751Y-124927880D01*
X124266585Y-124861104D01*
X124331765Y-124802988D01*
X124383959Y-124758030D01*
X124425034Y-124725108D01*
X124456852Y-124703100D01*
X124481281Y-124690885D01*
X124500183Y-124687340D01*
X124515424Y-124691343D01*
X124515424Y-124691343D01*
G37*
X124515424Y-124691343D02*
X124528868Y-124701772D01*
X124542380Y-124717505D01*
X124548625Y-124725988D01*
X124554257Y-124736566D01*
X124558468Y-124750724D01*
X124561420Y-124771176D01*
X124563275Y-124800637D01*
X124564194Y-124841818D01*
X124564339Y-124897435D01*
X124563872Y-124970200D01*
X124562955Y-125062828D01*
X124559640Y-125377780D01*
X124532989Y-125399346D01*
X124506924Y-125415538D01*
X124474066Y-125418309D01*
X124439535Y-125399356D01*
X124435223Y-125395771D01*
X124427091Y-125387242D01*
X124421062Y-125375650D01*
X124416701Y-125357744D01*
X124413573Y-125330273D01*
X124411244Y-125289985D01*
X124409278Y-125233628D01*
X124407240Y-125157950D01*
X124401596Y-124938101D01*
X124220973Y-125101895D01*
X124134235Y-125180528D01*
X124058464Y-125248921D01*
X123996327Y-125304271D01*
X123946229Y-125347641D01*
X123906572Y-125380098D01*
X123875759Y-125402706D01*
X123852193Y-125416531D01*
X123834277Y-125422636D01*
X123820414Y-125422087D01*
X123809006Y-125415950D01*
X123798457Y-125405288D01*
X123787171Y-125391168D01*
X123782718Y-125385207D01*
X123776719Y-125374711D01*
X123772140Y-125360886D01*
X123768788Y-125340981D01*
X123766474Y-125312247D01*
X123765006Y-125271934D01*
X123764194Y-125217292D01*
X123763847Y-125145572D01*
X123763773Y-125054023D01*
X123763796Y-124995493D01*
X123764015Y-124916406D01*
X123764624Y-124855463D01*
X123765815Y-124809917D01*
X123767778Y-124777016D01*
X123770704Y-124754011D01*
X123774784Y-124738153D01*
X123780210Y-124726693D01*
X123787171Y-124716879D01*
X123817599Y-124692486D01*
X123852542Y-124689607D01*
X123889523Y-124708697D01*
X123893707Y-124712172D01*
X123901883Y-124720700D01*
X123907943Y-124732251D01*
X123912326Y-124750083D01*
X123915468Y-124777455D01*
X123917805Y-124817625D01*
X123919776Y-124873851D01*
X123921818Y-124949390D01*
X123927462Y-125168521D01*
X124192751Y-124927880D01*
X124266585Y-124861104D01*
X124331765Y-124802988D01*
X124383959Y-124758030D01*
X124425034Y-124725108D01*
X124456852Y-124703100D01*
X124481281Y-124690885D01*
X124500183Y-124687340D01*
X124515424Y-124691343D01*
G36*
X125305376Y-124687141D02*
G01*
X125392401Y-124687407D01*
X125460053Y-124688173D01*
X125511008Y-124689587D01*
X125547940Y-124691799D01*
X125573524Y-124694957D01*
X125590436Y-124699210D01*
X125601350Y-124704708D01*
X125611843Y-124714694D01*
X125625104Y-124745811D01*
X125623921Y-124781699D01*
X125607757Y-124813246D01*
X125605568Y-124815522D01*
X125596880Y-124821790D01*
X125583538Y-124826456D01*
X125562555Y-124829752D01*
X125530944Y-124831911D01*
X125485717Y-124833165D01*
X125423887Y-124833748D01*
X125342468Y-124833890D01*
X125095862Y-124833890D01*
X125095862Y-124991934D01*
X125258301Y-124991934D01*
X125293969Y-124992015D01*
X125349739Y-124992812D01*
X125388877Y-124994817D01*
X125415331Y-124998458D01*
X125433048Y-125004167D01*
X125445978Y-125012372D01*
X125449621Y-125015556D01*
X125468029Y-125046531D01*
X125468663Y-125082867D01*
X125451124Y-125116486D01*
X125451062Y-125116555D01*
X125441391Y-125125181D01*
X125428098Y-125131237D01*
X125407390Y-125135168D01*
X125375479Y-125137423D01*
X125328573Y-125138448D01*
X125262883Y-125138690D01*
X125094736Y-125138690D01*
X125098121Y-125203601D01*
X125101507Y-125268512D01*
X125343584Y-125271565D01*
X125368600Y-125271893D01*
X125450220Y-125273373D01*
X125512539Y-125275757D01*
X125558153Y-125279752D01*
X125589655Y-125286066D01*
X125609640Y-125295405D01*
X125620703Y-125308476D01*
X125625438Y-125325987D01*
X125626440Y-125348644D01*
X125626434Y-125351009D01*
X125625280Y-125371040D01*
X125620483Y-125386833D01*
X125609675Y-125398889D01*
X125590490Y-125407712D01*
X125560562Y-125413804D01*
X125517524Y-125417668D01*
X125459008Y-125419805D01*
X125382650Y-125420719D01*
X125286081Y-125420912D01*
X124995901Y-125420912D01*
X124972504Y-125391168D01*
X124967555Y-125384484D01*
X124961711Y-125373913D01*
X124957250Y-125359826D01*
X124953986Y-125339501D01*
X124951733Y-125310214D01*
X124950305Y-125269242D01*
X124949515Y-125213862D01*
X124949178Y-125141351D01*
X124949107Y-125048985D01*
X124949136Y-124983068D01*
X124949368Y-124904751D01*
X124949988Y-124844483D01*
X124951181Y-124799586D01*
X124953128Y-124767377D01*
X124956013Y-124745179D01*
X124960019Y-124730310D01*
X124965328Y-124720090D01*
X124972124Y-124711841D01*
X124976639Y-124707184D01*
X124984869Y-124700697D01*
X124996229Y-124695785D01*
X125013497Y-124692230D01*
X125039452Y-124689812D01*
X125076871Y-124688312D01*
X125128534Y-124687512D01*
X125197218Y-124687192D01*
X125285701Y-124687134D01*
X125305376Y-124687141D01*
X125305376Y-124687141D01*
G37*
X125305376Y-124687141D02*
X125392401Y-124687407D01*
X125460053Y-124688173D01*
X125511008Y-124689587D01*
X125547940Y-124691799D01*
X125573524Y-124694957D01*
X125590436Y-124699210D01*
X125601350Y-124704708D01*
X125611843Y-124714694D01*
X125625104Y-124745811D01*
X125623921Y-124781699D01*
X125607757Y-124813246D01*
X125605568Y-124815522D01*
X125596880Y-124821790D01*
X125583538Y-124826456D01*
X125562555Y-124829752D01*
X125530944Y-124831911D01*
X125485717Y-124833165D01*
X125423887Y-124833748D01*
X125342468Y-124833890D01*
X125095862Y-124833890D01*
X125095862Y-124991934D01*
X125258301Y-124991934D01*
X125293969Y-124992015D01*
X125349739Y-124992812D01*
X125388877Y-124994817D01*
X125415331Y-124998458D01*
X125433048Y-125004167D01*
X125445978Y-125012372D01*
X125449621Y-125015556D01*
X125468029Y-125046531D01*
X125468663Y-125082867D01*
X125451124Y-125116486D01*
X125451062Y-125116555D01*
X125441391Y-125125181D01*
X125428098Y-125131237D01*
X125407390Y-125135168D01*
X125375479Y-125137423D01*
X125328573Y-125138448D01*
X125262883Y-125138690D01*
X125094736Y-125138690D01*
X125098121Y-125203601D01*
X125101507Y-125268512D01*
X125343584Y-125271565D01*
X125368600Y-125271893D01*
X125450220Y-125273373D01*
X125512539Y-125275757D01*
X125558153Y-125279752D01*
X125589655Y-125286066D01*
X125609640Y-125295405D01*
X125620703Y-125308476D01*
X125625438Y-125325987D01*
X125626440Y-125348644D01*
X125626434Y-125351009D01*
X125625280Y-125371040D01*
X125620483Y-125386833D01*
X125609675Y-125398889D01*
X125590490Y-125407712D01*
X125560562Y-125413804D01*
X125517524Y-125417668D01*
X125459008Y-125419805D01*
X125382650Y-125420719D01*
X125286081Y-125420912D01*
X124995901Y-125420912D01*
X124972504Y-125391168D01*
X124967555Y-125384484D01*
X124961711Y-125373913D01*
X124957250Y-125359826D01*
X124953986Y-125339501D01*
X124951733Y-125310214D01*
X124950305Y-125269242D01*
X124949515Y-125213862D01*
X124949178Y-125141351D01*
X124949107Y-125048985D01*
X124949136Y-124983068D01*
X124949368Y-124904751D01*
X124949988Y-124844483D01*
X124951181Y-124799586D01*
X124953128Y-124767377D01*
X124956013Y-124745179D01*
X124960019Y-124730310D01*
X124965328Y-124720090D01*
X124972124Y-124711841D01*
X124976639Y-124707184D01*
X124984869Y-124700697D01*
X124996229Y-124695785D01*
X125013497Y-124692230D01*
X125039452Y-124689812D01*
X125076871Y-124688312D01*
X125128534Y-124687512D01*
X125197218Y-124687192D01*
X125285701Y-124687134D01*
X125305376Y-124687141D01*
G36*
X126177593Y-124687728D02*
G01*
X126212389Y-124688026D01*
X126310872Y-124691457D01*
X126391834Y-124699140D01*
X126458928Y-124711697D01*
X126515811Y-124729752D01*
X126566138Y-124753927D01*
X126569497Y-124755844D01*
X126627309Y-124792562D01*
X126669663Y-124829528D01*
X126702479Y-124873013D01*
X126731679Y-124929290D01*
X126735961Y-124938906D01*
X126758538Y-125002092D01*
X126765510Y-125057470D01*
X126756908Y-125112496D01*
X126732766Y-125174628D01*
X126731970Y-125176321D01*
X126691519Y-125245743D01*
X126640834Y-125302341D01*
X126578109Y-125346909D01*
X126501533Y-125380238D01*
X126409298Y-125403118D01*
X126299595Y-125416343D01*
X126170616Y-125420704D01*
X126167044Y-125420709D01*
X126107024Y-125420569D01*
X126065093Y-125419533D01*
X126036979Y-125416939D01*
X126018410Y-125412126D01*
X126005113Y-125404435D01*
X125992816Y-125393203D01*
X125965107Y-125365494D01*
X125965107Y-125056059D01*
X125965132Y-124994453D01*
X125965357Y-124915668D01*
X125965975Y-124854958D01*
X125966532Y-124833890D01*
X126123151Y-124833890D01*
X126123151Y-125274157D01*
X126210640Y-125273709D01*
X126277560Y-125271233D01*
X126369958Y-125259981D01*
X126449273Y-125240442D01*
X126511247Y-125213468D01*
X126542187Y-125192739D01*
X126570307Y-125162973D01*
X126593647Y-125120545D01*
X126600774Y-125104579D01*
X126612598Y-125072077D01*
X126615028Y-125047646D01*
X126609415Y-125022918D01*
X126603689Y-125007040D01*
X126570759Y-124947132D01*
X126523421Y-124901379D01*
X126459655Y-124868243D01*
X126377446Y-124846189D01*
X126374652Y-124845687D01*
X126328367Y-124839724D01*
X126271971Y-124835496D01*
X126217033Y-124833890D01*
X126123151Y-124833890D01*
X125966532Y-124833890D01*
X125967174Y-124809583D01*
X125969144Y-124776804D01*
X125972072Y-124753884D01*
X125976149Y-124738082D01*
X125981564Y-124726660D01*
X125988504Y-124716879D01*
X126011901Y-124687134D01*
X126177593Y-124687728D01*
X126177593Y-124687728D01*
G37*
X126177593Y-124687728D02*
X126212389Y-124688026D01*
X126310872Y-124691457D01*
X126391834Y-124699140D01*
X126458928Y-124711697D01*
X126515811Y-124729752D01*
X126566138Y-124753927D01*
X126569497Y-124755844D01*
X126627309Y-124792562D01*
X126669663Y-124829528D01*
X126702479Y-124873013D01*
X126731679Y-124929290D01*
X126735961Y-124938906D01*
X126758538Y-125002092D01*
X126765510Y-125057470D01*
X126756908Y-125112496D01*
X126732766Y-125174628D01*
X126731970Y-125176321D01*
X126691519Y-125245743D01*
X126640834Y-125302341D01*
X126578109Y-125346909D01*
X126501533Y-125380238D01*
X126409298Y-125403118D01*
X126299595Y-125416343D01*
X126170616Y-125420704D01*
X126167044Y-125420709D01*
X126107024Y-125420569D01*
X126065093Y-125419533D01*
X126036979Y-125416939D01*
X126018410Y-125412126D01*
X126005113Y-125404435D01*
X125992816Y-125393203D01*
X125965107Y-125365494D01*
X125965107Y-125056059D01*
X125965132Y-124994453D01*
X125965357Y-124915668D01*
X125965975Y-124854958D01*
X125966532Y-124833890D01*
X126123151Y-124833890D01*
X126123151Y-125274157D01*
X126210640Y-125273709D01*
X126277560Y-125271233D01*
X126369958Y-125259981D01*
X126449273Y-125240442D01*
X126511247Y-125213468D01*
X126542187Y-125192739D01*
X126570307Y-125162973D01*
X126593647Y-125120545D01*
X126600774Y-125104579D01*
X126612598Y-125072077D01*
X126615028Y-125047646D01*
X126609415Y-125022918D01*
X126603689Y-125007040D01*
X126570759Y-124947132D01*
X126523421Y-124901379D01*
X126459655Y-124868243D01*
X126377446Y-124846189D01*
X126374652Y-124845687D01*
X126328367Y-124839724D01*
X126271971Y-124835496D01*
X126217033Y-124833890D01*
X126123151Y-124833890D01*
X125966532Y-124833890D01*
X125967174Y-124809583D01*
X125969144Y-124776804D01*
X125972072Y-124753884D01*
X125976149Y-124738082D01*
X125981564Y-124726660D01*
X125988504Y-124716879D01*
X126011901Y-124687134D01*
X126177593Y-124687728D01*
G36*
X128228261Y-124694238D02*
G01*
X128233626Y-124698935D01*
X128249455Y-124721086D01*
X128271657Y-124757847D01*
X128298074Y-124805564D01*
X128326547Y-124860586D01*
X128406321Y-125019829D01*
X128479508Y-124873237D01*
X128489204Y-124853947D01*
X128516182Y-124801599D01*
X128540211Y-124756809D01*
X128558975Y-124723825D01*
X128570161Y-124706890D01*
X128571307Y-124705647D01*
X128599428Y-124690360D01*
X128634490Y-124688677D01*
X128665531Y-124701246D01*
X128667957Y-124704095D01*
X128680217Y-124724720D01*
X128699955Y-124762271D01*
X128725859Y-124814099D01*
X128756622Y-124877556D01*
X128790932Y-124949994D01*
X128827482Y-125028763D01*
X128847722Y-125072886D01*
X128884495Y-125153614D01*
X128912952Y-125217292D01*
X128933976Y-125266227D01*
X128948453Y-125302722D01*
X128957268Y-125329084D01*
X128961303Y-125347618D01*
X128961445Y-125360627D01*
X128958577Y-125370418D01*
X128943920Y-125391301D01*
X128917317Y-125411602D01*
X128916562Y-125411944D01*
X128896972Y-125418945D01*
X128879517Y-125419475D01*
X128862605Y-125411501D01*
X128844644Y-125392990D01*
X128824044Y-125361908D01*
X128799212Y-125316223D01*
X128768557Y-125253901D01*
X128730487Y-125172908D01*
X128715853Y-125141525D01*
X128686104Y-125078341D01*
X128660010Y-125023735D01*
X128639015Y-124980689D01*
X128624568Y-124952186D01*
X128618116Y-124941209D01*
X128616757Y-124941790D01*
X128606765Y-124955737D01*
X128589474Y-124985275D01*
X128566877Y-125026892D01*
X128540969Y-125077076D01*
X128524996Y-125108565D01*
X128496046Y-125163918D01*
X128473558Y-125202935D01*
X128455342Y-125228413D01*
X128439211Y-125243148D01*
X128422977Y-125249937D01*
X128404450Y-125251579D01*
X128393947Y-125251104D01*
X128377831Y-125246897D01*
X128362517Y-125236033D01*
X128345919Y-125215760D01*
X128325950Y-125183325D01*
X128300524Y-125135975D01*
X128267555Y-125070957D01*
X128257822Y-125051702D01*
X128233364Y-125005033D01*
X128213129Y-124968870D01*
X128198996Y-124946482D01*
X128192847Y-124941134D01*
X128191480Y-124944406D01*
X128182105Y-124965315D01*
X128165245Y-125002254D01*
X128142328Y-125052105D01*
X128114787Y-125111753D01*
X128084052Y-125178081D01*
X128057337Y-125235302D01*
X128027714Y-125297291D01*
X128004643Y-125343030D01*
X127986664Y-125375071D01*
X127972317Y-125395965D01*
X127960141Y-125408261D01*
X127948675Y-125414513D01*
X127939265Y-125417405D01*
X127914160Y-125417554D01*
X127887017Y-125402211D01*
X127885717Y-125401226D01*
X127863633Y-125378591D01*
X127852584Y-125356366D01*
X127852538Y-125355726D01*
X127857079Y-125338064D01*
X127869943Y-125303498D01*
X127889702Y-125255153D01*
X127914926Y-125196154D01*
X127944188Y-125129624D01*
X127976057Y-125058688D01*
X128009106Y-124986472D01*
X128041906Y-124916099D01*
X128073027Y-124850694D01*
X128101042Y-124793382D01*
X128124521Y-124747287D01*
X128142035Y-124715533D01*
X128152156Y-124701246D01*
X128186564Y-124687877D01*
X128228261Y-124694238D01*
X128228261Y-124694238D01*
G37*
X128228261Y-124694238D02*
X128233626Y-124698935D01*
X128249455Y-124721086D01*
X128271657Y-124757847D01*
X128298074Y-124805564D01*
X128326547Y-124860586D01*
X128406321Y-125019829D01*
X128479508Y-124873237D01*
X128489204Y-124853947D01*
X128516182Y-124801599D01*
X128540211Y-124756809D01*
X128558975Y-124723825D01*
X128570161Y-124706890D01*
X128571307Y-124705647D01*
X128599428Y-124690360D01*
X128634490Y-124688677D01*
X128665531Y-124701246D01*
X128667957Y-124704095D01*
X128680217Y-124724720D01*
X128699955Y-124762271D01*
X128725859Y-124814099D01*
X128756622Y-124877556D01*
X128790932Y-124949994D01*
X128827482Y-125028763D01*
X128847722Y-125072886D01*
X128884495Y-125153614D01*
X128912952Y-125217292D01*
X128933976Y-125266227D01*
X128948453Y-125302722D01*
X128957268Y-125329084D01*
X128961303Y-125347618D01*
X128961445Y-125360627D01*
X128958577Y-125370418D01*
X128943920Y-125391301D01*
X128917317Y-125411602D01*
X128916562Y-125411944D01*
X128896972Y-125418945D01*
X128879517Y-125419475D01*
X128862605Y-125411501D01*
X128844644Y-125392990D01*
X128824044Y-125361908D01*
X128799212Y-125316223D01*
X128768557Y-125253901D01*
X128730487Y-125172908D01*
X128715853Y-125141525D01*
X128686104Y-125078341D01*
X128660010Y-125023735D01*
X128639015Y-124980689D01*
X128624568Y-124952186D01*
X128618116Y-124941209D01*
X128616757Y-124941790D01*
X128606765Y-124955737D01*
X128589474Y-124985275D01*
X128566877Y-125026892D01*
X128540969Y-125077076D01*
X128524996Y-125108565D01*
X128496046Y-125163918D01*
X128473558Y-125202935D01*
X128455342Y-125228413D01*
X128439211Y-125243148D01*
X128422977Y-125249937D01*
X128404450Y-125251579D01*
X128393947Y-125251104D01*
X128377831Y-125246897D01*
X128362517Y-125236033D01*
X128345919Y-125215760D01*
X128325950Y-125183325D01*
X128300524Y-125135975D01*
X128267555Y-125070957D01*
X128257822Y-125051702D01*
X128233364Y-125005033D01*
X128213129Y-124968870D01*
X128198996Y-124946482D01*
X128192847Y-124941134D01*
X128191480Y-124944406D01*
X128182105Y-124965315D01*
X128165245Y-125002254D01*
X128142328Y-125052105D01*
X128114787Y-125111753D01*
X128084052Y-125178081D01*
X128057337Y-125235302D01*
X128027714Y-125297291D01*
X128004643Y-125343030D01*
X127986664Y-125375071D01*
X127972317Y-125395965D01*
X127960141Y-125408261D01*
X127948675Y-125414513D01*
X127939265Y-125417405D01*
X127914160Y-125417554D01*
X127887017Y-125402211D01*
X127885717Y-125401226D01*
X127863633Y-125378591D01*
X127852584Y-125356366D01*
X127852538Y-125355726D01*
X127857079Y-125338064D01*
X127869943Y-125303498D01*
X127889702Y-125255153D01*
X127914926Y-125196154D01*
X127944188Y-125129624D01*
X127976057Y-125058688D01*
X128009106Y-124986472D01*
X128041906Y-124916099D01*
X128073027Y-124850694D01*
X128101042Y-124793382D01*
X128124521Y-124747287D01*
X128142035Y-124715533D01*
X128152156Y-124701246D01*
X128186564Y-124687877D01*
X128228261Y-124694238D01*
G36*
X129369779Y-124710897D02*
G01*
X129373655Y-124715563D01*
X129379121Y-124725030D01*
X129383328Y-124738712D01*
X129386440Y-124759231D01*
X129388620Y-124789211D01*
X129390031Y-124831275D01*
X129390836Y-124888047D01*
X129391200Y-124962149D01*
X129391285Y-125056206D01*
X129391285Y-125377752D01*
X129364634Y-125399332D01*
X129340921Y-125414102D01*
X129317907Y-125420912D01*
X129296901Y-125415030D01*
X129271180Y-125399332D01*
X129244529Y-125377752D01*
X129244529Y-124730295D01*
X129271180Y-124708715D01*
X129302540Y-124691240D01*
X129338341Y-124690404D01*
X129369779Y-124710897D01*
X129369779Y-124710897D01*
G37*
X129369779Y-124710897D02*
X129373655Y-124715563D01*
X129379121Y-124725030D01*
X129383328Y-124738712D01*
X129386440Y-124759231D01*
X129388620Y-124789211D01*
X129390031Y-124831275D01*
X129390836Y-124888047D01*
X129391200Y-124962149D01*
X129391285Y-125056206D01*
X129391285Y-125377752D01*
X129364634Y-125399332D01*
X129340921Y-125414102D01*
X129317907Y-125420912D01*
X129296901Y-125415030D01*
X129271180Y-125399332D01*
X129244529Y-125377752D01*
X129244529Y-124730295D01*
X129271180Y-124708715D01*
X129302540Y-124691240D01*
X129338341Y-124690404D01*
X129369779Y-124710897D01*
G36*
X130062973Y-124709712D02*
G01*
X130069952Y-124717788D01*
X130075424Y-124728386D01*
X130079444Y-124744230D01*
X130082235Y-124768206D01*
X130084019Y-124803205D01*
X130085018Y-124852115D01*
X130085455Y-124917825D01*
X130085551Y-125003223D01*
X130085551Y-125274157D01*
X130231487Y-125274157D01*
X130242587Y-125274158D01*
X130299105Y-125274383D01*
X130337949Y-125275522D01*
X130363342Y-125278322D01*
X130379503Y-125283529D01*
X130390655Y-125291890D01*
X130401018Y-125304153D01*
X130416866Y-125334841D01*
X130413764Y-125368621D01*
X130388120Y-125401157D01*
X130383178Y-125404874D01*
X130372969Y-125409710D01*
X130357543Y-125413473D01*
X130334421Y-125416296D01*
X130301124Y-125418309D01*
X130255170Y-125419646D01*
X130194079Y-125420437D01*
X130115372Y-125420816D01*
X130016567Y-125420912D01*
X129996540Y-125420911D01*
X129902417Y-125420821D01*
X129827902Y-125420481D01*
X129770496Y-125419740D01*
X129727696Y-125418444D01*
X129697003Y-125416442D01*
X129675916Y-125413583D01*
X129661934Y-125409713D01*
X129652557Y-125404681D01*
X129645285Y-125398334D01*
X129626479Y-125365617D01*
X129625032Y-125328040D01*
X129641390Y-125294801D01*
X129642750Y-125293348D01*
X129653953Y-125284987D01*
X129671055Y-125279432D01*
X129698225Y-125276139D01*
X129739629Y-125274561D01*
X129799434Y-125274157D01*
X129938796Y-125274157D01*
X129938796Y-125010390D01*
X129938871Y-124934562D01*
X129939279Y-124867896D01*
X129940261Y-124818112D01*
X129942057Y-124782195D01*
X129944908Y-124757129D01*
X129949054Y-124739898D01*
X129954736Y-124727487D01*
X129962193Y-124716879D01*
X129964483Y-124714073D01*
X129995661Y-124691431D01*
X130030041Y-124689867D01*
X130062973Y-124709712D01*
X130062973Y-124709712D01*
G37*
X130062973Y-124709712D02*
X130069952Y-124717788D01*
X130075424Y-124728386D01*
X130079444Y-124744230D01*
X130082235Y-124768206D01*
X130084019Y-124803205D01*
X130085018Y-124852115D01*
X130085455Y-124917825D01*
X130085551Y-125003223D01*
X130085551Y-125274157D01*
X130231487Y-125274157D01*
X130242587Y-125274158D01*
X130299105Y-125274383D01*
X130337949Y-125275522D01*
X130363342Y-125278322D01*
X130379503Y-125283529D01*
X130390655Y-125291890D01*
X130401018Y-125304153D01*
X130416866Y-125334841D01*
X130413764Y-125368621D01*
X130388120Y-125401157D01*
X130383178Y-125404874D01*
X130372969Y-125409710D01*
X130357543Y-125413473D01*
X130334421Y-125416296D01*
X130301124Y-125418309D01*
X130255170Y-125419646D01*
X130194079Y-125420437D01*
X130115372Y-125420816D01*
X130016567Y-125420912D01*
X129996540Y-125420911D01*
X129902417Y-125420821D01*
X129827902Y-125420481D01*
X129770496Y-125419740D01*
X129727696Y-125418444D01*
X129697003Y-125416442D01*
X129675916Y-125413583D01*
X129661934Y-125409713D01*
X129652557Y-125404681D01*
X129645285Y-125398334D01*
X129626479Y-125365617D01*
X129625032Y-125328040D01*
X129641390Y-125294801D01*
X129642750Y-125293348D01*
X129653953Y-125284987D01*
X129671055Y-125279432D01*
X129698225Y-125276139D01*
X129739629Y-125274561D01*
X129799434Y-125274157D01*
X129938796Y-125274157D01*
X129938796Y-125010390D01*
X129938871Y-124934562D01*
X129939279Y-124867896D01*
X129940261Y-124818112D01*
X129942057Y-124782195D01*
X129944908Y-124757129D01*
X129949054Y-124739898D01*
X129954736Y-124727487D01*
X129962193Y-124716879D01*
X129964483Y-124714073D01*
X129995661Y-124691431D01*
X130030041Y-124689867D01*
X130062973Y-124709712D01*
G36*
X130742451Y-124692375D02*
G01*
X130773354Y-124716879D01*
X130782363Y-124730082D01*
X130789815Y-124748618D01*
X130794183Y-124774646D01*
X130796238Y-124813192D01*
X130796751Y-124869279D01*
X130796751Y-124991934D01*
X131293462Y-124991934D01*
X131293462Y-124857108D01*
X131293535Y-124821317D01*
X131294298Y-124774987D01*
X131296474Y-124744453D01*
X131300771Y-124725422D01*
X131307895Y-124713605D01*
X131318552Y-124704708D01*
X131350803Y-124689638D01*
X131386090Y-124692306D01*
X131416821Y-124716879D01*
X131421476Y-124723134D01*
X131427412Y-124733658D01*
X131431943Y-124747588D01*
X131435259Y-124767662D01*
X131437548Y-124796619D01*
X131438999Y-124837199D01*
X131439802Y-124892139D01*
X131440145Y-124964180D01*
X131440218Y-125056059D01*
X131440218Y-125365494D01*
X131412509Y-125393203D01*
X131381130Y-125415446D01*
X131347901Y-125418135D01*
X131316040Y-125398334D01*
X131307754Y-125388564D01*
X131300342Y-125372672D01*
X131296005Y-125348704D01*
X131293969Y-125311831D01*
X131293462Y-125257223D01*
X131293462Y-125138690D01*
X130796751Y-125138690D01*
X130796751Y-125254203D01*
X130796313Y-125305901D01*
X130794349Y-125340425D01*
X130789833Y-125363001D01*
X130781740Y-125378853D01*
X130769042Y-125393203D01*
X130737664Y-125415446D01*
X130704435Y-125418135D01*
X130672573Y-125398334D01*
X130666941Y-125392144D01*
X130661851Y-125383938D01*
X130657764Y-125372162D01*
X130654586Y-125354703D01*
X130652220Y-125329449D01*
X130650569Y-125294289D01*
X130649538Y-125247110D01*
X130649030Y-125185802D01*
X130648948Y-125108252D01*
X130649198Y-125012348D01*
X130649682Y-124895979D01*
X130649750Y-124881804D01*
X130650336Y-124820042D01*
X130651659Y-124776359D01*
X130654204Y-124746978D01*
X130658459Y-124728124D01*
X130664911Y-124716020D01*
X130674045Y-124706890D01*
X130707503Y-124689473D01*
X130742451Y-124692375D01*
X130742451Y-124692375D01*
G37*
X130742451Y-124692375D02*
X130773354Y-124716879D01*
X130782363Y-124730082D01*
X130789815Y-124748618D01*
X130794183Y-124774646D01*
X130796238Y-124813192D01*
X130796751Y-124869279D01*
X130796751Y-124991934D01*
X131293462Y-124991934D01*
X131293462Y-124857108D01*
X131293535Y-124821317D01*
X131294298Y-124774987D01*
X131296474Y-124744453D01*
X131300771Y-124725422D01*
X131307895Y-124713605D01*
X131318552Y-124704708D01*
X131350803Y-124689638D01*
X131386090Y-124692306D01*
X131416821Y-124716879D01*
X131421476Y-124723134D01*
X131427412Y-124733658D01*
X131431943Y-124747588D01*
X131435259Y-124767662D01*
X131437548Y-124796619D01*
X131438999Y-124837199D01*
X131439802Y-124892139D01*
X131440145Y-124964180D01*
X131440218Y-125056059D01*
X131440218Y-125365494D01*
X131412509Y-125393203D01*
X131381130Y-125415446D01*
X131347901Y-125418135D01*
X131316040Y-125398334D01*
X131307754Y-125388564D01*
X131300342Y-125372672D01*
X131296005Y-125348704D01*
X131293969Y-125311831D01*
X131293462Y-125257223D01*
X131293462Y-125138690D01*
X130796751Y-125138690D01*
X130796751Y-125254203D01*
X130796313Y-125305901D01*
X130794349Y-125340425D01*
X130789833Y-125363001D01*
X130781740Y-125378853D01*
X130769042Y-125393203D01*
X130737664Y-125415446D01*
X130704435Y-125418135D01*
X130672573Y-125398334D01*
X130666941Y-125392144D01*
X130661851Y-125383938D01*
X130657764Y-125372162D01*
X130654586Y-125354703D01*
X130652220Y-125329449D01*
X130650569Y-125294289D01*
X130649538Y-125247110D01*
X130649030Y-125185802D01*
X130648948Y-125108252D01*
X130649198Y-125012348D01*
X130649682Y-124895979D01*
X130649750Y-124881804D01*
X130650336Y-124820042D01*
X130651659Y-124776359D01*
X130654204Y-124746978D01*
X130658459Y-124728124D01*
X130664911Y-124716020D01*
X130674045Y-124706890D01*
X130707503Y-124689473D01*
X130742451Y-124692375D01*
G36*
X122426299Y-130918537D02*
G01*
X122534287Y-130959939D01*
X122631790Y-131022056D01*
X122715431Y-131102964D01*
X122781836Y-131200739D01*
X122827630Y-131313457D01*
X122844385Y-131405700D01*
X122845894Y-131507494D01*
X122832267Y-131606511D01*
X122804154Y-131692279D01*
X122771669Y-131753598D01*
X122699352Y-131850883D01*
X122613621Y-131927664D01*
X122517626Y-131983933D01*
X122414520Y-132019681D01*
X122307457Y-132034903D01*
X122199587Y-132029590D01*
X122094063Y-132003735D01*
X121994039Y-131957330D01*
X121902665Y-131890368D01*
X121823094Y-131802843D01*
X121758479Y-131694745D01*
X121741156Y-131656665D01*
X121727122Y-131618068D01*
X121719247Y-131579482D01*
X121715796Y-131531756D01*
X121715031Y-131465738D01*
X121715494Y-131410790D01*
X121718280Y-131360291D01*
X121725112Y-131320891D01*
X121737695Y-131283543D01*
X121757735Y-131239198D01*
X121763533Y-131227380D01*
X121832054Y-131119170D01*
X121918234Y-131030138D01*
X122019627Y-130962374D01*
X122133788Y-130917965D01*
X122192365Y-130905573D01*
X122311200Y-130899774D01*
X122426299Y-130918537D01*
X122426299Y-130918537D01*
G37*
X122426299Y-130918537D02*
X122534287Y-130959939D01*
X122631790Y-131022056D01*
X122715431Y-131102964D01*
X122781836Y-131200739D01*
X122827630Y-131313457D01*
X122844385Y-131405700D01*
X122845894Y-131507494D01*
X122832267Y-131606511D01*
X122804154Y-131692279D01*
X122771669Y-131753598D01*
X122699352Y-131850883D01*
X122613621Y-131927664D01*
X122517626Y-131983933D01*
X122414520Y-132019681D01*
X122307457Y-132034903D01*
X122199587Y-132029590D01*
X122094063Y-132003735D01*
X121994039Y-131957330D01*
X121902665Y-131890368D01*
X121823094Y-131802843D01*
X121758479Y-131694745D01*
X121741156Y-131656665D01*
X121727122Y-131618068D01*
X121719247Y-131579482D01*
X121715796Y-131531756D01*
X121715031Y-131465738D01*
X121715494Y-131410790D01*
X121718280Y-131360291D01*
X121725112Y-131320891D01*
X121737695Y-131283543D01*
X121757735Y-131239198D01*
X121763533Y-131227380D01*
X121832054Y-131119170D01*
X121918234Y-131030138D01*
X122019627Y-130962374D01*
X122133788Y-130917965D01*
X122192365Y-130905573D01*
X122311200Y-130899774D01*
X122426299Y-130918537D01*
G36*
X129799757Y-127910114D02*
G01*
X129808087Y-127798062D01*
X129822479Y-127694919D01*
X129843578Y-127594590D01*
X129872029Y-127490981D01*
X129915171Y-127367138D01*
X129994409Y-127199955D01*
X130091606Y-127050210D01*
X130205274Y-126919319D01*
X130333927Y-126808697D01*
X130476078Y-126719759D01*
X130630240Y-126653921D01*
X130794925Y-126612597D01*
X130796907Y-126612265D01*
X130917262Y-126600685D01*
X131049500Y-126602230D01*
X131184195Y-126615949D01*
X131311915Y-126640888D01*
X131423233Y-126676094D01*
X131470748Y-126697518D01*
X131532630Y-126730081D01*
X131596219Y-126767325D01*
X131654878Y-126805150D01*
X131701973Y-126839457D01*
X131730869Y-126866147D01*
X131737502Y-126873475D01*
X131745410Y-126876036D01*
X131750696Y-126863320D01*
X131754591Y-126831272D01*
X131758328Y-126775840D01*
X131765193Y-126660333D01*
X132291030Y-126656737D01*
X132816867Y-126653140D01*
X132780483Y-126715225D01*
X132778314Y-126718895D01*
X132767734Y-126736127D01*
X132758136Y-126751478D01*
X132749468Y-126766282D01*
X132741679Y-126781872D01*
X132734717Y-126799582D01*
X132728530Y-126820747D01*
X132723068Y-126846698D01*
X132718277Y-126878771D01*
X132714107Y-126918299D01*
X132710505Y-126966614D01*
X132707421Y-127025052D01*
X132704802Y-127094945D01*
X132702597Y-127177627D01*
X132700755Y-127274432D01*
X132699223Y-127386694D01*
X132697950Y-127515746D01*
X132696884Y-127662921D01*
X132695974Y-127829553D01*
X132695168Y-128016977D01*
X132694414Y-128226525D01*
X132693661Y-128459531D01*
X132692857Y-128717329D01*
X132691950Y-129001252D01*
X132685085Y-131095036D01*
X132139328Y-131098626D01*
X132099640Y-131098867D01*
X131982869Y-131099346D01*
X131876064Y-131099444D01*
X131782141Y-131099179D01*
X131704015Y-131098572D01*
X131644601Y-131097643D01*
X131606815Y-131096412D01*
X131593572Y-131094899D01*
X131595266Y-131090102D01*
X131607905Y-131067361D01*
X131628839Y-131034290D01*
X131630927Y-131031128D01*
X131647157Y-131005594D01*
X131660766Y-130980750D01*
X131671983Y-130954037D01*
X131681040Y-130922897D01*
X131688168Y-130884769D01*
X131693596Y-130837096D01*
X131697556Y-130777318D01*
X131700279Y-130702876D01*
X131701994Y-130611211D01*
X131702934Y-130499763D01*
X131703329Y-130365975D01*
X131703410Y-130207286D01*
X131703266Y-130083390D01*
X131702825Y-129961752D01*
X131702120Y-129851460D01*
X131701182Y-129755198D01*
X131700042Y-129675652D01*
X131698734Y-129615508D01*
X131697289Y-129577453D01*
X131695740Y-129564171D01*
X131690741Y-129566232D01*
X131668768Y-129580749D01*
X131637388Y-129604590D01*
X131591895Y-129636652D01*
X131506421Y-129683892D01*
X131408727Y-129726031D01*
X131307933Y-129758801D01*
X131223247Y-129775511D01*
X131117776Y-129786162D01*
X131003628Y-129789853D01*
X130889610Y-129786577D01*
X130784532Y-129776331D01*
X130697203Y-129759111D01*
X130608282Y-129730103D01*
X130459941Y-129659782D01*
X130322589Y-129566294D01*
X130198758Y-129451794D01*
X130090984Y-129318432D01*
X130001800Y-129168363D01*
X129979659Y-129122345D01*
X129917612Y-128967123D01*
X129869103Y-128798658D01*
X129833519Y-128613979D01*
X129810246Y-128410118D01*
X129798672Y-128184104D01*
X129798134Y-128140919D01*
X130811249Y-128140919D01*
X130811482Y-128180471D01*
X130818374Y-128363727D01*
X130835111Y-128523186D01*
X130862098Y-128660528D01*
X130899744Y-128777437D01*
X130948455Y-128875594D01*
X131008638Y-128956683D01*
X131033606Y-128981431D01*
X131110986Y-129032990D01*
X131201823Y-129064364D01*
X131302180Y-129075376D01*
X131408124Y-129065847D01*
X131515720Y-129035599D01*
X131621031Y-128984453D01*
X131696545Y-128939189D01*
X131696545Y-127511966D01*
X131627896Y-127466938D01*
X131601496Y-127450718D01*
X131541047Y-127418314D01*
X131483734Y-127392510D01*
X131458634Y-127383773D01*
X131378768Y-127366330D01*
X131277788Y-127357423D01*
X131226440Y-127355570D01*
X131178776Y-127355992D01*
X131143295Y-127360752D01*
X131111470Y-127371157D01*
X131074776Y-127388512D01*
X131004257Y-127435002D01*
X130943164Y-127500765D01*
X130894262Y-127585513D01*
X130857084Y-127690574D01*
X130831167Y-127817276D01*
X130816043Y-127966949D01*
X130811249Y-128140919D01*
X129798134Y-128140919D01*
X129796844Y-128037170D01*
X129799757Y-127910114D01*
X129799757Y-127910114D01*
G37*
X129799757Y-127910114D02*
X129808087Y-127798062D01*
X129822479Y-127694919D01*
X129843578Y-127594590D01*
X129872029Y-127490981D01*
X129915171Y-127367138D01*
X129994409Y-127199955D01*
X130091606Y-127050210D01*
X130205274Y-126919319D01*
X130333927Y-126808697D01*
X130476078Y-126719759D01*
X130630240Y-126653921D01*
X130794925Y-126612597D01*
X130796907Y-126612265D01*
X130917262Y-126600685D01*
X131049500Y-126602230D01*
X131184195Y-126615949D01*
X131311915Y-126640888D01*
X131423233Y-126676094D01*
X131470748Y-126697518D01*
X131532630Y-126730081D01*
X131596219Y-126767325D01*
X131654878Y-126805150D01*
X131701973Y-126839457D01*
X131730869Y-126866147D01*
X131737502Y-126873475D01*
X131745410Y-126876036D01*
X131750696Y-126863320D01*
X131754591Y-126831272D01*
X131758328Y-126775840D01*
X131765193Y-126660333D01*
X132291030Y-126656737D01*
X132816867Y-126653140D01*
X132780483Y-126715225D01*
X132778314Y-126718895D01*
X132767734Y-126736127D01*
X132758136Y-126751478D01*
X132749468Y-126766282D01*
X132741679Y-126781872D01*
X132734717Y-126799582D01*
X132728530Y-126820747D01*
X132723068Y-126846698D01*
X132718277Y-126878771D01*
X132714107Y-126918299D01*
X132710505Y-126966614D01*
X132707421Y-127025052D01*
X132704802Y-127094945D01*
X132702597Y-127177627D01*
X132700755Y-127274432D01*
X132699223Y-127386694D01*
X132697950Y-127515746D01*
X132696884Y-127662921D01*
X132695974Y-127829553D01*
X132695168Y-128016977D01*
X132694414Y-128226525D01*
X132693661Y-128459531D01*
X132692857Y-128717329D01*
X132691950Y-129001252D01*
X132685085Y-131095036D01*
X132139328Y-131098626D01*
X132099640Y-131098867D01*
X131982869Y-131099346D01*
X131876064Y-131099444D01*
X131782141Y-131099179D01*
X131704015Y-131098572D01*
X131644601Y-131097643D01*
X131606815Y-131096412D01*
X131593572Y-131094899D01*
X131595266Y-131090102D01*
X131607905Y-131067361D01*
X131628839Y-131034290D01*
X131630927Y-131031128D01*
X131647157Y-131005594D01*
X131660766Y-130980750D01*
X131671983Y-130954037D01*
X131681040Y-130922897D01*
X131688168Y-130884769D01*
X131693596Y-130837096D01*
X131697556Y-130777318D01*
X131700279Y-130702876D01*
X131701994Y-130611211D01*
X131702934Y-130499763D01*
X131703329Y-130365975D01*
X131703410Y-130207286D01*
X131703266Y-130083390D01*
X131702825Y-129961752D01*
X131702120Y-129851460D01*
X131701182Y-129755198D01*
X131700042Y-129675652D01*
X131698734Y-129615508D01*
X131697289Y-129577453D01*
X131695740Y-129564171D01*
X131690741Y-129566232D01*
X131668768Y-129580749D01*
X131637388Y-129604590D01*
X131591895Y-129636652D01*
X131506421Y-129683892D01*
X131408727Y-129726031D01*
X131307933Y-129758801D01*
X131223247Y-129775511D01*
X131117776Y-129786162D01*
X131003628Y-129789853D01*
X130889610Y-129786577D01*
X130784532Y-129776331D01*
X130697203Y-129759111D01*
X130608282Y-129730103D01*
X130459941Y-129659782D01*
X130322589Y-129566294D01*
X130198758Y-129451794D01*
X130090984Y-129318432D01*
X130001800Y-129168363D01*
X129979659Y-129122345D01*
X129917612Y-128967123D01*
X129869103Y-128798658D01*
X129833519Y-128613979D01*
X129810246Y-128410118D01*
X129798672Y-128184104D01*
X129798134Y-128140919D01*
X130811249Y-128140919D01*
X130811482Y-128180471D01*
X130818374Y-128363727D01*
X130835111Y-128523186D01*
X130862098Y-128660528D01*
X130899744Y-128777437D01*
X130948455Y-128875594D01*
X131008638Y-128956683D01*
X131033606Y-128981431D01*
X131110986Y-129032990D01*
X131201823Y-129064364D01*
X131302180Y-129075376D01*
X131408124Y-129065847D01*
X131515720Y-129035599D01*
X131621031Y-128984453D01*
X131696545Y-128939189D01*
X131696545Y-127511966D01*
X131627896Y-127466938D01*
X131601496Y-127450718D01*
X131541047Y-127418314D01*
X131483734Y-127392510D01*
X131458634Y-127383773D01*
X131378768Y-127366330D01*
X131277788Y-127357423D01*
X131226440Y-127355570D01*
X131178776Y-127355992D01*
X131143295Y-127360752D01*
X131111470Y-127371157D01*
X131074776Y-127388512D01*
X131004257Y-127435002D01*
X130943164Y-127500765D01*
X130894262Y-127585513D01*
X130857084Y-127690574D01*
X130831167Y-127817276D01*
X130816043Y-127966949D01*
X130811249Y-128140919D01*
X129798134Y-128140919D01*
X129796844Y-128037170D01*
X129799757Y-127910114D01*
G36*
X126699637Y-127494435D02*
G01*
X126712964Y-127391432D01*
X126733073Y-127305630D01*
X126765159Y-127217353D01*
X126839536Y-127071872D01*
X126934605Y-126943876D01*
X127049381Y-126834238D01*
X127182880Y-126743829D01*
X127334119Y-126673523D01*
X127502112Y-126624190D01*
X127570616Y-126613063D01*
X127668506Y-126605330D01*
X127775115Y-126603591D01*
X127881534Y-126607706D01*
X127978854Y-126617534D01*
X128058166Y-126632935D01*
X128098020Y-126645061D01*
X128188536Y-126680545D01*
X128280547Y-126725596D01*
X128364561Y-126775328D01*
X128431084Y-126824855D01*
X128431902Y-126825570D01*
X128468356Y-126856479D01*
X128496403Y-126878488D01*
X128510030Y-126886873D01*
X128511520Y-126884871D01*
X128514891Y-126863245D01*
X128517234Y-126822911D01*
X128518112Y-126770171D01*
X128518112Y-126653468D01*
X129032977Y-126653468D01*
X129046683Y-126653470D01*
X129161634Y-126653671D01*
X129267135Y-126654172D01*
X129360185Y-126654934D01*
X129437782Y-126655922D01*
X129496925Y-126657097D01*
X129534613Y-126658422D01*
X129547842Y-126659860D01*
X129547534Y-126661117D01*
X129538879Y-126679670D01*
X129520736Y-126714526D01*
X129496355Y-126759401D01*
X129444869Y-126852549D01*
X129436923Y-127820495D01*
X129435742Y-127961476D01*
X129434090Y-128141278D01*
X129432356Y-128297372D01*
X129430399Y-128431966D01*
X129428080Y-128547266D01*
X129425259Y-128645482D01*
X129421795Y-128728819D01*
X129417549Y-128799486D01*
X129412379Y-128859691D01*
X129406147Y-128911640D01*
X129398712Y-128957541D01*
X129389933Y-128999602D01*
X129379672Y-129040030D01*
X129367786Y-129081034D01*
X129354138Y-129124819D01*
X129300369Y-129262086D01*
X129226734Y-129388949D01*
X129135033Y-129497563D01*
X129024424Y-129588497D01*
X128894069Y-129662318D01*
X128743128Y-129719596D01*
X128570762Y-129760898D01*
X128376130Y-129786793D01*
X128308104Y-129791942D01*
X128193537Y-129795707D01*
X128079983Y-129792317D01*
X127962126Y-129781199D01*
X127834649Y-129761783D01*
X127692236Y-129733497D01*
X127529572Y-129695768D01*
X127491972Y-129686639D01*
X127397550Y-129664175D01*
X127308056Y-129643492D01*
X127228918Y-129625810D01*
X127165563Y-129612351D01*
X127123419Y-129604338D01*
X127026185Y-129588368D01*
X127162883Y-129257053D01*
X127197076Y-129174331D01*
X127230714Y-129093275D01*
X127259576Y-129024070D01*
X127282244Y-128970103D01*
X127297302Y-128934759D01*
X127303332Y-128921425D01*
X127304280Y-128921234D01*
X127321755Y-128927187D01*
X127356116Y-128942443D01*
X127401165Y-128964288D01*
X127494797Y-129006828D01*
X127623641Y-129053341D01*
X127755513Y-129088961D01*
X127885255Y-129112793D01*
X128007710Y-129123944D01*
X128117722Y-129121517D01*
X128210134Y-129104619D01*
X128274630Y-129077807D01*
X128347879Y-129022861D01*
X128404266Y-128948319D01*
X128442178Y-128856476D01*
X128460000Y-128749624D01*
X128466276Y-128651144D01*
X128138654Y-128650247D01*
X128028167Y-128649320D01*
X127905961Y-128646030D01*
X127801564Y-128639820D01*
X127709575Y-128630087D01*
X127624595Y-128616228D01*
X127541222Y-128597638D01*
X127454058Y-128573713D01*
X127323639Y-128528175D01*
X127170239Y-128453183D01*
X127035611Y-128361324D01*
X126921083Y-128253891D01*
X126827983Y-128132176D01*
X126757638Y-127997470D01*
X126711376Y-127851066D01*
X126704131Y-127811635D01*
X126694843Y-127714038D01*
X126693673Y-127621246D01*
X127622247Y-127621246D01*
X127624333Y-127664704D01*
X127644964Y-127754166D01*
X127688304Y-127830952D01*
X127755142Y-127895928D01*
X127846268Y-127949956D01*
X127962471Y-127993901D01*
X128009318Y-128005433D01*
X128066031Y-128013329D01*
X128137404Y-128017714D01*
X128229788Y-128019189D01*
X128244795Y-128019188D01*
X128313910Y-128018344D01*
X128373279Y-128016305D01*
X128416999Y-128013338D01*
X128439166Y-128009710D01*
X128441717Y-128008532D01*
X128449964Y-128001136D01*
X128455805Y-127986272D01*
X128459644Y-127959944D01*
X128461886Y-127918153D01*
X128462934Y-127856901D01*
X128463193Y-127772190D01*
X128462810Y-127699531D01*
X128460955Y-127623186D01*
X128457320Y-127568003D01*
X128451641Y-127530389D01*
X128443653Y-127506750D01*
X128433377Y-127489870D01*
X128394681Y-127443854D01*
X128342834Y-127395950D01*
X128286007Y-127353267D01*
X128232374Y-127322918D01*
X128202617Y-127311782D01*
X128134100Y-127296955D01*
X128044611Y-127289375D01*
X127950261Y-127290523D01*
X127860665Y-127306115D01*
X127785881Y-127338325D01*
X127721178Y-127388604D01*
X127702977Y-127407201D01*
X127655588Y-127470625D01*
X127629947Y-127538987D01*
X127622247Y-127621246D01*
X126693673Y-127621246D01*
X126693471Y-127605137D01*
X126699637Y-127494435D01*
X126699637Y-127494435D01*
G37*
X126699637Y-127494435D02*
X126712964Y-127391432D01*
X126733073Y-127305630D01*
X126765159Y-127217353D01*
X126839536Y-127071872D01*
X126934605Y-126943876D01*
X127049381Y-126834238D01*
X127182880Y-126743829D01*
X127334119Y-126673523D01*
X127502112Y-126624190D01*
X127570616Y-126613063D01*
X127668506Y-126605330D01*
X127775115Y-126603591D01*
X127881534Y-126607706D01*
X127978854Y-126617534D01*
X128058166Y-126632935D01*
X128098020Y-126645061D01*
X128188536Y-126680545D01*
X128280547Y-126725596D01*
X128364561Y-126775328D01*
X128431084Y-126824855D01*
X128431902Y-126825570D01*
X128468356Y-126856479D01*
X128496403Y-126878488D01*
X128510030Y-126886873D01*
X128511520Y-126884871D01*
X128514891Y-126863245D01*
X128517234Y-126822911D01*
X128518112Y-126770171D01*
X128518112Y-126653468D01*
X129032977Y-126653468D01*
X129046683Y-126653470D01*
X129161634Y-126653671D01*
X129267135Y-126654172D01*
X129360185Y-126654934D01*
X129437782Y-126655922D01*
X129496925Y-126657097D01*
X129534613Y-126658422D01*
X129547842Y-126659860D01*
X129547534Y-126661117D01*
X129538879Y-126679670D01*
X129520736Y-126714526D01*
X129496355Y-126759401D01*
X129444869Y-126852549D01*
X129436923Y-127820495D01*
X129435742Y-127961476D01*
X129434090Y-128141278D01*
X129432356Y-128297372D01*
X129430399Y-128431966D01*
X129428080Y-128547266D01*
X129425259Y-128645482D01*
X129421795Y-128728819D01*
X129417549Y-128799486D01*
X129412379Y-128859691D01*
X129406147Y-128911640D01*
X129398712Y-128957541D01*
X129389933Y-128999602D01*
X129379672Y-129040030D01*
X129367786Y-129081034D01*
X129354138Y-129124819D01*
X129300369Y-129262086D01*
X129226734Y-129388949D01*
X129135033Y-129497563D01*
X129024424Y-129588497D01*
X128894069Y-129662318D01*
X128743128Y-129719596D01*
X128570762Y-129760898D01*
X128376130Y-129786793D01*
X128308104Y-129791942D01*
X128193537Y-129795707D01*
X128079983Y-129792317D01*
X127962126Y-129781199D01*
X127834649Y-129761783D01*
X127692236Y-129733497D01*
X127529572Y-129695768D01*
X127491972Y-129686639D01*
X127397550Y-129664175D01*
X127308056Y-129643492D01*
X127228918Y-129625810D01*
X127165563Y-129612351D01*
X127123419Y-129604338D01*
X127026185Y-129588368D01*
X127162883Y-129257053D01*
X127197076Y-129174331D01*
X127230714Y-129093275D01*
X127259576Y-129024070D01*
X127282244Y-128970103D01*
X127297302Y-128934759D01*
X127303332Y-128921425D01*
X127304280Y-128921234D01*
X127321755Y-128927187D01*
X127356116Y-128942443D01*
X127401165Y-128964288D01*
X127494797Y-129006828D01*
X127623641Y-129053341D01*
X127755513Y-129088961D01*
X127885255Y-129112793D01*
X128007710Y-129123944D01*
X128117722Y-129121517D01*
X128210134Y-129104619D01*
X128274630Y-129077807D01*
X128347879Y-129022861D01*
X128404266Y-128948319D01*
X128442178Y-128856476D01*
X128460000Y-128749624D01*
X128466276Y-128651144D01*
X128138654Y-128650247D01*
X128028167Y-128649320D01*
X127905961Y-128646030D01*
X127801564Y-128639820D01*
X127709575Y-128630087D01*
X127624595Y-128616228D01*
X127541222Y-128597638D01*
X127454058Y-128573713D01*
X127323639Y-128528175D01*
X127170239Y-128453183D01*
X127035611Y-128361324D01*
X126921083Y-128253891D01*
X126827983Y-128132176D01*
X126757638Y-127997470D01*
X126711376Y-127851066D01*
X126704131Y-127811635D01*
X126694843Y-127714038D01*
X126693673Y-127621246D01*
X127622247Y-127621246D01*
X127624333Y-127664704D01*
X127644964Y-127754166D01*
X127688304Y-127830952D01*
X127755142Y-127895928D01*
X127846268Y-127949956D01*
X127962471Y-127993901D01*
X128009318Y-128005433D01*
X128066031Y-128013329D01*
X128137404Y-128017714D01*
X128229788Y-128019189D01*
X128244795Y-128019188D01*
X128313910Y-128018344D01*
X128373279Y-128016305D01*
X128416999Y-128013338D01*
X128439166Y-128009710D01*
X128441717Y-128008532D01*
X128449964Y-128001136D01*
X128455805Y-127986272D01*
X128459644Y-127959944D01*
X128461886Y-127918153D01*
X128462934Y-127856901D01*
X128463193Y-127772190D01*
X128462810Y-127699531D01*
X128460955Y-127623186D01*
X128457320Y-127568003D01*
X128451641Y-127530389D01*
X128443653Y-127506750D01*
X128433377Y-127489870D01*
X128394681Y-127443854D01*
X128342834Y-127395950D01*
X128286007Y-127353267D01*
X128232374Y-127322918D01*
X128202617Y-127311782D01*
X128134100Y-127296955D01*
X128044611Y-127289375D01*
X127950261Y-127290523D01*
X127860665Y-127306115D01*
X127785881Y-127338325D01*
X127721178Y-127388604D01*
X127702977Y-127407201D01*
X127655588Y-127470625D01*
X127629947Y-127538987D01*
X127622247Y-127621246D01*
X126693673Y-127621246D01*
X126693471Y-127605137D01*
X126699637Y-127494435D01*
G36*
X125470112Y-126605119D02*
G01*
X125534115Y-126606404D01*
X125629076Y-126609381D01*
X125705171Y-126613643D01*
X125767887Y-126619645D01*
X125822714Y-126627842D01*
X125875139Y-126638689D01*
X125934122Y-126652706D01*
X125995659Y-126668668D01*
X126051313Y-126685413D01*
X126106136Y-126704903D01*
X126165177Y-126729098D01*
X126233488Y-126759961D01*
X126316121Y-126799452D01*
X126418126Y-126849532D01*
X126700247Y-126988956D01*
X126474286Y-127360104D01*
X126444703Y-127408681D01*
X126391556Y-127495882D01*
X126343985Y-127573840D01*
X126303731Y-127639713D01*
X126272531Y-127690655D01*
X126252123Y-127723824D01*
X126244247Y-127736376D01*
X126242057Y-127736001D01*
X126224411Y-127723717D01*
X126193410Y-127698224D01*
X126153952Y-127663477D01*
X126083679Y-127603442D01*
X125958228Y-127514665D01*
X125836510Y-127452777D01*
X125748554Y-127421871D01*
X125599782Y-127390286D01*
X125453610Y-127384687D01*
X125312156Y-127404694D01*
X125177541Y-127449925D01*
X125051885Y-127519998D01*
X124937306Y-127614532D01*
X124873550Y-127684160D01*
X124783732Y-127812947D01*
X124710032Y-127962398D01*
X124652098Y-128133279D01*
X124609578Y-128326354D01*
X124607648Y-128338340D01*
X124598736Y-128416028D01*
X124592102Y-128512554D01*
X124587799Y-128621322D01*
X124585880Y-128735737D01*
X124586401Y-128849203D01*
X124589414Y-128955125D01*
X124594973Y-129046908D01*
X124603132Y-129117954D01*
X124634405Y-129278891D01*
X124687025Y-129466885D01*
X124753204Y-129631471D01*
X124832852Y-129772522D01*
X124925882Y-129889911D01*
X125032205Y-129983508D01*
X125151732Y-130053189D01*
X125284375Y-130098824D01*
X125313804Y-130104488D01*
X125387555Y-130111883D01*
X125473743Y-130114297D01*
X125562715Y-130111863D01*
X125644813Y-130104711D01*
X125710382Y-130092976D01*
X125819613Y-130055610D01*
X125946372Y-129987393D01*
X126059241Y-129897621D01*
X126079162Y-129878710D01*
X126115259Y-129845253D01*
X126140770Y-129822733D01*
X126151135Y-129815243D01*
X126153686Y-129818825D01*
X126169393Y-129841448D01*
X126197767Y-129882524D01*
X126236935Y-129939335D01*
X126285021Y-130009159D01*
X126340151Y-130089278D01*
X126400450Y-130176970D01*
X126647085Y-130535769D01*
X126591988Y-130552276D01*
X126586239Y-130554147D01*
X126548814Y-130569005D01*
X126494855Y-130592963D01*
X126430697Y-130623140D01*
X126362670Y-130656654D01*
X126333027Y-130671471D01*
X126168423Y-130747970D01*
X126016709Y-130807126D01*
X125872051Y-130850453D01*
X125728613Y-130879464D01*
X125580561Y-130895672D01*
X125422058Y-130900591D01*
X125311752Y-130898093D01*
X125127251Y-130881156D01*
X124955850Y-130846997D01*
X124791172Y-130794180D01*
X124626843Y-130721266D01*
X124464175Y-130628170D01*
X124289600Y-130501257D01*
X124127711Y-130354521D01*
X123982071Y-130191595D01*
X123856247Y-130016112D01*
X123753802Y-129831703D01*
X123744503Y-129811975D01*
X123666626Y-129621558D01*
X123607451Y-129423694D01*
X123566212Y-129214601D01*
X123542147Y-128990501D01*
X123534488Y-128747612D01*
X123543800Y-128496528D01*
X123573355Y-128249259D01*
X123623612Y-128017788D01*
X123695022Y-127800472D01*
X123788033Y-127595669D01*
X123903095Y-127401738D01*
X124011177Y-127253577D01*
X124160415Y-127086871D01*
X124323078Y-126944082D01*
X124499094Y-126825257D01*
X124688392Y-126730442D01*
X124890902Y-126659684D01*
X125106551Y-126613029D01*
X125109012Y-126612666D01*
X125150541Y-126609022D01*
X125213211Y-126606319D01*
X125291226Y-126604684D01*
X125378791Y-126604241D01*
X125470112Y-126605119D01*
X125470112Y-126605119D01*
G37*
X125470112Y-126605119D02*
X125534115Y-126606404D01*
X125629076Y-126609381D01*
X125705171Y-126613643D01*
X125767887Y-126619645D01*
X125822714Y-126627842D01*
X125875139Y-126638689D01*
X125934122Y-126652706D01*
X125995659Y-126668668D01*
X126051313Y-126685413D01*
X126106136Y-126704903D01*
X126165177Y-126729098D01*
X126233488Y-126759961D01*
X126316121Y-126799452D01*
X126418126Y-126849532D01*
X126700247Y-126988956D01*
X126474286Y-127360104D01*
X126444703Y-127408681D01*
X126391556Y-127495882D01*
X126343985Y-127573840D01*
X126303731Y-127639713D01*
X126272531Y-127690655D01*
X126252123Y-127723824D01*
X126244247Y-127736376D01*
X126242057Y-127736001D01*
X126224411Y-127723717D01*
X126193410Y-127698224D01*
X126153952Y-127663477D01*
X126083679Y-127603442D01*
X125958228Y-127514665D01*
X125836510Y-127452777D01*
X125748554Y-127421871D01*
X125599782Y-127390286D01*
X125453610Y-127384687D01*
X125312156Y-127404694D01*
X125177541Y-127449925D01*
X125051885Y-127519998D01*
X124937306Y-127614532D01*
X124873550Y-127684160D01*
X124783732Y-127812947D01*
X124710032Y-127962398D01*
X124652098Y-128133279D01*
X124609578Y-128326354D01*
X124607648Y-128338340D01*
X124598736Y-128416028D01*
X124592102Y-128512554D01*
X124587799Y-128621322D01*
X124585880Y-128735737D01*
X124586401Y-128849203D01*
X124589414Y-128955125D01*
X124594973Y-129046908D01*
X124603132Y-129117954D01*
X124634405Y-129278891D01*
X124687025Y-129466885D01*
X124753204Y-129631471D01*
X124832852Y-129772522D01*
X124925882Y-129889911D01*
X125032205Y-129983508D01*
X125151732Y-130053189D01*
X125284375Y-130098824D01*
X125313804Y-130104488D01*
X125387555Y-130111883D01*
X125473743Y-130114297D01*
X125562715Y-130111863D01*
X125644813Y-130104711D01*
X125710382Y-130092976D01*
X125819613Y-130055610D01*
X125946372Y-129987393D01*
X126059241Y-129897621D01*
X126079162Y-129878710D01*
X126115259Y-129845253D01*
X126140770Y-129822733D01*
X126151135Y-129815243D01*
X126153686Y-129818825D01*
X126169393Y-129841448D01*
X126197767Y-129882524D01*
X126236935Y-129939335D01*
X126285021Y-130009159D01*
X126340151Y-130089278D01*
X126400450Y-130176970D01*
X126647085Y-130535769D01*
X126591988Y-130552276D01*
X126586239Y-130554147D01*
X126548814Y-130569005D01*
X126494855Y-130592963D01*
X126430697Y-130623140D01*
X126362670Y-130656654D01*
X126333027Y-130671471D01*
X126168423Y-130747970D01*
X126016709Y-130807126D01*
X125872051Y-130850453D01*
X125728613Y-130879464D01*
X125580561Y-130895672D01*
X125422058Y-130900591D01*
X125311752Y-130898093D01*
X125127251Y-130881156D01*
X124955850Y-130846997D01*
X124791172Y-130794180D01*
X124626843Y-130721266D01*
X124464175Y-130628170D01*
X124289600Y-130501257D01*
X124127711Y-130354521D01*
X123982071Y-130191595D01*
X123856247Y-130016112D01*
X123753802Y-129831703D01*
X123744503Y-129811975D01*
X123666626Y-129621558D01*
X123607451Y-129423694D01*
X123566212Y-129214601D01*
X123542147Y-128990501D01*
X123534488Y-128747612D01*
X123543800Y-128496528D01*
X123573355Y-128249259D01*
X123623612Y-128017788D01*
X123695022Y-127800472D01*
X123788033Y-127595669D01*
X123903095Y-127401738D01*
X124011177Y-127253577D01*
X124160415Y-127086871D01*
X124323078Y-126944082D01*
X124499094Y-126825257D01*
X124688392Y-126730442D01*
X124890902Y-126659684D01*
X125106551Y-126613029D01*
X125109012Y-126612666D01*
X125150541Y-126609022D01*
X125213211Y-126606319D01*
X125291226Y-126604684D01*
X125378791Y-126604241D01*
X125470112Y-126605119D01*
G36*
X121074812Y-126035966D02*
G01*
X121342411Y-126036061D01*
X121586195Y-126036218D01*
X121807267Y-126036446D01*
X122006727Y-126036752D01*
X122185678Y-126037146D01*
X122345223Y-126037633D01*
X122486463Y-126038224D01*
X122610500Y-126038924D01*
X122718436Y-126039744D01*
X122811373Y-126040690D01*
X122890414Y-126041771D01*
X122956660Y-126042994D01*
X123011214Y-126044368D01*
X123055177Y-126045900D01*
X123089652Y-126047599D01*
X123115740Y-126049473D01*
X123134543Y-126051529D01*
X123147164Y-126053775D01*
X123154705Y-126056221D01*
X123157104Y-126057309D01*
X123166926Y-126060884D01*
X123175933Y-126063495D01*
X123184162Y-126066278D01*
X123191649Y-126070371D01*
X123198431Y-126076911D01*
X123204544Y-126087034D01*
X123210024Y-126101878D01*
X123214909Y-126122580D01*
X123219235Y-126150276D01*
X123223038Y-126186103D01*
X123226355Y-126231198D01*
X123229223Y-126286699D01*
X123231677Y-126353742D01*
X123233755Y-126433464D01*
X123235492Y-126527001D01*
X123236926Y-126635492D01*
X123238093Y-126760073D01*
X123239029Y-126901881D01*
X123239771Y-127062052D01*
X123240356Y-127241724D01*
X123240820Y-127442034D01*
X123241199Y-127664119D01*
X123241530Y-127909115D01*
X123241850Y-128178159D01*
X123242195Y-128472389D01*
X123242601Y-128792941D01*
X123242654Y-128831747D01*
X123243107Y-129150268D01*
X123243540Y-129442599D01*
X123243922Y-129709878D01*
X123244219Y-129953242D01*
X123244401Y-130173829D01*
X123244434Y-130372776D01*
X123244288Y-130551221D01*
X123243929Y-130710300D01*
X123243325Y-130851152D01*
X123242445Y-130974914D01*
X123241257Y-131082724D01*
X123239728Y-131175718D01*
X123237827Y-131255034D01*
X123235521Y-131321811D01*
X123232778Y-131377184D01*
X123229567Y-131422292D01*
X123225854Y-131458272D01*
X123221609Y-131486262D01*
X123216798Y-131507399D01*
X123211391Y-131522820D01*
X123205354Y-131533663D01*
X123198656Y-131541065D01*
X123191264Y-131546164D01*
X123183148Y-131550098D01*
X123174274Y-131554003D01*
X123164610Y-131559017D01*
X123161782Y-131560615D01*
X123118995Y-131576082D01*
X123072156Y-131582439D01*
X123019355Y-131582437D01*
X123018475Y-131462304D01*
X123018252Y-131448479D01*
X123001470Y-131307956D01*
X122958726Y-131175736D01*
X122890616Y-131053219D01*
X122797731Y-130941808D01*
X122747887Y-130896368D01*
X122636904Y-130821051D01*
X122515811Y-130768528D01*
X122388134Y-130738829D01*
X122257402Y-130731981D01*
X122127139Y-130748012D01*
X122000874Y-130786950D01*
X121882133Y-130848823D01*
X121774442Y-130933660D01*
X121744505Y-130963569D01*
X121656022Y-131074309D01*
X121593235Y-131194487D01*
X121555810Y-131324880D01*
X121543410Y-131466261D01*
X121543410Y-131582441D01*
X119572511Y-131582441D01*
X119449379Y-131582446D01*
X119184856Y-131582482D01*
X118945897Y-131582508D01*
X118731181Y-131582472D01*
X118539386Y-131582322D01*
X118369192Y-131582005D01*
X118219276Y-131581469D01*
X118088317Y-131580663D01*
X117974994Y-131579533D01*
X117877985Y-131578027D01*
X117795970Y-131576094D01*
X117727625Y-131573680D01*
X117671631Y-131570735D01*
X117626666Y-131567205D01*
X117591408Y-131563038D01*
X117564536Y-131558182D01*
X117544728Y-131552585D01*
X117530664Y-131546195D01*
X117521021Y-131538959D01*
X117514478Y-131530825D01*
X117509714Y-131521740D01*
X117505407Y-131511653D01*
X117500236Y-131500512D01*
X117500144Y-131500330D01*
X117497633Y-131493037D01*
X117495331Y-131480824D01*
X117493227Y-131462566D01*
X117491313Y-131437134D01*
X117489581Y-131403402D01*
X117488021Y-131360243D01*
X117486626Y-131306530D01*
X117485386Y-131241136D01*
X117484292Y-131162933D01*
X117483336Y-131070795D01*
X117482509Y-130963595D01*
X117481802Y-130840205D01*
X117481206Y-130699500D01*
X117480714Y-130540351D01*
X117480315Y-130361631D01*
X117480002Y-130162214D01*
X117479766Y-129940973D01*
X117479597Y-129696781D01*
X117479487Y-129428510D01*
X117479427Y-129135034D01*
X117479410Y-128815225D01*
X117479409Y-128752398D01*
X117479379Y-128435922D01*
X117479332Y-128145556D01*
X117479304Y-127880164D01*
X117479332Y-127638611D01*
X117479449Y-127419761D01*
X117479694Y-127222480D01*
X117480101Y-127045632D01*
X117480706Y-126888081D01*
X117481545Y-126748692D01*
X117482284Y-126667198D01*
X117848715Y-126667198D01*
X117882170Y-126711819D01*
X117887409Y-126718878D01*
X117929297Y-126783577D01*
X117958172Y-126848981D01*
X117977133Y-126923923D01*
X117989278Y-127017238D01*
X117989612Y-127021306D01*
X117991374Y-127059796D01*
X117992966Y-127124015D01*
X117994379Y-127212495D01*
X117995607Y-127323768D01*
X117996643Y-127456368D01*
X117997481Y-127608826D01*
X117998113Y-127779675D01*
X117998532Y-127967449D01*
X117998731Y-128170678D01*
X117998704Y-128387897D01*
X117998444Y-128617636D01*
X117997944Y-128858430D01*
X117997414Y-129074423D01*
X117996847Y-129309536D01*
X117996288Y-129519892D01*
X117995669Y-129706965D01*
X117994918Y-129872229D01*
X117993965Y-130017158D01*
X117992741Y-130143224D01*
X117991176Y-130251903D01*
X117989198Y-130344667D01*
X117986739Y-130422991D01*
X117983728Y-130488349D01*
X117980095Y-130542213D01*
X117975770Y-130586058D01*
X117970683Y-130621358D01*
X117964764Y-130649586D01*
X117957942Y-130672216D01*
X117950148Y-130690722D01*
X117941311Y-130706577D01*
X117931362Y-130721256D01*
X117920230Y-130736231D01*
X117907845Y-130752978D01*
X117895867Y-130769759D01*
X117872714Y-130802940D01*
X117858846Y-130823873D01*
X117858511Y-130824750D01*
X117863353Y-130828709D01*
X117880442Y-130832012D01*
X117911678Y-130834710D01*
X117958964Y-130836854D01*
X118024201Y-130838495D01*
X118109289Y-130839682D01*
X118216132Y-130840468D01*
X118346630Y-130840902D01*
X118502685Y-130841036D01*
X119156877Y-130841036D01*
X119122399Y-130800061D01*
X119102417Y-130771918D01*
X119069156Y-130705563D01*
X119040008Y-130623036D01*
X119017761Y-130531492D01*
X119016343Y-130522802D01*
X119012125Y-130476988D01*
X119008930Y-130406182D01*
X119006750Y-130309896D01*
X119005578Y-130187639D01*
X119005404Y-130038920D01*
X119006221Y-129863249D01*
X119010274Y-129276759D01*
X119429031Y-129806312D01*
X119441025Y-129821481D01*
X119547218Y-129955916D01*
X119637878Y-130071047D01*
X119714448Y-130168832D01*
X119778372Y-130251228D01*
X119831092Y-130320193D01*
X119874050Y-130377685D01*
X119908690Y-130425661D01*
X119936454Y-130466078D01*
X119958785Y-130500895D01*
X119977127Y-130532068D01*
X119992921Y-130561556D01*
X120007611Y-130591316D01*
X120030209Y-130643994D01*
X120044808Y-130699565D01*
X120048691Y-130759505D01*
X120048301Y-130841036D01*
X121437692Y-130841036D01*
X121377280Y-130797572D01*
X121326189Y-130756723D01*
X121254196Y-130690095D01*
X121172539Y-130606591D01*
X121084309Y-130509393D01*
X120992599Y-130401684D01*
X120968982Y-130372881D01*
X120928772Y-130323479D01*
X120876212Y-130258666D01*
X120813043Y-130180605D01*
X120741007Y-130091460D01*
X120661845Y-129993393D01*
X120577297Y-129888567D01*
X120489106Y-129779147D01*
X120448655Y-129728927D01*
X120399013Y-129667295D01*
X120308759Y-129555174D01*
X120220084Y-129444947D01*
X120134731Y-129338779D01*
X120054441Y-129238831D01*
X119980955Y-129147268D01*
X119916014Y-129066252D01*
X119861359Y-128997947D01*
X119818733Y-128944516D01*
X119789875Y-128908123D01*
X119776528Y-128890929D01*
X119775426Y-128884468D01*
X119779091Y-128872179D01*
X119788586Y-128852846D01*
X119804861Y-128825097D01*
X119828863Y-128787561D01*
X119861539Y-128738867D01*
X119903838Y-128677642D01*
X119956708Y-128602517D01*
X120021096Y-128512119D01*
X120097951Y-128405077D01*
X120188219Y-128280019D01*
X120292850Y-128135575D01*
X120412790Y-127970373D01*
X120508357Y-127838874D01*
X120624951Y-127678566D01*
X120727511Y-127537784D01*
X120817230Y-127414967D01*
X120895299Y-127308552D01*
X120962911Y-127216976D01*
X121021261Y-127138677D01*
X121071539Y-127072092D01*
X121114938Y-127015660D01*
X121152653Y-126967817D01*
X121185874Y-126927002D01*
X121215796Y-126891651D01*
X121243610Y-126860203D01*
X121270509Y-126831095D01*
X121297686Y-126802765D01*
X121326334Y-126773649D01*
X121431907Y-126667198D01*
X121681226Y-126667198D01*
X121732453Y-126759873D01*
X121783680Y-126852549D01*
X121783680Y-129543576D01*
X121732453Y-129636252D01*
X121681226Y-129728927D01*
X122764388Y-129728927D01*
X122772220Y-126880009D01*
X122810618Y-126798003D01*
X122830863Y-126757356D01*
X122853786Y-126716639D01*
X122871098Y-126691597D01*
X122871141Y-126691549D01*
X122875344Y-126685731D01*
X122874947Y-126680920D01*
X122867664Y-126677021D01*
X122851210Y-126673939D01*
X122823298Y-126671577D01*
X122781642Y-126669841D01*
X122723957Y-126668635D01*
X122647957Y-126667863D01*
X122551355Y-126667430D01*
X122431865Y-126667240D01*
X122287203Y-126667198D01*
X121681226Y-126667198D01*
X121431907Y-126667198D01*
X120012545Y-126667140D01*
X120017004Y-126753152D01*
X120017220Y-126757474D01*
X120018067Y-126791858D01*
X120016462Y-126824803D01*
X120011333Y-126858113D01*
X120001606Y-126893593D01*
X119986208Y-126933046D01*
X119964065Y-126978278D01*
X119934104Y-127031094D01*
X119895251Y-127093297D01*
X119846433Y-127166694D01*
X119786577Y-127253087D01*
X119714609Y-127354281D01*
X119629456Y-127472083D01*
X119530045Y-127608295D01*
X119415301Y-127764722D01*
X119010274Y-128316130D01*
X119006706Y-127676789D01*
X119006390Y-127617151D01*
X119005832Y-127456514D01*
X119006086Y-127319882D01*
X119007449Y-127204669D01*
X119010222Y-127108288D01*
X119014701Y-127028155D01*
X119021186Y-126961684D01*
X119029976Y-126906288D01*
X119041369Y-126859383D01*
X119055664Y-126818383D01*
X119073159Y-126780702D01*
X119094152Y-126743754D01*
X119118944Y-126704954D01*
X119143865Y-126667198D01*
X117848715Y-126667198D01*
X117482284Y-126667198D01*
X117482654Y-126626331D01*
X117484067Y-126519861D01*
X117485822Y-126428147D01*
X117487953Y-126350054D01*
X117490497Y-126284447D01*
X117493488Y-126230190D01*
X117496964Y-126186148D01*
X117500959Y-126151186D01*
X117505510Y-126124168D01*
X117510652Y-126103959D01*
X117516420Y-126089424D01*
X117522851Y-126079427D01*
X117529980Y-126072833D01*
X117537844Y-126068506D01*
X117546477Y-126065312D01*
X117555915Y-126062115D01*
X117566195Y-126057780D01*
X117571979Y-126055608D01*
X117582589Y-126053235D01*
X117598354Y-126051061D01*
X117620389Y-126049078D01*
X117649809Y-126047275D01*
X117687730Y-126045646D01*
X117735267Y-126044180D01*
X117793535Y-126042870D01*
X117863649Y-126041706D01*
X117946725Y-126040680D01*
X118043878Y-126039783D01*
X118156223Y-126039006D01*
X118284874Y-126038341D01*
X118430949Y-126037779D01*
X118595561Y-126037311D01*
X118779826Y-126036929D01*
X118984859Y-126036623D01*
X119211775Y-126036386D01*
X119461690Y-126036208D01*
X119735718Y-126036080D01*
X120034976Y-126035995D01*
X120360578Y-126035943D01*
X120463760Y-126035933D01*
X120782296Y-126035926D01*
X121074812Y-126035966D01*
X121074812Y-126035966D01*
G37*
X121074812Y-126035966D02*
X121342411Y-126036061D01*
X121586195Y-126036218D01*
X121807267Y-126036446D01*
X122006727Y-126036752D01*
X122185678Y-126037146D01*
X122345223Y-126037633D01*
X122486463Y-126038224D01*
X122610500Y-126038924D01*
X122718436Y-126039744D01*
X122811373Y-126040690D01*
X122890414Y-126041771D01*
X122956660Y-126042994D01*
X123011214Y-126044368D01*
X123055177Y-126045900D01*
X123089652Y-126047599D01*
X123115740Y-126049473D01*
X123134543Y-126051529D01*
X123147164Y-126053775D01*
X123154705Y-126056221D01*
X123157104Y-126057309D01*
X123166926Y-126060884D01*
X123175933Y-126063495D01*
X123184162Y-126066278D01*
X123191649Y-126070371D01*
X123198431Y-126076911D01*
X123204544Y-126087034D01*
X123210024Y-126101878D01*
X123214909Y-126122580D01*
X123219235Y-126150276D01*
X123223038Y-126186103D01*
X123226355Y-126231198D01*
X123229223Y-126286699D01*
X123231677Y-126353742D01*
X123233755Y-126433464D01*
X123235492Y-126527001D01*
X123236926Y-126635492D01*
X123238093Y-126760073D01*
X123239029Y-126901881D01*
X123239771Y-127062052D01*
X123240356Y-127241724D01*
X123240820Y-127442034D01*
X123241199Y-127664119D01*
X123241530Y-127909115D01*
X123241850Y-128178159D01*
X123242195Y-128472389D01*
X123242601Y-128792941D01*
X123242654Y-128831747D01*
X123243107Y-129150268D01*
X123243540Y-129442599D01*
X123243922Y-129709878D01*
X123244219Y-129953242D01*
X123244401Y-130173829D01*
X123244434Y-130372776D01*
X123244288Y-130551221D01*
X123243929Y-130710300D01*
X123243325Y-130851152D01*
X123242445Y-130974914D01*
X123241257Y-131082724D01*
X123239728Y-131175718D01*
X123237827Y-131255034D01*
X123235521Y-131321811D01*
X123232778Y-131377184D01*
X123229567Y-131422292D01*
X123225854Y-131458272D01*
X123221609Y-131486262D01*
X123216798Y-131507399D01*
X123211391Y-131522820D01*
X123205354Y-131533663D01*
X123198656Y-131541065D01*
X123191264Y-131546164D01*
X123183148Y-131550098D01*
X123174274Y-131554003D01*
X123164610Y-131559017D01*
X123161782Y-131560615D01*
X123118995Y-131576082D01*
X123072156Y-131582439D01*
X123019355Y-131582437D01*
X123018475Y-131462304D01*
X123018252Y-131448479D01*
X123001470Y-131307956D01*
X122958726Y-131175736D01*
X122890616Y-131053219D01*
X122797731Y-130941808D01*
X122747887Y-130896368D01*
X122636904Y-130821051D01*
X122515811Y-130768528D01*
X122388134Y-130738829D01*
X122257402Y-130731981D01*
X122127139Y-130748012D01*
X122000874Y-130786950D01*
X121882133Y-130848823D01*
X121774442Y-130933660D01*
X121744505Y-130963569D01*
X121656022Y-131074309D01*
X121593235Y-131194487D01*
X121555810Y-131324880D01*
X121543410Y-131466261D01*
X121543410Y-131582441D01*
X119572511Y-131582441D01*
X119449379Y-131582446D01*
X119184856Y-131582482D01*
X118945897Y-131582508D01*
X118731181Y-131582472D01*
X118539386Y-131582322D01*
X118369192Y-131582005D01*
X118219276Y-131581469D01*
X118088317Y-131580663D01*
X117974994Y-131579533D01*
X117877985Y-131578027D01*
X117795970Y-131576094D01*
X117727625Y-131573680D01*
X117671631Y-131570735D01*
X117626666Y-131567205D01*
X117591408Y-131563038D01*
X117564536Y-131558182D01*
X117544728Y-131552585D01*
X117530664Y-131546195D01*
X117521021Y-131538959D01*
X117514478Y-131530825D01*
X117509714Y-131521740D01*
X117505407Y-131511653D01*
X117500236Y-131500512D01*
X117500144Y-131500330D01*
X117497633Y-131493037D01*
X117495331Y-131480824D01*
X117493227Y-131462566D01*
X117491313Y-131437134D01*
X117489581Y-131403402D01*
X117488021Y-131360243D01*
X117486626Y-131306530D01*
X117485386Y-131241136D01*
X117484292Y-131162933D01*
X117483336Y-131070795D01*
X117482509Y-130963595D01*
X117481802Y-130840205D01*
X117481206Y-130699500D01*
X117480714Y-130540351D01*
X117480315Y-130361631D01*
X117480002Y-130162214D01*
X117479766Y-129940973D01*
X117479597Y-129696781D01*
X117479487Y-129428510D01*
X117479427Y-129135034D01*
X117479410Y-128815225D01*
X117479409Y-128752398D01*
X117479379Y-128435922D01*
X117479332Y-128145556D01*
X117479304Y-127880164D01*
X117479332Y-127638611D01*
X117479449Y-127419761D01*
X117479694Y-127222480D01*
X117480101Y-127045632D01*
X117480706Y-126888081D01*
X117481545Y-126748692D01*
X117482284Y-126667198D01*
X117848715Y-126667198D01*
X117882170Y-126711819D01*
X117887409Y-126718878D01*
X117929297Y-126783577D01*
X117958172Y-126848981D01*
X117977133Y-126923923D01*
X117989278Y-127017238D01*
X117989612Y-127021306D01*
X117991374Y-127059796D01*
X117992966Y-127124015D01*
X117994379Y-127212495D01*
X117995607Y-127323768D01*
X117996643Y-127456368D01*
X117997481Y-127608826D01*
X117998113Y-127779675D01*
X117998532Y-127967449D01*
X117998731Y-128170678D01*
X117998704Y-128387897D01*
X117998444Y-128617636D01*
X117997944Y-128858430D01*
X117997414Y-129074423D01*
X117996847Y-129309536D01*
X117996288Y-129519892D01*
X117995669Y-129706965D01*
X117994918Y-129872229D01*
X117993965Y-130017158D01*
X117992741Y-130143224D01*
X117991176Y-130251903D01*
X117989198Y-130344667D01*
X117986739Y-130422991D01*
X117983728Y-130488349D01*
X117980095Y-130542213D01*
X117975770Y-130586058D01*
X117970683Y-130621358D01*
X117964764Y-130649586D01*
X117957942Y-130672216D01*
X117950148Y-130690722D01*
X117941311Y-130706577D01*
X117931362Y-130721256D01*
X117920230Y-130736231D01*
X117907845Y-130752978D01*
X117895867Y-130769759D01*
X117872714Y-130802940D01*
X117858846Y-130823873D01*
X117858511Y-130824750D01*
X117863353Y-130828709D01*
X117880442Y-130832012D01*
X117911678Y-130834710D01*
X117958964Y-130836854D01*
X118024201Y-130838495D01*
X118109289Y-130839682D01*
X118216132Y-130840468D01*
X118346630Y-130840902D01*
X118502685Y-130841036D01*
X119156877Y-130841036D01*
X119122399Y-130800061D01*
X119102417Y-130771918D01*
X119069156Y-130705563D01*
X119040008Y-130623036D01*
X119017761Y-130531492D01*
X119016343Y-130522802D01*
X119012125Y-130476988D01*
X119008930Y-130406182D01*
X119006750Y-130309896D01*
X119005578Y-130187639D01*
X119005404Y-130038920D01*
X119006221Y-129863249D01*
X119010274Y-129276759D01*
X119429031Y-129806312D01*
X119441025Y-129821481D01*
X119547218Y-129955916D01*
X119637878Y-130071047D01*
X119714448Y-130168832D01*
X119778372Y-130251228D01*
X119831092Y-130320193D01*
X119874050Y-130377685D01*
X119908690Y-130425661D01*
X119936454Y-130466078D01*
X119958785Y-130500895D01*
X119977127Y-130532068D01*
X119992921Y-130561556D01*
X120007611Y-130591316D01*
X120030209Y-130643994D01*
X120044808Y-130699565D01*
X120048691Y-130759505D01*
X120048301Y-130841036D01*
X121437692Y-130841036D01*
X121377280Y-130797572D01*
X121326189Y-130756723D01*
X121254196Y-130690095D01*
X121172539Y-130606591D01*
X121084309Y-130509393D01*
X120992599Y-130401684D01*
X120968982Y-130372881D01*
X120928772Y-130323479D01*
X120876212Y-130258666D01*
X120813043Y-130180605D01*
X120741007Y-130091460D01*
X120661845Y-129993393D01*
X120577297Y-129888567D01*
X120489106Y-129779147D01*
X120448655Y-129728927D01*
X120399013Y-129667295D01*
X120308759Y-129555174D01*
X120220084Y-129444947D01*
X120134731Y-129338779D01*
X120054441Y-129238831D01*
X119980955Y-129147268D01*
X119916014Y-129066252D01*
X119861359Y-128997947D01*
X119818733Y-128944516D01*
X119789875Y-128908123D01*
X119776528Y-128890929D01*
X119775426Y-128884468D01*
X119779091Y-128872179D01*
X119788586Y-128852846D01*
X119804861Y-128825097D01*
X119828863Y-128787561D01*
X119861539Y-128738867D01*
X119903838Y-128677642D01*
X119956708Y-128602517D01*
X120021096Y-128512119D01*
X120097951Y-128405077D01*
X120188219Y-128280019D01*
X120292850Y-128135575D01*
X120412790Y-127970373D01*
X120508357Y-127838874D01*
X120624951Y-127678566D01*
X120727511Y-127537784D01*
X120817230Y-127414967D01*
X120895299Y-127308552D01*
X120962911Y-127216976D01*
X121021261Y-127138677D01*
X121071539Y-127072092D01*
X121114938Y-127015660D01*
X121152653Y-126967817D01*
X121185874Y-126927002D01*
X121215796Y-126891651D01*
X121243610Y-126860203D01*
X121270509Y-126831095D01*
X121297686Y-126802765D01*
X121326334Y-126773649D01*
X121431907Y-126667198D01*
X121681226Y-126667198D01*
X121732453Y-126759873D01*
X121783680Y-126852549D01*
X121783680Y-129543576D01*
X121732453Y-129636252D01*
X121681226Y-129728927D01*
X122764388Y-129728927D01*
X122772220Y-126880009D01*
X122810618Y-126798003D01*
X122830863Y-126757356D01*
X122853786Y-126716639D01*
X122871098Y-126691597D01*
X122871141Y-126691549D01*
X122875344Y-126685731D01*
X122874947Y-126680920D01*
X122867664Y-126677021D01*
X122851210Y-126673939D01*
X122823298Y-126671577D01*
X122781642Y-126669841D01*
X122723957Y-126668635D01*
X122647957Y-126667863D01*
X122551355Y-126667430D01*
X122431865Y-126667240D01*
X122287203Y-126667198D01*
X121681226Y-126667198D01*
X121431907Y-126667198D01*
X120012545Y-126667140D01*
X120017004Y-126753152D01*
X120017220Y-126757474D01*
X120018067Y-126791858D01*
X120016462Y-126824803D01*
X120011333Y-126858113D01*
X120001606Y-126893593D01*
X119986208Y-126933046D01*
X119964065Y-126978278D01*
X119934104Y-127031094D01*
X119895251Y-127093297D01*
X119846433Y-127166694D01*
X119786577Y-127253087D01*
X119714609Y-127354281D01*
X119629456Y-127472083D01*
X119530045Y-127608295D01*
X119415301Y-127764722D01*
X119010274Y-128316130D01*
X119006706Y-127676789D01*
X119006390Y-127617151D01*
X119005832Y-127456514D01*
X119006086Y-127319882D01*
X119007449Y-127204669D01*
X119010222Y-127108288D01*
X119014701Y-127028155D01*
X119021186Y-126961684D01*
X119029976Y-126906288D01*
X119041369Y-126859383D01*
X119055664Y-126818383D01*
X119073159Y-126780702D01*
X119094152Y-126743754D01*
X119118944Y-126704954D01*
X119143865Y-126667198D01*
X117848715Y-126667198D01*
X117482284Y-126667198D01*
X117482654Y-126626331D01*
X117484067Y-126519861D01*
X117485822Y-126428147D01*
X117487953Y-126350054D01*
X117490497Y-126284447D01*
X117493488Y-126230190D01*
X117496964Y-126186148D01*
X117500959Y-126151186D01*
X117505510Y-126124168D01*
X117510652Y-126103959D01*
X117516420Y-126089424D01*
X117522851Y-126079427D01*
X117529980Y-126072833D01*
X117537844Y-126068506D01*
X117546477Y-126065312D01*
X117555915Y-126062115D01*
X117566195Y-126057780D01*
X117571979Y-126055608D01*
X117582589Y-126053235D01*
X117598354Y-126051061D01*
X117620389Y-126049078D01*
X117649809Y-126047275D01*
X117687730Y-126045646D01*
X117735267Y-126044180D01*
X117793535Y-126042870D01*
X117863649Y-126041706D01*
X117946725Y-126040680D01*
X118043878Y-126039783D01*
X118156223Y-126039006D01*
X118284874Y-126038341D01*
X118430949Y-126037779D01*
X118595561Y-126037311D01*
X118779826Y-126036929D01*
X118984859Y-126036623D01*
X119211775Y-126036386D01*
X119461690Y-126036208D01*
X119735718Y-126036080D01*
X120034976Y-126035995D01*
X120360578Y-126035943D01*
X120463760Y-126035933D01*
X120782296Y-126035926D01*
X121074812Y-126035966D01*
G36*
X113069913Y-127190974D02*
G01*
X113100571Y-127214344D01*
X113147832Y-127255490D01*
X113207584Y-127310365D01*
X113275712Y-127374923D01*
X113348104Y-127445115D01*
X113420644Y-127516894D01*
X113489220Y-127586214D01*
X113549718Y-127649027D01*
X113598024Y-127701286D01*
X113630024Y-127738943D01*
X113641605Y-127757952D01*
X113640937Y-127761569D01*
X113627153Y-127791007D01*
X113597708Y-127841938D01*
X113555447Y-127909762D01*
X113503215Y-127989877D01*
X113443858Y-128077685D01*
X113427211Y-128101904D01*
X113368756Y-128187132D01*
X113317267Y-128262479D01*
X113275744Y-128323537D01*
X113247189Y-128365896D01*
X113234602Y-128385148D01*
X113234293Y-128385973D01*
X113238007Y-128409527D01*
X113252193Y-128457241D01*
X113274549Y-128523121D01*
X113302773Y-128601170D01*
X113334565Y-128685393D01*
X113367622Y-128769795D01*
X113399644Y-128848379D01*
X113428329Y-128915150D01*
X113451377Y-128964114D01*
X113466485Y-128989273D01*
X113467998Y-128990835D01*
X113478815Y-128998737D01*
X113497085Y-129006706D01*
X113526444Y-129015559D01*
X113570530Y-129026113D01*
X113632982Y-129039185D01*
X113717436Y-129055592D01*
X113827531Y-129076152D01*
X113966905Y-129101681D01*
X113995813Y-129107054D01*
X114078623Y-129123663D01*
X114148282Y-129139400D01*
X114198188Y-129152702D01*
X114221741Y-129162007D01*
X114225681Y-129169770D01*
X114232250Y-129207058D01*
X114237456Y-129268875D01*
X114241294Y-129349428D01*
X114243761Y-129442925D01*
X114244853Y-129543574D01*
X114244565Y-129645583D01*
X114242893Y-129743161D01*
X114239835Y-129830515D01*
X114235385Y-129901853D01*
X114229540Y-129951383D01*
X114222296Y-129973314D01*
X114214899Y-129976554D01*
X114178104Y-129986767D01*
X114115909Y-130001211D01*
X114033277Y-130018811D01*
X113935172Y-130038490D01*
X113826556Y-130059170D01*
X113767250Y-130070219D01*
X113665602Y-130089379D01*
X113578110Y-130106156D01*
X113509451Y-130119639D01*
X113464307Y-130128916D01*
X113447356Y-130133074D01*
X113446719Y-130133931D01*
X113435923Y-130155707D01*
X113415343Y-130201329D01*
X113387551Y-130264742D01*
X113355118Y-130339893D01*
X113320618Y-130420730D01*
X113286622Y-130501201D01*
X113255703Y-130575251D01*
X113230434Y-130636828D01*
X113213385Y-130679879D01*
X113207131Y-130698350D01*
X113209890Y-130704850D01*
X113228250Y-130735778D01*
X113261554Y-130787837D01*
X113307126Y-130856941D01*
X113362289Y-130939007D01*
X113424368Y-131029948D01*
X113458427Y-131079752D01*
X113517203Y-131167069D01*
X113567597Y-131243702D01*
X113606920Y-131305469D01*
X113632486Y-131348194D01*
X113641605Y-131367695D01*
X113635268Y-131378273D01*
X113608763Y-131409881D01*
X113565280Y-131457717D01*
X113508811Y-131517727D01*
X113443347Y-131585858D01*
X113372879Y-131658055D01*
X113301399Y-131730267D01*
X113232900Y-131798438D01*
X113171371Y-131858517D01*
X113120806Y-131906449D01*
X113085195Y-131938180D01*
X113068530Y-131949658D01*
X113059280Y-131945195D01*
X113025311Y-131924498D01*
X112970495Y-131889273D01*
X112898782Y-131842104D01*
X112814122Y-131785569D01*
X112720465Y-131722252D01*
X112386041Y-131494846D01*
X111828513Y-131724678D01*
X111752964Y-132125424D01*
X111677415Y-132526171D01*
X110843294Y-132526171D01*
X110767746Y-132125424D01*
X110692197Y-131724678D01*
X110413433Y-131609762D01*
X110134668Y-131494846D01*
X109800244Y-131722252D01*
X109734054Y-131767083D01*
X109646307Y-131825929D01*
X109570337Y-131876190D01*
X109510089Y-131915285D01*
X109469509Y-131940635D01*
X109452543Y-131949658D01*
X109442123Y-131943241D01*
X109410975Y-131916353D01*
X109363839Y-131872226D01*
X109304707Y-131814913D01*
X109237574Y-131748465D01*
X109166434Y-131676935D01*
X109095281Y-131604374D01*
X109028108Y-131534833D01*
X108968910Y-131472365D01*
X108921681Y-131421022D01*
X108890414Y-131384855D01*
X108879105Y-131367917D01*
X108881736Y-131360639D01*
X108899952Y-131328176D01*
X108933218Y-131274751D01*
X108978836Y-131204551D01*
X109034110Y-131121764D01*
X109096342Y-131030579D01*
X109130494Y-130980848D01*
X109189243Y-130894269D01*
X109239612Y-130818709D01*
X109278914Y-130758267D01*
X109304465Y-130717039D01*
X109313578Y-130699124D01*
X109313429Y-130698131D01*
X109305389Y-130675420D01*
X109286946Y-130629045D01*
X109260669Y-130565063D01*
X109229129Y-130489532D01*
X109194898Y-130408511D01*
X109160546Y-130328057D01*
X109128645Y-130254228D01*
X109101765Y-130193082D01*
X109082478Y-130150678D01*
X109073354Y-130133074D01*
X109067955Y-130131512D01*
X109035154Y-130124469D01*
X108976694Y-130112801D01*
X108897254Y-130097420D01*
X108801514Y-130079240D01*
X108694154Y-130059170D01*
X108637569Y-130048529D01*
X108533711Y-130028227D01*
X108442903Y-130009478D01*
X108370109Y-129993358D01*
X108320292Y-129980944D01*
X108298414Y-129973314D01*
X108294484Y-129965750D01*
X108287966Y-129928791D01*
X108282844Y-129867235D01*
X108279116Y-129786873D01*
X108276777Y-129693497D01*
X108275823Y-129592899D01*
X108276251Y-129490872D01*
X108278055Y-129393207D01*
X108281234Y-129305696D01*
X108285781Y-129234131D01*
X108291694Y-129184304D01*
X108298969Y-129162007D01*
X108303383Y-129159492D01*
X108336306Y-129148704D01*
X108393418Y-129134431D01*
X108468118Y-129118236D01*
X108553804Y-129101681D01*
X108582715Y-129096408D01*
X108716245Y-129071887D01*
X108821187Y-129052179D01*
X108901180Y-129036469D01*
X108959861Y-129023938D01*
X109000868Y-129013771D01*
X109027839Y-129005149D01*
X109044412Y-128997255D01*
X109054225Y-128989273D01*
X109055365Y-128987933D01*
X109071412Y-128960003D01*
X109095157Y-128908896D01*
X109124299Y-128840608D01*
X109156537Y-128761134D01*
X109189570Y-128676471D01*
X109221096Y-128592613D01*
X109248814Y-128515556D01*
X109270423Y-128451296D01*
X109283621Y-128405828D01*
X109286107Y-128385148D01*
X109284445Y-128382465D01*
X109267235Y-128356516D01*
X109234870Y-128308655D01*
X109190350Y-128243290D01*
X109136677Y-128164830D01*
X109076851Y-128077685D01*
X109060433Y-128053708D01*
X109002697Y-127967705D01*
X108952800Y-127890789D01*
X108913591Y-127827523D01*
X108887917Y-127782468D01*
X108878626Y-127760185D01*
X108880628Y-127754327D01*
X108901497Y-127725459D01*
X108942669Y-127678320D01*
X109001197Y-127616080D01*
X109074133Y-127541913D01*
X109158527Y-127458992D01*
X109206766Y-127412579D01*
X109283038Y-127340292D01*
X109349795Y-127278376D01*
X109403454Y-127230089D01*
X109440430Y-127198693D01*
X109457137Y-127187446D01*
X109468615Y-127191616D01*
X109503955Y-127211337D01*
X109555277Y-127243590D01*
X109615887Y-127284289D01*
X109658980Y-127313989D01*
X109745013Y-127372970D01*
X109836821Y-127435610D01*
X109920677Y-127492531D01*
X110084947Y-127603641D01*
X110222840Y-127529084D01*
X110255310Y-127511875D01*
X110314358Y-127482440D01*
X110360021Y-127462117D01*
X110384426Y-127454540D01*
X110392412Y-127464270D01*
X110412244Y-127501321D01*
X110441538Y-127562407D01*
X110478662Y-127643651D01*
X110521987Y-127741177D01*
X110569882Y-127851109D01*
X110620719Y-127969568D01*
X110672867Y-128092679D01*
X110724696Y-128216565D01*
X110774576Y-128337350D01*
X110820877Y-128451156D01*
X110861969Y-128554107D01*
X110896222Y-128642327D01*
X110922007Y-128711938D01*
X110937692Y-128759064D01*
X110941649Y-128779828D01*
X110941381Y-128780435D01*
X110922950Y-128799630D01*
X110884398Y-128829694D01*
X110833684Y-128864391D01*
X110817676Y-128874986D01*
X110695875Y-128975502D01*
X110595071Y-129095223D01*
X110517649Y-129229166D01*
X110465996Y-129372347D01*
X110442500Y-129519784D01*
X110449546Y-129666493D01*
X110478090Y-129796980D01*
X110529341Y-129928743D01*
X110604055Y-130046294D01*
X110706586Y-130157958D01*
X110746873Y-130193631D01*
X110877111Y-130281520D01*
X111017803Y-130340712D01*
X111164873Y-130371735D01*
X111314242Y-130375121D01*
X111461833Y-130351398D01*
X111603571Y-130301096D01*
X111735377Y-130224745D01*
X111853174Y-130122875D01*
X111952886Y-129996016D01*
X111972057Y-129964600D01*
X112037217Y-129821008D01*
X112071823Y-129671483D01*
X112076782Y-129519895D01*
X112052999Y-129370118D01*
X112001381Y-129226024D01*
X111922834Y-129091485D01*
X111818264Y-128970375D01*
X111688578Y-128866566D01*
X111684366Y-128863768D01*
X111634190Y-128828410D01*
X111596583Y-128798347D01*
X111579406Y-128779828D01*
X111581574Y-128765310D01*
X111595049Y-128723035D01*
X111618942Y-128657514D01*
X111651625Y-128572623D01*
X111691467Y-128472241D01*
X111736840Y-128360243D01*
X111786113Y-128240509D01*
X111837659Y-128116916D01*
X111889846Y-127993341D01*
X111941047Y-127873661D01*
X111989632Y-127761755D01*
X112033970Y-127661500D01*
X112072434Y-127576773D01*
X112103394Y-127511453D01*
X112125221Y-127469416D01*
X112136284Y-127454540D01*
X112145484Y-127456554D01*
X112181629Y-127471034D01*
X112235049Y-127496422D01*
X112297869Y-127529084D01*
X112435762Y-127603641D01*
X112600032Y-127492531D01*
X112648564Y-127459630D01*
X112738834Y-127398155D01*
X112828829Y-127336582D01*
X112904823Y-127284289D01*
X112946763Y-127255791D01*
X113001274Y-127220384D01*
X113041691Y-127196145D01*
X113061432Y-127187158D01*
X113069913Y-127190974D01*
X113069913Y-127190974D01*
G37*
X113069913Y-127190974D02*
X113100571Y-127214344D01*
X113147832Y-127255490D01*
X113207584Y-127310365D01*
X113275712Y-127374923D01*
X113348104Y-127445115D01*
X113420644Y-127516894D01*
X113489220Y-127586214D01*
X113549718Y-127649027D01*
X113598024Y-127701286D01*
X113630024Y-127738943D01*
X113641605Y-127757952D01*
X113640937Y-127761569D01*
X113627153Y-127791007D01*
X113597708Y-127841938D01*
X113555447Y-127909762D01*
X113503215Y-127989877D01*
X113443858Y-128077685D01*
X113427211Y-128101904D01*
X113368756Y-128187132D01*
X113317267Y-128262479D01*
X113275744Y-128323537D01*
X113247189Y-128365896D01*
X113234602Y-128385148D01*
X113234293Y-128385973D01*
X113238007Y-128409527D01*
X113252193Y-128457241D01*
X113274549Y-128523121D01*
X113302773Y-128601170D01*
X113334565Y-128685393D01*
X113367622Y-128769795D01*
X113399644Y-128848379D01*
X113428329Y-128915150D01*
X113451377Y-128964114D01*
X113466485Y-128989273D01*
X113467998Y-128990835D01*
X113478815Y-128998737D01*
X113497085Y-129006706D01*
X113526444Y-129015559D01*
X113570530Y-129026113D01*
X113632982Y-129039185D01*
X113717436Y-129055592D01*
X113827531Y-129076152D01*
X113966905Y-129101681D01*
X113995813Y-129107054D01*
X114078623Y-129123663D01*
X114148282Y-129139400D01*
X114198188Y-129152702D01*
X114221741Y-129162007D01*
X114225681Y-129169770D01*
X114232250Y-129207058D01*
X114237456Y-129268875D01*
X114241294Y-129349428D01*
X114243761Y-129442925D01*
X114244853Y-129543574D01*
X114244565Y-129645583D01*
X114242893Y-129743161D01*
X114239835Y-129830515D01*
X114235385Y-129901853D01*
X114229540Y-129951383D01*
X114222296Y-129973314D01*
X114214899Y-129976554D01*
X114178104Y-129986767D01*
X114115909Y-130001211D01*
X114033277Y-130018811D01*
X113935172Y-130038490D01*
X113826556Y-130059170D01*
X113767250Y-130070219D01*
X113665602Y-130089379D01*
X113578110Y-130106156D01*
X113509451Y-130119639D01*
X113464307Y-130128916D01*
X113447356Y-130133074D01*
X113446719Y-130133931D01*
X113435923Y-130155707D01*
X113415343Y-130201329D01*
X113387551Y-130264742D01*
X113355118Y-130339893D01*
X113320618Y-130420730D01*
X113286622Y-130501201D01*
X113255703Y-130575251D01*
X113230434Y-130636828D01*
X113213385Y-130679879D01*
X113207131Y-130698350D01*
X113209890Y-130704850D01*
X113228250Y-130735778D01*
X113261554Y-130787837D01*
X113307126Y-130856941D01*
X113362289Y-130939007D01*
X113424368Y-131029948D01*
X113458427Y-131079752D01*
X113517203Y-131167069D01*
X113567597Y-131243702D01*
X113606920Y-131305469D01*
X113632486Y-131348194D01*
X113641605Y-131367695D01*
X113635268Y-131378273D01*
X113608763Y-131409881D01*
X113565280Y-131457717D01*
X113508811Y-131517727D01*
X113443347Y-131585858D01*
X113372879Y-131658055D01*
X113301399Y-131730267D01*
X113232900Y-131798438D01*
X113171371Y-131858517D01*
X113120806Y-131906449D01*
X113085195Y-131938180D01*
X113068530Y-131949658D01*
X113059280Y-131945195D01*
X113025311Y-131924498D01*
X112970495Y-131889273D01*
X112898782Y-131842104D01*
X112814122Y-131785569D01*
X112720465Y-131722252D01*
X112386041Y-131494846D01*
X111828513Y-131724678D01*
X111752964Y-132125424D01*
X111677415Y-132526171D01*
X110843294Y-132526171D01*
X110767746Y-132125424D01*
X110692197Y-131724678D01*
X110413433Y-131609762D01*
X110134668Y-131494846D01*
X109800244Y-131722252D01*
X109734054Y-131767083D01*
X109646307Y-131825929D01*
X109570337Y-131876190D01*
X109510089Y-131915285D01*
X109469509Y-131940635D01*
X109452543Y-131949658D01*
X109442123Y-131943241D01*
X109410975Y-131916353D01*
X109363839Y-131872226D01*
X109304707Y-131814913D01*
X109237574Y-131748465D01*
X109166434Y-131676935D01*
X109095281Y-131604374D01*
X109028108Y-131534833D01*
X108968910Y-131472365D01*
X108921681Y-131421022D01*
X108890414Y-131384855D01*
X108879105Y-131367917D01*
X108881736Y-131360639D01*
X108899952Y-131328176D01*
X108933218Y-131274751D01*
X108978836Y-131204551D01*
X109034110Y-131121764D01*
X109096342Y-131030579D01*
X109130494Y-130980848D01*
X109189243Y-130894269D01*
X109239612Y-130818709D01*
X109278914Y-130758267D01*
X109304465Y-130717039D01*
X109313578Y-130699124D01*
X109313429Y-130698131D01*
X109305389Y-130675420D01*
X109286946Y-130629045D01*
X109260669Y-130565063D01*
X109229129Y-130489532D01*
X109194898Y-130408511D01*
X109160546Y-130328057D01*
X109128645Y-130254228D01*
X109101765Y-130193082D01*
X109082478Y-130150678D01*
X109073354Y-130133074D01*
X109067955Y-130131512D01*
X109035154Y-130124469D01*
X108976694Y-130112801D01*
X108897254Y-130097420D01*
X108801514Y-130079240D01*
X108694154Y-130059170D01*
X108637569Y-130048529D01*
X108533711Y-130028227D01*
X108442903Y-130009478D01*
X108370109Y-129993358D01*
X108320292Y-129980944D01*
X108298414Y-129973314D01*
X108294484Y-129965750D01*
X108287966Y-129928791D01*
X108282844Y-129867235D01*
X108279116Y-129786873D01*
X108276777Y-129693497D01*
X108275823Y-129592899D01*
X108276251Y-129490872D01*
X108278055Y-129393207D01*
X108281234Y-129305696D01*
X108285781Y-129234131D01*
X108291694Y-129184304D01*
X108298969Y-129162007D01*
X108303383Y-129159492D01*
X108336306Y-129148704D01*
X108393418Y-129134431D01*
X108468118Y-129118236D01*
X108553804Y-129101681D01*
X108582715Y-129096408D01*
X108716245Y-129071887D01*
X108821187Y-129052179D01*
X108901180Y-129036469D01*
X108959861Y-129023938D01*
X109000868Y-129013771D01*
X109027839Y-129005149D01*
X109044412Y-128997255D01*
X109054225Y-128989273D01*
X109055365Y-128987933D01*
X109071412Y-128960003D01*
X109095157Y-128908896D01*
X109124299Y-128840608D01*
X109156537Y-128761134D01*
X109189570Y-128676471D01*
X109221096Y-128592613D01*
X109248814Y-128515556D01*
X109270423Y-128451296D01*
X109283621Y-128405828D01*
X109286107Y-128385148D01*
X109284445Y-128382465D01*
X109267235Y-128356516D01*
X109234870Y-128308655D01*
X109190350Y-128243290D01*
X109136677Y-128164830D01*
X109076851Y-128077685D01*
X109060433Y-128053708D01*
X109002697Y-127967705D01*
X108952800Y-127890789D01*
X108913591Y-127827523D01*
X108887917Y-127782468D01*
X108878626Y-127760185D01*
X108880628Y-127754327D01*
X108901497Y-127725459D01*
X108942669Y-127678320D01*
X109001197Y-127616080D01*
X109074133Y-127541913D01*
X109158527Y-127458992D01*
X109206766Y-127412579D01*
X109283038Y-127340292D01*
X109349795Y-127278376D01*
X109403454Y-127230089D01*
X109440430Y-127198693D01*
X109457137Y-127187446D01*
X109468615Y-127191616D01*
X109503955Y-127211337D01*
X109555277Y-127243590D01*
X109615887Y-127284289D01*
X109658980Y-127313989D01*
X109745013Y-127372970D01*
X109836821Y-127435610D01*
X109920677Y-127492531D01*
X110084947Y-127603641D01*
X110222840Y-127529084D01*
X110255310Y-127511875D01*
X110314358Y-127482440D01*
X110360021Y-127462117D01*
X110384426Y-127454540D01*
X110392412Y-127464270D01*
X110412244Y-127501321D01*
X110441538Y-127562407D01*
X110478662Y-127643651D01*
X110521987Y-127741177D01*
X110569882Y-127851109D01*
X110620719Y-127969568D01*
X110672867Y-128092679D01*
X110724696Y-128216565D01*
X110774576Y-128337350D01*
X110820877Y-128451156D01*
X110861969Y-128554107D01*
X110896222Y-128642327D01*
X110922007Y-128711938D01*
X110937692Y-128759064D01*
X110941649Y-128779828D01*
X110941381Y-128780435D01*
X110922950Y-128799630D01*
X110884398Y-128829694D01*
X110833684Y-128864391D01*
X110817676Y-128874986D01*
X110695875Y-128975502D01*
X110595071Y-129095223D01*
X110517649Y-129229166D01*
X110465996Y-129372347D01*
X110442500Y-129519784D01*
X110449546Y-129666493D01*
X110478090Y-129796980D01*
X110529341Y-129928743D01*
X110604055Y-130046294D01*
X110706586Y-130157958D01*
X110746873Y-130193631D01*
X110877111Y-130281520D01*
X111017803Y-130340712D01*
X111164873Y-130371735D01*
X111314242Y-130375121D01*
X111461833Y-130351398D01*
X111603571Y-130301096D01*
X111735377Y-130224745D01*
X111853174Y-130122875D01*
X111952886Y-129996016D01*
X111972057Y-129964600D01*
X112037217Y-129821008D01*
X112071823Y-129671483D01*
X112076782Y-129519895D01*
X112052999Y-129370118D01*
X112001381Y-129226024D01*
X111922834Y-129091485D01*
X111818264Y-128970375D01*
X111688578Y-128866566D01*
X111684366Y-128863768D01*
X111634190Y-128828410D01*
X111596583Y-128798347D01*
X111579406Y-128779828D01*
X111581574Y-128765310D01*
X111595049Y-128723035D01*
X111618942Y-128657514D01*
X111651625Y-128572623D01*
X111691467Y-128472241D01*
X111736840Y-128360243D01*
X111786113Y-128240509D01*
X111837659Y-128116916D01*
X111889846Y-127993341D01*
X111941047Y-127873661D01*
X111989632Y-127761755D01*
X112033970Y-127661500D01*
X112072434Y-127576773D01*
X112103394Y-127511453D01*
X112125221Y-127469416D01*
X112136284Y-127454540D01*
X112145484Y-127456554D01*
X112181629Y-127471034D01*
X112235049Y-127496422D01*
X112297869Y-127529084D01*
X112435762Y-127603641D01*
X112600032Y-127492531D01*
X112648564Y-127459630D01*
X112738834Y-127398155D01*
X112828829Y-127336582D01*
X112904823Y-127284289D01*
X112946763Y-127255791D01*
X113001274Y-127220384D01*
X113041691Y-127196145D01*
X113061432Y-127187158D01*
X113069913Y-127190974D01*
G36*
X113390947Y-126336517D02*
G01*
X113436642Y-126378866D01*
X113450918Y-126390902D01*
X113493442Y-126411466D01*
X113545808Y-126412290D01*
X113617111Y-126394144D01*
X113641148Y-126392995D01*
X113669344Y-126410598D01*
X113706874Y-126452438D01*
X113725079Y-126475581D01*
X113746609Y-126508258D01*
X113749927Y-126529058D01*
X113737872Y-126546605D01*
X113700865Y-126568794D01*
X113643388Y-126586355D01*
X113581028Y-126595062D01*
X113528316Y-126591784D01*
X113487350Y-126578995D01*
X113436901Y-126557739D01*
X113412474Y-126546316D01*
X113394845Y-126544251D01*
X113390947Y-126560084D01*
X113390943Y-126560532D01*
X113382688Y-126575649D01*
X113354219Y-126583397D01*
X113299039Y-126585579D01*
X113207131Y-126585579D01*
X113207131Y-125783474D01*
X113390947Y-125783474D01*
X113390947Y-126336517D01*
X113390947Y-126336517D01*
G37*
X113390947Y-126336517D02*
X113436642Y-126378866D01*
X113450918Y-126390902D01*
X113493442Y-126411466D01*
X113545808Y-126412290D01*
X113617111Y-126394144D01*
X113641148Y-126392995D01*
X113669344Y-126410598D01*
X113706874Y-126452438D01*
X113725079Y-126475581D01*
X113746609Y-126508258D01*
X113749927Y-126529058D01*
X113737872Y-126546605D01*
X113700865Y-126568794D01*
X113643388Y-126586355D01*
X113581028Y-126595062D01*
X113528316Y-126591784D01*
X113487350Y-126578995D01*
X113436901Y-126557739D01*
X113412474Y-126546316D01*
X113394845Y-126544251D01*
X113390947Y-126560084D01*
X113390943Y-126560532D01*
X113382688Y-126575649D01*
X113354219Y-126583397D01*
X113299039Y-126585579D01*
X113207131Y-126585579D01*
X113207131Y-125783474D01*
X113390947Y-125783474D01*
X113390947Y-126336517D01*
G36*
X109948578Y-126059957D02*
G01*
X109948704Y-126153320D01*
X109949564Y-126230012D01*
X109951863Y-126283678D01*
X109956310Y-126319788D01*
X109963610Y-126343809D01*
X109974470Y-126361209D01*
X109989595Y-126377457D01*
X110010199Y-126394739D01*
X110069445Y-126417958D01*
X110131634Y-126411143D01*
X110188602Y-126374419D01*
X110204885Y-126357327D01*
X110216574Y-126340029D01*
X110224414Y-126317010D01*
X110229173Y-126282729D01*
X110231621Y-126231647D01*
X110232527Y-126158223D01*
X110232657Y-126056919D01*
X110232657Y-125783474D01*
X110416473Y-125783474D01*
X110416106Y-126080086D01*
X110416081Y-126093298D01*
X110414487Y-126219465D01*
X110409592Y-126317472D01*
X110400136Y-126392085D01*
X110384861Y-126448069D01*
X110362510Y-126490191D01*
X110331825Y-126523216D01*
X110291546Y-126551910D01*
X110249957Y-126571774D01*
X110166200Y-126589822D01*
X110079063Y-126587160D01*
X110002888Y-126563227D01*
X109969301Y-126546960D01*
X109952408Y-126545280D01*
X109948578Y-126560084D01*
X109948575Y-126560532D01*
X109940320Y-126575649D01*
X109911851Y-126583397D01*
X109856671Y-126585579D01*
X109764763Y-126585579D01*
X109764763Y-125783474D01*
X109948578Y-125783474D01*
X109948578Y-126059957D01*
X109948578Y-126059957D01*
G37*
X109948578Y-126059957D02*
X109948704Y-126153320D01*
X109949564Y-126230012D01*
X109951863Y-126283678D01*
X109956310Y-126319788D01*
X109963610Y-126343809D01*
X109974470Y-126361209D01*
X109989595Y-126377457D01*
X110010199Y-126394739D01*
X110069445Y-126417958D01*
X110131634Y-126411143D01*
X110188602Y-126374419D01*
X110204885Y-126357327D01*
X110216574Y-126340029D01*
X110224414Y-126317010D01*
X110229173Y-126282729D01*
X110231621Y-126231647D01*
X110232527Y-126158223D01*
X110232657Y-126056919D01*
X110232657Y-125783474D01*
X110416473Y-125783474D01*
X110416106Y-126080086D01*
X110416081Y-126093298D01*
X110414487Y-126219465D01*
X110409592Y-126317472D01*
X110400136Y-126392085D01*
X110384861Y-126448069D01*
X110362510Y-126490191D01*
X110331825Y-126523216D01*
X110291546Y-126551910D01*
X110249957Y-126571774D01*
X110166200Y-126589822D01*
X110079063Y-126587160D01*
X110002888Y-126563227D01*
X109969301Y-126546960D01*
X109952408Y-126545280D01*
X109948578Y-126560084D01*
X109948575Y-126560532D01*
X109940320Y-126575649D01*
X109911851Y-126583397D01*
X109856671Y-126585579D01*
X109764763Y-126585579D01*
X109764763Y-125783474D01*
X109948578Y-125783474D01*
X109948578Y-126059957D01*
G36*
X114417784Y-126110471D02*
G01*
X114418064Y-126107956D01*
X114442091Y-125990595D01*
X114485501Y-125899348D01*
X114549647Y-125832209D01*
X114635881Y-125787176D01*
X114651711Y-125782026D01*
X114749827Y-125766849D01*
X114851302Y-125775312D01*
X114945641Y-125805555D01*
X115022351Y-125855715D01*
X115079810Y-125908803D01*
X115018734Y-125957096D01*
X114957659Y-126005389D01*
X114884053Y-125969629D01*
X114798885Y-125940653D01*
X114723699Y-125939785D01*
X114662184Y-125966408D01*
X114617917Y-126019845D01*
X114602048Y-126051864D01*
X114593189Y-126079229D01*
X114598315Y-126097715D01*
X114621313Y-126109062D01*
X114666069Y-126115013D01*
X114736471Y-126117307D01*
X114836407Y-126117684D01*
X115078710Y-126117684D01*
X115078710Y-126233570D01*
X115076529Y-126294862D01*
X115070124Y-126355504D01*
X115060975Y-126396498D01*
X115054305Y-126412148D01*
X115005757Y-126481851D01*
X114935609Y-126539987D01*
X114853574Y-126578051D01*
X114810784Y-126588446D01*
X114708830Y-126593178D01*
X114617985Y-126569107D01*
X114540747Y-126518912D01*
X114479611Y-126445273D01*
X114437074Y-126350867D01*
X114424329Y-126284003D01*
X114594105Y-126284003D01*
X114598094Y-126309892D01*
X114626212Y-126359430D01*
X114673068Y-126400125D01*
X114728926Y-126424705D01*
X114784049Y-126425895D01*
X114825542Y-126406185D01*
X114872560Y-126361332D01*
X114902455Y-126305678D01*
X114904206Y-126299755D01*
X114906294Y-126284445D01*
X114898100Y-126275088D01*
X114873840Y-126270217D01*
X114827728Y-126268370D01*
X114753981Y-126268079D01*
X114714434Y-126268543D01*
X114652029Y-126271612D01*
X114609697Y-126276987D01*
X114594105Y-126284003D01*
X114424329Y-126284003D01*
X114415633Y-126238373D01*
X114417784Y-126110471D01*
X114417784Y-126110471D01*
G37*
X114417784Y-126110471D02*
X114418064Y-126107956D01*
X114442091Y-125990595D01*
X114485501Y-125899348D01*
X114549647Y-125832209D01*
X114635881Y-125787176D01*
X114651711Y-125782026D01*
X114749827Y-125766849D01*
X114851302Y-125775312D01*
X114945641Y-125805555D01*
X115022351Y-125855715D01*
X115079810Y-125908803D01*
X115018734Y-125957096D01*
X114957659Y-126005389D01*
X114884053Y-125969629D01*
X114798885Y-125940653D01*
X114723699Y-125939785D01*
X114662184Y-125966408D01*
X114617917Y-126019845D01*
X114602048Y-126051864D01*
X114593189Y-126079229D01*
X114598315Y-126097715D01*
X114621313Y-126109062D01*
X114666069Y-126115013D01*
X114736471Y-126117307D01*
X114836407Y-126117684D01*
X115078710Y-126117684D01*
X115078710Y-126233570D01*
X115076529Y-126294862D01*
X115070124Y-126355504D01*
X115060975Y-126396498D01*
X115054305Y-126412148D01*
X115005757Y-126481851D01*
X114935609Y-126539987D01*
X114853574Y-126578051D01*
X114810784Y-126588446D01*
X114708830Y-126593178D01*
X114617985Y-126569107D01*
X114540747Y-126518912D01*
X114479611Y-126445273D01*
X114437074Y-126350867D01*
X114424329Y-126284003D01*
X114594105Y-126284003D01*
X114598094Y-126309892D01*
X114626212Y-126359430D01*
X114673068Y-126400125D01*
X114728926Y-126424705D01*
X114784049Y-126425895D01*
X114825542Y-126406185D01*
X114872560Y-126361332D01*
X114902455Y-126305678D01*
X114904206Y-126299755D01*
X114906294Y-126284445D01*
X114898100Y-126275088D01*
X114873840Y-126270217D01*
X114827728Y-126268370D01*
X114753981Y-126268079D01*
X114714434Y-126268543D01*
X114652029Y-126271612D01*
X114609697Y-126276987D01*
X114594105Y-126284003D01*
X114424329Y-126284003D01*
X114415633Y-126238373D01*
X114417784Y-126110471D01*
G36*
X114241698Y-125798487D02*
G01*
X114335318Y-125854858D01*
X114395912Y-125904804D01*
X114341336Y-125961113D01*
X114306856Y-125994470D01*
X114275668Y-126013042D01*
X114246750Y-126008953D01*
X114209763Y-125984000D01*
X114195015Y-125974232D01*
X114132709Y-125954238D01*
X114061097Y-125954251D01*
X113994050Y-125974857D01*
X113968804Y-125991405D01*
X113931772Y-126040270D01*
X113913208Y-126112042D01*
X113912013Y-126209864D01*
X113912017Y-126209919D01*
X113925829Y-126297438D01*
X113956256Y-126358119D01*
X114006324Y-126395655D01*
X114079059Y-126413739D01*
X114124863Y-126416171D01*
X114164884Y-126406211D01*
X114205930Y-126377358D01*
X114259046Y-126332664D01*
X114326312Y-126386721D01*
X114350887Y-126407430D01*
X114381584Y-126437101D01*
X114393578Y-126454587D01*
X114389331Y-126462467D01*
X114364865Y-126486660D01*
X114325890Y-126517429D01*
X114295395Y-126537451D01*
X114198576Y-126578581D01*
X114097543Y-126592943D01*
X113998390Y-126581753D01*
X113907209Y-126546229D01*
X113830093Y-126487587D01*
X113773136Y-126407044D01*
X113769290Y-126398831D01*
X113744870Y-126318733D01*
X113732670Y-126223052D01*
X113732766Y-126123431D01*
X113745236Y-126031512D01*
X113770157Y-125958934D01*
X113800927Y-125908350D01*
X113868656Y-125836690D01*
X113953343Y-125791138D01*
X114025798Y-125772718D01*
X114136125Y-125770707D01*
X114241698Y-125798487D01*
X114241698Y-125798487D01*
G37*
X114241698Y-125798487D02*
X114335318Y-125854858D01*
X114395912Y-125904804D01*
X114341336Y-125961113D01*
X114306856Y-125994470D01*
X114275668Y-126013042D01*
X114246750Y-126008953D01*
X114209763Y-125984000D01*
X114195015Y-125974232D01*
X114132709Y-125954238D01*
X114061097Y-125954251D01*
X113994050Y-125974857D01*
X113968804Y-125991405D01*
X113931772Y-126040270D01*
X113913208Y-126112042D01*
X113912013Y-126209864D01*
X113912017Y-126209919D01*
X113925829Y-126297438D01*
X113956256Y-126358119D01*
X114006324Y-126395655D01*
X114079059Y-126413739D01*
X114124863Y-126416171D01*
X114164884Y-126406211D01*
X114205930Y-126377358D01*
X114259046Y-126332664D01*
X114326312Y-126386721D01*
X114350887Y-126407430D01*
X114381584Y-126437101D01*
X114393578Y-126454587D01*
X114389331Y-126462467D01*
X114364865Y-126486660D01*
X114325890Y-126517429D01*
X114295395Y-126537451D01*
X114198576Y-126578581D01*
X114097543Y-126592943D01*
X113998390Y-126581753D01*
X113907209Y-126546229D01*
X113830093Y-126487587D01*
X113773136Y-126407044D01*
X113769290Y-126398831D01*
X113744870Y-126318733D01*
X113732670Y-126223052D01*
X113732766Y-126123431D01*
X113745236Y-126031512D01*
X113770157Y-125958934D01*
X113800927Y-125908350D01*
X113868656Y-125836690D01*
X113953343Y-125791138D01*
X114025798Y-125772718D01*
X114136125Y-125770707D01*
X114241698Y-125798487D01*
G36*
X112810504Y-125800217D02*
G01*
X112849014Y-125819083D01*
X112868120Y-125821903D01*
X112872921Y-125808572D01*
X112880891Y-125793604D01*
X112909422Y-125785719D01*
X112964828Y-125783474D01*
X113056736Y-125783474D01*
X113056736Y-126585579D01*
X112872921Y-126585579D01*
X112872921Y-126325467D01*
X112871511Y-126208450D01*
X112865993Y-126113942D01*
X112854815Y-126045249D01*
X112836428Y-125998522D01*
X112809283Y-125969911D01*
X112771832Y-125955568D01*
X112722526Y-125951642D01*
X112675448Y-125955146D01*
X112637426Y-125968861D01*
X112609790Y-125996645D01*
X112590991Y-126042349D01*
X112579481Y-126109821D01*
X112573710Y-126202911D01*
X112572131Y-126325467D01*
X112572131Y-126585579D01*
X112405026Y-126585579D01*
X112405026Y-126271996D01*
X112405312Y-126188295D01*
X112407541Y-126080057D01*
X112413131Y-125997511D01*
X112423439Y-125935932D01*
X112439817Y-125890595D01*
X112463621Y-125856774D01*
X112496204Y-125829743D01*
X112538921Y-125804779D01*
X112628623Y-125773175D01*
X112722239Y-125771113D01*
X112810504Y-125800217D01*
X112810504Y-125800217D01*
G37*
X112810504Y-125800217D02*
X112849014Y-125819083D01*
X112868120Y-125821903D01*
X112872921Y-125808572D01*
X112880891Y-125793604D01*
X112909422Y-125785719D01*
X112964828Y-125783474D01*
X113056736Y-125783474D01*
X113056736Y-126585579D01*
X112872921Y-126585579D01*
X112872921Y-126325467D01*
X112871511Y-126208450D01*
X112865993Y-126113942D01*
X112854815Y-126045249D01*
X112836428Y-125998522D01*
X112809283Y-125969911D01*
X112771832Y-125955568D01*
X112722526Y-125951642D01*
X112675448Y-125955146D01*
X112637426Y-125968861D01*
X112609790Y-125996645D01*
X112590991Y-126042349D01*
X112579481Y-126109821D01*
X112573710Y-126202911D01*
X112572131Y-126325467D01*
X112572131Y-126585579D01*
X112405026Y-126585579D01*
X112405026Y-126271996D01*
X112405312Y-126188295D01*
X112407541Y-126080057D01*
X112413131Y-125997511D01*
X112423439Y-125935932D01*
X112439817Y-125890595D01*
X112463621Y-125856774D01*
X112496204Y-125829743D01*
X112538921Y-125804779D01*
X112628623Y-125773175D01*
X112722239Y-125771113D01*
X112810504Y-125800217D01*
G36*
X111611680Y-126073999D02*
G01*
X111632286Y-125973035D01*
X111669143Y-125895993D01*
X111725239Y-125837799D01*
X111803566Y-125793383D01*
X111833977Y-125782812D01*
X111912737Y-125769623D01*
X111995616Y-125769982D01*
X112065550Y-125784469D01*
X112066924Y-125784995D01*
X112123282Y-125818148D01*
X112180220Y-125869470D01*
X112227465Y-125928160D01*
X112254745Y-125983416D01*
X112262831Y-126023807D01*
X112269754Y-126099431D01*
X112271237Y-126185558D01*
X112267522Y-126271281D01*
X112258855Y-126345695D01*
X112245478Y-126397894D01*
X112214321Y-126456994D01*
X112148192Y-126529660D01*
X112063669Y-126575690D01*
X111963266Y-126593910D01*
X111849495Y-126583142D01*
X111830565Y-126578555D01*
X111742405Y-126539000D01*
X111675972Y-126474059D01*
X111631265Y-126383729D01*
X111608282Y-126268006D01*
X111607613Y-126193337D01*
X111786736Y-126193337D01*
X111786833Y-126221250D01*
X111788929Y-126277810D01*
X111795900Y-126314706D01*
X111810525Y-126341969D01*
X111835582Y-126369628D01*
X111883264Y-126403151D01*
X111945337Y-126416857D01*
X112005311Y-126403803D01*
X112055109Y-126366049D01*
X112086655Y-126305651D01*
X112097642Y-126253498D01*
X112102558Y-126166839D01*
X112092493Y-126085986D01*
X112068849Y-126019549D01*
X112033027Y-125976138D01*
X112019449Y-125968684D01*
X111967673Y-125955136D01*
X111907787Y-125952349D01*
X111857404Y-125961763D01*
X111837740Y-125975264D01*
X111810138Y-126022477D01*
X111792770Y-126096370D01*
X111786736Y-126193337D01*
X111607613Y-126193337D01*
X111607018Y-126126884D01*
X111611680Y-126073999D01*
X111611680Y-126073999D01*
G37*
X111611680Y-126073999D02*
X111632286Y-125973035D01*
X111669143Y-125895993D01*
X111725239Y-125837799D01*
X111803566Y-125793383D01*
X111833977Y-125782812D01*
X111912737Y-125769623D01*
X111995616Y-125769982D01*
X112065550Y-125784469D01*
X112066924Y-125784995D01*
X112123282Y-125818148D01*
X112180220Y-125869470D01*
X112227465Y-125928160D01*
X112254745Y-125983416D01*
X112262831Y-126023807D01*
X112269754Y-126099431D01*
X112271237Y-126185558D01*
X112267522Y-126271281D01*
X112258855Y-126345695D01*
X112245478Y-126397894D01*
X112214321Y-126456994D01*
X112148192Y-126529660D01*
X112063669Y-126575690D01*
X111963266Y-126593910D01*
X111849495Y-126583142D01*
X111830565Y-126578555D01*
X111742405Y-126539000D01*
X111675972Y-126474059D01*
X111631265Y-126383729D01*
X111608282Y-126268006D01*
X111607613Y-126193337D01*
X111786736Y-126193337D01*
X111786833Y-126221250D01*
X111788929Y-126277810D01*
X111795900Y-126314706D01*
X111810525Y-126341969D01*
X111835582Y-126369628D01*
X111883264Y-126403151D01*
X111945337Y-126416857D01*
X112005311Y-126403803D01*
X112055109Y-126366049D01*
X112086655Y-126305651D01*
X112097642Y-126253498D01*
X112102558Y-126166839D01*
X112092493Y-126085986D01*
X112068849Y-126019549D01*
X112033027Y-125976138D01*
X112019449Y-125968684D01*
X111967673Y-125955136D01*
X111907787Y-125952349D01*
X111857404Y-125961763D01*
X111837740Y-125975264D01*
X111810138Y-126022477D01*
X111792770Y-126096370D01*
X111786736Y-126193337D01*
X111607613Y-126193337D01*
X111607018Y-126126884D01*
X111611680Y-126073999D01*
G36*
X111314194Y-125784933D02*
G01*
X111407855Y-125817223D01*
X111474151Y-125868514D01*
X111513240Y-125938935D01*
X111525278Y-126028613D01*
X111516564Y-126107503D01*
X111488592Y-126172093D01*
X111438232Y-126218349D01*
X111362297Y-126249112D01*
X111257600Y-126267222D01*
X111245575Y-126268533D01*
X111180389Y-126276894D01*
X111127510Y-126285643D01*
X111097427Y-126293087D01*
X111087388Y-126299080D01*
X111070416Y-126329987D01*
X111073172Y-126369550D01*
X111095854Y-126403895D01*
X111107764Y-126411385D01*
X111157394Y-126423387D01*
X111221500Y-126422580D01*
X111288347Y-126409808D01*
X111346201Y-126385914D01*
X111406992Y-126350046D01*
X111454146Y-126405148D01*
X111465588Y-126419147D01*
X111491366Y-126456647D01*
X111501978Y-126482063D01*
X111490834Y-126497647D01*
X111456356Y-126521974D01*
X111406572Y-126548152D01*
X111399557Y-126551352D01*
X111333908Y-126576452D01*
X111270628Y-126588453D01*
X111192100Y-126590863D01*
X111120601Y-126586121D01*
X111024091Y-126561932D01*
X110953589Y-126517098D01*
X110908693Y-126451319D01*
X110889001Y-126364293D01*
X110892988Y-126280977D01*
X110921765Y-126210703D01*
X110976952Y-126158746D01*
X111059652Y-126124090D01*
X111170974Y-126105721D01*
X111243308Y-126096094D01*
X111309330Y-126075263D01*
X111343417Y-126045096D01*
X111345474Y-126005648D01*
X111331757Y-125981051D01*
X111289274Y-125951899D01*
X111228883Y-125938111D01*
X111158111Y-125939996D01*
X111084488Y-125957867D01*
X111015543Y-125992033D01*
X110946803Y-126037523D01*
X110825881Y-125915165D01*
X110876013Y-125874245D01*
X110895506Y-125860027D01*
X110950350Y-125827725D01*
X111009697Y-125799891D01*
X111056665Y-125783917D01*
X111125438Y-125772346D01*
X111210223Y-125772193D01*
X111314194Y-125784933D01*
X111314194Y-125784933D01*
G37*
X111314194Y-125784933D02*
X111407855Y-125817223D01*
X111474151Y-125868514D01*
X111513240Y-125938935D01*
X111525278Y-126028613D01*
X111516564Y-126107503D01*
X111488592Y-126172093D01*
X111438232Y-126218349D01*
X111362297Y-126249112D01*
X111257600Y-126267222D01*
X111245575Y-126268533D01*
X111180389Y-126276894D01*
X111127510Y-126285643D01*
X111097427Y-126293087D01*
X111087388Y-126299080D01*
X111070416Y-126329987D01*
X111073172Y-126369550D01*
X111095854Y-126403895D01*
X111107764Y-126411385D01*
X111157394Y-126423387D01*
X111221500Y-126422580D01*
X111288347Y-126409808D01*
X111346201Y-126385914D01*
X111406992Y-126350046D01*
X111454146Y-126405148D01*
X111465588Y-126419147D01*
X111491366Y-126456647D01*
X111501978Y-126482063D01*
X111490834Y-126497647D01*
X111456356Y-126521974D01*
X111406572Y-126548152D01*
X111399557Y-126551352D01*
X111333908Y-126576452D01*
X111270628Y-126588453D01*
X111192100Y-126590863D01*
X111120601Y-126586121D01*
X111024091Y-126561932D01*
X110953589Y-126517098D01*
X110908693Y-126451319D01*
X110889001Y-126364293D01*
X110892988Y-126280977D01*
X110921765Y-126210703D01*
X110976952Y-126158746D01*
X111059652Y-126124090D01*
X111170974Y-126105721D01*
X111243308Y-126096094D01*
X111309330Y-126075263D01*
X111343417Y-126045096D01*
X111345474Y-126005648D01*
X111331757Y-125981051D01*
X111289274Y-125951899D01*
X111228883Y-125938111D01*
X111158111Y-125939996D01*
X111084488Y-125957867D01*
X111015543Y-125992033D01*
X110946803Y-126037523D01*
X110825881Y-125915165D01*
X110876013Y-125874245D01*
X110895506Y-125860027D01*
X110950350Y-125827725D01*
X111009697Y-125799891D01*
X111056665Y-125783917D01*
X111125438Y-125772346D01*
X111210223Y-125772193D01*
X111314194Y-125784933D01*
G36*
X108977611Y-126167862D02*
G01*
X108979072Y-126116784D01*
X108995546Y-126005157D01*
X109031849Y-125917144D01*
X109089880Y-125849116D01*
X109171539Y-125797449D01*
X109250754Y-125773330D01*
X109350129Y-125768715D01*
X109450393Y-125786463D01*
X109539828Y-125825673D01*
X109572970Y-125847485D01*
X109609485Y-125875444D01*
X109626147Y-125893842D01*
X109625202Y-125901433D01*
X109606552Y-125927297D01*
X109571502Y-125958633D01*
X109510759Y-126004964D01*
X109439582Y-125969416D01*
X109420335Y-125960617D01*
X109363677Y-125941494D01*
X109316189Y-125933869D01*
X109281172Y-125940152D01*
X109226222Y-125970409D01*
X109180033Y-126017380D01*
X109153613Y-126071730D01*
X109142850Y-126117684D01*
X109647789Y-126117684D01*
X109647696Y-126205415D01*
X109646931Y-126233219D01*
X109640634Y-126300551D01*
X109630074Y-126356266D01*
X109618499Y-126387457D01*
X109577805Y-126455300D01*
X109523305Y-126516914D01*
X109465670Y-126559134D01*
X109449018Y-126566973D01*
X109352055Y-126592979D01*
X109253040Y-126590238D01*
X109159948Y-126559908D01*
X109080756Y-126503152D01*
X109037922Y-126450810D01*
X109002899Y-126377072D01*
X108984175Y-126288314D01*
X109151489Y-126288314D01*
X109155419Y-126305678D01*
X109156019Y-126307647D01*
X109189873Y-126368070D01*
X109243243Y-126409671D01*
X109306885Y-126425158D01*
X109330409Y-126423920D01*
X109374072Y-126409104D01*
X109415959Y-126371421D01*
X109427242Y-126358097D01*
X109453487Y-126320044D01*
X109463973Y-126292881D01*
X109463648Y-126289463D01*
X109454460Y-126278819D01*
X109428496Y-126272280D01*
X109380221Y-126268986D01*
X109304097Y-126268079D01*
X109279077Y-126268090D01*
X109214098Y-126268690D01*
X109175036Y-126271285D01*
X109156097Y-126277338D01*
X109151489Y-126288314D01*
X108984175Y-126288314D01*
X108983457Y-126284909D01*
X108977611Y-126167862D01*
X108977611Y-126167862D01*
G37*
X108977611Y-126167862D02*
X108979072Y-126116784D01*
X108995546Y-126005157D01*
X109031849Y-125917144D01*
X109089880Y-125849116D01*
X109171539Y-125797449D01*
X109250754Y-125773330D01*
X109350129Y-125768715D01*
X109450393Y-125786463D01*
X109539828Y-125825673D01*
X109572970Y-125847485D01*
X109609485Y-125875444D01*
X109626147Y-125893842D01*
X109625202Y-125901433D01*
X109606552Y-125927297D01*
X109571502Y-125958633D01*
X109510759Y-126004964D01*
X109439582Y-125969416D01*
X109420335Y-125960617D01*
X109363677Y-125941494D01*
X109316189Y-125933869D01*
X109281172Y-125940152D01*
X109226222Y-125970409D01*
X109180033Y-126017380D01*
X109153613Y-126071730D01*
X109142850Y-126117684D01*
X109647789Y-126117684D01*
X109647696Y-126205415D01*
X109646931Y-126233219D01*
X109640634Y-126300551D01*
X109630074Y-126356266D01*
X109618499Y-126387457D01*
X109577805Y-126455300D01*
X109523305Y-126516914D01*
X109465670Y-126559134D01*
X109449018Y-126566973D01*
X109352055Y-126592979D01*
X109253040Y-126590238D01*
X109159948Y-126559908D01*
X109080756Y-126503152D01*
X109037922Y-126450810D01*
X109002899Y-126377072D01*
X108984175Y-126288314D01*
X109151489Y-126288314D01*
X109155419Y-126305678D01*
X109156019Y-126307647D01*
X109189873Y-126368070D01*
X109243243Y-126409671D01*
X109306885Y-126425158D01*
X109330409Y-126423920D01*
X109374072Y-126409104D01*
X109415959Y-126371421D01*
X109427242Y-126358097D01*
X109453487Y-126320044D01*
X109463973Y-126292881D01*
X109463648Y-126289463D01*
X109454460Y-126278819D01*
X109428496Y-126272280D01*
X109380221Y-126268986D01*
X109304097Y-126268079D01*
X109279077Y-126268090D01*
X109214098Y-126268690D01*
X109175036Y-126271285D01*
X109156097Y-126277338D01*
X109151489Y-126288314D01*
X108984175Y-126288314D01*
X108983457Y-126284909D01*
X108977611Y-126167862D01*
G36*
X107446727Y-126086299D02*
G01*
X107451624Y-126022481D01*
X107459967Y-125977248D01*
X107473744Y-125941407D01*
X107494943Y-125905764D01*
X107495846Y-125904413D01*
X107548047Y-125846665D01*
X107611917Y-125802620D01*
X107686187Y-125776483D01*
X107783890Y-125767997D01*
X107879650Y-125784684D01*
X107965245Y-125824894D01*
X108032455Y-125886978D01*
X108051750Y-125916312D01*
X108087784Y-126007504D01*
X108105656Y-126120016D01*
X108104277Y-126248376D01*
X108102518Y-126266582D01*
X108077976Y-126383188D01*
X108032570Y-126473710D01*
X107966205Y-126538246D01*
X107878784Y-126576896D01*
X107770209Y-126589757D01*
X107729189Y-126588550D01*
X107645066Y-126573780D01*
X107576278Y-126538526D01*
X107512146Y-126478172D01*
X107501890Y-126466058D01*
X107474226Y-126425263D01*
X107456045Y-126379070D01*
X107445964Y-126320532D01*
X107442599Y-126242701D01*
X107443671Y-126186090D01*
X107610743Y-126186090D01*
X107619689Y-126282572D01*
X107647140Y-126351648D01*
X107693219Y-126393699D01*
X107747234Y-126413835D01*
X107811651Y-126412140D01*
X107871363Y-126378145D01*
X107885639Y-126365203D01*
X107903653Y-126342560D01*
X107914341Y-126312936D01*
X107920271Y-126267518D01*
X107924012Y-126197494D01*
X107925751Y-126148476D01*
X107925412Y-126095250D01*
X107919769Y-126059716D01*
X107906911Y-126032411D01*
X107884928Y-126003876D01*
X107854421Y-125975560D01*
X107793408Y-125950290D01*
X107727894Y-125954984D01*
X107665281Y-125990104D01*
X107647619Y-126006878D01*
X107628761Y-126035593D01*
X107618304Y-126075954D01*
X107612376Y-126138846D01*
X107610743Y-126186090D01*
X107443671Y-126186090D01*
X107444569Y-126138632D01*
X107446727Y-126086299D01*
X107446727Y-126086299D01*
G37*
X107446727Y-126086299D02*
X107451624Y-126022481D01*
X107459967Y-125977248D01*
X107473744Y-125941407D01*
X107494943Y-125905764D01*
X107495846Y-125904413D01*
X107548047Y-125846665D01*
X107611917Y-125802620D01*
X107686187Y-125776483D01*
X107783890Y-125767997D01*
X107879650Y-125784684D01*
X107965245Y-125824894D01*
X108032455Y-125886978D01*
X108051750Y-125916312D01*
X108087784Y-126007504D01*
X108105656Y-126120016D01*
X108104277Y-126248376D01*
X108102518Y-126266582D01*
X108077976Y-126383188D01*
X108032570Y-126473710D01*
X107966205Y-126538246D01*
X107878784Y-126576896D01*
X107770209Y-126589757D01*
X107729189Y-126588550D01*
X107645066Y-126573780D01*
X107576278Y-126538526D01*
X107512146Y-126478172D01*
X107501890Y-126466058D01*
X107474226Y-126425263D01*
X107456045Y-126379070D01*
X107445964Y-126320532D01*
X107442599Y-126242701D01*
X107443671Y-126186090D01*
X107610743Y-126186090D01*
X107619689Y-126282572D01*
X107647140Y-126351648D01*
X107693219Y-126393699D01*
X107747234Y-126413835D01*
X107811651Y-126412140D01*
X107871363Y-126378145D01*
X107885639Y-126365203D01*
X107903653Y-126342560D01*
X107914341Y-126312936D01*
X107920271Y-126267518D01*
X107924012Y-126197494D01*
X107925751Y-126148476D01*
X107925412Y-126095250D01*
X107919769Y-126059716D01*
X107906911Y-126032411D01*
X107884928Y-126003876D01*
X107854421Y-125975560D01*
X107793408Y-125950290D01*
X107727894Y-125954984D01*
X107665281Y-125990104D01*
X107647619Y-126006878D01*
X107628761Y-126035593D01*
X107618304Y-126075954D01*
X107612376Y-126138846D01*
X107610743Y-126186090D01*
X107443671Y-126186090D01*
X107444569Y-126138632D01*
X107446727Y-126086299D01*
G36*
X113560755Y-124860502D02*
G01*
X113580545Y-124741206D01*
X113621266Y-124647402D01*
X113683276Y-124578419D01*
X113766934Y-124533588D01*
X113793963Y-124525668D01*
X113890476Y-124514605D01*
X113992385Y-124523941D01*
X114084434Y-124552754D01*
X114116862Y-124569108D01*
X114163357Y-124597122D01*
X114191535Y-124620173D01*
X114195695Y-124625440D01*
X114203478Y-124644701D01*
X114192264Y-124665639D01*
X114158114Y-124697350D01*
X114141633Y-124711155D01*
X114109168Y-124736417D01*
X114092145Y-124746742D01*
X114087268Y-124745679D01*
X114059319Y-124734181D01*
X114017592Y-124714000D01*
X114003987Y-124707362D01*
X113923729Y-124682711D01*
X113854003Y-124689065D01*
X113792860Y-124726533D01*
X113785745Y-124733456D01*
X113751732Y-124776822D01*
X113732298Y-124818441D01*
X113721534Y-124864395D01*
X114226473Y-124864395D01*
X114226380Y-124952125D01*
X114226327Y-124960850D01*
X114215873Y-125068784D01*
X114185445Y-125156587D01*
X114132351Y-125232277D01*
X114099962Y-125264295D01*
X114033068Y-125307155D01*
X113953193Y-125327922D01*
X113852300Y-125329382D01*
X113803565Y-125323657D01*
X113713604Y-125293929D01*
X113644729Y-125239822D01*
X113596336Y-125160502D01*
X113567821Y-125055134D01*
X113564926Y-125013702D01*
X113725157Y-125013702D01*
X113738374Y-125068967D01*
X113777070Y-125120548D01*
X113832879Y-125156334D01*
X113897349Y-125168712D01*
X113944815Y-125154758D01*
X113992262Y-125120647D01*
X114028331Y-125076204D01*
X114042657Y-125031237D01*
X114040569Y-125016639D01*
X114029848Y-125006578D01*
X114004293Y-125000994D01*
X113957711Y-124998592D01*
X113883907Y-124998079D01*
X113842876Y-124998611D01*
X113782312Y-125001720D01*
X113740655Y-125006988D01*
X113725157Y-125013702D01*
X113564926Y-125013702D01*
X113558582Y-124922882D01*
X113560755Y-124860502D01*
X113560755Y-124860502D01*
G37*
X113560755Y-124860502D02*
X113580545Y-124741206D01*
X113621266Y-124647402D01*
X113683276Y-124578419D01*
X113766934Y-124533588D01*
X113793963Y-124525668D01*
X113890476Y-124514605D01*
X113992385Y-124523941D01*
X114084434Y-124552754D01*
X114116862Y-124569108D01*
X114163357Y-124597122D01*
X114191535Y-124620173D01*
X114195695Y-124625440D01*
X114203478Y-124644701D01*
X114192264Y-124665639D01*
X114158114Y-124697350D01*
X114141633Y-124711155D01*
X114109168Y-124736417D01*
X114092145Y-124746742D01*
X114087268Y-124745679D01*
X114059319Y-124734181D01*
X114017592Y-124714000D01*
X114003987Y-124707362D01*
X113923729Y-124682711D01*
X113854003Y-124689065D01*
X113792860Y-124726533D01*
X113785745Y-124733456D01*
X113751732Y-124776822D01*
X113732298Y-124818441D01*
X113721534Y-124864395D01*
X114226473Y-124864395D01*
X114226380Y-124952125D01*
X114226327Y-124960850D01*
X114215873Y-125068784D01*
X114185445Y-125156587D01*
X114132351Y-125232277D01*
X114099962Y-125264295D01*
X114033068Y-125307155D01*
X113953193Y-125327922D01*
X113852300Y-125329382D01*
X113803565Y-125323657D01*
X113713604Y-125293929D01*
X113644729Y-125239822D01*
X113596336Y-125160502D01*
X113567821Y-125055134D01*
X113564926Y-125013702D01*
X113725157Y-125013702D01*
X113738374Y-125068967D01*
X113777070Y-125120548D01*
X113832879Y-125156334D01*
X113897349Y-125168712D01*
X113944815Y-125154758D01*
X113992262Y-125120647D01*
X114028331Y-125076204D01*
X114042657Y-125031237D01*
X114040569Y-125016639D01*
X114029848Y-125006578D01*
X114004293Y-125000994D01*
X113957711Y-124998592D01*
X113883907Y-124998079D01*
X113842876Y-124998611D01*
X113782312Y-125001720D01*
X113740655Y-125006988D01*
X113725157Y-125013702D01*
X113564926Y-125013702D01*
X113558582Y-124922882D01*
X113560755Y-124860502D01*
G36*
X113190421Y-124780056D02*
G01*
X113190443Y-124795360D01*
X113192011Y-124902940D01*
X113195859Y-124990573D01*
X113201713Y-125053776D01*
X113209299Y-125088071D01*
X113216264Y-125101018D01*
X113259140Y-125141622D01*
X113317542Y-125159596D01*
X113381314Y-125151211D01*
X113396956Y-125145528D01*
X113430279Y-125135483D01*
X113453053Y-125138602D01*
X113475969Y-125159021D01*
X113509717Y-125200873D01*
X113564453Y-125269983D01*
X113525980Y-125301136D01*
X113489408Y-125319888D01*
X113425167Y-125332553D01*
X113352760Y-125332967D01*
X113284937Y-125321284D01*
X113234450Y-125297656D01*
X113190421Y-125263022D01*
X113190421Y-125297656D01*
X113189324Y-125310806D01*
X113179115Y-125324748D01*
X113151507Y-125330906D01*
X113098513Y-125332290D01*
X113006605Y-125332290D01*
X113006605Y-124513474D01*
X113190421Y-124513474D01*
X113190421Y-124780056D01*
X113190421Y-124780056D01*
G37*
X113190421Y-124780056D02*
X113190443Y-124795360D01*
X113192011Y-124902940D01*
X113195859Y-124990573D01*
X113201713Y-125053776D01*
X113209299Y-125088071D01*
X113216264Y-125101018D01*
X113259140Y-125141622D01*
X113317542Y-125159596D01*
X113381314Y-125151211D01*
X113396956Y-125145528D01*
X113430279Y-125135483D01*
X113453053Y-125138602D01*
X113475969Y-125159021D01*
X113509717Y-125200873D01*
X113564453Y-125269983D01*
X113525980Y-125301136D01*
X113489408Y-125319888D01*
X113425167Y-125332553D01*
X113352760Y-125332967D01*
X113284937Y-125321284D01*
X113234450Y-125297656D01*
X113190421Y-125263022D01*
X113190421Y-125297656D01*
X113189324Y-125310806D01*
X113179115Y-125324748D01*
X113151507Y-125330906D01*
X113098513Y-125332290D01*
X113006605Y-125332290D01*
X113006605Y-124513474D01*
X113190421Y-124513474D01*
X113190421Y-124780056D01*
G36*
X112216491Y-124657536D02*
G01*
X112260302Y-124592635D01*
X112326759Y-124545949D01*
X112333281Y-124543111D01*
X112405995Y-124522670D01*
X112487929Y-124514701D01*
X112565828Y-124519573D01*
X112626440Y-124537652D01*
X112650652Y-124549446D01*
X112668420Y-124552259D01*
X112672394Y-124537549D01*
X112679922Y-124523945D01*
X112709047Y-124515844D01*
X112765580Y-124513474D01*
X112858765Y-124513474D01*
X112853310Y-124835151D01*
X112851828Y-124909538D01*
X112847924Y-125020901D01*
X112841343Y-125106054D01*
X112830786Y-125169640D01*
X112814952Y-125216301D01*
X112792541Y-125250679D01*
X112762253Y-125277417D01*
X112722787Y-125301156D01*
X112702427Y-125310220D01*
X112631992Y-125327327D01*
X112547041Y-125334400D01*
X112459212Y-125331568D01*
X112380143Y-125318959D01*
X112321473Y-125296703D01*
X112301065Y-125283781D01*
X112254079Y-125245481D01*
X112238176Y-125213411D01*
X112242038Y-125207214D01*
X112266106Y-125185568D01*
X112304961Y-125156692D01*
X112324826Y-125143176D01*
X112358654Y-125124026D01*
X112380637Y-125122197D01*
X112401047Y-125135415D01*
X112451914Y-125162184D01*
X112520360Y-125173192D01*
X112590306Y-125164764D01*
X112591630Y-125164382D01*
X112640964Y-125142948D01*
X112665384Y-125109397D01*
X112672138Y-125053909D01*
X112672394Y-125001121D01*
X112497990Y-124995423D01*
X112470204Y-124994485D01*
X112400152Y-124991225D01*
X112353191Y-124986103D01*
X112321448Y-124977202D01*
X112297052Y-124962603D01*
X112272131Y-124940388D01*
X112230985Y-124889005D01*
X112200829Y-124812974D01*
X112197872Y-124760656D01*
X112362345Y-124760656D01*
X112378449Y-124805948D01*
X112387846Y-124817800D01*
X112429813Y-124844387D01*
X112496234Y-124859568D01*
X112590930Y-124864395D01*
X112672394Y-124864395D01*
X112672394Y-124805908D01*
X112666100Y-124762194D01*
X112638973Y-124714000D01*
X112628960Y-124705142D01*
X112587919Y-124686506D01*
X112526177Y-124681710D01*
X112489129Y-124683583D01*
X112419805Y-124697691D01*
X112376837Y-124723976D01*
X112362345Y-124760656D01*
X112197872Y-124760656D01*
X112196332Y-124733400D01*
X112216491Y-124657536D01*
X112216491Y-124657536D01*
G37*
X112216491Y-124657536D02*
X112260302Y-124592635D01*
X112326759Y-124545949D01*
X112333281Y-124543111D01*
X112405995Y-124522670D01*
X112487929Y-124514701D01*
X112565828Y-124519573D01*
X112626440Y-124537652D01*
X112650652Y-124549446D01*
X112668420Y-124552259D01*
X112672394Y-124537549D01*
X112679922Y-124523945D01*
X112709047Y-124515844D01*
X112765580Y-124513474D01*
X112858765Y-124513474D01*
X112853310Y-124835151D01*
X112851828Y-124909538D01*
X112847924Y-125020901D01*
X112841343Y-125106054D01*
X112830786Y-125169640D01*
X112814952Y-125216301D01*
X112792541Y-125250679D01*
X112762253Y-125277417D01*
X112722787Y-125301156D01*
X112702427Y-125310220D01*
X112631992Y-125327327D01*
X112547041Y-125334400D01*
X112459212Y-125331568D01*
X112380143Y-125318959D01*
X112321473Y-125296703D01*
X112301065Y-125283781D01*
X112254079Y-125245481D01*
X112238176Y-125213411D01*
X112242038Y-125207214D01*
X112266106Y-125185568D01*
X112304961Y-125156692D01*
X112324826Y-125143176D01*
X112358654Y-125124026D01*
X112380637Y-125122197D01*
X112401047Y-125135415D01*
X112451914Y-125162184D01*
X112520360Y-125173192D01*
X112590306Y-125164764D01*
X112591630Y-125164382D01*
X112640964Y-125142948D01*
X112665384Y-125109397D01*
X112672138Y-125053909D01*
X112672394Y-125001121D01*
X112497990Y-124995423D01*
X112470204Y-124994485D01*
X112400152Y-124991225D01*
X112353191Y-124986103D01*
X112321448Y-124977202D01*
X112297052Y-124962603D01*
X112272131Y-124940388D01*
X112230985Y-124889005D01*
X112200829Y-124812974D01*
X112197872Y-124760656D01*
X112362345Y-124760656D01*
X112378449Y-124805948D01*
X112387846Y-124817800D01*
X112429813Y-124844387D01*
X112496234Y-124859568D01*
X112590930Y-124864395D01*
X112672394Y-124864395D01*
X112672394Y-124805908D01*
X112666100Y-124762194D01*
X112638973Y-124714000D01*
X112628960Y-124705142D01*
X112587919Y-124686506D01*
X112526177Y-124681710D01*
X112489129Y-124683583D01*
X112419805Y-124697691D01*
X112376837Y-124723976D01*
X112362345Y-124760656D01*
X112197872Y-124760656D01*
X112196332Y-124733400D01*
X112216491Y-124657536D01*
G36*
X111944250Y-124521829D02*
G01*
X112016013Y-124747421D01*
X112047520Y-124846546D01*
X112082813Y-124957719D01*
X112116607Y-125064296D01*
X112144582Y-125152651D01*
X112201387Y-125332290D01*
X112011344Y-125332290D01*
X111965280Y-125161007D01*
X111953035Y-125115749D01*
X111929875Y-125031375D01*
X111908428Y-124954616D01*
X111892124Y-124897816D01*
X111865031Y-124805908D01*
X111778626Y-125064921D01*
X111692220Y-125323934D01*
X111626130Y-125328896D01*
X111560041Y-125333857D01*
X111473937Y-125069893D01*
X111451345Y-125002490D01*
X111424621Y-124927873D01*
X111402304Y-124871346D01*
X111386241Y-124837514D01*
X111378276Y-124830984D01*
X111376354Y-124836663D01*
X111365951Y-124871493D01*
X111349381Y-124929665D01*
X111328484Y-125004667D01*
X111305100Y-125089987D01*
X111241482Y-125323934D01*
X111144345Y-125329010D01*
X111136146Y-125329416D01*
X111083765Y-125329954D01*
X111058594Y-125324577D01*
X111055388Y-125312299D01*
X111059438Y-125300308D01*
X111072759Y-125259266D01*
X111093616Y-125194264D01*
X111120521Y-125109952D01*
X111151988Y-125010978D01*
X111186531Y-124901994D01*
X111309495Y-124513474D01*
X111463311Y-124513474D01*
X111535787Y-124759954D01*
X111549170Y-124805215D01*
X111573904Y-124887498D01*
X111595038Y-124956060D01*
X111610671Y-125004775D01*
X111618898Y-125027517D01*
X111621242Y-125029213D01*
X111632649Y-125014544D01*
X111648935Y-124975752D01*
X111667394Y-124918898D01*
X111668369Y-124915559D01*
X111693083Y-124831653D01*
X111721359Y-124736649D01*
X111747270Y-124650472D01*
X111789286Y-124511747D01*
X111944250Y-124521829D01*
X111944250Y-124521829D01*
G37*
X111944250Y-124521829D02*
X112016013Y-124747421D01*
X112047520Y-124846546D01*
X112082813Y-124957719D01*
X112116607Y-125064296D01*
X112144582Y-125152651D01*
X112201387Y-125332290D01*
X112011344Y-125332290D01*
X111965280Y-125161007D01*
X111953035Y-125115749D01*
X111929875Y-125031375D01*
X111908428Y-124954616D01*
X111892124Y-124897816D01*
X111865031Y-124805908D01*
X111778626Y-125064921D01*
X111692220Y-125323934D01*
X111626130Y-125328896D01*
X111560041Y-125333857D01*
X111473937Y-125069893D01*
X111451345Y-125002490D01*
X111424621Y-124927873D01*
X111402304Y-124871346D01*
X111386241Y-124837514D01*
X111378276Y-124830984D01*
X111376354Y-124836663D01*
X111365951Y-124871493D01*
X111349381Y-124929665D01*
X111328484Y-125004667D01*
X111305100Y-125089987D01*
X111241482Y-125323934D01*
X111144345Y-125329010D01*
X111136146Y-125329416D01*
X111083765Y-125329954D01*
X111058594Y-125324577D01*
X111055388Y-125312299D01*
X111059438Y-125300308D01*
X111072759Y-125259266D01*
X111093616Y-125194264D01*
X111120521Y-125109952D01*
X111151988Y-125010978D01*
X111186531Y-124901994D01*
X111309495Y-124513474D01*
X111463311Y-124513474D01*
X111535787Y-124759954D01*
X111549170Y-124805215D01*
X111573904Y-124887498D01*
X111595038Y-124956060D01*
X111610671Y-125004775D01*
X111618898Y-125027517D01*
X111621242Y-125029213D01*
X111632649Y-125014544D01*
X111648935Y-124975752D01*
X111667394Y-124918898D01*
X111668369Y-124915559D01*
X111693083Y-124831653D01*
X111721359Y-124736649D01*
X111747270Y-124650472D01*
X111789286Y-124511747D01*
X111944250Y-124521829D01*
G36*
X110336132Y-124788899D02*
G01*
X110340392Y-124739134D01*
X110341122Y-124734573D01*
X110369794Y-124652996D01*
X110422154Y-124583835D01*
X110490842Y-124536979D01*
X110564604Y-124517584D01*
X110655332Y-124519089D01*
X110738795Y-124545094D01*
X110760535Y-124556068D01*
X110788490Y-124567826D01*
X110799128Y-124564168D01*
X110800815Y-124545094D01*
X110801590Y-124535582D01*
X110811593Y-124521515D01*
X110839377Y-124515038D01*
X110892723Y-124513474D01*
X110984631Y-124513474D01*
X110984631Y-125649790D01*
X110800815Y-125649790D01*
X110800815Y-125260268D01*
X110766768Y-125291080D01*
X110733986Y-125310231D01*
X110671941Y-125326240D01*
X110599411Y-125331398D01*
X110528581Y-125325065D01*
X110471632Y-125306600D01*
X110430872Y-125280334D01*
X110388887Y-125235588D01*
X110360630Y-125175412D01*
X110343645Y-125094012D01*
X110335472Y-124985595D01*
X110334271Y-124941770D01*
X110334184Y-124914374D01*
X110516720Y-124914374D01*
X110518052Y-124988033D01*
X110525116Y-125052761D01*
X110538083Y-125097778D01*
X110542226Y-125105160D01*
X110582160Y-125142262D01*
X110636278Y-125158699D01*
X110694400Y-125154876D01*
X110746347Y-125131198D01*
X110781937Y-125088071D01*
X110783408Y-125084444D01*
X110792233Y-125043974D01*
X110798458Y-124983501D01*
X110800815Y-124914672D01*
X110799498Y-124845168D01*
X110794152Y-124798894D01*
X110782738Y-124767193D01*
X110763217Y-124740627D01*
X110711671Y-124701127D01*
X110651350Y-124687885D01*
X110592856Y-124704260D01*
X110543590Y-124749940D01*
X110530568Y-124783366D01*
X110520949Y-124842559D01*
X110516720Y-124914374D01*
X110334184Y-124914374D01*
X110334014Y-124860341D01*
X110336132Y-124788899D01*
X110336132Y-124788899D01*
G37*
X110336132Y-124788899D02*
X110340392Y-124739134D01*
X110341122Y-124734573D01*
X110369794Y-124652996D01*
X110422154Y-124583835D01*
X110490842Y-124536979D01*
X110564604Y-124517584D01*
X110655332Y-124519089D01*
X110738795Y-124545094D01*
X110760535Y-124556068D01*
X110788490Y-124567826D01*
X110799128Y-124564168D01*
X110800815Y-124545094D01*
X110801590Y-124535582D01*
X110811593Y-124521515D01*
X110839377Y-124515038D01*
X110892723Y-124513474D01*
X110984631Y-124513474D01*
X110984631Y-125649790D01*
X110800815Y-125649790D01*
X110800815Y-125260268D01*
X110766768Y-125291080D01*
X110733986Y-125310231D01*
X110671941Y-125326240D01*
X110599411Y-125331398D01*
X110528581Y-125325065D01*
X110471632Y-125306600D01*
X110430872Y-125280334D01*
X110388887Y-125235588D01*
X110360630Y-125175412D01*
X110343645Y-125094012D01*
X110335472Y-124985595D01*
X110334271Y-124941770D01*
X110334184Y-124914374D01*
X110516720Y-124914374D01*
X110518052Y-124988033D01*
X110525116Y-125052761D01*
X110538083Y-125097778D01*
X110542226Y-125105160D01*
X110582160Y-125142262D01*
X110636278Y-125158699D01*
X110694400Y-125154876D01*
X110746347Y-125131198D01*
X110781937Y-125088071D01*
X110783408Y-125084444D01*
X110792233Y-125043974D01*
X110798458Y-124983501D01*
X110800815Y-124914672D01*
X110799498Y-124845168D01*
X110794152Y-124798894D01*
X110782738Y-124767193D01*
X110763217Y-124740627D01*
X110711671Y-124701127D01*
X110651350Y-124687885D01*
X110592856Y-124704260D01*
X110543590Y-124749940D01*
X110530568Y-124783366D01*
X110520949Y-124842559D01*
X110516720Y-124914374D01*
X110334184Y-124914374D01*
X110334014Y-124860341D01*
X110336132Y-124788899D01*
G36*
X109965289Y-124771399D02*
G01*
X109965474Y-124831395D01*
X109967374Y-124930763D01*
X109972184Y-125004327D01*
X109980948Y-125057173D01*
X109994710Y-125094386D01*
X110014513Y-125121051D01*
X110041400Y-125142254D01*
X110070752Y-125158053D01*
X110105509Y-125162533D01*
X110154942Y-125152571D01*
X110170827Y-125148424D01*
X110210480Y-125142182D01*
X110238833Y-125151125D01*
X110271694Y-125178805D01*
X110277930Y-125184825D01*
X110312406Y-125222063D01*
X110334639Y-125252340D01*
X110337689Y-125259634D01*
X110331646Y-125286568D01*
X110301002Y-125308102D01*
X110252637Y-125323214D01*
X110193434Y-125330886D01*
X110130272Y-125330096D01*
X110070033Y-125319825D01*
X110019598Y-125299052D01*
X110003612Y-125289352D01*
X109976698Y-125275155D01*
X109966736Y-125278406D01*
X109965289Y-125299114D01*
X109964950Y-125306549D01*
X109956888Y-125323018D01*
X109931881Y-125330514D01*
X109881736Y-125332290D01*
X109798184Y-125332290D01*
X109798184Y-124513474D01*
X109965289Y-124513474D01*
X109965289Y-124771399D01*
X109965289Y-124771399D01*
G37*
X109965289Y-124771399D02*
X109965474Y-124831395D01*
X109967374Y-124930763D01*
X109972184Y-125004327D01*
X109980948Y-125057173D01*
X109994710Y-125094386D01*
X110014513Y-125121051D01*
X110041400Y-125142254D01*
X110070752Y-125158053D01*
X110105509Y-125162533D01*
X110154942Y-125152571D01*
X110170827Y-125148424D01*
X110210480Y-125142182D01*
X110238833Y-125151125D01*
X110271694Y-125178805D01*
X110277930Y-125184825D01*
X110312406Y-125222063D01*
X110334639Y-125252340D01*
X110337689Y-125259634D01*
X110331646Y-125286568D01*
X110301002Y-125308102D01*
X110252637Y-125323214D01*
X110193434Y-125330886D01*
X110130272Y-125330096D01*
X110070033Y-125319825D01*
X110019598Y-125299052D01*
X110003612Y-125289352D01*
X109976698Y-125275155D01*
X109966736Y-125278406D01*
X109965289Y-125299114D01*
X109964950Y-125306549D01*
X109956888Y-125323018D01*
X109931881Y-125330514D01*
X109881736Y-125332290D01*
X109798184Y-125332290D01*
X109798184Y-124513474D01*
X109965289Y-124513474D01*
X109965289Y-124771399D01*
G36*
X108983278Y-124734000D02*
G01*
X109003640Y-124648154D01*
X109048933Y-124583588D01*
X109121407Y-124537063D01*
X109158860Y-124525744D01*
X109223010Y-124516922D01*
X109293160Y-124514815D01*
X109356452Y-124519670D01*
X109400024Y-124531732D01*
X109426488Y-124541394D01*
X109452399Y-124531732D01*
X109461877Y-124526134D01*
X109499706Y-124517057D01*
X109550868Y-124513474D01*
X109631078Y-124513474D01*
X109631078Y-124836858D01*
X109631072Y-124864824D01*
X109630768Y-124970233D01*
X109629624Y-125048599D01*
X109627123Y-125105129D01*
X109622744Y-125145030D01*
X109615968Y-125173508D01*
X109606275Y-125195770D01*
X109593147Y-125217022D01*
X109550916Y-125266820D01*
X109491070Y-125304840D01*
X109412457Y-125325816D01*
X109308864Y-125332264D01*
X109305497Y-125332257D01*
X109233487Y-125329005D01*
X109169034Y-125320897D01*
X109125048Y-125309530D01*
X109112990Y-125303834D01*
X109074609Y-125279711D01*
X109039876Y-125251040D01*
X109017023Y-125225240D01*
X109014284Y-125209727D01*
X109019630Y-125205535D01*
X109077873Y-125160782D01*
X109116819Y-125134387D01*
X109142569Y-125123738D01*
X109161228Y-125126220D01*
X109178899Y-125139218D01*
X109211510Y-125155444D01*
X109266467Y-125166263D01*
X109328580Y-125169069D01*
X109384783Y-125163358D01*
X109422016Y-125148624D01*
X109423975Y-125146831D01*
X109440706Y-125113150D01*
X109447263Y-125062875D01*
X109447263Y-124998079D01*
X109292690Y-124998017D01*
X109221686Y-124996893D01*
X109161918Y-124992004D01*
X109119163Y-124981945D01*
X109084620Y-124965335D01*
X109076581Y-124960233D01*
X109018424Y-124904153D01*
X108987490Y-124829996D01*
X108984875Y-124774287D01*
X109146473Y-124774287D01*
X109159002Y-124808624D01*
X109200418Y-124838480D01*
X109266995Y-124857634D01*
X109354818Y-124864395D01*
X109447263Y-124864395D01*
X109447263Y-124800143D01*
X109441085Y-124751247D01*
X109416703Y-124708235D01*
X109402751Y-124698926D01*
X109352949Y-124684417D01*
X109290775Y-124680795D01*
X109229804Y-124688155D01*
X109183612Y-124706592D01*
X109160601Y-124730970D01*
X109146473Y-124774287D01*
X108984875Y-124774287D01*
X108983088Y-124736204D01*
X108983278Y-124734000D01*
X108983278Y-124734000D01*
G37*
X108983278Y-124734000D02*
X109003640Y-124648154D01*
X109048933Y-124583588D01*
X109121407Y-124537063D01*
X109158860Y-124525744D01*
X109223010Y-124516922D01*
X109293160Y-124514815D01*
X109356452Y-124519670D01*
X109400024Y-124531732D01*
X109426488Y-124541394D01*
X109452399Y-124531732D01*
X109461877Y-124526134D01*
X109499706Y-124517057D01*
X109550868Y-124513474D01*
X109631078Y-124513474D01*
X109631078Y-124836858D01*
X109631072Y-124864824D01*
X109630768Y-124970233D01*
X109629624Y-125048599D01*
X109627123Y-125105129D01*
X109622744Y-125145030D01*
X109615968Y-125173508D01*
X109606275Y-125195770D01*
X109593147Y-125217022D01*
X109550916Y-125266820D01*
X109491070Y-125304840D01*
X109412457Y-125325816D01*
X109308864Y-125332264D01*
X109305497Y-125332257D01*
X109233487Y-125329005D01*
X109169034Y-125320897D01*
X109125048Y-125309530D01*
X109112990Y-125303834D01*
X109074609Y-125279711D01*
X109039876Y-125251040D01*
X109017023Y-125225240D01*
X109014284Y-125209727D01*
X109019630Y-125205535D01*
X109077873Y-125160782D01*
X109116819Y-125134387D01*
X109142569Y-125123738D01*
X109161228Y-125126220D01*
X109178899Y-125139218D01*
X109211510Y-125155444D01*
X109266467Y-125166263D01*
X109328580Y-125169069D01*
X109384783Y-125163358D01*
X109422016Y-125148624D01*
X109423975Y-125146831D01*
X109440706Y-125113150D01*
X109447263Y-125062875D01*
X109447263Y-124998079D01*
X109292690Y-124998017D01*
X109221686Y-124996893D01*
X109161918Y-124992004D01*
X109119163Y-124981945D01*
X109084620Y-124965335D01*
X109076581Y-124960233D01*
X109018424Y-124904153D01*
X108987490Y-124829996D01*
X108984875Y-124774287D01*
X109146473Y-124774287D01*
X109159002Y-124808624D01*
X109200418Y-124838480D01*
X109266995Y-124857634D01*
X109354818Y-124864395D01*
X109447263Y-124864395D01*
X109447263Y-124800143D01*
X109441085Y-124751247D01*
X109416703Y-124708235D01*
X109402751Y-124698926D01*
X109352949Y-124684417D01*
X109290775Y-124680795D01*
X109229804Y-124688155D01*
X109183612Y-124706592D01*
X109160601Y-124730970D01*
X109146473Y-124774287D01*
X108984875Y-124774287D01*
X108983088Y-124736204D01*
X108983278Y-124734000D01*
G36*
X108315125Y-124516778D02*
G01*
X108402855Y-124521829D01*
X108407026Y-124789198D01*
X108408260Y-124854212D01*
X108411763Y-124951889D01*
X108417776Y-125023566D01*
X108427403Y-125074060D01*
X108441751Y-125108190D01*
X108461925Y-125130773D01*
X108489030Y-125146628D01*
X108539888Y-125162820D01*
X108590466Y-125156528D01*
X108643875Y-125121923D01*
X108695289Y-125078661D01*
X108695289Y-124513474D01*
X108879105Y-124513474D01*
X108879105Y-124819990D01*
X108878928Y-124916065D01*
X108877951Y-125001438D01*
X108875601Y-125063929D01*
X108871309Y-125109206D01*
X108864505Y-125142932D01*
X108854622Y-125170773D01*
X108841090Y-125198395D01*
X108837881Y-125204259D01*
X108795208Y-125261373D01*
X108745265Y-125301286D01*
X108685052Y-125322244D01*
X108605320Y-125331573D01*
X108525473Y-125326520D01*
X108460512Y-125306795D01*
X108411210Y-125281300D01*
X108411210Y-125833069D01*
X108478763Y-125797858D01*
X108506981Y-125785066D01*
X108596050Y-125766977D01*
X108684566Y-125779479D01*
X108766619Y-125821048D01*
X108836296Y-125890157D01*
X108847211Y-125906400D01*
X108857702Y-125930210D01*
X108864545Y-125962582D01*
X108868496Y-126009729D01*
X108870312Y-126077865D01*
X108870750Y-126173203D01*
X108870600Y-126216704D01*
X108868038Y-126317889D01*
X108860903Y-126393478D01*
X108847394Y-126449183D01*
X108825706Y-126490717D01*
X108794040Y-126523794D01*
X108750592Y-126554126D01*
X108715360Y-126571532D01*
X108631827Y-126590729D01*
X108543778Y-126588113D01*
X108465519Y-126563228D01*
X108431933Y-126546961D01*
X108415040Y-126545280D01*
X108411210Y-126560084D01*
X108411206Y-126560532D01*
X108402952Y-126575649D01*
X108374483Y-126583397D01*
X108319302Y-126585579D01*
X108227394Y-126585579D01*
X108227394Y-126170899D01*
X108411210Y-126170899D01*
X108412422Y-126220106D01*
X108424519Y-126312994D01*
X108449477Y-126375804D01*
X108487156Y-126408094D01*
X108525211Y-126417178D01*
X108591487Y-126412919D01*
X108647484Y-126386548D01*
X108660886Y-126374455D01*
X108675087Y-126353533D01*
X108683867Y-126322389D01*
X108689081Y-126273290D01*
X108692584Y-126198502D01*
X108694109Y-126148858D01*
X108693960Y-126089569D01*
X108689427Y-126050031D01*
X108679240Y-126021811D01*
X108662128Y-125996481D01*
X108640390Y-125972931D01*
X108605628Y-125955108D01*
X108553250Y-125950579D01*
X108506980Y-125954520D01*
X108461183Y-125974241D01*
X108431688Y-126014191D01*
X108415896Y-126078400D01*
X108411210Y-126170899D01*
X108227394Y-126170899D01*
X108227394Y-124511727D01*
X108315125Y-124516778D01*
X108315125Y-124516778D01*
G37*
X108315125Y-124516778D02*
X108402855Y-124521829D01*
X108407026Y-124789198D01*
X108408260Y-124854212D01*
X108411763Y-124951889D01*
X108417776Y-125023566D01*
X108427403Y-125074060D01*
X108441751Y-125108190D01*
X108461925Y-125130773D01*
X108489030Y-125146628D01*
X108539888Y-125162820D01*
X108590466Y-125156528D01*
X108643875Y-125121923D01*
X108695289Y-125078661D01*
X108695289Y-124513474D01*
X108879105Y-124513474D01*
X108879105Y-124819990D01*
X108878928Y-124916065D01*
X108877951Y-125001438D01*
X108875601Y-125063929D01*
X108871309Y-125109206D01*
X108864505Y-125142932D01*
X108854622Y-125170773D01*
X108841090Y-125198395D01*
X108837881Y-125204259D01*
X108795208Y-125261373D01*
X108745265Y-125301286D01*
X108685052Y-125322244D01*
X108605320Y-125331573D01*
X108525473Y-125326520D01*
X108460512Y-125306795D01*
X108411210Y-125281300D01*
X108411210Y-125833069D01*
X108478763Y-125797858D01*
X108506981Y-125785066D01*
X108596050Y-125766977D01*
X108684566Y-125779479D01*
X108766619Y-125821048D01*
X108836296Y-125890157D01*
X108847211Y-125906400D01*
X108857702Y-125930210D01*
X108864545Y-125962582D01*
X108868496Y-126009729D01*
X108870312Y-126077865D01*
X108870750Y-126173203D01*
X108870600Y-126216704D01*
X108868038Y-126317889D01*
X108860903Y-126393478D01*
X108847394Y-126449183D01*
X108825706Y-126490717D01*
X108794040Y-126523794D01*
X108750592Y-126554126D01*
X108715360Y-126571532D01*
X108631827Y-126590729D01*
X108543778Y-126588113D01*
X108465519Y-126563228D01*
X108431933Y-126546961D01*
X108415040Y-126545280D01*
X108411210Y-126560084D01*
X108411206Y-126560532D01*
X108402952Y-126575649D01*
X108374483Y-126583397D01*
X108319302Y-126585579D01*
X108227394Y-126585579D01*
X108227394Y-126170899D01*
X108411210Y-126170899D01*
X108412422Y-126220106D01*
X108424519Y-126312994D01*
X108449477Y-126375804D01*
X108487156Y-126408094D01*
X108525211Y-126417178D01*
X108591487Y-126412919D01*
X108647484Y-126386548D01*
X108660886Y-126374455D01*
X108675087Y-126353533D01*
X108683867Y-126322389D01*
X108689081Y-126273290D01*
X108692584Y-126198502D01*
X108694109Y-126148858D01*
X108693960Y-126089569D01*
X108689427Y-126050031D01*
X108679240Y-126021811D01*
X108662128Y-125996481D01*
X108640390Y-125972931D01*
X108605628Y-125955108D01*
X108553250Y-125950579D01*
X108506980Y-125954520D01*
X108461183Y-125974241D01*
X108431688Y-126014191D01*
X108415896Y-126078400D01*
X108411210Y-126170899D01*
X108227394Y-126170899D01*
X108227394Y-124511727D01*
X108315125Y-124516778D01*
M02*
