M48
; DRILL file {KiCad (5.99.0-73-g24ea8f970)} date Thu 05 Sep 2019 04:17:27 PM EDT
; FORMAT={-:-/ absolute / inch / decimal}
; #@! TF.CreationDate,2019-09-05T16:17:27-04:00
; #@! TF.GenerationSoftware,Kicad,Pcbnew,(5.99.0-73-g24ea8f970)
; #@! TF.FileFunction,Plated,1,4,PTH
FMAT,2
INCH
T1C0.0079
T2C0.0080
T3C0.0150
T4C0.0197
T5C0.0394
T6C0.0512
T7C0.1260
%
G90
G05
T1
X4.085Y-2.0113
X4.085Y-2.0507
X4.085Y-2.1073
X4.085Y-2.1467
X4.1165Y-2.0113
X4.1165Y-2.0507
X4.1165Y-2.1073
X4.1165Y-2.1467
X4.148Y-2.0113
X4.148Y-2.0507
X4.148Y-2.1073
X4.148Y-2.1467
X4.1795Y-2.0113
X4.1795Y-2.0507
X4.1795Y-2.1073
X4.1795Y-2.1467
X4.211Y-2.0113
X4.211Y-2.0507
X4.211Y-2.1073
X4.211Y-2.1467
T2
X3.445Y-4.945
X3.445Y-4.97
X3.445Y-4.995
X3.445Y-5.02
X3.445Y-5.1
X3.46Y-2.82
X3.46Y-3.085
X3.46Y-3.345
X3.46Y-3.605
X3.46Y-3.865
X3.46Y-4.125
X3.46Y-4.39
X3.46Y-4.65
X3.565Y-4.81
X3.755Y-3.765
X3.7645Y-4.435
X3.77Y-3.905
X3.77Y-4.005
X3.7826Y-4.9269
X3.79Y-4.995
X3.79Y-5.03
X3.79Y-5.1
X3.846Y-4.303
X3.92Y-3.415
X3.93Y-3.295
X3.985Y-4.17
X4.095Y-4.1
X4.175Y-4.105
X4.23Y-3.78
X4.255Y-3.94
X4.28Y-3.9
X4.3Y-3.94
X4.315Y-2.215
X4.315Y-3.4
X4.32Y-3.735
X4.32Y-3.815
X4.32Y-3.895
X4.35Y-3.365
X4.37Y-3.6685
X4.455Y-1.985
X4.455Y-2.16
X4.49Y-3.7
X4.515Y-2.05
X4.525Y-1.905
X4.54Y-3.775
X4.56Y-2.08
X4.565Y-2.115
X4.565Y-3.61
X4.565Y-3.635
X4.57Y-3.75
X4.6Y-1.94
X4.6Y-3.71
X4.6Y-3.985
X4.63Y-1.94
X4.64Y-3.85
X4.665Y-4.05
X4.665Y-4.1
X4.675Y-2.115
X4.69Y-2.2246
X4.695Y-1.905
X4.6986Y-2.0214
X4.72Y-2.08
X4.75Y-2.105
X4.75Y-2.335
X4.75Y-3.905
X4.76Y-1.93
X4.7665Y-3.58
X4.77Y-3.985
X4.808Y-3.89
X4.8085Y-3.495
X4.845Y-3.64
X4.9144Y-3.9344
X4.92Y-3.665
X4.925Y-3.375
X4.925Y-3.46
X4.93Y-3.855
X4.9465Y-3.9005
X4.99Y-3.46
X4.995Y-3.34
X5.0Y-3.7637
X5.005Y-3.935
X5.02Y-3.625
X5.05Y-3.625
X5.065Y-3.42
X5.105Y-3.495
X5.11Y-3.775
X5.125Y-3.89
X5.125Y-4.02
X5.13Y-3.42
X5.1665Y-3.3531
X5.21Y-3.45
X5.235Y-3.615
X5.24Y-3.675
X5.3Y-3.8663
X5.37Y-3.64
X5.52Y-3.45
X5.54Y-3.7
X5.685Y-2.53
X5.685Y-3.04
X5.685Y-3.14
X5.685Y-3.435
X5.69Y-3.97
X5.693Y-2.75
X5.71Y-4.74
X5.719Y-2.794
X5.86Y-4.79
X5.885Y-4.055
X5.885Y-4.155
X5.885Y-4.255
X5.885Y-4.355
X5.89Y-3.455
X5.89Y-3.735
X5.89Y-3.97
T3
X3.43Y-2.425
X3.43Y-2.625
X3.495Y-2.35
X3.495Y-2.49
X3.495Y-2.54
X3.495Y-2.715
X3.575Y-2.425
X3.58Y-2.625
X3.766Y-3.504
X3.84Y-3.502
X5.195Y-5.0
X5.21Y-3.195
X5.21Y-3.305
X5.215Y-2.45
X5.275Y-2.335
X5.275Y-2.565
X5.275Y-4.885
X5.275Y-5.115
X5.335Y-2.475
X5.335Y-3.195
X5.335Y-3.3
X5.35Y-5.025
X5.365Y-2.43
X5.385Y-3.195
X5.385Y-3.3
X5.395Y-4.97
X5.45Y-2.335
X5.45Y-2.565
X5.45Y-4.885
X5.45Y-5.115
X5.52Y-2.45
X5.52Y-5.0
X5.76Y-2.945
X5.889Y-2.743
T4
X5.6655Y-1.9925
X5.6932Y-1.9257
X5.6932Y-2.0593
X5.76Y-1.898
X5.76Y-2.087
X5.8268Y-1.9257
X5.8268Y-2.0593
X5.8545Y-1.9925
X5.6655Y-5.0575
X5.6932Y-4.9907
X5.6932Y-5.1243
X5.76Y-4.963
X5.76Y-5.152
X5.8268Y-4.9907
X5.8268Y-5.1243
X5.8545Y-5.0575
T5
X4.255Y-3.52
X4.355Y-3.52
X4.455Y-3.52
X4.02Y-3.6531
X4.02Y-3.85
X4.96Y-1.975
X5.06Y-1.975
X5.16Y-1.975
X5.34Y-1.9
X5.44Y-1.9
X5.32Y-4.055
X5.32Y-4.155
X5.32Y-4.255
X5.32Y-4.355
X4.255Y-4.035
X4.355Y-4.035
X4.455Y-4.035
X5.685Y-2.235
X5.685Y-2.335
X5.685Y-2.435
T6
X4.045Y-4.298
X4.045Y-4.598
X4.045Y-4.798
X4.845Y-4.298
X4.845Y-4.698
X4.845Y-5.098
X5.35Y-2.6663
X5.35Y-2.8631
X5.35Y-3.06
X4.045Y-2.45
X4.045Y-2.75
X4.045Y-2.95
X4.845Y-2.45
X4.845Y-2.85
X4.845Y-3.25
X3.65Y-1.995
X3.65Y-2.1919
X5.35Y-4.5981
X5.35Y-4.795
T7
X5.76Y-1.9925
X5.76Y-5.0575
T0
M30
