G04 #@! TF.GenerationSoftware,KiCad,Pcbnew,(5.99.0-73-g24ea8f970)*
G04 #@! TF.CreationDate,2019-09-05T16:17:24-04:00*
G04 #@! TF.ProjectId,udoo-power,75646f6f-2d70-46f7-9765-722e6b696361,rev?*
G04 #@! TF.SameCoordinates,Original*
G04 #@! TF.FileFunction,Copper,L2,Inr*
G04 #@! TF.FilePolarity,Positive*
%FSLAX46Y46*%
G04 Gerber Fmt 4.6, Leading zero omitted, Abs format (unit mm)*
G04 Created by KiCad (PCBNEW (5.99.0-73-g24ea8f970)) date 2019-09-05 16:17:24*
%MOMM*%
%LPD*%
G04 APERTURE LIST*
%ADD10C,0.800000*%
%ADD11C,6.400000*%
%ADD12C,2.250000*%
%ADD13O,1.700000X1.700000*%
%ADD14R,1.700000X1.700000*%
%ADD15C,0.300000*%
%ADD16C,2.600000*%
%ADD17R,2.600000X2.600000*%
%ADD18C,2.000000*%
%ADD19R,2.000000X2.000000*%
%ADD20C,0.457200*%
%ADD21C,0.635000*%
%ADD22C,0.508000*%
G04 APERTURE END LIST*
D10*
X148001056Y-126763444D03*
X146304000Y-126060500D03*
X144606944Y-126763444D03*
X143904000Y-128460500D03*
X144606944Y-130157556D03*
X146304000Y-130860500D03*
X148001056Y-130157556D03*
X148704000Y-128460500D03*
D11*
X146304000Y-128460500D03*
D10*
X148001056Y-48912444D03*
X146304000Y-48209500D03*
X144606944Y-48912444D03*
X143904000Y-50609500D03*
X144606944Y-52306556D03*
X146304000Y-53009500D03*
X148001056Y-52306556D03*
X148704000Y-50609500D03*
D11*
X146304000Y-50609500D03*
D12*
X123063000Y-72390000D03*
X123063000Y-82550000D03*
X123063000Y-62230000D03*
X102743000Y-74930000D03*
X102743000Y-69850000D03*
X102743000Y-62230000D03*
D13*
X135636000Y-48260000D03*
D14*
X138176000Y-48260000D03*
D12*
X123063000Y-119329200D03*
X123063000Y-129489200D03*
X123063000Y-109169200D03*
X102743000Y-121869200D03*
X102743000Y-116789200D03*
X102743000Y-109169200D03*
D13*
X144399000Y-56769000D03*
X144399000Y-59309000D03*
D14*
X144399000Y-61849000D03*
D15*
X105359000Y-53526600D03*
X106959000Y-54526600D03*
X103759000Y-53526600D03*
X104559000Y-54526600D03*
X106959000Y-53526600D03*
X103759000Y-54526600D03*
X105359000Y-54526600D03*
X106159000Y-53526600D03*
X104559000Y-53526600D03*
X106159000Y-54526600D03*
X106959000Y-51086600D03*
X106959000Y-52086600D03*
X106159000Y-51086600D03*
X106159000Y-52086600D03*
X105359000Y-51086600D03*
X105359000Y-52086600D03*
X104559000Y-51086600D03*
X104559000Y-52086600D03*
X103759000Y-51086600D03*
X103759000Y-52086600D03*
D13*
X135128000Y-110617000D03*
X135128000Y-108077000D03*
X135128000Y-105537000D03*
D14*
X135128000Y-102997000D03*
D16*
X135890000Y-116793000D03*
D17*
X135890000Y-121793000D03*
D16*
X135890000Y-67724000D03*
X135890000Y-72724000D03*
D17*
X135890000Y-77724000D03*
D16*
X92710000Y-55673000D03*
D17*
X92710000Y-50673000D03*
D13*
X108077000Y-89408000D03*
X110617000Y-89408000D03*
D14*
X113157000Y-89408000D03*
D18*
X102108000Y-92790000D03*
D19*
X102108000Y-97790000D03*
D13*
X108077000Y-102489000D03*
X110617000Y-102489000D03*
D14*
X113157000Y-102489000D03*
X125984000Y-50165000D03*
D13*
X128524000Y-50165000D03*
X131064000Y-50165000D03*
D20*
X144602200Y-69850000D03*
D21*
X149580600Y-69672200D03*
X146304000Y-74803000D03*
X97536000Y-88950800D03*
X95656400Y-89001600D03*
D20*
X97688400Y-109296200D03*
X145262600Y-70967600D03*
X110490000Y-85471000D03*
X109601000Y-86360000D03*
X124826223Y-99934223D03*
X125641090Y-99072255D03*
X131229090Y-85169762D03*
X99568000Y-86741000D03*
D21*
X133985000Y-65151000D03*
X138430000Y-65151000D03*
X135509000Y-62865000D03*
X87122000Y-61595000D03*
X88773000Y-59690000D03*
D20*
X120650000Y-59309000D03*
X116840000Y-49276000D03*
X119343462Y-51344538D03*
X120650000Y-53467000D03*
X126873000Y-84836000D03*
X125222000Y-97917000D03*
X127000000Y-95598998D03*
X134620000Y-98204090D03*
X129794000Y-95885000D03*
X144526000Y-100838000D03*
X140716000Y-93980000D03*
X149606000Y-94869000D03*
X149606000Y-100838000D03*
X140208000Y-87630000D03*
X144399000Y-87249000D03*
X149606000Y-87757000D03*
D21*
X88773000Y-68961000D03*
X88773000Y-64516000D03*
X90932000Y-66675000D03*
X87122000Y-66675000D03*
X90805000Y-61595000D03*
X88773000Y-63246000D03*
D20*
X95618311Y-112649000D03*
X96076878Y-125144096D03*
X95758000Y-101727000D03*
X104013000Y-104140000D03*
X106045000Y-104267000D03*
X118491000Y-104140000D03*
X118491000Y-102870000D03*
X122123219Y-98806009D03*
X115951000Y-91694000D03*
X110998000Y-93179910D03*
X95758000Y-99187000D03*
X115951000Y-92329000D03*
X123063000Y-92456000D03*
X95377000Y-95631000D03*
X108077000Y-100076000D03*
X109220000Y-100076000D03*
X124968000Y-93091000D03*
X116078000Y-95250000D03*
X128270000Y-92075000D03*
X127508000Y-92075000D03*
X113157000Y-50419000D03*
X113157000Y-54864000D03*
X121069090Y-90932000D03*
X122135910Y-88773000D03*
X132334000Y-87630000D03*
X119888000Y-52832000D03*
X144399000Y-77216000D03*
X144399000Y-64262000D03*
X144399000Y-79756000D03*
X145034000Y-120396000D03*
D21*
X136271000Y-61722000D03*
X138430000Y-59309000D03*
X140208000Y-62230000D03*
X132461000Y-62230000D03*
X133985000Y-59309000D03*
X136779000Y-83820000D03*
X136779000Y-81153000D03*
X135509000Y-83820000D03*
X135509000Y-81153000D03*
X132334000Y-83947000D03*
X132334000Y-81153000D03*
D20*
X130302000Y-86868000D03*
X128651000Y-86868000D03*
X148844000Y-121666000D03*
D21*
X137033000Y-126238000D03*
X138430000Y-129921000D03*
X140208000Y-127000000D03*
X138430000Y-124079000D03*
X133985000Y-129921000D03*
X135890000Y-127635000D03*
X131953000Y-127000000D03*
X133985000Y-124079000D03*
D20*
X125095000Y-85725000D03*
X125095000Y-87884000D03*
X126746000Y-87884000D03*
X129667000Y-88773000D03*
X132969000Y-91821000D03*
X136398000Y-92456000D03*
X133096000Y-93345000D03*
X130175000Y-102108000D03*
X130175000Y-98806000D03*
X127127000Y-99949000D03*
X121158000Y-101219000D03*
X116840000Y-101219000D03*
X117856000Y-97790000D03*
X120650000Y-99187000D03*
X116840000Y-94234000D03*
X114046000Y-93980000D03*
X115316000Y-95885000D03*
X101219000Y-105918000D03*
X107442000Y-96012000D03*
X109728000Y-98933000D03*
X109728000Y-94869000D03*
X109728000Y-96901000D03*
X108712000Y-99060000D03*
X99822000Y-83693000D03*
X96266000Y-126873000D03*
X109601000Y-56261000D03*
X120904000Y-49022000D03*
X114935000Y-48387000D03*
X114681000Y-52070000D03*
X87884000Y-118110000D03*
X87884000Y-111506000D03*
X87884000Y-104775000D03*
X87884000Y-98171000D03*
X87884000Y-91567000D03*
X87884000Y-84963000D03*
X87884000Y-78359000D03*
X87884000Y-71628000D03*
X96266000Y-127762000D03*
X96266000Y-129540000D03*
X87503000Y-129540000D03*
X87503000Y-127508000D03*
X87503000Y-126873000D03*
X87503000Y-126238000D03*
X87503000Y-125603000D03*
X90551000Y-122174000D03*
X115824000Y-52832000D03*
X118745000Y-53721000D03*
X115951000Y-53721000D03*
X119126000Y-56504227D03*
X119253000Y-48387000D03*
X117602000Y-49276000D03*
X149479000Y-110617000D03*
X149479000Y-108077000D03*
X149479000Y-105537000D03*
X149479000Y-102997000D03*
D22*
G36*
X133535415Y-105817816D02*
G01*
X133608373Y-106090098D01*
X133727504Y-106345576D01*
X133889188Y-106576486D01*
X134088514Y-106775812D01*
X134133055Y-106807000D01*
X134088514Y-106838188D01*
X133889189Y-107037513D01*
X133727504Y-107268423D01*
X133608373Y-107523902D01*
X133535415Y-107796184D01*
X133510847Y-108077000D01*
X133535415Y-108357816D01*
X133608373Y-108630098D01*
X133727504Y-108885576D01*
X133889188Y-109116486D01*
X134088514Y-109315812D01*
X134133055Y-109347000D01*
X134088514Y-109378188D01*
X133889189Y-109577513D01*
X133727504Y-109808423D01*
X133608373Y-110063902D01*
X133535415Y-110336184D01*
X133510847Y-110617000D01*
X133535415Y-110897816D01*
X133608373Y-111170098D01*
X133727504Y-111425576D01*
X133889188Y-111656486D01*
X134088514Y-111855812D01*
X134319424Y-112017496D01*
X134574902Y-112136627D01*
X134847184Y-112209585D01*
X135057667Y-112228000D01*
X135198333Y-112228000D01*
X135408816Y-112209585D01*
X135681098Y-112136627D01*
X135936576Y-112017496D01*
X136167486Y-111855812D01*
X136366811Y-111656487D01*
X136528496Y-111425577D01*
X136647627Y-111170098D01*
X136720585Y-110897816D01*
X136745153Y-110617000D01*
X136720585Y-110336184D01*
X136647627Y-110063902D01*
X136528496Y-109808424D01*
X136366812Y-109577514D01*
X136167486Y-109378188D01*
X136122945Y-109347000D01*
X136167486Y-109315812D01*
X136366811Y-109116487D01*
X136528496Y-108885577D01*
X136647627Y-108630098D01*
X136720585Y-108357816D01*
X136745153Y-108077000D01*
X136720585Y-107796184D01*
X136647627Y-107523902D01*
X136528496Y-107268424D01*
X136366812Y-107037514D01*
X136167486Y-106838188D01*
X136122945Y-106807000D01*
X136167486Y-106775812D01*
X136366811Y-106576487D01*
X136528496Y-106345577D01*
X136647627Y-106090098D01*
X136720585Y-105817816D01*
X136728956Y-105722131D01*
X148503256Y-105722131D01*
X148563562Y-105938849D01*
X148713143Y-106179630D01*
X148924291Y-106368751D01*
X149180033Y-106491007D01*
X149459808Y-106536571D01*
X149741124Y-106501780D01*
X149754320Y-106496083D01*
X149754320Y-107117611D01*
X149485979Y-107077269D01*
X149205108Y-107115494D01*
X148946254Y-107231014D01*
X148730228Y-107414542D01*
X148574394Y-107651325D01*
X148491282Y-107922328D01*
X148487571Y-108205764D01*
X148563562Y-108478849D01*
X148713143Y-108719630D01*
X148924291Y-108908751D01*
X149180033Y-109031007D01*
X149459808Y-109076571D01*
X149741124Y-109041780D01*
X149754320Y-109036083D01*
X149754320Y-109657611D01*
X149485979Y-109617269D01*
X149205108Y-109655494D01*
X148946254Y-109771014D01*
X148730228Y-109954542D01*
X148574394Y-110191325D01*
X148491282Y-110462328D01*
X148487571Y-110745764D01*
X148563562Y-111018849D01*
X148713143Y-111259630D01*
X148924291Y-111448751D01*
X149180033Y-111571007D01*
X149459808Y-111616571D01*
X149741124Y-111581780D01*
X149754320Y-111576083D01*
X149754320Y-121252775D01*
X149601949Y-121014061D01*
X149388505Y-120827534D01*
X149131290Y-120708411D01*
X148850979Y-120666269D01*
X148570108Y-120704494D01*
X148311254Y-120820014D01*
X148095228Y-121003542D01*
X147939394Y-121240325D01*
X147856282Y-121511328D01*
X147852571Y-121794764D01*
X147928562Y-122067849D01*
X148078143Y-122308630D01*
X148289291Y-122497751D01*
X148545033Y-122620007D01*
X148824808Y-122665571D01*
X149106124Y-122630780D01*
X149366371Y-122518432D01*
X149584624Y-122337556D01*
X149743338Y-122102695D01*
X149754320Y-122068387D01*
X149754320Y-126514630D01*
X149630533Y-126300224D01*
X149386499Y-125964341D01*
X149108694Y-125655806D01*
X148800159Y-125378001D01*
X148464276Y-125133967D01*
X148104724Y-124926380D01*
X147725444Y-124757514D01*
X147330589Y-124629217D01*
X146924487Y-124542898D01*
X146511587Y-124499501D01*
X146096413Y-124499501D01*
X145683513Y-124542898D01*
X145277411Y-124629217D01*
X144882556Y-124757514D01*
X144503276Y-124926380D01*
X144143724Y-125133967D01*
X143807841Y-125378001D01*
X143499306Y-125655806D01*
X143221501Y-125964341D01*
X142977467Y-126300224D01*
X142769880Y-126659776D01*
X142601014Y-127039056D01*
X142472717Y-127433911D01*
X142386398Y-127840013D01*
X142343001Y-128252913D01*
X142343001Y-128668087D01*
X142386398Y-129080987D01*
X142472717Y-129487089D01*
X142601014Y-129881944D01*
X142769880Y-130261224D01*
X142977467Y-130620776D01*
X143221501Y-130956659D01*
X143499306Y-131265194D01*
X143807841Y-131542999D01*
X144143724Y-131787033D01*
X144358130Y-131910820D01*
X99440000Y-131910820D01*
X99440000Y-130840023D01*
X121713591Y-130840023D01*
X122074521Y-131102251D01*
X122339027Y-131237024D01*
X122621361Y-131328760D01*
X122914569Y-131375199D01*
X123211431Y-131375199D01*
X123504639Y-131328760D01*
X123786973Y-131237024D01*
X124051479Y-131102251D01*
X124412409Y-130840023D01*
X123063000Y-129490614D01*
X121713591Y-130840023D01*
X99440000Y-130840023D01*
X99440000Y-129340769D01*
X121177001Y-129340769D01*
X121177001Y-129637631D01*
X121223440Y-129930839D01*
X121315176Y-130213173D01*
X121449949Y-130477679D01*
X121712177Y-130838609D01*
X123061586Y-129489200D01*
X123064414Y-129489200D01*
X124413823Y-130838609D01*
X124676051Y-130477679D01*
X124810824Y-130213173D01*
X124902560Y-129930839D01*
X124905923Y-129909600D01*
X132896436Y-129909600D01*
X132933471Y-130202757D01*
X133047975Y-130475154D01*
X133231516Y-130706726D01*
X133470571Y-130880408D01*
X133747525Y-130983406D01*
X134041975Y-131008132D01*
X134332226Y-130952763D01*
X134596897Y-130821380D01*
X134816486Y-130623661D01*
X134974816Y-130374174D01*
X135060611Y-130090006D01*
X135063915Y-129774558D01*
X134984089Y-129488655D01*
X134831019Y-129235907D01*
X134615619Y-129033633D01*
X134353758Y-128896735D01*
X134064730Y-128835300D01*
X133769826Y-128853853D01*
X133490775Y-128951029D01*
X133248137Y-129119667D01*
X133059787Y-129347343D01*
X132939602Y-129617284D01*
X132896436Y-129909600D01*
X124905923Y-129909600D01*
X124948999Y-129637631D01*
X124948999Y-129340769D01*
X124902560Y-129047561D01*
X124810824Y-128765227D01*
X124676051Y-128500721D01*
X124413823Y-128139791D01*
X123064414Y-129489200D01*
X123061586Y-129489200D01*
X121712177Y-128139791D01*
X121449949Y-128500721D01*
X121315176Y-128765227D01*
X121223440Y-129047561D01*
X121177001Y-129340769D01*
X99440000Y-129340769D01*
X99440000Y-128904000D01*
X110743000Y-128904000D01*
X110743000Y-128138377D01*
X121713591Y-128138377D01*
X123063000Y-129487786D01*
X124412409Y-128138377D01*
X124051479Y-127876149D01*
X123786973Y-127741376D01*
X123504639Y-127649640D01*
X123211431Y-127603201D01*
X122914569Y-127603201D01*
X122621361Y-127649640D01*
X122339027Y-127741376D01*
X122074521Y-127876149D01*
X121713591Y-128138377D01*
X110743000Y-128138377D01*
X110743000Y-126988600D01*
X130864436Y-126988600D01*
X130901471Y-127281757D01*
X131015975Y-127554154D01*
X131199516Y-127785726D01*
X131438571Y-127959408D01*
X131715525Y-128062406D01*
X132009975Y-128087132D01*
X132300226Y-128031763D01*
X132564897Y-127900380D01*
X132784486Y-127702661D01*
X132834659Y-127623600D01*
X134801436Y-127623600D01*
X134838471Y-127916757D01*
X134952975Y-128189154D01*
X135136516Y-128420726D01*
X135375571Y-128594408D01*
X135652525Y-128697406D01*
X135946975Y-128722132D01*
X136237226Y-128666763D01*
X136501897Y-128535380D01*
X136721486Y-128337661D01*
X136879816Y-128088174D01*
X136965611Y-127804006D01*
X136968915Y-127488558D01*
X136889089Y-127202655D01*
X136736019Y-126949907D01*
X136520619Y-126747633D01*
X136258758Y-126610735D01*
X135969730Y-126549300D01*
X135674826Y-126567853D01*
X135395775Y-126665029D01*
X135153137Y-126833667D01*
X134964787Y-127061343D01*
X134844602Y-127331284D01*
X134801436Y-127623600D01*
X132834659Y-127623600D01*
X132942816Y-127453174D01*
X133028611Y-127169006D01*
X133031915Y-126853558D01*
X132952089Y-126567655D01*
X132799019Y-126314907D01*
X132583619Y-126112633D01*
X132321758Y-125975735D01*
X132032730Y-125914300D01*
X131737826Y-125932853D01*
X131458775Y-126030029D01*
X131216137Y-126198667D01*
X131027787Y-126426343D01*
X130907602Y-126696284D01*
X130864436Y-126988600D01*
X110743000Y-126988600D01*
X110743000Y-124067600D01*
X132896436Y-124067600D01*
X132933471Y-124360757D01*
X133047975Y-124633154D01*
X133231516Y-124864726D01*
X133470571Y-125038408D01*
X133747525Y-125141406D01*
X134041975Y-125166132D01*
X134332226Y-125110763D01*
X134596897Y-124979380D01*
X134816486Y-124781661D01*
X134974816Y-124532174D01*
X135060611Y-124248006D01*
X135063915Y-123932558D01*
X135044169Y-123861837D01*
X135889000Y-123861837D01*
X135889000Y-121794000D01*
X135891000Y-121794000D01*
X135891000Y-123861837D01*
X137223308Y-123861837D01*
X137567578Y-123769590D01*
X137781953Y-123589708D01*
X137916138Y-123357293D01*
X137958837Y-123115135D01*
X137958837Y-121794000D01*
X135891000Y-121794000D01*
X135889000Y-121794000D01*
X133821163Y-121794000D01*
X133821163Y-123008623D01*
X133769826Y-123011853D01*
X133490775Y-123109029D01*
X133248137Y-123277667D01*
X133059787Y-123505343D01*
X132939602Y-123775284D01*
X132896436Y-124067600D01*
X110743000Y-124067600D01*
X110743000Y-119180769D01*
X121177001Y-119180769D01*
X121177001Y-119477631D01*
X121223440Y-119770839D01*
X121315176Y-120053173D01*
X121449949Y-120317679D01*
X121624440Y-120557846D01*
X121834354Y-120767760D01*
X122074521Y-120942251D01*
X122339027Y-121077024D01*
X122621361Y-121168760D01*
X122914569Y-121215199D01*
X123211431Y-121215199D01*
X123504639Y-121168760D01*
X123786973Y-121077024D01*
X124051479Y-120942251D01*
X124291646Y-120767760D01*
X124501560Y-120557846D01*
X124564755Y-120470865D01*
X133821163Y-120470865D01*
X133821163Y-121792000D01*
X135889000Y-121792000D01*
X135889000Y-119724163D01*
X135891000Y-119724163D01*
X135891000Y-121792000D01*
X137958837Y-121792000D01*
X137958837Y-120459692D01*
X137866590Y-120115424D01*
X137686708Y-119901047D01*
X137454293Y-119766862D01*
X137212135Y-119724163D01*
X135891000Y-119724163D01*
X135889000Y-119724163D01*
X134556692Y-119724163D01*
X134212424Y-119816410D01*
X133998047Y-119996292D01*
X133863862Y-120228707D01*
X133821163Y-120470865D01*
X124564755Y-120470865D01*
X124676051Y-120317679D01*
X124810824Y-120053173D01*
X124902560Y-119770839D01*
X124948999Y-119477631D01*
X124948999Y-119180769D01*
X124902560Y-118887561D01*
X124810824Y-118605227D01*
X124676051Y-118340721D01*
X124501560Y-118100554D01*
X124291646Y-117890640D01*
X124051479Y-117716149D01*
X123786973Y-117581376D01*
X123504639Y-117489640D01*
X123211431Y-117443201D01*
X122914569Y-117443201D01*
X122621361Y-117489640D01*
X122339027Y-117581376D01*
X122074521Y-117716149D01*
X121834354Y-117890640D01*
X121624440Y-118100554D01*
X121449949Y-118340721D01*
X121315176Y-118605227D01*
X121223440Y-118887561D01*
X121177001Y-119180769D01*
X110743000Y-119180769D01*
X110743000Y-116890358D01*
X133825528Y-116890358D01*
X133862595Y-117194437D01*
X133944200Y-117489697D01*
X134068551Y-117769652D01*
X134232916Y-118028152D01*
X134433686Y-118259517D01*
X134666447Y-118458666D01*
X134926088Y-118621222D01*
X135206904Y-118743616D01*
X135502727Y-118823159D01*
X135807057Y-118858101D01*
X136113209Y-118847678D01*
X136414459Y-118792117D01*
X136704186Y-118692638D01*
X136976027Y-118551428D01*
X137224010Y-118371589D01*
X137442688Y-118157070D01*
X137627255Y-117912584D01*
X137773658Y-117643505D01*
X137878680Y-117355740D01*
X137940682Y-117052347D01*
X137951706Y-116644931D01*
X137906202Y-116338629D01*
X137816895Y-116045607D01*
X137685259Y-115769003D01*
X137514183Y-115514894D01*
X137307426Y-115288864D01*
X137069532Y-115095877D01*
X136805725Y-114940172D01*
X136521801Y-114825171D01*
X136223997Y-114753399D01*
X135918856Y-114726435D01*
X135613082Y-114744869D01*
X135313391Y-114808297D01*
X135026366Y-114915326D01*
X134758315Y-115063604D01*
X134515124Y-115249873D01*
X134302137Y-115470043D01*
X134124033Y-115719275D01*
X133984723Y-115992097D01*
X133887271Y-116282511D01*
X133833814Y-116584140D01*
X133825528Y-116890358D01*
X110743000Y-116890358D01*
X110743000Y-109020769D01*
X121177001Y-109020769D01*
X121177001Y-109317631D01*
X121223440Y-109610839D01*
X121315176Y-109893173D01*
X121449949Y-110157679D01*
X121624440Y-110397846D01*
X121834354Y-110607760D01*
X122074521Y-110782251D01*
X122339027Y-110917024D01*
X122621361Y-111008760D01*
X122914569Y-111055199D01*
X123211431Y-111055199D01*
X123504639Y-111008760D01*
X123786973Y-110917024D01*
X124051479Y-110782251D01*
X124291646Y-110607760D01*
X124501560Y-110397846D01*
X124676051Y-110157679D01*
X124810824Y-109893173D01*
X124902560Y-109610839D01*
X124948999Y-109317631D01*
X124948999Y-109020769D01*
X124902560Y-108727561D01*
X124810824Y-108445227D01*
X124676051Y-108180721D01*
X124501560Y-107940554D01*
X124291646Y-107730640D01*
X124051479Y-107556149D01*
X123786973Y-107421376D01*
X123504639Y-107329640D01*
X123211431Y-107283201D01*
X122914569Y-107283201D01*
X122621361Y-107329640D01*
X122339027Y-107421376D01*
X122074521Y-107556149D01*
X121834354Y-107730640D01*
X121624440Y-107940554D01*
X121449949Y-108180721D01*
X121315176Y-108445227D01*
X121223440Y-108727561D01*
X121177001Y-109020769D01*
X110743000Y-109020769D01*
X110743000Y-105722131D01*
X133527044Y-105722131D01*
X133535415Y-105817816D01*
X133535415Y-105817816D01*
G37*
X133535415Y-105817816D02*
X133608373Y-106090098D01*
X133727504Y-106345576D01*
X133889188Y-106576486D01*
X134088514Y-106775812D01*
X134133055Y-106807000D01*
X134088514Y-106838188D01*
X133889189Y-107037513D01*
X133727504Y-107268423D01*
X133608373Y-107523902D01*
X133535415Y-107796184D01*
X133510847Y-108077000D01*
X133535415Y-108357816D01*
X133608373Y-108630098D01*
X133727504Y-108885576D01*
X133889188Y-109116486D01*
X134088514Y-109315812D01*
X134133055Y-109347000D01*
X134088514Y-109378188D01*
X133889189Y-109577513D01*
X133727504Y-109808423D01*
X133608373Y-110063902D01*
X133535415Y-110336184D01*
X133510847Y-110617000D01*
X133535415Y-110897816D01*
X133608373Y-111170098D01*
X133727504Y-111425576D01*
X133889188Y-111656486D01*
X134088514Y-111855812D01*
X134319424Y-112017496D01*
X134574902Y-112136627D01*
X134847184Y-112209585D01*
X135057667Y-112228000D01*
X135198333Y-112228000D01*
X135408816Y-112209585D01*
X135681098Y-112136627D01*
X135936576Y-112017496D01*
X136167486Y-111855812D01*
X136366811Y-111656487D01*
X136528496Y-111425577D01*
X136647627Y-111170098D01*
X136720585Y-110897816D01*
X136745153Y-110617000D01*
X136720585Y-110336184D01*
X136647627Y-110063902D01*
X136528496Y-109808424D01*
X136366812Y-109577514D01*
X136167486Y-109378188D01*
X136122945Y-109347000D01*
X136167486Y-109315812D01*
X136366811Y-109116487D01*
X136528496Y-108885577D01*
X136647627Y-108630098D01*
X136720585Y-108357816D01*
X136745153Y-108077000D01*
X136720585Y-107796184D01*
X136647627Y-107523902D01*
X136528496Y-107268424D01*
X136366812Y-107037514D01*
X136167486Y-106838188D01*
X136122945Y-106807000D01*
X136167486Y-106775812D01*
X136366811Y-106576487D01*
X136528496Y-106345577D01*
X136647627Y-106090098D01*
X136720585Y-105817816D01*
X136728956Y-105722131D01*
X148503256Y-105722131D01*
X148563562Y-105938849D01*
X148713143Y-106179630D01*
X148924291Y-106368751D01*
X149180033Y-106491007D01*
X149459808Y-106536571D01*
X149741124Y-106501780D01*
X149754320Y-106496083D01*
X149754320Y-107117611D01*
X149485979Y-107077269D01*
X149205108Y-107115494D01*
X148946254Y-107231014D01*
X148730228Y-107414542D01*
X148574394Y-107651325D01*
X148491282Y-107922328D01*
X148487571Y-108205764D01*
X148563562Y-108478849D01*
X148713143Y-108719630D01*
X148924291Y-108908751D01*
X149180033Y-109031007D01*
X149459808Y-109076571D01*
X149741124Y-109041780D01*
X149754320Y-109036083D01*
X149754320Y-109657611D01*
X149485979Y-109617269D01*
X149205108Y-109655494D01*
X148946254Y-109771014D01*
X148730228Y-109954542D01*
X148574394Y-110191325D01*
X148491282Y-110462328D01*
X148487571Y-110745764D01*
X148563562Y-111018849D01*
X148713143Y-111259630D01*
X148924291Y-111448751D01*
X149180033Y-111571007D01*
X149459808Y-111616571D01*
X149741124Y-111581780D01*
X149754320Y-111576083D01*
X149754320Y-121252775D01*
X149601949Y-121014061D01*
X149388505Y-120827534D01*
X149131290Y-120708411D01*
X148850979Y-120666269D01*
X148570108Y-120704494D01*
X148311254Y-120820014D01*
X148095228Y-121003542D01*
X147939394Y-121240325D01*
X147856282Y-121511328D01*
X147852571Y-121794764D01*
X147928562Y-122067849D01*
X148078143Y-122308630D01*
X148289291Y-122497751D01*
X148545033Y-122620007D01*
X148824808Y-122665571D01*
X149106124Y-122630780D01*
X149366371Y-122518432D01*
X149584624Y-122337556D01*
X149743338Y-122102695D01*
X149754320Y-122068387D01*
X149754320Y-126514630D01*
X149630533Y-126300224D01*
X149386499Y-125964341D01*
X149108694Y-125655806D01*
X148800159Y-125378001D01*
X148464276Y-125133967D01*
X148104724Y-124926380D01*
X147725444Y-124757514D01*
X147330589Y-124629217D01*
X146924487Y-124542898D01*
X146511587Y-124499501D01*
X146096413Y-124499501D01*
X145683513Y-124542898D01*
X145277411Y-124629217D01*
X144882556Y-124757514D01*
X144503276Y-124926380D01*
X144143724Y-125133967D01*
X143807841Y-125378001D01*
X143499306Y-125655806D01*
X143221501Y-125964341D01*
X142977467Y-126300224D01*
X142769880Y-126659776D01*
X142601014Y-127039056D01*
X142472717Y-127433911D01*
X142386398Y-127840013D01*
X142343001Y-128252913D01*
X142343001Y-128668087D01*
X142386398Y-129080987D01*
X142472717Y-129487089D01*
X142601014Y-129881944D01*
X142769880Y-130261224D01*
X142977467Y-130620776D01*
X143221501Y-130956659D01*
X143499306Y-131265194D01*
X143807841Y-131542999D01*
X144143724Y-131787033D01*
X144358130Y-131910820D01*
X99440000Y-131910820D01*
X99440000Y-130840023D01*
X121713591Y-130840023D01*
X122074521Y-131102251D01*
X122339027Y-131237024D01*
X122621361Y-131328760D01*
X122914569Y-131375199D01*
X123211431Y-131375199D01*
X123504639Y-131328760D01*
X123786973Y-131237024D01*
X124051479Y-131102251D01*
X124412409Y-130840023D01*
X123063000Y-129490614D01*
X121713591Y-130840023D01*
X99440000Y-130840023D01*
X99440000Y-129340769D01*
X121177001Y-129340769D01*
X121177001Y-129637631D01*
X121223440Y-129930839D01*
X121315176Y-130213173D01*
X121449949Y-130477679D01*
X121712177Y-130838609D01*
X123061586Y-129489200D01*
X123064414Y-129489200D01*
X124413823Y-130838609D01*
X124676051Y-130477679D01*
X124810824Y-130213173D01*
X124902560Y-129930839D01*
X124905923Y-129909600D01*
X132896436Y-129909600D01*
X132933471Y-130202757D01*
X133047975Y-130475154D01*
X133231516Y-130706726D01*
X133470571Y-130880408D01*
X133747525Y-130983406D01*
X134041975Y-131008132D01*
X134332226Y-130952763D01*
X134596897Y-130821380D01*
X134816486Y-130623661D01*
X134974816Y-130374174D01*
X135060611Y-130090006D01*
X135063915Y-129774558D01*
X134984089Y-129488655D01*
X134831019Y-129235907D01*
X134615619Y-129033633D01*
X134353758Y-128896735D01*
X134064730Y-128835300D01*
X133769826Y-128853853D01*
X133490775Y-128951029D01*
X133248137Y-129119667D01*
X133059787Y-129347343D01*
X132939602Y-129617284D01*
X132896436Y-129909600D01*
X124905923Y-129909600D01*
X124948999Y-129637631D01*
X124948999Y-129340769D01*
X124902560Y-129047561D01*
X124810824Y-128765227D01*
X124676051Y-128500721D01*
X124413823Y-128139791D01*
X123064414Y-129489200D01*
X123061586Y-129489200D01*
X121712177Y-128139791D01*
X121449949Y-128500721D01*
X121315176Y-128765227D01*
X121223440Y-129047561D01*
X121177001Y-129340769D01*
X99440000Y-129340769D01*
X99440000Y-128904000D01*
X110743000Y-128904000D01*
X110743000Y-128138377D01*
X121713591Y-128138377D01*
X123063000Y-129487786D01*
X124412409Y-128138377D01*
X124051479Y-127876149D01*
X123786973Y-127741376D01*
X123504639Y-127649640D01*
X123211431Y-127603201D01*
X122914569Y-127603201D01*
X122621361Y-127649640D01*
X122339027Y-127741376D01*
X122074521Y-127876149D01*
X121713591Y-128138377D01*
X110743000Y-128138377D01*
X110743000Y-126988600D01*
X130864436Y-126988600D01*
X130901471Y-127281757D01*
X131015975Y-127554154D01*
X131199516Y-127785726D01*
X131438571Y-127959408D01*
X131715525Y-128062406D01*
X132009975Y-128087132D01*
X132300226Y-128031763D01*
X132564897Y-127900380D01*
X132784486Y-127702661D01*
X132834659Y-127623600D01*
X134801436Y-127623600D01*
X134838471Y-127916757D01*
X134952975Y-128189154D01*
X135136516Y-128420726D01*
X135375571Y-128594408D01*
X135652525Y-128697406D01*
X135946975Y-128722132D01*
X136237226Y-128666763D01*
X136501897Y-128535380D01*
X136721486Y-128337661D01*
X136879816Y-128088174D01*
X136965611Y-127804006D01*
X136968915Y-127488558D01*
X136889089Y-127202655D01*
X136736019Y-126949907D01*
X136520619Y-126747633D01*
X136258758Y-126610735D01*
X135969730Y-126549300D01*
X135674826Y-126567853D01*
X135395775Y-126665029D01*
X135153137Y-126833667D01*
X134964787Y-127061343D01*
X134844602Y-127331284D01*
X134801436Y-127623600D01*
X132834659Y-127623600D01*
X132942816Y-127453174D01*
X133028611Y-127169006D01*
X133031915Y-126853558D01*
X132952089Y-126567655D01*
X132799019Y-126314907D01*
X132583619Y-126112633D01*
X132321758Y-125975735D01*
X132032730Y-125914300D01*
X131737826Y-125932853D01*
X131458775Y-126030029D01*
X131216137Y-126198667D01*
X131027787Y-126426343D01*
X130907602Y-126696284D01*
X130864436Y-126988600D01*
X110743000Y-126988600D01*
X110743000Y-124067600D01*
X132896436Y-124067600D01*
X132933471Y-124360757D01*
X133047975Y-124633154D01*
X133231516Y-124864726D01*
X133470571Y-125038408D01*
X133747525Y-125141406D01*
X134041975Y-125166132D01*
X134332226Y-125110763D01*
X134596897Y-124979380D01*
X134816486Y-124781661D01*
X134974816Y-124532174D01*
X135060611Y-124248006D01*
X135063915Y-123932558D01*
X135044169Y-123861837D01*
X135889000Y-123861837D01*
X135889000Y-121794000D01*
X135891000Y-121794000D01*
X135891000Y-123861837D01*
X137223308Y-123861837D01*
X137567578Y-123769590D01*
X137781953Y-123589708D01*
X137916138Y-123357293D01*
X137958837Y-123115135D01*
X137958837Y-121794000D01*
X135891000Y-121794000D01*
X135889000Y-121794000D01*
X133821163Y-121794000D01*
X133821163Y-123008623D01*
X133769826Y-123011853D01*
X133490775Y-123109029D01*
X133248137Y-123277667D01*
X133059787Y-123505343D01*
X132939602Y-123775284D01*
X132896436Y-124067600D01*
X110743000Y-124067600D01*
X110743000Y-119180769D01*
X121177001Y-119180769D01*
X121177001Y-119477631D01*
X121223440Y-119770839D01*
X121315176Y-120053173D01*
X121449949Y-120317679D01*
X121624440Y-120557846D01*
X121834354Y-120767760D01*
X122074521Y-120942251D01*
X122339027Y-121077024D01*
X122621361Y-121168760D01*
X122914569Y-121215199D01*
X123211431Y-121215199D01*
X123504639Y-121168760D01*
X123786973Y-121077024D01*
X124051479Y-120942251D01*
X124291646Y-120767760D01*
X124501560Y-120557846D01*
X124564755Y-120470865D01*
X133821163Y-120470865D01*
X133821163Y-121792000D01*
X135889000Y-121792000D01*
X135889000Y-119724163D01*
X135891000Y-119724163D01*
X135891000Y-121792000D01*
X137958837Y-121792000D01*
X137958837Y-120459692D01*
X137866590Y-120115424D01*
X137686708Y-119901047D01*
X137454293Y-119766862D01*
X137212135Y-119724163D01*
X135891000Y-119724163D01*
X135889000Y-119724163D01*
X134556692Y-119724163D01*
X134212424Y-119816410D01*
X133998047Y-119996292D01*
X133863862Y-120228707D01*
X133821163Y-120470865D01*
X124564755Y-120470865D01*
X124676051Y-120317679D01*
X124810824Y-120053173D01*
X124902560Y-119770839D01*
X124948999Y-119477631D01*
X124948999Y-119180769D01*
X124902560Y-118887561D01*
X124810824Y-118605227D01*
X124676051Y-118340721D01*
X124501560Y-118100554D01*
X124291646Y-117890640D01*
X124051479Y-117716149D01*
X123786973Y-117581376D01*
X123504639Y-117489640D01*
X123211431Y-117443201D01*
X122914569Y-117443201D01*
X122621361Y-117489640D01*
X122339027Y-117581376D01*
X122074521Y-117716149D01*
X121834354Y-117890640D01*
X121624440Y-118100554D01*
X121449949Y-118340721D01*
X121315176Y-118605227D01*
X121223440Y-118887561D01*
X121177001Y-119180769D01*
X110743000Y-119180769D01*
X110743000Y-116890358D01*
X133825528Y-116890358D01*
X133862595Y-117194437D01*
X133944200Y-117489697D01*
X134068551Y-117769652D01*
X134232916Y-118028152D01*
X134433686Y-118259517D01*
X134666447Y-118458666D01*
X134926088Y-118621222D01*
X135206904Y-118743616D01*
X135502727Y-118823159D01*
X135807057Y-118858101D01*
X136113209Y-118847678D01*
X136414459Y-118792117D01*
X136704186Y-118692638D01*
X136976027Y-118551428D01*
X137224010Y-118371589D01*
X137442688Y-118157070D01*
X137627255Y-117912584D01*
X137773658Y-117643505D01*
X137878680Y-117355740D01*
X137940682Y-117052347D01*
X137951706Y-116644931D01*
X137906202Y-116338629D01*
X137816895Y-116045607D01*
X137685259Y-115769003D01*
X137514183Y-115514894D01*
X137307426Y-115288864D01*
X137069532Y-115095877D01*
X136805725Y-114940172D01*
X136521801Y-114825171D01*
X136223997Y-114753399D01*
X135918856Y-114726435D01*
X135613082Y-114744869D01*
X135313391Y-114808297D01*
X135026366Y-114915326D01*
X134758315Y-115063604D01*
X134515124Y-115249873D01*
X134302137Y-115470043D01*
X134124033Y-115719275D01*
X133984723Y-115992097D01*
X133887271Y-116282511D01*
X133833814Y-116584140D01*
X133825528Y-116890358D01*
X110743000Y-116890358D01*
X110743000Y-109020769D01*
X121177001Y-109020769D01*
X121177001Y-109317631D01*
X121223440Y-109610839D01*
X121315176Y-109893173D01*
X121449949Y-110157679D01*
X121624440Y-110397846D01*
X121834354Y-110607760D01*
X122074521Y-110782251D01*
X122339027Y-110917024D01*
X122621361Y-111008760D01*
X122914569Y-111055199D01*
X123211431Y-111055199D01*
X123504639Y-111008760D01*
X123786973Y-110917024D01*
X124051479Y-110782251D01*
X124291646Y-110607760D01*
X124501560Y-110397846D01*
X124676051Y-110157679D01*
X124810824Y-109893173D01*
X124902560Y-109610839D01*
X124948999Y-109317631D01*
X124948999Y-109020769D01*
X124902560Y-108727561D01*
X124810824Y-108445227D01*
X124676051Y-108180721D01*
X124501560Y-107940554D01*
X124291646Y-107730640D01*
X124051479Y-107556149D01*
X123786973Y-107421376D01*
X123504639Y-107329640D01*
X123211431Y-107283201D01*
X122914569Y-107283201D01*
X122621361Y-107329640D01*
X122339027Y-107421376D01*
X122074521Y-107556149D01*
X121834354Y-107730640D01*
X121624440Y-107940554D01*
X121449949Y-108180721D01*
X121315176Y-108445227D01*
X121223440Y-108727561D01*
X121177001Y-109020769D01*
X110743000Y-109020769D01*
X110743000Y-105722131D01*
X133527044Y-105722131D01*
X133535415Y-105817816D01*
G36*
X122429000Y-52170817D02*
G01*
X120635372Y-52170817D01*
X120432505Y-51993534D01*
X120178750Y-51876013D01*
X120242800Y-51781233D01*
X120329698Y-51509762D01*
X120333685Y-51205187D01*
X120253923Y-50931534D01*
X120101411Y-50692599D01*
X119887967Y-50506072D01*
X119630752Y-50386949D01*
X119350441Y-50344807D01*
X119069570Y-50383032D01*
X118810716Y-50498552D01*
X118594690Y-50682080D01*
X118438856Y-50918863D01*
X118355744Y-51189866D01*
X118352033Y-51473302D01*
X118428024Y-51746387D01*
X118577605Y-51987168D01*
X118782644Y-52170817D01*
X116571372Y-52170817D01*
X116368505Y-51993534D01*
X116111290Y-51874411D01*
X115830979Y-51832269D01*
X115550108Y-51870494D01*
X115291254Y-51986014D01*
X115075228Y-52169541D01*
X115074388Y-52170817D01*
X96746800Y-52170817D01*
X96464587Y-52232209D01*
X96273948Y-52354725D01*
X96131617Y-52518982D01*
X96041330Y-52716686D01*
X96013000Y-52913722D01*
X96013000Y-69470000D01*
X89727388Y-69470000D01*
X89762816Y-69414174D01*
X89848611Y-69130006D01*
X89851915Y-68814558D01*
X89772089Y-68528655D01*
X89619019Y-68275907D01*
X89403619Y-68073633D01*
X89141758Y-67936735D01*
X88852730Y-67875300D01*
X88557826Y-67893853D01*
X88278775Y-67991029D01*
X88036137Y-68159667D01*
X87847787Y-68387343D01*
X87727602Y-68657284D01*
X87684436Y-68949600D01*
X87721471Y-69242757D01*
X87816994Y-69470000D01*
X86867000Y-69470000D01*
X86867000Y-67730889D01*
X86884525Y-67737406D01*
X87178975Y-67762132D01*
X87469226Y-67706763D01*
X87733897Y-67575380D01*
X87953486Y-67377661D01*
X88111816Y-67128174D01*
X88197611Y-66844006D01*
X88199500Y-66663600D01*
X89843436Y-66663600D01*
X89880471Y-66956757D01*
X89994975Y-67229154D01*
X90178516Y-67460726D01*
X90417571Y-67634408D01*
X90694525Y-67737406D01*
X90988975Y-67762132D01*
X91279226Y-67706763D01*
X91543897Y-67575380D01*
X91763486Y-67377661D01*
X91921816Y-67128174D01*
X92007611Y-66844006D01*
X92010915Y-66528558D01*
X91931089Y-66242655D01*
X91778019Y-65989907D01*
X91562619Y-65787633D01*
X91300758Y-65650735D01*
X91011730Y-65589300D01*
X90716826Y-65607853D01*
X90437775Y-65705029D01*
X90195137Y-65873667D01*
X90006787Y-66101343D01*
X89886602Y-66371284D01*
X89843436Y-66663600D01*
X88199500Y-66663600D01*
X88200915Y-66528558D01*
X88121089Y-66242655D01*
X87968019Y-65989907D01*
X87752619Y-65787633D01*
X87490758Y-65650735D01*
X87201730Y-65589300D01*
X86906826Y-65607853D01*
X86867000Y-65621722D01*
X86867000Y-64504600D01*
X87684436Y-64504600D01*
X87721471Y-64797757D01*
X87835975Y-65070154D01*
X88019516Y-65301726D01*
X88258571Y-65475408D01*
X88535525Y-65578406D01*
X88829975Y-65603132D01*
X89120226Y-65547763D01*
X89384897Y-65416380D01*
X89604486Y-65218661D01*
X89762816Y-64969174D01*
X89848611Y-64685006D01*
X89851915Y-64369558D01*
X89772089Y-64083655D01*
X89619019Y-63830907D01*
X89403619Y-63628633D01*
X89141758Y-63491735D01*
X88852730Y-63430300D01*
X88557826Y-63448853D01*
X88278775Y-63546029D01*
X88036137Y-63714667D01*
X87847787Y-63942343D01*
X87727602Y-64212284D01*
X87684436Y-64504600D01*
X86867000Y-64504600D01*
X86867000Y-55770358D01*
X90645528Y-55770358D01*
X90682595Y-56074437D01*
X90764200Y-56369697D01*
X90888551Y-56649652D01*
X91052916Y-56908152D01*
X91253686Y-57139517D01*
X91486447Y-57338666D01*
X91746088Y-57501222D01*
X92026904Y-57623616D01*
X92322727Y-57703159D01*
X92627057Y-57738101D01*
X92933209Y-57727678D01*
X93234459Y-57672117D01*
X93524186Y-57572638D01*
X93796027Y-57431428D01*
X94044010Y-57251589D01*
X94262688Y-57037070D01*
X94447255Y-56792584D01*
X94593658Y-56523505D01*
X94698680Y-56235740D01*
X94760682Y-55932347D01*
X94771706Y-55524931D01*
X94726202Y-55218629D01*
X94636895Y-54925607D01*
X94505259Y-54649003D01*
X94334183Y-54394894D01*
X94127426Y-54168864D01*
X93889532Y-53975877D01*
X93625725Y-53820172D01*
X93341801Y-53705171D01*
X93043997Y-53633399D01*
X92738856Y-53606435D01*
X92433082Y-53624869D01*
X92133391Y-53688297D01*
X91846366Y-53795326D01*
X91578315Y-53943604D01*
X91335124Y-54129873D01*
X91122137Y-54350043D01*
X90944033Y-54599275D01*
X90804723Y-54872097D01*
X90707271Y-55162511D01*
X90653814Y-55464140D01*
X90645528Y-55770358D01*
X86867000Y-55770358D01*
X86867000Y-50674000D01*
X90641163Y-50674000D01*
X90641163Y-52006308D01*
X90733410Y-52350578D01*
X90913292Y-52564953D01*
X91145707Y-52699138D01*
X91387865Y-52741837D01*
X92709000Y-52741837D01*
X92709000Y-50674000D01*
X92711000Y-50674000D01*
X92711000Y-52741837D01*
X94043308Y-52741837D01*
X94387578Y-52649590D01*
X94601953Y-52469708D01*
X94736138Y-52237293D01*
X94778837Y-51995135D01*
X94778837Y-50674000D01*
X92711000Y-50674000D01*
X92709000Y-50674000D01*
X90641163Y-50674000D01*
X86867000Y-50674000D01*
X86867000Y-49350865D01*
X90641163Y-49350865D01*
X90641163Y-50672000D01*
X92709000Y-50672000D01*
X92709000Y-48604163D01*
X92711000Y-48604163D01*
X92711000Y-50672000D01*
X94778837Y-50672000D01*
X94778837Y-50547764D01*
X112165571Y-50547764D01*
X112241562Y-50820849D01*
X112391143Y-51061630D01*
X112602291Y-51250751D01*
X112858033Y-51373007D01*
X113137808Y-51418571D01*
X113419124Y-51383780D01*
X113679371Y-51271432D01*
X113897624Y-51090556D01*
X114056338Y-50855695D01*
X114143236Y-50584224D01*
X114147223Y-50279649D01*
X114067461Y-50005996D01*
X113914949Y-49767061D01*
X113701505Y-49580534D01*
X113444290Y-49461411D01*
X113163979Y-49419269D01*
X112883108Y-49457494D01*
X112624254Y-49573014D01*
X112408228Y-49756542D01*
X112252394Y-49993325D01*
X112169282Y-50264328D01*
X112165571Y-50547764D01*
X94778837Y-50547764D01*
X94778837Y-49404764D01*
X115848571Y-49404764D01*
X115924562Y-49677849D01*
X116074143Y-49918630D01*
X116285291Y-50107751D01*
X116541033Y-50230007D01*
X116820808Y-50275571D01*
X117102124Y-50240780D01*
X117219538Y-50190093D01*
X117303033Y-50230007D01*
X117582808Y-50275571D01*
X117864124Y-50240780D01*
X118124371Y-50128432D01*
X118342624Y-49947556D01*
X118501338Y-49712695D01*
X118588236Y-49441224D01*
X118592223Y-49136649D01*
X118587134Y-49119190D01*
X118698291Y-49218751D01*
X118954033Y-49341007D01*
X119233808Y-49386571D01*
X119515124Y-49351780D01*
X119775371Y-49239432D01*
X119993624Y-49058556D01*
X120152338Y-48823695D01*
X120239236Y-48552224D01*
X120243223Y-48247649D01*
X120163461Y-47973996D01*
X120010949Y-47735061D01*
X119797505Y-47548534D01*
X119540290Y-47429411D01*
X119259979Y-47387269D01*
X118979108Y-47425494D01*
X118720254Y-47541014D01*
X118504228Y-47724542D01*
X118348394Y-47961325D01*
X118265282Y-48232328D01*
X118261571Y-48515764D01*
X118269780Y-48545263D01*
X118146505Y-48437534D01*
X117889290Y-48318411D01*
X117608979Y-48276269D01*
X117328108Y-48314494D01*
X117221531Y-48362057D01*
X117127290Y-48318411D01*
X116846979Y-48276269D01*
X116566108Y-48314494D01*
X116307254Y-48430014D01*
X116091228Y-48613542D01*
X115935394Y-48850325D01*
X115852282Y-49121328D01*
X115848571Y-49404764D01*
X94778837Y-49404764D01*
X94778837Y-49339692D01*
X94686590Y-48995424D01*
X94506708Y-48781047D01*
X94274293Y-48646862D01*
X94032135Y-48604163D01*
X92711000Y-48604163D01*
X92709000Y-48604163D01*
X91376692Y-48604163D01*
X91032424Y-48696410D01*
X90818047Y-48876292D01*
X90683862Y-49108707D01*
X90641163Y-49350865D01*
X86867000Y-49350865D01*
X86867000Y-47493572D01*
X86868223Y-47482228D01*
X86881189Y-47354585D01*
X86896046Y-47307176D01*
X86920135Y-47263718D01*
X86952469Y-47225993D01*
X86991728Y-47195541D01*
X87036304Y-47173607D01*
X87093539Y-47158698D01*
X87198756Y-47150602D01*
X87205863Y-47149020D01*
X122429000Y-47149020D01*
X122429000Y-52170817D01*
X122429000Y-52170817D01*
G37*
X122429000Y-52170817D02*
X120635372Y-52170817D01*
X120432505Y-51993534D01*
X120178750Y-51876013D01*
X120242800Y-51781233D01*
X120329698Y-51509762D01*
X120333685Y-51205187D01*
X120253923Y-50931534D01*
X120101411Y-50692599D01*
X119887967Y-50506072D01*
X119630752Y-50386949D01*
X119350441Y-50344807D01*
X119069570Y-50383032D01*
X118810716Y-50498552D01*
X118594690Y-50682080D01*
X118438856Y-50918863D01*
X118355744Y-51189866D01*
X118352033Y-51473302D01*
X118428024Y-51746387D01*
X118577605Y-51987168D01*
X118782644Y-52170817D01*
X116571372Y-52170817D01*
X116368505Y-51993534D01*
X116111290Y-51874411D01*
X115830979Y-51832269D01*
X115550108Y-51870494D01*
X115291254Y-51986014D01*
X115075228Y-52169541D01*
X115074388Y-52170817D01*
X96746800Y-52170817D01*
X96464587Y-52232209D01*
X96273948Y-52354725D01*
X96131617Y-52518982D01*
X96041330Y-52716686D01*
X96013000Y-52913722D01*
X96013000Y-69470000D01*
X89727388Y-69470000D01*
X89762816Y-69414174D01*
X89848611Y-69130006D01*
X89851915Y-68814558D01*
X89772089Y-68528655D01*
X89619019Y-68275907D01*
X89403619Y-68073633D01*
X89141758Y-67936735D01*
X88852730Y-67875300D01*
X88557826Y-67893853D01*
X88278775Y-67991029D01*
X88036137Y-68159667D01*
X87847787Y-68387343D01*
X87727602Y-68657284D01*
X87684436Y-68949600D01*
X87721471Y-69242757D01*
X87816994Y-69470000D01*
X86867000Y-69470000D01*
X86867000Y-67730889D01*
X86884525Y-67737406D01*
X87178975Y-67762132D01*
X87469226Y-67706763D01*
X87733897Y-67575380D01*
X87953486Y-67377661D01*
X88111816Y-67128174D01*
X88197611Y-66844006D01*
X88199500Y-66663600D01*
X89843436Y-66663600D01*
X89880471Y-66956757D01*
X89994975Y-67229154D01*
X90178516Y-67460726D01*
X90417571Y-67634408D01*
X90694525Y-67737406D01*
X90988975Y-67762132D01*
X91279226Y-67706763D01*
X91543897Y-67575380D01*
X91763486Y-67377661D01*
X91921816Y-67128174D01*
X92007611Y-66844006D01*
X92010915Y-66528558D01*
X91931089Y-66242655D01*
X91778019Y-65989907D01*
X91562619Y-65787633D01*
X91300758Y-65650735D01*
X91011730Y-65589300D01*
X90716826Y-65607853D01*
X90437775Y-65705029D01*
X90195137Y-65873667D01*
X90006787Y-66101343D01*
X89886602Y-66371284D01*
X89843436Y-66663600D01*
X88199500Y-66663600D01*
X88200915Y-66528558D01*
X88121089Y-66242655D01*
X87968019Y-65989907D01*
X87752619Y-65787633D01*
X87490758Y-65650735D01*
X87201730Y-65589300D01*
X86906826Y-65607853D01*
X86867000Y-65621722D01*
X86867000Y-64504600D01*
X87684436Y-64504600D01*
X87721471Y-64797757D01*
X87835975Y-65070154D01*
X88019516Y-65301726D01*
X88258571Y-65475408D01*
X88535525Y-65578406D01*
X88829975Y-65603132D01*
X89120226Y-65547763D01*
X89384897Y-65416380D01*
X89604486Y-65218661D01*
X89762816Y-64969174D01*
X89848611Y-64685006D01*
X89851915Y-64369558D01*
X89772089Y-64083655D01*
X89619019Y-63830907D01*
X89403619Y-63628633D01*
X89141758Y-63491735D01*
X88852730Y-63430300D01*
X88557826Y-63448853D01*
X88278775Y-63546029D01*
X88036137Y-63714667D01*
X87847787Y-63942343D01*
X87727602Y-64212284D01*
X87684436Y-64504600D01*
X86867000Y-64504600D01*
X86867000Y-55770358D01*
X90645528Y-55770358D01*
X90682595Y-56074437D01*
X90764200Y-56369697D01*
X90888551Y-56649652D01*
X91052916Y-56908152D01*
X91253686Y-57139517D01*
X91486447Y-57338666D01*
X91746088Y-57501222D01*
X92026904Y-57623616D01*
X92322727Y-57703159D01*
X92627057Y-57738101D01*
X92933209Y-57727678D01*
X93234459Y-57672117D01*
X93524186Y-57572638D01*
X93796027Y-57431428D01*
X94044010Y-57251589D01*
X94262688Y-57037070D01*
X94447255Y-56792584D01*
X94593658Y-56523505D01*
X94698680Y-56235740D01*
X94760682Y-55932347D01*
X94771706Y-55524931D01*
X94726202Y-55218629D01*
X94636895Y-54925607D01*
X94505259Y-54649003D01*
X94334183Y-54394894D01*
X94127426Y-54168864D01*
X93889532Y-53975877D01*
X93625725Y-53820172D01*
X93341801Y-53705171D01*
X93043997Y-53633399D01*
X92738856Y-53606435D01*
X92433082Y-53624869D01*
X92133391Y-53688297D01*
X91846366Y-53795326D01*
X91578315Y-53943604D01*
X91335124Y-54129873D01*
X91122137Y-54350043D01*
X90944033Y-54599275D01*
X90804723Y-54872097D01*
X90707271Y-55162511D01*
X90653814Y-55464140D01*
X90645528Y-55770358D01*
X86867000Y-55770358D01*
X86867000Y-50674000D01*
X90641163Y-50674000D01*
X90641163Y-52006308D01*
X90733410Y-52350578D01*
X90913292Y-52564953D01*
X91145707Y-52699138D01*
X91387865Y-52741837D01*
X92709000Y-52741837D01*
X92709000Y-50674000D01*
X92711000Y-50674000D01*
X92711000Y-52741837D01*
X94043308Y-52741837D01*
X94387578Y-52649590D01*
X94601953Y-52469708D01*
X94736138Y-52237293D01*
X94778837Y-51995135D01*
X94778837Y-50674000D01*
X92711000Y-50674000D01*
X92709000Y-50674000D01*
X90641163Y-50674000D01*
X86867000Y-50674000D01*
X86867000Y-49350865D01*
X90641163Y-49350865D01*
X90641163Y-50672000D01*
X92709000Y-50672000D01*
X92709000Y-48604163D01*
X92711000Y-48604163D01*
X92711000Y-50672000D01*
X94778837Y-50672000D01*
X94778837Y-50547764D01*
X112165571Y-50547764D01*
X112241562Y-50820849D01*
X112391143Y-51061630D01*
X112602291Y-51250751D01*
X112858033Y-51373007D01*
X113137808Y-51418571D01*
X113419124Y-51383780D01*
X113679371Y-51271432D01*
X113897624Y-51090556D01*
X114056338Y-50855695D01*
X114143236Y-50584224D01*
X114147223Y-50279649D01*
X114067461Y-50005996D01*
X113914949Y-49767061D01*
X113701505Y-49580534D01*
X113444290Y-49461411D01*
X113163979Y-49419269D01*
X112883108Y-49457494D01*
X112624254Y-49573014D01*
X112408228Y-49756542D01*
X112252394Y-49993325D01*
X112169282Y-50264328D01*
X112165571Y-50547764D01*
X94778837Y-50547764D01*
X94778837Y-49404764D01*
X115848571Y-49404764D01*
X115924562Y-49677849D01*
X116074143Y-49918630D01*
X116285291Y-50107751D01*
X116541033Y-50230007D01*
X116820808Y-50275571D01*
X117102124Y-50240780D01*
X117219538Y-50190093D01*
X117303033Y-50230007D01*
X117582808Y-50275571D01*
X117864124Y-50240780D01*
X118124371Y-50128432D01*
X118342624Y-49947556D01*
X118501338Y-49712695D01*
X118588236Y-49441224D01*
X118592223Y-49136649D01*
X118587134Y-49119190D01*
X118698291Y-49218751D01*
X118954033Y-49341007D01*
X119233808Y-49386571D01*
X119515124Y-49351780D01*
X119775371Y-49239432D01*
X119993624Y-49058556D01*
X120152338Y-48823695D01*
X120239236Y-48552224D01*
X120243223Y-48247649D01*
X120163461Y-47973996D01*
X120010949Y-47735061D01*
X119797505Y-47548534D01*
X119540290Y-47429411D01*
X119259979Y-47387269D01*
X118979108Y-47425494D01*
X118720254Y-47541014D01*
X118504228Y-47724542D01*
X118348394Y-47961325D01*
X118265282Y-48232328D01*
X118261571Y-48515764D01*
X118269780Y-48545263D01*
X118146505Y-48437534D01*
X117889290Y-48318411D01*
X117608979Y-48276269D01*
X117328108Y-48314494D01*
X117221531Y-48362057D01*
X117127290Y-48318411D01*
X116846979Y-48276269D01*
X116566108Y-48314494D01*
X116307254Y-48430014D01*
X116091228Y-48613542D01*
X115935394Y-48850325D01*
X115852282Y-49121328D01*
X115848571Y-49404764D01*
X94778837Y-49404764D01*
X94778837Y-49339692D01*
X94686590Y-48995424D01*
X94506708Y-48781047D01*
X94274293Y-48646862D01*
X94032135Y-48604163D01*
X92711000Y-48604163D01*
X92709000Y-48604163D01*
X91376692Y-48604163D01*
X91032424Y-48696410D01*
X90818047Y-48876292D01*
X90683862Y-49108707D01*
X90641163Y-49350865D01*
X86867000Y-49350865D01*
X86867000Y-47493572D01*
X86868223Y-47482228D01*
X86881189Y-47354585D01*
X86896046Y-47307176D01*
X86920135Y-47263718D01*
X86952469Y-47225993D01*
X86991728Y-47195541D01*
X87036304Y-47173607D01*
X87093539Y-47158698D01*
X87198756Y-47150602D01*
X87205863Y-47149020D01*
X122429000Y-47149020D01*
X122429000Y-52170817D01*
G36*
X134397189Y-47220513D02*
G01*
X134235504Y-47451423D01*
X134116373Y-47706902D01*
X134043415Y-47979184D01*
X134018847Y-48260000D01*
X134043415Y-48540816D01*
X134116373Y-48813098D01*
X134235504Y-49068576D01*
X134397188Y-49299486D01*
X134596514Y-49498812D01*
X134827424Y-49660496D01*
X135082902Y-49779627D01*
X135355184Y-49852585D01*
X135565667Y-49871000D01*
X135706333Y-49871000D01*
X135916816Y-49852585D01*
X136189098Y-49779627D01*
X136444576Y-49660496D01*
X136664998Y-49506155D01*
X136829292Y-49701953D01*
X137061707Y-49836138D01*
X137303865Y-49878837D01*
X138175000Y-49878837D01*
X138175000Y-48261000D01*
X138177000Y-48261000D01*
X138177000Y-49878837D01*
X139059308Y-49878837D01*
X139403578Y-49786590D01*
X139617953Y-49606708D01*
X139752138Y-49374293D01*
X139794837Y-49132135D01*
X139794837Y-48261000D01*
X138177000Y-48261000D01*
X138175000Y-48261000D01*
X138175000Y-48259000D01*
X139794837Y-48259000D01*
X139794837Y-47376692D01*
X139733832Y-47149020D01*
X144375728Y-47149020D01*
X144143724Y-47282967D01*
X143807841Y-47527001D01*
X143499306Y-47804806D01*
X143221501Y-48113341D01*
X142977467Y-48449224D01*
X142769880Y-48808776D01*
X142601014Y-49188056D01*
X142472717Y-49582911D01*
X142386398Y-49989013D01*
X142343001Y-50401913D01*
X142343001Y-50817087D01*
X142386398Y-51229987D01*
X142472717Y-51636089D01*
X142601014Y-52030944D01*
X142769880Y-52410224D01*
X142977467Y-52769776D01*
X143221501Y-53105659D01*
X143499306Y-53414194D01*
X143730852Y-53622679D01*
X129129235Y-53676397D01*
X128849385Y-53737815D01*
X128658948Y-53860201D01*
X128516617Y-54024458D01*
X128426330Y-54222162D01*
X128398000Y-54419198D01*
X128398000Y-58633939D01*
X121352472Y-58608580D01*
X121194505Y-58470534D01*
X120937290Y-58351411D01*
X120656979Y-58309269D01*
X120376108Y-58347494D01*
X120117254Y-58463014D01*
X119951845Y-58603539D01*
X110483474Y-58569459D01*
X110372744Y-58577179D01*
X110172788Y-58635891D01*
X109989948Y-58753396D01*
X109847617Y-58917653D01*
X109757330Y-59115357D01*
X109729000Y-59312393D01*
X109729000Y-69897355D01*
X109674877Y-70015869D01*
X109646547Y-70212905D01*
X109646547Y-84609200D01*
X109702660Y-84867145D01*
X109585394Y-85045325D01*
X109502282Y-85316328D01*
X109501517Y-85374758D01*
X109327108Y-85398494D01*
X109068254Y-85514014D01*
X108852228Y-85697542D01*
X108696394Y-85934325D01*
X108613282Y-86205328D01*
X108609571Y-86488764D01*
X108685562Y-86761849D01*
X108835143Y-87002630D01*
X109046291Y-87191751D01*
X109302033Y-87314007D01*
X109581808Y-87359571D01*
X109729000Y-87341367D01*
X109729000Y-88063117D01*
X109577514Y-88169188D01*
X109378189Y-88368513D01*
X109347000Y-88413055D01*
X109315812Y-88368514D01*
X109116486Y-88169188D01*
X108885576Y-88007504D01*
X108630098Y-87888373D01*
X108357816Y-87815415D01*
X108147333Y-87797000D01*
X108006667Y-87797000D01*
X107796184Y-87815415D01*
X107523902Y-87888373D01*
X107268424Y-88007504D01*
X107037514Y-88169188D01*
X106838189Y-88368513D01*
X106676504Y-88599423D01*
X106557373Y-88854902D01*
X106484415Y-89127184D01*
X106459847Y-89408000D01*
X106484415Y-89688816D01*
X106557373Y-89961098D01*
X106676504Y-90216576D01*
X106838188Y-90447486D01*
X107037514Y-90646812D01*
X107268424Y-90808496D01*
X107523902Y-90927627D01*
X107796184Y-91000585D01*
X108006667Y-91019000D01*
X108147333Y-91019000D01*
X108357816Y-91000585D01*
X108630098Y-90927627D01*
X108885576Y-90808496D01*
X109116486Y-90646812D01*
X109315811Y-90447487D01*
X109347000Y-90402945D01*
X109378188Y-90447486D01*
X109577514Y-90646812D01*
X109729000Y-90752883D01*
X109729000Y-95902083D01*
X109454108Y-95939494D01*
X109195254Y-96055014D01*
X108979228Y-96238542D01*
X108823394Y-96475325D01*
X108740282Y-96746328D01*
X108736571Y-97029764D01*
X108812562Y-97302849D01*
X108962143Y-97543630D01*
X109173291Y-97732751D01*
X109429033Y-97855007D01*
X109708808Y-97900571D01*
X109729000Y-97898074D01*
X109729000Y-99221091D01*
X109507290Y-99118411D01*
X109226979Y-99076269D01*
X108946108Y-99114494D01*
X108687254Y-99230014D01*
X108649552Y-99262044D01*
X108621505Y-99237534D01*
X108364290Y-99118411D01*
X108083979Y-99076269D01*
X107803108Y-99114494D01*
X107544254Y-99230014D01*
X107328228Y-99413542D01*
X107172394Y-99650325D01*
X107089282Y-99921328D01*
X107085571Y-100204764D01*
X107161562Y-100477849D01*
X107311143Y-100718630D01*
X107522291Y-100907751D01*
X107605473Y-100947516D01*
X107523902Y-100969373D01*
X107268424Y-101088504D01*
X107037514Y-101250188D01*
X106838189Y-101449513D01*
X106676504Y-101680423D01*
X106557373Y-101935902D01*
X106484415Y-102208184D01*
X106459847Y-102489000D01*
X106484415Y-102769816D01*
X106557373Y-103042098D01*
X106676504Y-103297576D01*
X106838188Y-103528486D01*
X107037514Y-103727812D01*
X107268424Y-103889496D01*
X107523902Y-104008627D01*
X107796184Y-104081585D01*
X108006667Y-104100000D01*
X108147333Y-104100000D01*
X108357816Y-104081585D01*
X108630098Y-104008627D01*
X108885576Y-103889496D01*
X109116486Y-103727812D01*
X109315811Y-103528487D01*
X109347000Y-103483945D01*
X109378188Y-103528486D01*
X109577514Y-103727812D01*
X109729000Y-103833883D01*
X109729000Y-104988330D01*
X109730954Y-104997314D01*
X109729000Y-105010905D01*
X109729000Y-127890000D01*
X99440000Y-127890000D01*
X99440000Y-123220023D01*
X101393591Y-123220023D01*
X101754521Y-123482251D01*
X102019027Y-123617024D01*
X102301361Y-123708760D01*
X102594569Y-123755199D01*
X102891431Y-123755199D01*
X103184639Y-123708760D01*
X103466973Y-123617024D01*
X103731479Y-123482251D01*
X104092409Y-123220023D01*
X102743000Y-121870614D01*
X101393591Y-123220023D01*
X99440000Y-123220023D01*
X99440000Y-121720769D01*
X100857001Y-121720769D01*
X100857001Y-122017631D01*
X100903440Y-122310839D01*
X100995176Y-122593173D01*
X101129949Y-122857679D01*
X101392177Y-123218609D01*
X102741586Y-121869200D01*
X102744414Y-121869200D01*
X104093823Y-123218609D01*
X104356051Y-122857679D01*
X104490824Y-122593173D01*
X104582560Y-122310839D01*
X104628999Y-122017631D01*
X104628999Y-121720769D01*
X104582560Y-121427561D01*
X104490824Y-121145227D01*
X104356051Y-120880721D01*
X104093823Y-120519791D01*
X102744414Y-121869200D01*
X102741586Y-121869200D01*
X101392177Y-120519791D01*
X101129949Y-120880721D01*
X100995176Y-121145227D01*
X100903440Y-121427561D01*
X100857001Y-121720769D01*
X99440000Y-121720769D01*
X99440000Y-120518377D01*
X101393591Y-120518377D01*
X102743000Y-121867786D01*
X104092409Y-120518377D01*
X103731479Y-120256149D01*
X103466973Y-120121376D01*
X103184639Y-120029640D01*
X102891431Y-119983201D01*
X102594569Y-119983201D01*
X102301361Y-120029640D01*
X102019027Y-120121376D01*
X101754521Y-120256149D01*
X101393591Y-120518377D01*
X99440000Y-120518377D01*
X99440000Y-116640769D01*
X100857001Y-116640769D01*
X100857001Y-116937631D01*
X100903440Y-117230839D01*
X100995176Y-117513173D01*
X101129949Y-117777679D01*
X101304440Y-118017846D01*
X101514354Y-118227760D01*
X101754521Y-118402251D01*
X102019027Y-118537024D01*
X102301361Y-118628760D01*
X102594569Y-118675199D01*
X102891431Y-118675199D01*
X103184639Y-118628760D01*
X103466973Y-118537024D01*
X103731479Y-118402251D01*
X103971646Y-118227760D01*
X104181560Y-118017846D01*
X104356051Y-117777679D01*
X104490824Y-117513173D01*
X104582560Y-117230839D01*
X104628999Y-116937631D01*
X104628999Y-116640769D01*
X104582560Y-116347561D01*
X104490824Y-116065227D01*
X104356051Y-115800721D01*
X104181560Y-115560554D01*
X103971646Y-115350640D01*
X103731479Y-115176149D01*
X103466973Y-115041376D01*
X103184639Y-114949640D01*
X102891431Y-114903201D01*
X102594569Y-114903201D01*
X102301361Y-114949640D01*
X102019027Y-115041376D01*
X101754521Y-115176149D01*
X101514354Y-115350640D01*
X101304440Y-115560554D01*
X101129949Y-115800721D01*
X100995176Y-116065227D01*
X100903440Y-116347561D01*
X100857001Y-116640769D01*
X99440000Y-116640769D01*
X99440000Y-109020769D01*
X100857001Y-109020769D01*
X100857001Y-109317631D01*
X100903440Y-109610839D01*
X100995176Y-109893173D01*
X101129949Y-110157679D01*
X101304440Y-110397846D01*
X101514354Y-110607760D01*
X101754521Y-110782251D01*
X102019027Y-110917024D01*
X102301361Y-111008760D01*
X102594569Y-111055199D01*
X102891431Y-111055199D01*
X103184639Y-111008760D01*
X103466973Y-110917024D01*
X103731479Y-110782251D01*
X103971646Y-110607760D01*
X104181560Y-110397846D01*
X104356051Y-110157679D01*
X104490824Y-109893173D01*
X104582560Y-109610839D01*
X104628999Y-109317631D01*
X104628999Y-109020769D01*
X104582560Y-108727561D01*
X104490824Y-108445227D01*
X104356051Y-108180721D01*
X104181560Y-107940554D01*
X103971646Y-107730640D01*
X103731479Y-107556149D01*
X103466973Y-107421376D01*
X103184639Y-107329640D01*
X102891431Y-107283201D01*
X102594569Y-107283201D01*
X102301361Y-107329640D01*
X102019027Y-107421376D01*
X101754521Y-107556149D01*
X101514354Y-107730640D01*
X101304440Y-107940554D01*
X101129949Y-108180721D01*
X100995176Y-108445227D01*
X100903440Y-108727561D01*
X100857001Y-109020769D01*
X99440000Y-109020769D01*
X99440000Y-106046764D01*
X100227571Y-106046764D01*
X100303562Y-106319849D01*
X100453143Y-106560630D01*
X100664291Y-106749751D01*
X100920033Y-106872007D01*
X101199808Y-106917571D01*
X101481124Y-106882780D01*
X101741371Y-106770432D01*
X101959624Y-106589556D01*
X102118338Y-106354695D01*
X102205236Y-106083224D01*
X102209223Y-105778649D01*
X102129461Y-105504996D01*
X101976949Y-105266061D01*
X101763505Y-105079534D01*
X101506290Y-104960411D01*
X101225979Y-104918269D01*
X100945108Y-104956494D01*
X100686254Y-105072014D01*
X100470228Y-105255542D01*
X100314394Y-105492325D01*
X100231282Y-105763328D01*
X100227571Y-106046764D01*
X99440000Y-106046764D01*
X99440000Y-104268764D01*
X103021571Y-104268764D01*
X103097562Y-104541849D01*
X103247143Y-104782630D01*
X103458291Y-104971751D01*
X103714033Y-105094007D01*
X103993808Y-105139571D01*
X104275124Y-105104780D01*
X104535371Y-104992432D01*
X104753624Y-104811556D01*
X104912338Y-104576695D01*
X104970254Y-104395764D01*
X105053571Y-104395764D01*
X105129562Y-104668849D01*
X105279143Y-104909630D01*
X105490291Y-105098751D01*
X105746033Y-105221007D01*
X106025808Y-105266571D01*
X106307124Y-105231780D01*
X106567371Y-105119432D01*
X106785624Y-104938556D01*
X106944338Y-104703695D01*
X107031236Y-104432224D01*
X107035223Y-104127649D01*
X106955461Y-103853996D01*
X106802949Y-103615061D01*
X106589505Y-103428534D01*
X106332290Y-103309411D01*
X106051979Y-103267269D01*
X105771108Y-103305494D01*
X105512254Y-103421014D01*
X105296228Y-103604542D01*
X105140394Y-103841325D01*
X105057282Y-104112328D01*
X105053571Y-104395764D01*
X104970254Y-104395764D01*
X104999236Y-104305224D01*
X105003223Y-104000649D01*
X104923461Y-103726996D01*
X104770949Y-103488061D01*
X104557505Y-103301534D01*
X104300290Y-103182411D01*
X104019979Y-103140269D01*
X103739108Y-103178494D01*
X103480254Y-103294014D01*
X103264228Y-103477542D01*
X103108394Y-103714325D01*
X103025282Y-103985328D01*
X103021571Y-104268764D01*
X99440000Y-104268764D01*
X99440000Y-97791000D01*
X100339163Y-97791000D01*
X100339163Y-98823308D01*
X100431410Y-99167578D01*
X100611292Y-99381953D01*
X100843707Y-99516138D01*
X101085865Y-99558837D01*
X102107000Y-99558837D01*
X102107000Y-97791000D01*
X102109000Y-97791000D01*
X102109000Y-99558837D01*
X103141308Y-99558837D01*
X103485578Y-99466590D01*
X103699953Y-99286708D01*
X103834138Y-99054293D01*
X103876837Y-98812135D01*
X103876837Y-97791000D01*
X102109000Y-97791000D01*
X102107000Y-97791000D01*
X100339163Y-97791000D01*
X99440000Y-97791000D01*
X99440000Y-96767865D01*
X100339163Y-96767865D01*
X100339163Y-97789000D01*
X102107000Y-97789000D01*
X102107000Y-96021163D01*
X102109000Y-96021163D01*
X102109000Y-97789000D01*
X103876837Y-97789000D01*
X103876837Y-96756692D01*
X103784590Y-96412424D01*
X103604708Y-96198047D01*
X103505492Y-96140764D01*
X106450571Y-96140764D01*
X106526562Y-96413849D01*
X106676143Y-96654630D01*
X106887291Y-96843751D01*
X107143033Y-96966007D01*
X107422808Y-97011571D01*
X107704124Y-96976780D01*
X107964371Y-96864432D01*
X108182624Y-96683556D01*
X108341338Y-96448695D01*
X108428236Y-96177224D01*
X108432223Y-95872649D01*
X108352461Y-95598996D01*
X108199949Y-95360061D01*
X107986505Y-95173534D01*
X107729290Y-95054411D01*
X107448979Y-95012269D01*
X107168108Y-95050494D01*
X106909254Y-95166014D01*
X106693228Y-95349542D01*
X106537394Y-95586325D01*
X106454282Y-95857328D01*
X106450571Y-96140764D01*
X103505492Y-96140764D01*
X103372293Y-96063862D01*
X103130135Y-96021163D01*
X102109000Y-96021163D01*
X102107000Y-96021163D01*
X101074692Y-96021163D01*
X100730424Y-96113410D01*
X100516047Y-96293292D01*
X100381862Y-96525707D01*
X100339163Y-96767865D01*
X99440000Y-96767865D01*
X99440000Y-92891716D01*
X100343908Y-92891716D01*
X100384209Y-93178473D01*
X100470804Y-93454797D01*
X100601366Y-93713266D01*
X100772391Y-93946941D01*
X100979283Y-94149546D01*
X101216489Y-94315639D01*
X101477636Y-94440759D01*
X101755713Y-94521548D01*
X102043250Y-94555835D01*
X102332526Y-94542699D01*
X102615772Y-94482493D01*
X102885382Y-94376835D01*
X103134115Y-94228560D01*
X103355290Y-94041652D01*
X103542969Y-93821130D01*
X103692111Y-93572916D01*
X103798711Y-93303677D01*
X103860563Y-93017598D01*
X103869589Y-92648286D01*
X103821784Y-92359527D01*
X103728465Y-92085402D01*
X103591627Y-91830199D01*
X103414944Y-91600772D01*
X103203163Y-91403284D01*
X102961970Y-91243035D01*
X102697844Y-91124332D01*
X102417876Y-91050361D01*
X102129587Y-91023110D01*
X101840719Y-91043310D01*
X101559028Y-91110418D01*
X101292080Y-91222633D01*
X101047044Y-91376940D01*
X100830501Y-91569196D01*
X100648266Y-91794237D01*
X100505234Y-92046021D01*
X100405244Y-92317784D01*
X100350984Y-92602230D01*
X100343908Y-92891716D01*
X99440000Y-92891716D01*
X99440000Y-87722851D01*
X99548808Y-87740571D01*
X99830124Y-87705780D01*
X100090371Y-87593432D01*
X100308624Y-87412556D01*
X100467338Y-87177695D01*
X100554236Y-86906224D01*
X100558223Y-86601649D01*
X100478461Y-86327996D01*
X100325949Y-86089061D01*
X100112505Y-85902534D01*
X99855290Y-85783411D01*
X99574979Y-85741269D01*
X99440000Y-85759639D01*
X99440000Y-84607314D01*
X99523033Y-84647007D01*
X99802808Y-84692571D01*
X100084124Y-84657780D01*
X100344371Y-84545432D01*
X100562624Y-84364556D01*
X100721338Y-84129695D01*
X100808236Y-83858224D01*
X100812223Y-83553649D01*
X100732461Y-83279996D01*
X100579949Y-83041061D01*
X100366505Y-82854534D01*
X100109290Y-82735411D01*
X99828979Y-82693269D01*
X99548108Y-82731494D01*
X99440000Y-82779740D01*
X99440000Y-76280823D01*
X101393591Y-76280823D01*
X101754521Y-76543051D01*
X102019027Y-76677824D01*
X102301361Y-76769560D01*
X102594569Y-76815999D01*
X102891431Y-76815999D01*
X103184639Y-76769560D01*
X103466973Y-76677824D01*
X103731479Y-76543051D01*
X104092409Y-76280823D01*
X102743000Y-74931414D01*
X101393591Y-76280823D01*
X99440000Y-76280823D01*
X99440000Y-74781569D01*
X100857001Y-74781569D01*
X100857001Y-75078431D01*
X100903440Y-75371639D01*
X100995176Y-75653973D01*
X101129949Y-75918479D01*
X101392177Y-76279409D01*
X102741586Y-74930000D01*
X102744414Y-74930000D01*
X104093823Y-76279409D01*
X104356051Y-75918479D01*
X104490824Y-75653973D01*
X104582560Y-75371639D01*
X104628999Y-75078431D01*
X104628999Y-74781569D01*
X104582560Y-74488361D01*
X104490824Y-74206027D01*
X104356051Y-73941521D01*
X104093823Y-73580591D01*
X102744414Y-74930000D01*
X102741586Y-74930000D01*
X101392177Y-73580591D01*
X101129949Y-73941521D01*
X100995176Y-74206027D01*
X100903440Y-74488361D01*
X100857001Y-74781569D01*
X99440000Y-74781569D01*
X99440000Y-73579177D01*
X101393591Y-73579177D01*
X102743000Y-74928586D01*
X104092409Y-73579177D01*
X103731479Y-73316949D01*
X103466973Y-73182176D01*
X103184639Y-73090440D01*
X102891431Y-73044001D01*
X102594569Y-73044001D01*
X102301361Y-73090440D01*
X102019027Y-73182176D01*
X101754521Y-73316949D01*
X101393591Y-73579177D01*
X99440000Y-73579177D01*
X99440000Y-69701569D01*
X100857001Y-69701569D01*
X100857001Y-69998431D01*
X100903440Y-70291639D01*
X100995176Y-70573973D01*
X101129949Y-70838479D01*
X101304440Y-71078646D01*
X101514354Y-71288560D01*
X101754521Y-71463051D01*
X102019027Y-71597824D01*
X102301361Y-71689560D01*
X102594569Y-71735999D01*
X102891431Y-71735999D01*
X103184639Y-71689560D01*
X103466973Y-71597824D01*
X103731479Y-71463051D01*
X103971646Y-71288560D01*
X104181560Y-71078646D01*
X104356051Y-70838479D01*
X104490824Y-70573973D01*
X104582560Y-70291639D01*
X104628999Y-69998431D01*
X104628999Y-69701569D01*
X104582560Y-69408361D01*
X104490824Y-69126027D01*
X104356051Y-68861521D01*
X104181560Y-68621354D01*
X103971646Y-68411440D01*
X103731479Y-68236949D01*
X103466973Y-68102176D01*
X103184639Y-68010440D01*
X102891431Y-67964001D01*
X102594569Y-67964001D01*
X102301361Y-68010440D01*
X102019027Y-68102176D01*
X101754521Y-68236949D01*
X101514354Y-68411440D01*
X101304440Y-68621354D01*
X101129949Y-68861521D01*
X100995176Y-69126027D01*
X100903440Y-69408361D01*
X100857001Y-69701569D01*
X99440000Y-69701569D01*
X99440000Y-69442817D01*
X97027000Y-69442817D01*
X97027000Y-62081569D01*
X100857001Y-62081569D01*
X100857001Y-62378431D01*
X100903440Y-62671639D01*
X100995176Y-62953973D01*
X101129949Y-63218479D01*
X101304440Y-63458646D01*
X101514354Y-63668560D01*
X101754521Y-63843051D01*
X102019027Y-63977824D01*
X102301361Y-64069560D01*
X102594569Y-64115999D01*
X102891431Y-64115999D01*
X103184639Y-64069560D01*
X103466973Y-63977824D01*
X103731479Y-63843051D01*
X103971646Y-63668560D01*
X104181560Y-63458646D01*
X104356051Y-63218479D01*
X104490824Y-62953973D01*
X104582560Y-62671639D01*
X104628999Y-62378431D01*
X104628999Y-62081569D01*
X104582560Y-61788361D01*
X104490824Y-61506027D01*
X104356051Y-61241521D01*
X104181560Y-61001354D01*
X103971646Y-60791440D01*
X103731479Y-60616949D01*
X103466973Y-60482176D01*
X103184639Y-60390440D01*
X102891431Y-60344001D01*
X102594569Y-60344001D01*
X102301361Y-60390440D01*
X102019027Y-60482176D01*
X101754521Y-60616949D01*
X101514354Y-60791440D01*
X101304440Y-61001354D01*
X101129949Y-61241521D01*
X100995176Y-61506027D01*
X100903440Y-61788361D01*
X100857001Y-62081569D01*
X97027000Y-62081569D01*
X97027000Y-56632991D01*
X118134571Y-56632991D01*
X118210562Y-56906076D01*
X118360143Y-57146857D01*
X118571291Y-57335978D01*
X118827033Y-57458234D01*
X119106808Y-57503798D01*
X119388124Y-57469007D01*
X119648371Y-57356659D01*
X119866624Y-57175783D01*
X120025338Y-56940922D01*
X120112236Y-56669451D01*
X120116223Y-56364876D01*
X120036461Y-56091223D01*
X119883949Y-55852288D01*
X119670505Y-55665761D01*
X119413290Y-55546638D01*
X119132979Y-55504496D01*
X118852108Y-55542721D01*
X118593254Y-55658241D01*
X118377228Y-55841769D01*
X118221394Y-56078552D01*
X118138282Y-56349555D01*
X118134571Y-56632991D01*
X97027000Y-56632991D01*
X97027000Y-54992764D01*
X112165571Y-54992764D01*
X112241562Y-55265849D01*
X112391143Y-55506630D01*
X112602291Y-55695751D01*
X112858033Y-55818007D01*
X113137808Y-55863571D01*
X113419124Y-55828780D01*
X113679371Y-55716432D01*
X113897624Y-55535556D01*
X114056338Y-55300695D01*
X114143236Y-55029224D01*
X114147223Y-54724649D01*
X114067461Y-54450996D01*
X113914949Y-54212061D01*
X113701505Y-54025534D01*
X113444290Y-53906411D01*
X113163979Y-53864269D01*
X112883108Y-53902494D01*
X112624254Y-54018014D01*
X112408228Y-54201542D01*
X112252394Y-54438325D01*
X112169282Y-54709328D01*
X112165571Y-54992764D01*
X97027000Y-54992764D01*
X97027000Y-53184817D01*
X114894918Y-53184817D01*
X114908562Y-53233849D01*
X115013462Y-53402707D01*
X114963282Y-53566328D01*
X114959571Y-53849764D01*
X115035562Y-54122849D01*
X115185143Y-54363630D01*
X115396291Y-54552751D01*
X115652033Y-54675007D01*
X115931808Y-54720571D01*
X116213124Y-54685780D01*
X116473371Y-54573432D01*
X116691624Y-54392556D01*
X116850338Y-54157695D01*
X116937236Y-53886224D01*
X116941223Y-53581649D01*
X116861461Y-53307996D01*
X116782836Y-53184817D01*
X117913123Y-53184817D01*
X117840394Y-53295325D01*
X117757282Y-53566328D01*
X117753571Y-53849764D01*
X117829562Y-54122849D01*
X117979143Y-54363630D01*
X118190291Y-54552751D01*
X118446033Y-54675007D01*
X118725808Y-54720571D01*
X119007124Y-54685780D01*
X119267371Y-54573432D01*
X119485624Y-54392556D01*
X119644338Y-54157695D01*
X119731236Y-53886224D01*
X119731603Y-53858214D01*
X119734562Y-53868849D01*
X119884143Y-54109630D01*
X120095291Y-54298751D01*
X120351033Y-54421007D01*
X120630808Y-54466571D01*
X120912124Y-54431780D01*
X121172371Y-54319432D01*
X121390624Y-54138556D01*
X121549338Y-53903695D01*
X121636236Y-53632224D01*
X121640223Y-53327649D01*
X121598592Y-53184817D01*
X123443000Y-53184817D01*
X123443000Y-49292865D01*
X124365163Y-49292865D01*
X124365163Y-51048308D01*
X124457410Y-51392578D01*
X124637292Y-51606953D01*
X124869707Y-51741138D01*
X125111865Y-51783837D01*
X126867308Y-51783837D01*
X127211578Y-51691590D01*
X127425953Y-51511708D01*
X127487172Y-51405673D01*
X127715424Y-51565496D01*
X127970902Y-51684627D01*
X128243184Y-51757585D01*
X128453667Y-51776000D01*
X128594333Y-51776000D01*
X128804816Y-51757585D01*
X129077098Y-51684627D01*
X129332576Y-51565496D01*
X129563486Y-51403812D01*
X129762811Y-51204487D01*
X129794000Y-51159945D01*
X129825188Y-51204486D01*
X130024514Y-51403812D01*
X130255424Y-51565496D01*
X130510902Y-51684627D01*
X130783184Y-51757585D01*
X130993667Y-51776000D01*
X131134333Y-51776000D01*
X131344816Y-51757585D01*
X131617098Y-51684627D01*
X131872576Y-51565496D01*
X132103486Y-51403812D01*
X132302811Y-51204487D01*
X132464496Y-50973577D01*
X132583627Y-50718098D01*
X132656585Y-50445816D01*
X132681153Y-50165000D01*
X132656585Y-49884184D01*
X132583627Y-49611902D01*
X132464496Y-49356424D01*
X132302812Y-49125514D01*
X132103486Y-48926188D01*
X131872576Y-48764504D01*
X131617098Y-48645373D01*
X131344816Y-48572415D01*
X131134333Y-48554000D01*
X130993667Y-48554000D01*
X130783184Y-48572415D01*
X130510902Y-48645373D01*
X130255424Y-48764504D01*
X130024514Y-48926188D01*
X129825189Y-49125513D01*
X129794000Y-49170055D01*
X129762812Y-49125514D01*
X129563486Y-48926188D01*
X129332576Y-48764504D01*
X129077098Y-48645373D01*
X128804816Y-48572415D01*
X128594333Y-48554000D01*
X128453667Y-48554000D01*
X128243184Y-48572415D01*
X127970902Y-48645373D01*
X127715424Y-48764504D01*
X127495001Y-48918845D01*
X127330708Y-48723047D01*
X127098293Y-48588862D01*
X126856135Y-48546163D01*
X125100692Y-48546163D01*
X124756424Y-48638410D01*
X124542047Y-48818292D01*
X124407862Y-49050707D01*
X124365163Y-49292865D01*
X123443000Y-49292865D01*
X123443000Y-47149020D01*
X134468682Y-47149020D01*
X134397189Y-47220513D01*
X134397189Y-47220513D01*
G37*
X134397189Y-47220513D02*
X134235504Y-47451423D01*
X134116373Y-47706902D01*
X134043415Y-47979184D01*
X134018847Y-48260000D01*
X134043415Y-48540816D01*
X134116373Y-48813098D01*
X134235504Y-49068576D01*
X134397188Y-49299486D01*
X134596514Y-49498812D01*
X134827424Y-49660496D01*
X135082902Y-49779627D01*
X135355184Y-49852585D01*
X135565667Y-49871000D01*
X135706333Y-49871000D01*
X135916816Y-49852585D01*
X136189098Y-49779627D01*
X136444576Y-49660496D01*
X136664998Y-49506155D01*
X136829292Y-49701953D01*
X137061707Y-49836138D01*
X137303865Y-49878837D01*
X138175000Y-49878837D01*
X138175000Y-48261000D01*
X138177000Y-48261000D01*
X138177000Y-49878837D01*
X139059308Y-49878837D01*
X139403578Y-49786590D01*
X139617953Y-49606708D01*
X139752138Y-49374293D01*
X139794837Y-49132135D01*
X139794837Y-48261000D01*
X138177000Y-48261000D01*
X138175000Y-48261000D01*
X138175000Y-48259000D01*
X139794837Y-48259000D01*
X139794837Y-47376692D01*
X139733832Y-47149020D01*
X144375728Y-47149020D01*
X144143724Y-47282967D01*
X143807841Y-47527001D01*
X143499306Y-47804806D01*
X143221501Y-48113341D01*
X142977467Y-48449224D01*
X142769880Y-48808776D01*
X142601014Y-49188056D01*
X142472717Y-49582911D01*
X142386398Y-49989013D01*
X142343001Y-50401913D01*
X142343001Y-50817087D01*
X142386398Y-51229987D01*
X142472717Y-51636089D01*
X142601014Y-52030944D01*
X142769880Y-52410224D01*
X142977467Y-52769776D01*
X143221501Y-53105659D01*
X143499306Y-53414194D01*
X143730852Y-53622679D01*
X129129235Y-53676397D01*
X128849385Y-53737815D01*
X128658948Y-53860201D01*
X128516617Y-54024458D01*
X128426330Y-54222162D01*
X128398000Y-54419198D01*
X128398000Y-58633939D01*
X121352472Y-58608580D01*
X121194505Y-58470534D01*
X120937290Y-58351411D01*
X120656979Y-58309269D01*
X120376108Y-58347494D01*
X120117254Y-58463014D01*
X119951845Y-58603539D01*
X110483474Y-58569459D01*
X110372744Y-58577179D01*
X110172788Y-58635891D01*
X109989948Y-58753396D01*
X109847617Y-58917653D01*
X109757330Y-59115357D01*
X109729000Y-59312393D01*
X109729000Y-69897355D01*
X109674877Y-70015869D01*
X109646547Y-70212905D01*
X109646547Y-84609200D01*
X109702660Y-84867145D01*
X109585394Y-85045325D01*
X109502282Y-85316328D01*
X109501517Y-85374758D01*
X109327108Y-85398494D01*
X109068254Y-85514014D01*
X108852228Y-85697542D01*
X108696394Y-85934325D01*
X108613282Y-86205328D01*
X108609571Y-86488764D01*
X108685562Y-86761849D01*
X108835143Y-87002630D01*
X109046291Y-87191751D01*
X109302033Y-87314007D01*
X109581808Y-87359571D01*
X109729000Y-87341367D01*
X109729000Y-88063117D01*
X109577514Y-88169188D01*
X109378189Y-88368513D01*
X109347000Y-88413055D01*
X109315812Y-88368514D01*
X109116486Y-88169188D01*
X108885576Y-88007504D01*
X108630098Y-87888373D01*
X108357816Y-87815415D01*
X108147333Y-87797000D01*
X108006667Y-87797000D01*
X107796184Y-87815415D01*
X107523902Y-87888373D01*
X107268424Y-88007504D01*
X107037514Y-88169188D01*
X106838189Y-88368513D01*
X106676504Y-88599423D01*
X106557373Y-88854902D01*
X106484415Y-89127184D01*
X106459847Y-89408000D01*
X106484415Y-89688816D01*
X106557373Y-89961098D01*
X106676504Y-90216576D01*
X106838188Y-90447486D01*
X107037514Y-90646812D01*
X107268424Y-90808496D01*
X107523902Y-90927627D01*
X107796184Y-91000585D01*
X108006667Y-91019000D01*
X108147333Y-91019000D01*
X108357816Y-91000585D01*
X108630098Y-90927627D01*
X108885576Y-90808496D01*
X109116486Y-90646812D01*
X109315811Y-90447487D01*
X109347000Y-90402945D01*
X109378188Y-90447486D01*
X109577514Y-90646812D01*
X109729000Y-90752883D01*
X109729000Y-95902083D01*
X109454108Y-95939494D01*
X109195254Y-96055014D01*
X108979228Y-96238542D01*
X108823394Y-96475325D01*
X108740282Y-96746328D01*
X108736571Y-97029764D01*
X108812562Y-97302849D01*
X108962143Y-97543630D01*
X109173291Y-97732751D01*
X109429033Y-97855007D01*
X109708808Y-97900571D01*
X109729000Y-97898074D01*
X109729000Y-99221091D01*
X109507290Y-99118411D01*
X109226979Y-99076269D01*
X108946108Y-99114494D01*
X108687254Y-99230014D01*
X108649552Y-99262044D01*
X108621505Y-99237534D01*
X108364290Y-99118411D01*
X108083979Y-99076269D01*
X107803108Y-99114494D01*
X107544254Y-99230014D01*
X107328228Y-99413542D01*
X107172394Y-99650325D01*
X107089282Y-99921328D01*
X107085571Y-100204764D01*
X107161562Y-100477849D01*
X107311143Y-100718630D01*
X107522291Y-100907751D01*
X107605473Y-100947516D01*
X107523902Y-100969373D01*
X107268424Y-101088504D01*
X107037514Y-101250188D01*
X106838189Y-101449513D01*
X106676504Y-101680423D01*
X106557373Y-101935902D01*
X106484415Y-102208184D01*
X106459847Y-102489000D01*
X106484415Y-102769816D01*
X106557373Y-103042098D01*
X106676504Y-103297576D01*
X106838188Y-103528486D01*
X107037514Y-103727812D01*
X107268424Y-103889496D01*
X107523902Y-104008627D01*
X107796184Y-104081585D01*
X108006667Y-104100000D01*
X108147333Y-104100000D01*
X108357816Y-104081585D01*
X108630098Y-104008627D01*
X108885576Y-103889496D01*
X109116486Y-103727812D01*
X109315811Y-103528487D01*
X109347000Y-103483945D01*
X109378188Y-103528486D01*
X109577514Y-103727812D01*
X109729000Y-103833883D01*
X109729000Y-104988330D01*
X109730954Y-104997314D01*
X109729000Y-105010905D01*
X109729000Y-127890000D01*
X99440000Y-127890000D01*
X99440000Y-123220023D01*
X101393591Y-123220023D01*
X101754521Y-123482251D01*
X102019027Y-123617024D01*
X102301361Y-123708760D01*
X102594569Y-123755199D01*
X102891431Y-123755199D01*
X103184639Y-123708760D01*
X103466973Y-123617024D01*
X103731479Y-123482251D01*
X104092409Y-123220023D01*
X102743000Y-121870614D01*
X101393591Y-123220023D01*
X99440000Y-123220023D01*
X99440000Y-121720769D01*
X100857001Y-121720769D01*
X100857001Y-122017631D01*
X100903440Y-122310839D01*
X100995176Y-122593173D01*
X101129949Y-122857679D01*
X101392177Y-123218609D01*
X102741586Y-121869200D01*
X102744414Y-121869200D01*
X104093823Y-123218609D01*
X104356051Y-122857679D01*
X104490824Y-122593173D01*
X104582560Y-122310839D01*
X104628999Y-122017631D01*
X104628999Y-121720769D01*
X104582560Y-121427561D01*
X104490824Y-121145227D01*
X104356051Y-120880721D01*
X104093823Y-120519791D01*
X102744414Y-121869200D01*
X102741586Y-121869200D01*
X101392177Y-120519791D01*
X101129949Y-120880721D01*
X100995176Y-121145227D01*
X100903440Y-121427561D01*
X100857001Y-121720769D01*
X99440000Y-121720769D01*
X99440000Y-120518377D01*
X101393591Y-120518377D01*
X102743000Y-121867786D01*
X104092409Y-120518377D01*
X103731479Y-120256149D01*
X103466973Y-120121376D01*
X103184639Y-120029640D01*
X102891431Y-119983201D01*
X102594569Y-119983201D01*
X102301361Y-120029640D01*
X102019027Y-120121376D01*
X101754521Y-120256149D01*
X101393591Y-120518377D01*
X99440000Y-120518377D01*
X99440000Y-116640769D01*
X100857001Y-116640769D01*
X100857001Y-116937631D01*
X100903440Y-117230839D01*
X100995176Y-117513173D01*
X101129949Y-117777679D01*
X101304440Y-118017846D01*
X101514354Y-118227760D01*
X101754521Y-118402251D01*
X102019027Y-118537024D01*
X102301361Y-118628760D01*
X102594569Y-118675199D01*
X102891431Y-118675199D01*
X103184639Y-118628760D01*
X103466973Y-118537024D01*
X103731479Y-118402251D01*
X103971646Y-118227760D01*
X104181560Y-118017846D01*
X104356051Y-117777679D01*
X104490824Y-117513173D01*
X104582560Y-117230839D01*
X104628999Y-116937631D01*
X104628999Y-116640769D01*
X104582560Y-116347561D01*
X104490824Y-116065227D01*
X104356051Y-115800721D01*
X104181560Y-115560554D01*
X103971646Y-115350640D01*
X103731479Y-115176149D01*
X103466973Y-115041376D01*
X103184639Y-114949640D01*
X102891431Y-114903201D01*
X102594569Y-114903201D01*
X102301361Y-114949640D01*
X102019027Y-115041376D01*
X101754521Y-115176149D01*
X101514354Y-115350640D01*
X101304440Y-115560554D01*
X101129949Y-115800721D01*
X100995176Y-116065227D01*
X100903440Y-116347561D01*
X100857001Y-116640769D01*
X99440000Y-116640769D01*
X99440000Y-109020769D01*
X100857001Y-109020769D01*
X100857001Y-109317631D01*
X100903440Y-109610839D01*
X100995176Y-109893173D01*
X101129949Y-110157679D01*
X101304440Y-110397846D01*
X101514354Y-110607760D01*
X101754521Y-110782251D01*
X102019027Y-110917024D01*
X102301361Y-111008760D01*
X102594569Y-111055199D01*
X102891431Y-111055199D01*
X103184639Y-111008760D01*
X103466973Y-110917024D01*
X103731479Y-110782251D01*
X103971646Y-110607760D01*
X104181560Y-110397846D01*
X104356051Y-110157679D01*
X104490824Y-109893173D01*
X104582560Y-109610839D01*
X104628999Y-109317631D01*
X104628999Y-109020769D01*
X104582560Y-108727561D01*
X104490824Y-108445227D01*
X104356051Y-108180721D01*
X104181560Y-107940554D01*
X103971646Y-107730640D01*
X103731479Y-107556149D01*
X103466973Y-107421376D01*
X103184639Y-107329640D01*
X102891431Y-107283201D01*
X102594569Y-107283201D01*
X102301361Y-107329640D01*
X102019027Y-107421376D01*
X101754521Y-107556149D01*
X101514354Y-107730640D01*
X101304440Y-107940554D01*
X101129949Y-108180721D01*
X100995176Y-108445227D01*
X100903440Y-108727561D01*
X100857001Y-109020769D01*
X99440000Y-109020769D01*
X99440000Y-106046764D01*
X100227571Y-106046764D01*
X100303562Y-106319849D01*
X100453143Y-106560630D01*
X100664291Y-106749751D01*
X100920033Y-106872007D01*
X101199808Y-106917571D01*
X101481124Y-106882780D01*
X101741371Y-106770432D01*
X101959624Y-106589556D01*
X102118338Y-106354695D01*
X102205236Y-106083224D01*
X102209223Y-105778649D01*
X102129461Y-105504996D01*
X101976949Y-105266061D01*
X101763505Y-105079534D01*
X101506290Y-104960411D01*
X101225979Y-104918269D01*
X100945108Y-104956494D01*
X100686254Y-105072014D01*
X100470228Y-105255542D01*
X100314394Y-105492325D01*
X100231282Y-105763328D01*
X100227571Y-106046764D01*
X99440000Y-106046764D01*
X99440000Y-104268764D01*
X103021571Y-104268764D01*
X103097562Y-104541849D01*
X103247143Y-104782630D01*
X103458291Y-104971751D01*
X103714033Y-105094007D01*
X103993808Y-105139571D01*
X104275124Y-105104780D01*
X104535371Y-104992432D01*
X104753624Y-104811556D01*
X104912338Y-104576695D01*
X104970254Y-104395764D01*
X105053571Y-104395764D01*
X105129562Y-104668849D01*
X105279143Y-104909630D01*
X105490291Y-105098751D01*
X105746033Y-105221007D01*
X106025808Y-105266571D01*
X106307124Y-105231780D01*
X106567371Y-105119432D01*
X106785624Y-104938556D01*
X106944338Y-104703695D01*
X107031236Y-104432224D01*
X107035223Y-104127649D01*
X106955461Y-103853996D01*
X106802949Y-103615061D01*
X106589505Y-103428534D01*
X106332290Y-103309411D01*
X106051979Y-103267269D01*
X105771108Y-103305494D01*
X105512254Y-103421014D01*
X105296228Y-103604542D01*
X105140394Y-103841325D01*
X105057282Y-104112328D01*
X105053571Y-104395764D01*
X104970254Y-104395764D01*
X104999236Y-104305224D01*
X105003223Y-104000649D01*
X104923461Y-103726996D01*
X104770949Y-103488061D01*
X104557505Y-103301534D01*
X104300290Y-103182411D01*
X104019979Y-103140269D01*
X103739108Y-103178494D01*
X103480254Y-103294014D01*
X103264228Y-103477542D01*
X103108394Y-103714325D01*
X103025282Y-103985328D01*
X103021571Y-104268764D01*
X99440000Y-104268764D01*
X99440000Y-97791000D01*
X100339163Y-97791000D01*
X100339163Y-98823308D01*
X100431410Y-99167578D01*
X100611292Y-99381953D01*
X100843707Y-99516138D01*
X101085865Y-99558837D01*
X102107000Y-99558837D01*
X102107000Y-97791000D01*
X102109000Y-97791000D01*
X102109000Y-99558837D01*
X103141308Y-99558837D01*
X103485578Y-99466590D01*
X103699953Y-99286708D01*
X103834138Y-99054293D01*
X103876837Y-98812135D01*
X103876837Y-97791000D01*
X102109000Y-97791000D01*
X102107000Y-97791000D01*
X100339163Y-97791000D01*
X99440000Y-97791000D01*
X99440000Y-96767865D01*
X100339163Y-96767865D01*
X100339163Y-97789000D01*
X102107000Y-97789000D01*
X102107000Y-96021163D01*
X102109000Y-96021163D01*
X102109000Y-97789000D01*
X103876837Y-97789000D01*
X103876837Y-96756692D01*
X103784590Y-96412424D01*
X103604708Y-96198047D01*
X103505492Y-96140764D01*
X106450571Y-96140764D01*
X106526562Y-96413849D01*
X106676143Y-96654630D01*
X106887291Y-96843751D01*
X107143033Y-96966007D01*
X107422808Y-97011571D01*
X107704124Y-96976780D01*
X107964371Y-96864432D01*
X108182624Y-96683556D01*
X108341338Y-96448695D01*
X108428236Y-96177224D01*
X108432223Y-95872649D01*
X108352461Y-95598996D01*
X108199949Y-95360061D01*
X107986505Y-95173534D01*
X107729290Y-95054411D01*
X107448979Y-95012269D01*
X107168108Y-95050494D01*
X106909254Y-95166014D01*
X106693228Y-95349542D01*
X106537394Y-95586325D01*
X106454282Y-95857328D01*
X106450571Y-96140764D01*
X103505492Y-96140764D01*
X103372293Y-96063862D01*
X103130135Y-96021163D01*
X102109000Y-96021163D01*
X102107000Y-96021163D01*
X101074692Y-96021163D01*
X100730424Y-96113410D01*
X100516047Y-96293292D01*
X100381862Y-96525707D01*
X100339163Y-96767865D01*
X99440000Y-96767865D01*
X99440000Y-92891716D01*
X100343908Y-92891716D01*
X100384209Y-93178473D01*
X100470804Y-93454797D01*
X100601366Y-93713266D01*
X100772391Y-93946941D01*
X100979283Y-94149546D01*
X101216489Y-94315639D01*
X101477636Y-94440759D01*
X101755713Y-94521548D01*
X102043250Y-94555835D01*
X102332526Y-94542699D01*
X102615772Y-94482493D01*
X102885382Y-94376835D01*
X103134115Y-94228560D01*
X103355290Y-94041652D01*
X103542969Y-93821130D01*
X103692111Y-93572916D01*
X103798711Y-93303677D01*
X103860563Y-93017598D01*
X103869589Y-92648286D01*
X103821784Y-92359527D01*
X103728465Y-92085402D01*
X103591627Y-91830199D01*
X103414944Y-91600772D01*
X103203163Y-91403284D01*
X102961970Y-91243035D01*
X102697844Y-91124332D01*
X102417876Y-91050361D01*
X102129587Y-91023110D01*
X101840719Y-91043310D01*
X101559028Y-91110418D01*
X101292080Y-91222633D01*
X101047044Y-91376940D01*
X100830501Y-91569196D01*
X100648266Y-91794237D01*
X100505234Y-92046021D01*
X100405244Y-92317784D01*
X100350984Y-92602230D01*
X100343908Y-92891716D01*
X99440000Y-92891716D01*
X99440000Y-87722851D01*
X99548808Y-87740571D01*
X99830124Y-87705780D01*
X100090371Y-87593432D01*
X100308624Y-87412556D01*
X100467338Y-87177695D01*
X100554236Y-86906224D01*
X100558223Y-86601649D01*
X100478461Y-86327996D01*
X100325949Y-86089061D01*
X100112505Y-85902534D01*
X99855290Y-85783411D01*
X99574979Y-85741269D01*
X99440000Y-85759639D01*
X99440000Y-84607314D01*
X99523033Y-84647007D01*
X99802808Y-84692571D01*
X100084124Y-84657780D01*
X100344371Y-84545432D01*
X100562624Y-84364556D01*
X100721338Y-84129695D01*
X100808236Y-83858224D01*
X100812223Y-83553649D01*
X100732461Y-83279996D01*
X100579949Y-83041061D01*
X100366505Y-82854534D01*
X100109290Y-82735411D01*
X99828979Y-82693269D01*
X99548108Y-82731494D01*
X99440000Y-82779740D01*
X99440000Y-76280823D01*
X101393591Y-76280823D01*
X101754521Y-76543051D01*
X102019027Y-76677824D01*
X102301361Y-76769560D01*
X102594569Y-76815999D01*
X102891431Y-76815999D01*
X103184639Y-76769560D01*
X103466973Y-76677824D01*
X103731479Y-76543051D01*
X104092409Y-76280823D01*
X102743000Y-74931414D01*
X101393591Y-76280823D01*
X99440000Y-76280823D01*
X99440000Y-74781569D01*
X100857001Y-74781569D01*
X100857001Y-75078431D01*
X100903440Y-75371639D01*
X100995176Y-75653973D01*
X101129949Y-75918479D01*
X101392177Y-76279409D01*
X102741586Y-74930000D01*
X102744414Y-74930000D01*
X104093823Y-76279409D01*
X104356051Y-75918479D01*
X104490824Y-75653973D01*
X104582560Y-75371639D01*
X104628999Y-75078431D01*
X104628999Y-74781569D01*
X104582560Y-74488361D01*
X104490824Y-74206027D01*
X104356051Y-73941521D01*
X104093823Y-73580591D01*
X102744414Y-74930000D01*
X102741586Y-74930000D01*
X101392177Y-73580591D01*
X101129949Y-73941521D01*
X100995176Y-74206027D01*
X100903440Y-74488361D01*
X100857001Y-74781569D01*
X99440000Y-74781569D01*
X99440000Y-73579177D01*
X101393591Y-73579177D01*
X102743000Y-74928586D01*
X104092409Y-73579177D01*
X103731479Y-73316949D01*
X103466973Y-73182176D01*
X103184639Y-73090440D01*
X102891431Y-73044001D01*
X102594569Y-73044001D01*
X102301361Y-73090440D01*
X102019027Y-73182176D01*
X101754521Y-73316949D01*
X101393591Y-73579177D01*
X99440000Y-73579177D01*
X99440000Y-69701569D01*
X100857001Y-69701569D01*
X100857001Y-69998431D01*
X100903440Y-70291639D01*
X100995176Y-70573973D01*
X101129949Y-70838479D01*
X101304440Y-71078646D01*
X101514354Y-71288560D01*
X101754521Y-71463051D01*
X102019027Y-71597824D01*
X102301361Y-71689560D01*
X102594569Y-71735999D01*
X102891431Y-71735999D01*
X103184639Y-71689560D01*
X103466973Y-71597824D01*
X103731479Y-71463051D01*
X103971646Y-71288560D01*
X104181560Y-71078646D01*
X104356051Y-70838479D01*
X104490824Y-70573973D01*
X104582560Y-70291639D01*
X104628999Y-69998431D01*
X104628999Y-69701569D01*
X104582560Y-69408361D01*
X104490824Y-69126027D01*
X104356051Y-68861521D01*
X104181560Y-68621354D01*
X103971646Y-68411440D01*
X103731479Y-68236949D01*
X103466973Y-68102176D01*
X103184639Y-68010440D01*
X102891431Y-67964001D01*
X102594569Y-67964001D01*
X102301361Y-68010440D01*
X102019027Y-68102176D01*
X101754521Y-68236949D01*
X101514354Y-68411440D01*
X101304440Y-68621354D01*
X101129949Y-68861521D01*
X100995176Y-69126027D01*
X100903440Y-69408361D01*
X100857001Y-69701569D01*
X99440000Y-69701569D01*
X99440000Y-69442817D01*
X97027000Y-69442817D01*
X97027000Y-62081569D01*
X100857001Y-62081569D01*
X100857001Y-62378431D01*
X100903440Y-62671639D01*
X100995176Y-62953973D01*
X101129949Y-63218479D01*
X101304440Y-63458646D01*
X101514354Y-63668560D01*
X101754521Y-63843051D01*
X102019027Y-63977824D01*
X102301361Y-64069560D01*
X102594569Y-64115999D01*
X102891431Y-64115999D01*
X103184639Y-64069560D01*
X103466973Y-63977824D01*
X103731479Y-63843051D01*
X103971646Y-63668560D01*
X104181560Y-63458646D01*
X104356051Y-63218479D01*
X104490824Y-62953973D01*
X104582560Y-62671639D01*
X104628999Y-62378431D01*
X104628999Y-62081569D01*
X104582560Y-61788361D01*
X104490824Y-61506027D01*
X104356051Y-61241521D01*
X104181560Y-61001354D01*
X103971646Y-60791440D01*
X103731479Y-60616949D01*
X103466973Y-60482176D01*
X103184639Y-60390440D01*
X102891431Y-60344001D01*
X102594569Y-60344001D01*
X102301361Y-60390440D01*
X102019027Y-60482176D01*
X101754521Y-60616949D01*
X101514354Y-60791440D01*
X101304440Y-61001354D01*
X101129949Y-61241521D01*
X100995176Y-61506027D01*
X100903440Y-61788361D01*
X100857001Y-62081569D01*
X97027000Y-62081569D01*
X97027000Y-56632991D01*
X118134571Y-56632991D01*
X118210562Y-56906076D01*
X118360143Y-57146857D01*
X118571291Y-57335978D01*
X118827033Y-57458234D01*
X119106808Y-57503798D01*
X119388124Y-57469007D01*
X119648371Y-57356659D01*
X119866624Y-57175783D01*
X120025338Y-56940922D01*
X120112236Y-56669451D01*
X120116223Y-56364876D01*
X120036461Y-56091223D01*
X119883949Y-55852288D01*
X119670505Y-55665761D01*
X119413290Y-55546638D01*
X119132979Y-55504496D01*
X118852108Y-55542721D01*
X118593254Y-55658241D01*
X118377228Y-55841769D01*
X118221394Y-56078552D01*
X118138282Y-56349555D01*
X118134571Y-56632991D01*
X97027000Y-56632991D01*
X97027000Y-54992764D01*
X112165571Y-54992764D01*
X112241562Y-55265849D01*
X112391143Y-55506630D01*
X112602291Y-55695751D01*
X112858033Y-55818007D01*
X113137808Y-55863571D01*
X113419124Y-55828780D01*
X113679371Y-55716432D01*
X113897624Y-55535556D01*
X114056338Y-55300695D01*
X114143236Y-55029224D01*
X114147223Y-54724649D01*
X114067461Y-54450996D01*
X113914949Y-54212061D01*
X113701505Y-54025534D01*
X113444290Y-53906411D01*
X113163979Y-53864269D01*
X112883108Y-53902494D01*
X112624254Y-54018014D01*
X112408228Y-54201542D01*
X112252394Y-54438325D01*
X112169282Y-54709328D01*
X112165571Y-54992764D01*
X97027000Y-54992764D01*
X97027000Y-53184817D01*
X114894918Y-53184817D01*
X114908562Y-53233849D01*
X115013462Y-53402707D01*
X114963282Y-53566328D01*
X114959571Y-53849764D01*
X115035562Y-54122849D01*
X115185143Y-54363630D01*
X115396291Y-54552751D01*
X115652033Y-54675007D01*
X115931808Y-54720571D01*
X116213124Y-54685780D01*
X116473371Y-54573432D01*
X116691624Y-54392556D01*
X116850338Y-54157695D01*
X116937236Y-53886224D01*
X116941223Y-53581649D01*
X116861461Y-53307996D01*
X116782836Y-53184817D01*
X117913123Y-53184817D01*
X117840394Y-53295325D01*
X117757282Y-53566328D01*
X117753571Y-53849764D01*
X117829562Y-54122849D01*
X117979143Y-54363630D01*
X118190291Y-54552751D01*
X118446033Y-54675007D01*
X118725808Y-54720571D01*
X119007124Y-54685780D01*
X119267371Y-54573432D01*
X119485624Y-54392556D01*
X119644338Y-54157695D01*
X119731236Y-53886224D01*
X119731603Y-53858214D01*
X119734562Y-53868849D01*
X119884143Y-54109630D01*
X120095291Y-54298751D01*
X120351033Y-54421007D01*
X120630808Y-54466571D01*
X120912124Y-54431780D01*
X121172371Y-54319432D01*
X121390624Y-54138556D01*
X121549338Y-53903695D01*
X121636236Y-53632224D01*
X121640223Y-53327649D01*
X121598592Y-53184817D01*
X123443000Y-53184817D01*
X123443000Y-49292865D01*
X124365163Y-49292865D01*
X124365163Y-51048308D01*
X124457410Y-51392578D01*
X124637292Y-51606953D01*
X124869707Y-51741138D01*
X125111865Y-51783837D01*
X126867308Y-51783837D01*
X127211578Y-51691590D01*
X127425953Y-51511708D01*
X127487172Y-51405673D01*
X127715424Y-51565496D01*
X127970902Y-51684627D01*
X128243184Y-51757585D01*
X128453667Y-51776000D01*
X128594333Y-51776000D01*
X128804816Y-51757585D01*
X129077098Y-51684627D01*
X129332576Y-51565496D01*
X129563486Y-51403812D01*
X129762811Y-51204487D01*
X129794000Y-51159945D01*
X129825188Y-51204486D01*
X130024514Y-51403812D01*
X130255424Y-51565496D01*
X130510902Y-51684627D01*
X130783184Y-51757585D01*
X130993667Y-51776000D01*
X131134333Y-51776000D01*
X131344816Y-51757585D01*
X131617098Y-51684627D01*
X131872576Y-51565496D01*
X132103486Y-51403812D01*
X132302811Y-51204487D01*
X132464496Y-50973577D01*
X132583627Y-50718098D01*
X132656585Y-50445816D01*
X132681153Y-50165000D01*
X132656585Y-49884184D01*
X132583627Y-49611902D01*
X132464496Y-49356424D01*
X132302812Y-49125514D01*
X132103486Y-48926188D01*
X131872576Y-48764504D01*
X131617098Y-48645373D01*
X131344816Y-48572415D01*
X131134333Y-48554000D01*
X130993667Y-48554000D01*
X130783184Y-48572415D01*
X130510902Y-48645373D01*
X130255424Y-48764504D01*
X130024514Y-48926188D01*
X129825189Y-49125513D01*
X129794000Y-49170055D01*
X129762812Y-49125514D01*
X129563486Y-48926188D01*
X129332576Y-48764504D01*
X129077098Y-48645373D01*
X128804816Y-48572415D01*
X128594333Y-48554000D01*
X128453667Y-48554000D01*
X128243184Y-48572415D01*
X127970902Y-48645373D01*
X127715424Y-48764504D01*
X127495001Y-48918845D01*
X127330708Y-48723047D01*
X127098293Y-48588862D01*
X126856135Y-48546163D01*
X125100692Y-48546163D01*
X124756424Y-48638410D01*
X124542047Y-48818292D01*
X124407862Y-49050707D01*
X124365163Y-49292865D01*
X123443000Y-49292865D01*
X123443000Y-47149020D01*
X134468682Y-47149020D01*
X134397189Y-47220513D01*
G36*
X145162000Y-55347252D02*
G01*
X144952099Y-55249373D01*
X144400000Y-55101438D01*
X144400000Y-56770000D01*
X142731438Y-56770000D01*
X142879373Y-57322099D01*
X142998504Y-57577576D01*
X143160188Y-57808486D01*
X143359514Y-58007812D01*
X143404055Y-58039000D01*
X143359514Y-58070188D01*
X143160189Y-58269513D01*
X142998504Y-58500423D01*
X142879373Y-58755902D01*
X142806415Y-59028184D01*
X142781847Y-59309000D01*
X142806415Y-59589816D01*
X142879373Y-59862098D01*
X142998504Y-60117576D01*
X143152845Y-60337999D01*
X142957047Y-60502292D01*
X142822862Y-60734707D01*
X142780163Y-60976865D01*
X142780163Y-62732308D01*
X142872410Y-63076578D01*
X143052292Y-63290953D01*
X143284707Y-63425138D01*
X143526865Y-63467837D01*
X143805255Y-63467837D01*
X143650228Y-63599542D01*
X143494394Y-63836325D01*
X143411282Y-64107328D01*
X143407571Y-64390764D01*
X143483562Y-64663849D01*
X143633143Y-64904630D01*
X143844291Y-65093751D01*
X144100033Y-65216007D01*
X144379808Y-65261571D01*
X144661124Y-65226780D01*
X144921371Y-65114432D01*
X145139624Y-64933556D01*
X145162000Y-64900445D01*
X145162000Y-69024900D01*
X145146705Y-69011534D01*
X144889490Y-68892411D01*
X144609179Y-68850269D01*
X144328308Y-68888494D01*
X144069454Y-69004014D01*
X143853428Y-69187542D01*
X143697594Y-69424325D01*
X143614482Y-69695328D01*
X143612162Y-69872488D01*
X110743000Y-69872488D01*
X110743000Y-69186470D01*
X134428944Y-69186470D01*
X134666449Y-69389668D01*
X134926088Y-69552222D01*
X135206904Y-69674616D01*
X135502727Y-69754159D01*
X135807057Y-69789101D01*
X136113209Y-69778678D01*
X136414459Y-69723117D01*
X136704186Y-69623638D01*
X136976027Y-69482428D01*
X137364959Y-69200373D01*
X135890000Y-67725414D01*
X134428944Y-69186470D01*
X110743000Y-69186470D01*
X110743000Y-67821358D01*
X133825528Y-67821358D01*
X133862595Y-68125437D01*
X133944200Y-68420697D01*
X134068551Y-68700652D01*
X134232921Y-68959160D01*
X134428303Y-69184283D01*
X135888586Y-67724000D01*
X135891414Y-67724000D01*
X137362158Y-69194744D01*
X137627255Y-68843584D01*
X137773658Y-68574505D01*
X137878680Y-68286740D01*
X137940682Y-67983347D01*
X137951706Y-67575931D01*
X137906202Y-67269629D01*
X137816895Y-66976607D01*
X137685259Y-66700003D01*
X137375506Y-66239908D01*
X135891414Y-67724000D01*
X135888586Y-67724000D01*
X134417821Y-66253235D01*
X134420649Y-66253235D01*
X135890000Y-67722586D01*
X137354519Y-66258067D01*
X137069532Y-66026877D01*
X136805725Y-65871172D01*
X136521801Y-65756171D01*
X136223997Y-65684399D01*
X135918856Y-65657435D01*
X135613082Y-65675869D01*
X135313391Y-65739297D01*
X135026366Y-65846326D01*
X134758315Y-65994604D01*
X134420649Y-66253235D01*
X134417821Y-66253235D01*
X134411953Y-66247367D01*
X134124033Y-66650276D01*
X133984723Y-66923097D01*
X133887271Y-67213511D01*
X133833814Y-67515140D01*
X133825528Y-67821358D01*
X110743000Y-67821358D01*
X110743000Y-65139600D01*
X137341436Y-65139600D01*
X137378471Y-65432757D01*
X137492975Y-65705154D01*
X137676516Y-65936726D01*
X137915571Y-66110408D01*
X138192525Y-66213406D01*
X138486975Y-66238132D01*
X138777226Y-66182763D01*
X139041897Y-66051380D01*
X139261486Y-65853661D01*
X139419816Y-65604174D01*
X139505611Y-65320006D01*
X139508915Y-65004558D01*
X139429089Y-64718655D01*
X139276019Y-64465907D01*
X139060619Y-64263633D01*
X138798758Y-64126735D01*
X138509730Y-64065300D01*
X138214826Y-64083853D01*
X137935775Y-64181029D01*
X137693137Y-64349667D01*
X137504787Y-64577343D01*
X137384602Y-64847284D01*
X137341436Y-65139600D01*
X110743000Y-65139600D01*
X110743000Y-63580823D01*
X121713591Y-63580823D01*
X122074521Y-63843051D01*
X122339027Y-63977824D01*
X122621361Y-64069560D01*
X122914569Y-64115999D01*
X123211431Y-64115999D01*
X123504639Y-64069560D01*
X123786973Y-63977824D01*
X124051479Y-63843051D01*
X124412409Y-63580823D01*
X123063000Y-62231414D01*
X121713591Y-63580823D01*
X110743000Y-63580823D01*
X110743000Y-62081569D01*
X121177001Y-62081569D01*
X121177001Y-62378431D01*
X121223440Y-62671639D01*
X121315176Y-62953973D01*
X121449949Y-63218479D01*
X121712177Y-63579409D01*
X123061586Y-62230000D01*
X123064414Y-62230000D01*
X124413823Y-63579409D01*
X124676051Y-63218479D01*
X124810824Y-62953973D01*
X124902560Y-62671639D01*
X124948999Y-62378431D01*
X124948999Y-62081569D01*
X124902560Y-61788361D01*
X124877294Y-61710600D01*
X135182436Y-61710600D01*
X135219471Y-62003757D01*
X135333975Y-62276154D01*
X135517516Y-62507726D01*
X135756571Y-62681408D01*
X136033525Y-62784406D01*
X136327975Y-62809132D01*
X136618226Y-62753763D01*
X136882897Y-62622380D01*
X137102486Y-62424661D01*
X137233256Y-62218600D01*
X139119436Y-62218600D01*
X139156471Y-62511757D01*
X139270975Y-62784154D01*
X139454516Y-63015726D01*
X139693571Y-63189408D01*
X139970525Y-63292406D01*
X140264975Y-63317132D01*
X140555226Y-63261763D01*
X140819897Y-63130380D01*
X141039486Y-62932661D01*
X141197816Y-62683174D01*
X141283611Y-62399006D01*
X141286915Y-62083558D01*
X141207089Y-61797655D01*
X141054019Y-61544907D01*
X140838619Y-61342633D01*
X140576758Y-61205735D01*
X140287730Y-61144300D01*
X139992826Y-61162853D01*
X139713775Y-61260029D01*
X139471137Y-61428667D01*
X139282787Y-61656343D01*
X139162602Y-61926284D01*
X139119436Y-62218600D01*
X137233256Y-62218600D01*
X137260816Y-62175174D01*
X137346611Y-61891006D01*
X137349915Y-61575558D01*
X137270089Y-61289655D01*
X137117019Y-61036907D01*
X136901619Y-60834633D01*
X136639758Y-60697735D01*
X136350730Y-60636300D01*
X136055826Y-60654853D01*
X135776775Y-60752029D01*
X135534137Y-60920667D01*
X135345787Y-61148343D01*
X135225602Y-61418284D01*
X135182436Y-61710600D01*
X124877294Y-61710600D01*
X124810824Y-61506027D01*
X124676051Y-61241521D01*
X124413823Y-60880591D01*
X123064414Y-62230000D01*
X123061586Y-62230000D01*
X121712177Y-60880591D01*
X121449949Y-61241521D01*
X121315176Y-61506027D01*
X121223440Y-61788361D01*
X121177001Y-62081569D01*
X110743000Y-62081569D01*
X110743000Y-60879177D01*
X121713591Y-60879177D01*
X123063000Y-62228586D01*
X124412409Y-60879177D01*
X124051479Y-60616949D01*
X123786973Y-60482176D01*
X123504639Y-60390440D01*
X123211431Y-60344001D01*
X122914569Y-60344001D01*
X122621361Y-60390440D01*
X122339027Y-60482176D01*
X122074521Y-60616949D01*
X121713591Y-60879177D01*
X110743000Y-60879177D01*
X110743000Y-59584400D01*
X119708355Y-59616668D01*
X119734562Y-59710849D01*
X119884143Y-59951630D01*
X120095291Y-60140751D01*
X120351033Y-60263007D01*
X120630808Y-60308571D01*
X120912124Y-60273780D01*
X121172371Y-60161432D01*
X121390624Y-59980556D01*
X121549338Y-59745695D01*
X121588473Y-59623436D01*
X129412000Y-59651595D01*
X129412000Y-59297600D01*
X137341436Y-59297600D01*
X137378471Y-59590757D01*
X137492975Y-59863154D01*
X137676516Y-60094726D01*
X137915571Y-60268408D01*
X138192525Y-60371406D01*
X138486975Y-60396132D01*
X138777226Y-60340763D01*
X139041897Y-60209380D01*
X139261486Y-60011661D01*
X139419816Y-59762174D01*
X139505611Y-59478006D01*
X139508915Y-59162558D01*
X139429089Y-58876655D01*
X139276019Y-58623907D01*
X139060619Y-58421633D01*
X138798758Y-58284735D01*
X138509730Y-58223300D01*
X138214826Y-58241853D01*
X137935775Y-58339029D01*
X137693137Y-58507667D01*
X137504787Y-58735343D01*
X137384602Y-59005284D01*
X137341436Y-59297600D01*
X129412000Y-59297600D01*
X129412000Y-56768000D01*
X142731438Y-56768000D01*
X144398000Y-56768000D01*
X144398000Y-55101438D01*
X143845901Y-55249373D01*
X143590424Y-55368504D01*
X143359514Y-55530188D01*
X143160189Y-55729513D01*
X142998504Y-55960423D01*
X142879373Y-56215902D01*
X142731438Y-56768000D01*
X129412000Y-56768000D01*
X129412000Y-54689364D01*
X145162000Y-54631420D01*
X145162000Y-55347252D01*
X145162000Y-55347252D01*
G37*
X145162000Y-55347252D02*
X144952099Y-55249373D01*
X144400000Y-55101438D01*
X144400000Y-56770000D01*
X142731438Y-56770000D01*
X142879373Y-57322099D01*
X142998504Y-57577576D01*
X143160188Y-57808486D01*
X143359514Y-58007812D01*
X143404055Y-58039000D01*
X143359514Y-58070188D01*
X143160189Y-58269513D01*
X142998504Y-58500423D01*
X142879373Y-58755902D01*
X142806415Y-59028184D01*
X142781847Y-59309000D01*
X142806415Y-59589816D01*
X142879373Y-59862098D01*
X142998504Y-60117576D01*
X143152845Y-60337999D01*
X142957047Y-60502292D01*
X142822862Y-60734707D01*
X142780163Y-60976865D01*
X142780163Y-62732308D01*
X142872410Y-63076578D01*
X143052292Y-63290953D01*
X143284707Y-63425138D01*
X143526865Y-63467837D01*
X143805255Y-63467837D01*
X143650228Y-63599542D01*
X143494394Y-63836325D01*
X143411282Y-64107328D01*
X143407571Y-64390764D01*
X143483562Y-64663849D01*
X143633143Y-64904630D01*
X143844291Y-65093751D01*
X144100033Y-65216007D01*
X144379808Y-65261571D01*
X144661124Y-65226780D01*
X144921371Y-65114432D01*
X145139624Y-64933556D01*
X145162000Y-64900445D01*
X145162000Y-69024900D01*
X145146705Y-69011534D01*
X144889490Y-68892411D01*
X144609179Y-68850269D01*
X144328308Y-68888494D01*
X144069454Y-69004014D01*
X143853428Y-69187542D01*
X143697594Y-69424325D01*
X143614482Y-69695328D01*
X143612162Y-69872488D01*
X110743000Y-69872488D01*
X110743000Y-69186470D01*
X134428944Y-69186470D01*
X134666449Y-69389668D01*
X134926088Y-69552222D01*
X135206904Y-69674616D01*
X135502727Y-69754159D01*
X135807057Y-69789101D01*
X136113209Y-69778678D01*
X136414459Y-69723117D01*
X136704186Y-69623638D01*
X136976027Y-69482428D01*
X137364959Y-69200373D01*
X135890000Y-67725414D01*
X134428944Y-69186470D01*
X110743000Y-69186470D01*
X110743000Y-67821358D01*
X133825528Y-67821358D01*
X133862595Y-68125437D01*
X133944200Y-68420697D01*
X134068551Y-68700652D01*
X134232921Y-68959160D01*
X134428303Y-69184283D01*
X135888586Y-67724000D01*
X135891414Y-67724000D01*
X137362158Y-69194744D01*
X137627255Y-68843584D01*
X137773658Y-68574505D01*
X137878680Y-68286740D01*
X137940682Y-67983347D01*
X137951706Y-67575931D01*
X137906202Y-67269629D01*
X137816895Y-66976607D01*
X137685259Y-66700003D01*
X137375506Y-66239908D01*
X135891414Y-67724000D01*
X135888586Y-67724000D01*
X134417821Y-66253235D01*
X134420649Y-66253235D01*
X135890000Y-67722586D01*
X137354519Y-66258067D01*
X137069532Y-66026877D01*
X136805725Y-65871172D01*
X136521801Y-65756171D01*
X136223997Y-65684399D01*
X135918856Y-65657435D01*
X135613082Y-65675869D01*
X135313391Y-65739297D01*
X135026366Y-65846326D01*
X134758315Y-65994604D01*
X134420649Y-66253235D01*
X134417821Y-66253235D01*
X134411953Y-66247367D01*
X134124033Y-66650276D01*
X133984723Y-66923097D01*
X133887271Y-67213511D01*
X133833814Y-67515140D01*
X133825528Y-67821358D01*
X110743000Y-67821358D01*
X110743000Y-65139600D01*
X137341436Y-65139600D01*
X137378471Y-65432757D01*
X137492975Y-65705154D01*
X137676516Y-65936726D01*
X137915571Y-66110408D01*
X138192525Y-66213406D01*
X138486975Y-66238132D01*
X138777226Y-66182763D01*
X139041897Y-66051380D01*
X139261486Y-65853661D01*
X139419816Y-65604174D01*
X139505611Y-65320006D01*
X139508915Y-65004558D01*
X139429089Y-64718655D01*
X139276019Y-64465907D01*
X139060619Y-64263633D01*
X138798758Y-64126735D01*
X138509730Y-64065300D01*
X138214826Y-64083853D01*
X137935775Y-64181029D01*
X137693137Y-64349667D01*
X137504787Y-64577343D01*
X137384602Y-64847284D01*
X137341436Y-65139600D01*
X110743000Y-65139600D01*
X110743000Y-63580823D01*
X121713591Y-63580823D01*
X122074521Y-63843051D01*
X122339027Y-63977824D01*
X122621361Y-64069560D01*
X122914569Y-64115999D01*
X123211431Y-64115999D01*
X123504639Y-64069560D01*
X123786973Y-63977824D01*
X124051479Y-63843051D01*
X124412409Y-63580823D01*
X123063000Y-62231414D01*
X121713591Y-63580823D01*
X110743000Y-63580823D01*
X110743000Y-62081569D01*
X121177001Y-62081569D01*
X121177001Y-62378431D01*
X121223440Y-62671639D01*
X121315176Y-62953973D01*
X121449949Y-63218479D01*
X121712177Y-63579409D01*
X123061586Y-62230000D01*
X123064414Y-62230000D01*
X124413823Y-63579409D01*
X124676051Y-63218479D01*
X124810824Y-62953973D01*
X124902560Y-62671639D01*
X124948999Y-62378431D01*
X124948999Y-62081569D01*
X124902560Y-61788361D01*
X124877294Y-61710600D01*
X135182436Y-61710600D01*
X135219471Y-62003757D01*
X135333975Y-62276154D01*
X135517516Y-62507726D01*
X135756571Y-62681408D01*
X136033525Y-62784406D01*
X136327975Y-62809132D01*
X136618226Y-62753763D01*
X136882897Y-62622380D01*
X137102486Y-62424661D01*
X137233256Y-62218600D01*
X139119436Y-62218600D01*
X139156471Y-62511757D01*
X139270975Y-62784154D01*
X139454516Y-63015726D01*
X139693571Y-63189408D01*
X139970525Y-63292406D01*
X140264975Y-63317132D01*
X140555226Y-63261763D01*
X140819897Y-63130380D01*
X141039486Y-62932661D01*
X141197816Y-62683174D01*
X141283611Y-62399006D01*
X141286915Y-62083558D01*
X141207089Y-61797655D01*
X141054019Y-61544907D01*
X140838619Y-61342633D01*
X140576758Y-61205735D01*
X140287730Y-61144300D01*
X139992826Y-61162853D01*
X139713775Y-61260029D01*
X139471137Y-61428667D01*
X139282787Y-61656343D01*
X139162602Y-61926284D01*
X139119436Y-62218600D01*
X137233256Y-62218600D01*
X137260816Y-62175174D01*
X137346611Y-61891006D01*
X137349915Y-61575558D01*
X137270089Y-61289655D01*
X137117019Y-61036907D01*
X136901619Y-60834633D01*
X136639758Y-60697735D01*
X136350730Y-60636300D01*
X136055826Y-60654853D01*
X135776775Y-60752029D01*
X135534137Y-60920667D01*
X135345787Y-61148343D01*
X135225602Y-61418284D01*
X135182436Y-61710600D01*
X124877294Y-61710600D01*
X124810824Y-61506027D01*
X124676051Y-61241521D01*
X124413823Y-60880591D01*
X123064414Y-62230000D01*
X123061586Y-62230000D01*
X121712177Y-60880591D01*
X121449949Y-61241521D01*
X121315176Y-61506027D01*
X121223440Y-61788361D01*
X121177001Y-62081569D01*
X110743000Y-62081569D01*
X110743000Y-60879177D01*
X121713591Y-60879177D01*
X123063000Y-62228586D01*
X124412409Y-60879177D01*
X124051479Y-60616949D01*
X123786973Y-60482176D01*
X123504639Y-60390440D01*
X123211431Y-60344001D01*
X122914569Y-60344001D01*
X122621361Y-60390440D01*
X122339027Y-60482176D01*
X122074521Y-60616949D01*
X121713591Y-60879177D01*
X110743000Y-60879177D01*
X110743000Y-59584400D01*
X119708355Y-59616668D01*
X119734562Y-59710849D01*
X119884143Y-59951630D01*
X120095291Y-60140751D01*
X120351033Y-60263007D01*
X120630808Y-60308571D01*
X120912124Y-60273780D01*
X121172371Y-60161432D01*
X121390624Y-59980556D01*
X121549338Y-59745695D01*
X121588473Y-59623436D01*
X129412000Y-59651595D01*
X129412000Y-59297600D01*
X137341436Y-59297600D01*
X137378471Y-59590757D01*
X137492975Y-59863154D01*
X137676516Y-60094726D01*
X137915571Y-60268408D01*
X138192525Y-60371406D01*
X138486975Y-60396132D01*
X138777226Y-60340763D01*
X139041897Y-60209380D01*
X139261486Y-60011661D01*
X139419816Y-59762174D01*
X139505611Y-59478006D01*
X139508915Y-59162558D01*
X139429089Y-58876655D01*
X139276019Y-58623907D01*
X139060619Y-58421633D01*
X138798758Y-58284735D01*
X138509730Y-58223300D01*
X138214826Y-58241853D01*
X137935775Y-58339029D01*
X137693137Y-58507667D01*
X137504787Y-58735343D01*
X137384602Y-59005284D01*
X137341436Y-59297600D01*
X129412000Y-59297600D01*
X129412000Y-56768000D01*
X142731438Y-56768000D01*
X144398000Y-56768000D01*
X144398000Y-55101438D01*
X143845901Y-55249373D01*
X143590424Y-55368504D01*
X143359514Y-55530188D01*
X143160189Y-55729513D01*
X142998504Y-55960423D01*
X142879373Y-56215902D01*
X142731438Y-56768000D01*
X129412000Y-56768000D01*
X129412000Y-54689364D01*
X145162000Y-54631420D01*
X145162000Y-55347252D01*
G36*
X121834354Y-70951440D02*
G01*
X121624440Y-71161354D01*
X121449949Y-71401521D01*
X121315176Y-71666027D01*
X121223440Y-71948361D01*
X121177001Y-72241569D01*
X121177001Y-72538431D01*
X121223440Y-72831639D01*
X121315176Y-73113973D01*
X121449949Y-73378479D01*
X121624440Y-73618646D01*
X121834354Y-73828560D01*
X122074521Y-74003051D01*
X122339027Y-74137824D01*
X122621361Y-74229560D01*
X122914569Y-74275999D01*
X123211431Y-74275999D01*
X123504639Y-74229560D01*
X123786973Y-74137824D01*
X124051479Y-74003051D01*
X124291646Y-73828560D01*
X124501560Y-73618646D01*
X124676051Y-73378479D01*
X124810824Y-73113973D01*
X124902560Y-72831639D01*
X124948999Y-72538431D01*
X124948999Y-72241569D01*
X124902560Y-71948361D01*
X124810824Y-71666027D01*
X124676051Y-71401521D01*
X124501560Y-71161354D01*
X124291646Y-70951440D01*
X124202247Y-70886488D01*
X134953763Y-70886488D01*
X134758315Y-70994604D01*
X134515124Y-71180873D01*
X134302137Y-71401043D01*
X134124033Y-71650275D01*
X133984723Y-71923097D01*
X133887271Y-72213511D01*
X133833814Y-72515140D01*
X133825528Y-72821358D01*
X133862595Y-73125437D01*
X133944200Y-73420697D01*
X134068551Y-73700652D01*
X134232916Y-73959152D01*
X134433686Y-74190517D01*
X134666447Y-74389666D01*
X134926088Y-74552222D01*
X135206904Y-74674616D01*
X135502727Y-74754159D01*
X135807057Y-74789101D01*
X136113209Y-74778678D01*
X136414459Y-74723117D01*
X136704186Y-74623638D01*
X136976027Y-74482428D01*
X137224010Y-74302589D01*
X137442688Y-74088070D01*
X137627255Y-73843584D01*
X137773658Y-73574505D01*
X137878680Y-73286740D01*
X137940682Y-72983347D01*
X137951706Y-72575931D01*
X137906202Y-72269629D01*
X137816895Y-71976607D01*
X137685259Y-71700003D01*
X137514183Y-71445894D01*
X137307426Y-71219864D01*
X137069532Y-71026877D01*
X136831675Y-70886488D01*
X144273919Y-70886488D01*
X144271171Y-71096364D01*
X144347162Y-71369449D01*
X144496743Y-71610230D01*
X144707891Y-71799351D01*
X144963633Y-71921607D01*
X145079547Y-71940485D01*
X145079547Y-76496420D01*
X144943505Y-76377534D01*
X144686290Y-76258411D01*
X144405979Y-76216269D01*
X144125108Y-76254494D01*
X143866254Y-76370014D01*
X143650228Y-76553542D01*
X143494394Y-76790325D01*
X143411282Y-77061328D01*
X143407571Y-77344764D01*
X143483562Y-77617849D01*
X143633143Y-77858630D01*
X143844291Y-78047751D01*
X144100033Y-78170007D01*
X144379808Y-78215571D01*
X144661124Y-78180780D01*
X144921371Y-78068432D01*
X145079547Y-77937344D01*
X145079547Y-84329000D01*
X137733388Y-84329000D01*
X137768816Y-84273174D01*
X137854611Y-83989006D01*
X137857915Y-83673558D01*
X137778089Y-83387655D01*
X137625019Y-83134907D01*
X137409619Y-82932633D01*
X137147758Y-82795735D01*
X136858730Y-82734300D01*
X136563826Y-82752853D01*
X136284775Y-82850029D01*
X136042137Y-83018667D01*
X135853787Y-83246343D01*
X135733602Y-83516284D01*
X135690436Y-83808600D01*
X135727471Y-84101757D01*
X135822994Y-84329000D01*
X131768636Y-84329000D01*
X131516380Y-84212173D01*
X131236069Y-84170031D01*
X130955198Y-84208256D01*
X130696344Y-84323776D01*
X130690195Y-84329000D01*
X127723463Y-84329000D01*
X127630949Y-84184061D01*
X127417505Y-83997534D01*
X127160290Y-83878411D01*
X126879979Y-83836269D01*
X126599108Y-83874494D01*
X126340254Y-83990014D01*
X126124228Y-84173542D01*
X126021916Y-84329000D01*
X123691023Y-84329000D01*
X123786973Y-84297824D01*
X124051479Y-84163051D01*
X124412409Y-83900823D01*
X123063000Y-82551414D01*
X121713591Y-83900823D01*
X122074521Y-84163051D01*
X122339027Y-84297824D01*
X122434977Y-84329000D01*
X110660547Y-84329000D01*
X110660547Y-82401569D01*
X121177001Y-82401569D01*
X121177001Y-82698431D01*
X121223440Y-82991639D01*
X121315176Y-83273973D01*
X121449949Y-83538479D01*
X121712177Y-83899409D01*
X123061586Y-82550000D01*
X123064414Y-82550000D01*
X124413823Y-83899409D01*
X124676051Y-83538479D01*
X124810824Y-83273973D01*
X124902560Y-82991639D01*
X124948999Y-82698431D01*
X124948999Y-82401569D01*
X124902560Y-82108361D01*
X124810824Y-81826027D01*
X124676051Y-81561521D01*
X124413823Y-81200591D01*
X123064414Y-82550000D01*
X123061586Y-82550000D01*
X121712177Y-81200591D01*
X121449949Y-81561521D01*
X121315176Y-81826027D01*
X121223440Y-82108361D01*
X121177001Y-82401569D01*
X110660547Y-82401569D01*
X110660547Y-81199177D01*
X121713591Y-81199177D01*
X123063000Y-82548586D01*
X124412409Y-81199177D01*
X124333161Y-81141600D01*
X135690436Y-81141600D01*
X135727471Y-81434757D01*
X135841975Y-81707154D01*
X136025516Y-81938726D01*
X136264571Y-82112408D01*
X136541525Y-82215406D01*
X136835975Y-82240132D01*
X137126226Y-82184763D01*
X137390897Y-82053380D01*
X137610486Y-81855661D01*
X137768816Y-81606174D01*
X137854611Y-81322006D01*
X137857915Y-81006558D01*
X137778089Y-80720655D01*
X137625019Y-80467907D01*
X137409619Y-80265633D01*
X137147758Y-80128735D01*
X136858730Y-80067300D01*
X136563826Y-80085853D01*
X136284775Y-80183029D01*
X136042137Y-80351667D01*
X135853787Y-80579343D01*
X135733602Y-80849284D01*
X135690436Y-81141600D01*
X124333161Y-81141600D01*
X124051479Y-80936949D01*
X123786973Y-80802176D01*
X123504639Y-80710440D01*
X123211431Y-80664001D01*
X122914569Y-80664001D01*
X122621361Y-80710440D01*
X122339027Y-80802176D01*
X122074521Y-80936949D01*
X121713591Y-81199177D01*
X110660547Y-81199177D01*
X110660547Y-77725000D01*
X133821163Y-77725000D01*
X133821163Y-79057308D01*
X133913410Y-79401578D01*
X134093292Y-79615953D01*
X134325707Y-79750138D01*
X134567865Y-79792837D01*
X135889000Y-79792837D01*
X135889000Y-77725000D01*
X135891000Y-77725000D01*
X135891000Y-79792837D01*
X137223308Y-79792837D01*
X137567578Y-79700590D01*
X137781953Y-79520708D01*
X137916138Y-79288293D01*
X137958837Y-79046135D01*
X137958837Y-77725000D01*
X135891000Y-77725000D01*
X135889000Y-77725000D01*
X133821163Y-77725000D01*
X110660547Y-77725000D01*
X110660547Y-76401865D01*
X133821163Y-76401865D01*
X133821163Y-77723000D01*
X135889000Y-77723000D01*
X135889000Y-75655163D01*
X135891000Y-75655163D01*
X135891000Y-77723000D01*
X137958837Y-77723000D01*
X137958837Y-76390692D01*
X137866590Y-76046424D01*
X137686708Y-75832047D01*
X137454293Y-75697862D01*
X137212135Y-75655163D01*
X135891000Y-75655163D01*
X135889000Y-75655163D01*
X134556692Y-75655163D01*
X134212424Y-75747410D01*
X133998047Y-75927292D01*
X133863862Y-76159707D01*
X133821163Y-76401865D01*
X110660547Y-76401865D01*
X110660547Y-70886488D01*
X121923753Y-70886488D01*
X121834354Y-70951440D01*
X121834354Y-70951440D01*
G37*
X121834354Y-70951440D02*
X121624440Y-71161354D01*
X121449949Y-71401521D01*
X121315176Y-71666027D01*
X121223440Y-71948361D01*
X121177001Y-72241569D01*
X121177001Y-72538431D01*
X121223440Y-72831639D01*
X121315176Y-73113973D01*
X121449949Y-73378479D01*
X121624440Y-73618646D01*
X121834354Y-73828560D01*
X122074521Y-74003051D01*
X122339027Y-74137824D01*
X122621361Y-74229560D01*
X122914569Y-74275999D01*
X123211431Y-74275999D01*
X123504639Y-74229560D01*
X123786973Y-74137824D01*
X124051479Y-74003051D01*
X124291646Y-73828560D01*
X124501560Y-73618646D01*
X124676051Y-73378479D01*
X124810824Y-73113973D01*
X124902560Y-72831639D01*
X124948999Y-72538431D01*
X124948999Y-72241569D01*
X124902560Y-71948361D01*
X124810824Y-71666027D01*
X124676051Y-71401521D01*
X124501560Y-71161354D01*
X124291646Y-70951440D01*
X124202247Y-70886488D01*
X134953763Y-70886488D01*
X134758315Y-70994604D01*
X134515124Y-71180873D01*
X134302137Y-71401043D01*
X134124033Y-71650275D01*
X133984723Y-71923097D01*
X133887271Y-72213511D01*
X133833814Y-72515140D01*
X133825528Y-72821358D01*
X133862595Y-73125437D01*
X133944200Y-73420697D01*
X134068551Y-73700652D01*
X134232916Y-73959152D01*
X134433686Y-74190517D01*
X134666447Y-74389666D01*
X134926088Y-74552222D01*
X135206904Y-74674616D01*
X135502727Y-74754159D01*
X135807057Y-74789101D01*
X136113209Y-74778678D01*
X136414459Y-74723117D01*
X136704186Y-74623638D01*
X136976027Y-74482428D01*
X137224010Y-74302589D01*
X137442688Y-74088070D01*
X137627255Y-73843584D01*
X137773658Y-73574505D01*
X137878680Y-73286740D01*
X137940682Y-72983347D01*
X137951706Y-72575931D01*
X137906202Y-72269629D01*
X137816895Y-71976607D01*
X137685259Y-71700003D01*
X137514183Y-71445894D01*
X137307426Y-71219864D01*
X137069532Y-71026877D01*
X136831675Y-70886488D01*
X144273919Y-70886488D01*
X144271171Y-71096364D01*
X144347162Y-71369449D01*
X144496743Y-71610230D01*
X144707891Y-71799351D01*
X144963633Y-71921607D01*
X145079547Y-71940485D01*
X145079547Y-76496420D01*
X144943505Y-76377534D01*
X144686290Y-76258411D01*
X144405979Y-76216269D01*
X144125108Y-76254494D01*
X143866254Y-76370014D01*
X143650228Y-76553542D01*
X143494394Y-76790325D01*
X143411282Y-77061328D01*
X143407571Y-77344764D01*
X143483562Y-77617849D01*
X143633143Y-77858630D01*
X143844291Y-78047751D01*
X144100033Y-78170007D01*
X144379808Y-78215571D01*
X144661124Y-78180780D01*
X144921371Y-78068432D01*
X145079547Y-77937344D01*
X145079547Y-84329000D01*
X137733388Y-84329000D01*
X137768816Y-84273174D01*
X137854611Y-83989006D01*
X137857915Y-83673558D01*
X137778089Y-83387655D01*
X137625019Y-83134907D01*
X137409619Y-82932633D01*
X137147758Y-82795735D01*
X136858730Y-82734300D01*
X136563826Y-82752853D01*
X136284775Y-82850029D01*
X136042137Y-83018667D01*
X135853787Y-83246343D01*
X135733602Y-83516284D01*
X135690436Y-83808600D01*
X135727471Y-84101757D01*
X135822994Y-84329000D01*
X131768636Y-84329000D01*
X131516380Y-84212173D01*
X131236069Y-84170031D01*
X130955198Y-84208256D01*
X130696344Y-84323776D01*
X130690195Y-84329000D01*
X127723463Y-84329000D01*
X127630949Y-84184061D01*
X127417505Y-83997534D01*
X127160290Y-83878411D01*
X126879979Y-83836269D01*
X126599108Y-83874494D01*
X126340254Y-83990014D01*
X126124228Y-84173542D01*
X126021916Y-84329000D01*
X123691023Y-84329000D01*
X123786973Y-84297824D01*
X124051479Y-84163051D01*
X124412409Y-83900823D01*
X123063000Y-82551414D01*
X121713591Y-83900823D01*
X122074521Y-84163051D01*
X122339027Y-84297824D01*
X122434977Y-84329000D01*
X110660547Y-84329000D01*
X110660547Y-82401569D01*
X121177001Y-82401569D01*
X121177001Y-82698431D01*
X121223440Y-82991639D01*
X121315176Y-83273973D01*
X121449949Y-83538479D01*
X121712177Y-83899409D01*
X123061586Y-82550000D01*
X123064414Y-82550000D01*
X124413823Y-83899409D01*
X124676051Y-83538479D01*
X124810824Y-83273973D01*
X124902560Y-82991639D01*
X124948999Y-82698431D01*
X124948999Y-82401569D01*
X124902560Y-82108361D01*
X124810824Y-81826027D01*
X124676051Y-81561521D01*
X124413823Y-81200591D01*
X123064414Y-82550000D01*
X123061586Y-82550000D01*
X121712177Y-81200591D01*
X121449949Y-81561521D01*
X121315176Y-81826027D01*
X121223440Y-82108361D01*
X121177001Y-82401569D01*
X110660547Y-82401569D01*
X110660547Y-81199177D01*
X121713591Y-81199177D01*
X123063000Y-82548586D01*
X124412409Y-81199177D01*
X124333161Y-81141600D01*
X135690436Y-81141600D01*
X135727471Y-81434757D01*
X135841975Y-81707154D01*
X136025516Y-81938726D01*
X136264571Y-82112408D01*
X136541525Y-82215406D01*
X136835975Y-82240132D01*
X137126226Y-82184763D01*
X137390897Y-82053380D01*
X137610486Y-81855661D01*
X137768816Y-81606174D01*
X137854611Y-81322006D01*
X137857915Y-81006558D01*
X137778089Y-80720655D01*
X137625019Y-80467907D01*
X137409619Y-80265633D01*
X137147758Y-80128735D01*
X136858730Y-80067300D01*
X136563826Y-80085853D01*
X136284775Y-80183029D01*
X136042137Y-80351667D01*
X135853787Y-80579343D01*
X135733602Y-80849284D01*
X135690436Y-81141600D01*
X124333161Y-81141600D01*
X124051479Y-80936949D01*
X123786973Y-80802176D01*
X123504639Y-80710440D01*
X123211431Y-80664001D01*
X122914569Y-80664001D01*
X122621361Y-80710440D01*
X122339027Y-80802176D01*
X122074521Y-80936949D01*
X121713591Y-81199177D01*
X110660547Y-81199177D01*
X110660547Y-77725000D01*
X133821163Y-77725000D01*
X133821163Y-79057308D01*
X133913410Y-79401578D01*
X134093292Y-79615953D01*
X134325707Y-79750138D01*
X134567865Y-79792837D01*
X135889000Y-79792837D01*
X135889000Y-77725000D01*
X135891000Y-77725000D01*
X135891000Y-79792837D01*
X137223308Y-79792837D01*
X137567578Y-79700590D01*
X137781953Y-79520708D01*
X137916138Y-79288293D01*
X137958837Y-79046135D01*
X137958837Y-77725000D01*
X135891000Y-77725000D01*
X135889000Y-77725000D01*
X133821163Y-77725000D01*
X110660547Y-77725000D01*
X110660547Y-76401865D01*
X133821163Y-76401865D01*
X133821163Y-77723000D01*
X135889000Y-77723000D01*
X135889000Y-75655163D01*
X135891000Y-75655163D01*
X135891000Y-77723000D01*
X137958837Y-77723000D01*
X137958837Y-76390692D01*
X137866590Y-76046424D01*
X137686708Y-75832047D01*
X137454293Y-75697862D01*
X137212135Y-75655163D01*
X135891000Y-75655163D01*
X135889000Y-75655163D01*
X134556692Y-75655163D01*
X134212424Y-75747410D01*
X133998047Y-75927292D01*
X133863862Y-76159707D01*
X133821163Y-76401865D01*
X110660547Y-76401865D01*
X110660547Y-70886488D01*
X121923753Y-70886488D01*
X121834354Y-70951440D01*
G36*
X98426000Y-88338328D02*
G01*
X98382019Y-88265707D01*
X98166619Y-88063433D01*
X97904758Y-87926535D01*
X97615730Y-87865100D01*
X97320826Y-87883653D01*
X97041775Y-87980829D01*
X96799137Y-88149467D01*
X96610787Y-88377143D01*
X96580432Y-88445322D01*
X96502419Y-88316507D01*
X96287019Y-88114233D01*
X96025158Y-87977335D01*
X95736130Y-87915900D01*
X95441226Y-87934453D01*
X95162175Y-88031629D01*
X94919537Y-88200267D01*
X94731187Y-88427943D01*
X94611002Y-88697884D01*
X94567836Y-88990200D01*
X94604871Y-89283357D01*
X94719375Y-89555754D01*
X94902916Y-89787326D01*
X95141971Y-89961008D01*
X95418925Y-90064006D01*
X95713375Y-90088732D01*
X96003626Y-90033363D01*
X96268297Y-89901980D01*
X96487886Y-89704261D01*
X96607525Y-89515741D01*
X96782516Y-89736526D01*
X97021571Y-89910208D01*
X97298525Y-90013206D01*
X97592975Y-90037932D01*
X97883226Y-89982563D01*
X98147897Y-89851180D01*
X98367486Y-89653461D01*
X98426000Y-89561258D01*
X98426000Y-108626478D01*
X98232905Y-108457734D01*
X97975690Y-108338611D01*
X97695379Y-108296469D01*
X97414508Y-108334694D01*
X97155654Y-108450214D01*
X96939628Y-108633742D01*
X96783794Y-108870525D01*
X96700682Y-109141528D01*
X96696971Y-109424964D01*
X96772962Y-109698049D01*
X96922543Y-109938830D01*
X97133691Y-110127951D01*
X97389433Y-110250207D01*
X97669208Y-110295771D01*
X97950524Y-110260980D01*
X98210771Y-110148632D01*
X98426000Y-109970262D01*
X98426000Y-131910820D01*
X87211551Y-131910820D01*
X87200207Y-131909597D01*
X87072568Y-131896631D01*
X87025154Y-131881772D01*
X86981702Y-131857687D01*
X86943972Y-131825348D01*
X86913520Y-131786089D01*
X86891585Y-131741513D01*
X86876679Y-131684285D01*
X86868582Y-131579064D01*
X86867000Y-131571957D01*
X86867000Y-130298940D01*
X86948291Y-130371751D01*
X87204033Y-130494007D01*
X87483808Y-130539571D01*
X87765124Y-130504780D01*
X88025371Y-130392432D01*
X88243624Y-130211556D01*
X88402338Y-129976695D01*
X88489236Y-129705224D01*
X88493223Y-129400649D01*
X88413461Y-129126996D01*
X88260949Y-128888061D01*
X88047505Y-128701534D01*
X87790290Y-128582411D01*
X87509979Y-128540269D01*
X87229108Y-128578494D01*
X86970254Y-128694014D01*
X86867000Y-128781735D01*
X86867000Y-128266940D01*
X86948291Y-128339751D01*
X87204033Y-128462007D01*
X87483808Y-128507571D01*
X87765124Y-128472780D01*
X88025371Y-128360432D01*
X88243624Y-128179556D01*
X88402338Y-127944695D01*
X88419601Y-127890764D01*
X95274571Y-127890764D01*
X95350562Y-128163849D01*
X95500143Y-128404630D01*
X95711291Y-128593751D01*
X95830367Y-128650675D01*
X95733254Y-128694014D01*
X95517228Y-128877542D01*
X95361394Y-129114325D01*
X95278282Y-129385328D01*
X95274571Y-129668764D01*
X95350562Y-129941849D01*
X95500143Y-130182630D01*
X95711291Y-130371751D01*
X95967033Y-130494007D01*
X96246808Y-130539571D01*
X96528124Y-130504780D01*
X96788371Y-130392432D01*
X97006624Y-130211556D01*
X97165338Y-129976695D01*
X97252236Y-129705224D01*
X97256223Y-129400649D01*
X97176461Y-129126996D01*
X97023949Y-128888061D01*
X96810505Y-128701534D01*
X96702487Y-128651508D01*
X96788371Y-128614432D01*
X97006624Y-128433556D01*
X97165338Y-128198695D01*
X97252236Y-127927224D01*
X97256223Y-127622649D01*
X97176461Y-127348996D01*
X97023949Y-127110061D01*
X96810505Y-126923534D01*
X96553290Y-126804411D01*
X96272979Y-126762269D01*
X95992108Y-126800494D01*
X95733254Y-126916014D01*
X95517228Y-127099542D01*
X95361394Y-127336325D01*
X95278282Y-127607328D01*
X95274571Y-127890764D01*
X88419601Y-127890764D01*
X88489236Y-127673224D01*
X88493223Y-127368649D01*
X88440914Y-127189184D01*
X88489236Y-127038224D01*
X88493223Y-126733649D01*
X88440914Y-126554184D01*
X88489236Y-126403224D01*
X88493223Y-126098649D01*
X88440914Y-125919184D01*
X88489236Y-125768224D01*
X88493223Y-125463649D01*
X88413461Y-125189996D01*
X88260949Y-124951061D01*
X88047505Y-124764534D01*
X87790290Y-124645411D01*
X87509979Y-124603269D01*
X87229108Y-124641494D01*
X86970254Y-124757014D01*
X86867000Y-124844735D01*
X86867000Y-122302764D01*
X89559571Y-122302764D01*
X89635562Y-122575849D01*
X89785143Y-122816630D01*
X89996291Y-123005751D01*
X90252033Y-123128007D01*
X90531808Y-123173571D01*
X90813124Y-123138780D01*
X91073371Y-123026432D01*
X91291624Y-122845556D01*
X91450338Y-122610695D01*
X91537236Y-122339224D01*
X91541223Y-122034649D01*
X91461461Y-121760996D01*
X91308949Y-121522061D01*
X91095505Y-121335534D01*
X90838290Y-121216411D01*
X90557979Y-121174269D01*
X90277108Y-121212494D01*
X90018254Y-121328014D01*
X89802228Y-121511542D01*
X89646394Y-121748325D01*
X89563282Y-122019328D01*
X89559571Y-122302764D01*
X86867000Y-122302764D01*
X86867000Y-112777764D01*
X94626882Y-112777764D01*
X94702873Y-113050849D01*
X94852454Y-113291630D01*
X95063602Y-113480751D01*
X95319344Y-113603007D01*
X95599119Y-113648571D01*
X95880435Y-113613780D01*
X96140682Y-113501432D01*
X96358935Y-113320556D01*
X96517649Y-113085695D01*
X96604547Y-112814224D01*
X96608534Y-112509649D01*
X96528772Y-112235996D01*
X96376260Y-111997061D01*
X96162816Y-111810534D01*
X95905601Y-111691411D01*
X95625290Y-111649269D01*
X95344419Y-111687494D01*
X95085565Y-111803014D01*
X94869539Y-111986542D01*
X94713705Y-112223325D01*
X94630593Y-112494328D01*
X94626882Y-112777764D01*
X86867000Y-112777764D01*
X86867000Y-101855764D01*
X94766571Y-101855764D01*
X94842562Y-102128849D01*
X94992143Y-102369630D01*
X95203291Y-102558751D01*
X95459033Y-102681007D01*
X95738808Y-102726571D01*
X96020124Y-102691780D01*
X96280371Y-102579432D01*
X96498624Y-102398556D01*
X96657338Y-102163695D01*
X96744236Y-101892224D01*
X96748223Y-101587649D01*
X96668461Y-101313996D01*
X96515949Y-101075061D01*
X96302505Y-100888534D01*
X96045290Y-100769411D01*
X95764979Y-100727269D01*
X95484108Y-100765494D01*
X95225254Y-100881014D01*
X95009228Y-101064542D01*
X94853394Y-101301325D01*
X94770282Y-101572328D01*
X94766571Y-101855764D01*
X86867000Y-101855764D01*
X86867000Y-99315764D01*
X94766571Y-99315764D01*
X94842562Y-99588849D01*
X94992143Y-99829630D01*
X95203291Y-100018751D01*
X95459033Y-100141007D01*
X95738808Y-100186571D01*
X96020124Y-100151780D01*
X96280371Y-100039432D01*
X96498624Y-99858556D01*
X96657338Y-99623695D01*
X96744236Y-99352224D01*
X96748223Y-99047649D01*
X96668461Y-98773996D01*
X96515949Y-98535061D01*
X96302505Y-98348534D01*
X96045290Y-98229411D01*
X95764979Y-98187269D01*
X95484108Y-98225494D01*
X95225254Y-98341014D01*
X95009228Y-98524542D01*
X94853394Y-98761325D01*
X94770282Y-99032328D01*
X94766571Y-99315764D01*
X86867000Y-99315764D01*
X86867000Y-95759764D01*
X94385571Y-95759764D01*
X94461562Y-96032849D01*
X94611143Y-96273630D01*
X94822291Y-96462751D01*
X95078033Y-96585007D01*
X95357808Y-96630571D01*
X95639124Y-96595780D01*
X95899371Y-96483432D01*
X96117624Y-96302556D01*
X96276338Y-96067695D01*
X96363236Y-95796224D01*
X96367223Y-95491649D01*
X96287461Y-95217996D01*
X96134949Y-94979061D01*
X95921505Y-94792534D01*
X95664290Y-94673411D01*
X95383979Y-94631269D01*
X95103108Y-94669494D01*
X94844254Y-94785014D01*
X94628228Y-94968542D01*
X94472394Y-95205325D01*
X94389282Y-95476328D01*
X94385571Y-95759764D01*
X86867000Y-95759764D01*
X86867000Y-70484000D01*
X96801200Y-70484000D01*
X96926158Y-70456817D01*
X98426000Y-70456817D01*
X98426000Y-88338328D01*
X98426000Y-88338328D01*
G37*
X98426000Y-88338328D02*
X98382019Y-88265707D01*
X98166619Y-88063433D01*
X97904758Y-87926535D01*
X97615730Y-87865100D01*
X97320826Y-87883653D01*
X97041775Y-87980829D01*
X96799137Y-88149467D01*
X96610787Y-88377143D01*
X96580432Y-88445322D01*
X96502419Y-88316507D01*
X96287019Y-88114233D01*
X96025158Y-87977335D01*
X95736130Y-87915900D01*
X95441226Y-87934453D01*
X95162175Y-88031629D01*
X94919537Y-88200267D01*
X94731187Y-88427943D01*
X94611002Y-88697884D01*
X94567836Y-88990200D01*
X94604871Y-89283357D01*
X94719375Y-89555754D01*
X94902916Y-89787326D01*
X95141971Y-89961008D01*
X95418925Y-90064006D01*
X95713375Y-90088732D01*
X96003626Y-90033363D01*
X96268297Y-89901980D01*
X96487886Y-89704261D01*
X96607525Y-89515741D01*
X96782516Y-89736526D01*
X97021571Y-89910208D01*
X97298525Y-90013206D01*
X97592975Y-90037932D01*
X97883226Y-89982563D01*
X98147897Y-89851180D01*
X98367486Y-89653461D01*
X98426000Y-89561258D01*
X98426000Y-108626478D01*
X98232905Y-108457734D01*
X97975690Y-108338611D01*
X97695379Y-108296469D01*
X97414508Y-108334694D01*
X97155654Y-108450214D01*
X96939628Y-108633742D01*
X96783794Y-108870525D01*
X96700682Y-109141528D01*
X96696971Y-109424964D01*
X96772962Y-109698049D01*
X96922543Y-109938830D01*
X97133691Y-110127951D01*
X97389433Y-110250207D01*
X97669208Y-110295771D01*
X97950524Y-110260980D01*
X98210771Y-110148632D01*
X98426000Y-109970262D01*
X98426000Y-131910820D01*
X87211551Y-131910820D01*
X87200207Y-131909597D01*
X87072568Y-131896631D01*
X87025154Y-131881772D01*
X86981702Y-131857687D01*
X86943972Y-131825348D01*
X86913520Y-131786089D01*
X86891585Y-131741513D01*
X86876679Y-131684285D01*
X86868582Y-131579064D01*
X86867000Y-131571957D01*
X86867000Y-130298940D01*
X86948291Y-130371751D01*
X87204033Y-130494007D01*
X87483808Y-130539571D01*
X87765124Y-130504780D01*
X88025371Y-130392432D01*
X88243624Y-130211556D01*
X88402338Y-129976695D01*
X88489236Y-129705224D01*
X88493223Y-129400649D01*
X88413461Y-129126996D01*
X88260949Y-128888061D01*
X88047505Y-128701534D01*
X87790290Y-128582411D01*
X87509979Y-128540269D01*
X87229108Y-128578494D01*
X86970254Y-128694014D01*
X86867000Y-128781735D01*
X86867000Y-128266940D01*
X86948291Y-128339751D01*
X87204033Y-128462007D01*
X87483808Y-128507571D01*
X87765124Y-128472780D01*
X88025371Y-128360432D01*
X88243624Y-128179556D01*
X88402338Y-127944695D01*
X88419601Y-127890764D01*
X95274571Y-127890764D01*
X95350562Y-128163849D01*
X95500143Y-128404630D01*
X95711291Y-128593751D01*
X95830367Y-128650675D01*
X95733254Y-128694014D01*
X95517228Y-128877542D01*
X95361394Y-129114325D01*
X95278282Y-129385328D01*
X95274571Y-129668764D01*
X95350562Y-129941849D01*
X95500143Y-130182630D01*
X95711291Y-130371751D01*
X95967033Y-130494007D01*
X96246808Y-130539571D01*
X96528124Y-130504780D01*
X96788371Y-130392432D01*
X97006624Y-130211556D01*
X97165338Y-129976695D01*
X97252236Y-129705224D01*
X97256223Y-129400649D01*
X97176461Y-129126996D01*
X97023949Y-128888061D01*
X96810505Y-128701534D01*
X96702487Y-128651508D01*
X96788371Y-128614432D01*
X97006624Y-128433556D01*
X97165338Y-128198695D01*
X97252236Y-127927224D01*
X97256223Y-127622649D01*
X97176461Y-127348996D01*
X97023949Y-127110061D01*
X96810505Y-126923534D01*
X96553290Y-126804411D01*
X96272979Y-126762269D01*
X95992108Y-126800494D01*
X95733254Y-126916014D01*
X95517228Y-127099542D01*
X95361394Y-127336325D01*
X95278282Y-127607328D01*
X95274571Y-127890764D01*
X88419601Y-127890764D01*
X88489236Y-127673224D01*
X88493223Y-127368649D01*
X88440914Y-127189184D01*
X88489236Y-127038224D01*
X88493223Y-126733649D01*
X88440914Y-126554184D01*
X88489236Y-126403224D01*
X88493223Y-126098649D01*
X88440914Y-125919184D01*
X88489236Y-125768224D01*
X88493223Y-125463649D01*
X88413461Y-125189996D01*
X88260949Y-124951061D01*
X88047505Y-124764534D01*
X87790290Y-124645411D01*
X87509979Y-124603269D01*
X87229108Y-124641494D01*
X86970254Y-124757014D01*
X86867000Y-124844735D01*
X86867000Y-122302764D01*
X89559571Y-122302764D01*
X89635562Y-122575849D01*
X89785143Y-122816630D01*
X89996291Y-123005751D01*
X90252033Y-123128007D01*
X90531808Y-123173571D01*
X90813124Y-123138780D01*
X91073371Y-123026432D01*
X91291624Y-122845556D01*
X91450338Y-122610695D01*
X91537236Y-122339224D01*
X91541223Y-122034649D01*
X91461461Y-121760996D01*
X91308949Y-121522061D01*
X91095505Y-121335534D01*
X90838290Y-121216411D01*
X90557979Y-121174269D01*
X90277108Y-121212494D01*
X90018254Y-121328014D01*
X89802228Y-121511542D01*
X89646394Y-121748325D01*
X89563282Y-122019328D01*
X89559571Y-122302764D01*
X86867000Y-122302764D01*
X86867000Y-112777764D01*
X94626882Y-112777764D01*
X94702873Y-113050849D01*
X94852454Y-113291630D01*
X95063602Y-113480751D01*
X95319344Y-113603007D01*
X95599119Y-113648571D01*
X95880435Y-113613780D01*
X96140682Y-113501432D01*
X96358935Y-113320556D01*
X96517649Y-113085695D01*
X96604547Y-112814224D01*
X96608534Y-112509649D01*
X96528772Y-112235996D01*
X96376260Y-111997061D01*
X96162816Y-111810534D01*
X95905601Y-111691411D01*
X95625290Y-111649269D01*
X95344419Y-111687494D01*
X95085565Y-111803014D01*
X94869539Y-111986542D01*
X94713705Y-112223325D01*
X94630593Y-112494328D01*
X94626882Y-112777764D01*
X86867000Y-112777764D01*
X86867000Y-101855764D01*
X94766571Y-101855764D01*
X94842562Y-102128849D01*
X94992143Y-102369630D01*
X95203291Y-102558751D01*
X95459033Y-102681007D01*
X95738808Y-102726571D01*
X96020124Y-102691780D01*
X96280371Y-102579432D01*
X96498624Y-102398556D01*
X96657338Y-102163695D01*
X96744236Y-101892224D01*
X96748223Y-101587649D01*
X96668461Y-101313996D01*
X96515949Y-101075061D01*
X96302505Y-100888534D01*
X96045290Y-100769411D01*
X95764979Y-100727269D01*
X95484108Y-100765494D01*
X95225254Y-100881014D01*
X95009228Y-101064542D01*
X94853394Y-101301325D01*
X94770282Y-101572328D01*
X94766571Y-101855764D01*
X86867000Y-101855764D01*
X86867000Y-99315764D01*
X94766571Y-99315764D01*
X94842562Y-99588849D01*
X94992143Y-99829630D01*
X95203291Y-100018751D01*
X95459033Y-100141007D01*
X95738808Y-100186571D01*
X96020124Y-100151780D01*
X96280371Y-100039432D01*
X96498624Y-99858556D01*
X96657338Y-99623695D01*
X96744236Y-99352224D01*
X96748223Y-99047649D01*
X96668461Y-98773996D01*
X96515949Y-98535061D01*
X96302505Y-98348534D01*
X96045290Y-98229411D01*
X95764979Y-98187269D01*
X95484108Y-98225494D01*
X95225254Y-98341014D01*
X95009228Y-98524542D01*
X94853394Y-98761325D01*
X94770282Y-99032328D01*
X94766571Y-99315764D01*
X86867000Y-99315764D01*
X86867000Y-95759764D01*
X94385571Y-95759764D01*
X94461562Y-96032849D01*
X94611143Y-96273630D01*
X94822291Y-96462751D01*
X95078033Y-96585007D01*
X95357808Y-96630571D01*
X95639124Y-96595780D01*
X95899371Y-96483432D01*
X96117624Y-96302556D01*
X96276338Y-96067695D01*
X96363236Y-95796224D01*
X96367223Y-95491649D01*
X96287461Y-95217996D01*
X96134949Y-94979061D01*
X95921505Y-94792534D01*
X95664290Y-94673411D01*
X95383979Y-94631269D01*
X95103108Y-94669494D01*
X94844254Y-94785014D01*
X94628228Y-94968542D01*
X94472394Y-95205325D01*
X94389282Y-95476328D01*
X94385571Y-95759764D01*
X86867000Y-95759764D01*
X86867000Y-70484000D01*
X96801200Y-70484000D01*
X96926158Y-70456817D01*
X98426000Y-70456817D01*
X98426000Y-88338328D01*
G36*
X149754321Y-86778518D02*
G01*
X149612979Y-86757269D01*
X149332108Y-86795494D01*
X149073254Y-86911014D01*
X148857228Y-87094542D01*
X148701394Y-87331325D01*
X148618282Y-87602328D01*
X148614571Y-87885764D01*
X148690562Y-88158849D01*
X148840143Y-88399630D01*
X149051291Y-88588751D01*
X149307033Y-88711007D01*
X149586808Y-88756571D01*
X149754321Y-88735854D01*
X149754320Y-102037611D01*
X149485979Y-101997269D01*
X149205108Y-102035494D01*
X148946254Y-102151014D01*
X148730228Y-102334542D01*
X148574394Y-102571325D01*
X148491282Y-102842328D01*
X148487571Y-103125764D01*
X148563562Y-103398849D01*
X148713143Y-103639630D01*
X148924291Y-103828751D01*
X149180033Y-103951007D01*
X149459808Y-103996571D01*
X149741124Y-103961780D01*
X149754320Y-103956083D01*
X149754320Y-104577611D01*
X149485979Y-104537269D01*
X149205108Y-104575494D01*
X148946254Y-104691014D01*
X148926106Y-104708131D01*
X136514287Y-104708131D01*
X136374155Y-104508002D01*
X136569953Y-104343708D01*
X136704138Y-104111293D01*
X136746837Y-103869135D01*
X136746837Y-102113692D01*
X136654590Y-101769424D01*
X136474708Y-101555047D01*
X136242293Y-101420862D01*
X136000135Y-101378163D01*
X134244692Y-101378163D01*
X133900424Y-101470410D01*
X133686047Y-101650292D01*
X133551862Y-101882707D01*
X133509163Y-102124865D01*
X133509163Y-103880308D01*
X133601410Y-104224578D01*
X133781292Y-104438953D01*
X133887327Y-104500172D01*
X133741712Y-104708131D01*
X119301516Y-104708131D01*
X119390338Y-104576695D01*
X119477236Y-104305224D01*
X119481223Y-104000649D01*
X119401461Y-103726996D01*
X119258093Y-103502387D01*
X119390338Y-103306695D01*
X119477236Y-103035224D01*
X119481223Y-102730649D01*
X119401461Y-102456996D01*
X119260888Y-102236764D01*
X129183571Y-102236764D01*
X129259562Y-102509849D01*
X129409143Y-102750630D01*
X129620291Y-102939751D01*
X129876033Y-103062007D01*
X130155808Y-103107571D01*
X130437124Y-103072780D01*
X130697371Y-102960432D01*
X130915624Y-102779556D01*
X131074338Y-102544695D01*
X131161236Y-102273224D01*
X131165223Y-101968649D01*
X131085461Y-101694996D01*
X130932949Y-101456061D01*
X130719505Y-101269534D01*
X130462290Y-101150411D01*
X130181979Y-101108269D01*
X129901108Y-101146494D01*
X129642254Y-101262014D01*
X129426228Y-101445542D01*
X129270394Y-101682325D01*
X129187282Y-101953328D01*
X129183571Y-102236764D01*
X119260888Y-102236764D01*
X119248949Y-102218061D01*
X119035505Y-102031534D01*
X118778290Y-101912411D01*
X118497979Y-101870269D01*
X118217108Y-101908494D01*
X117958254Y-102024014D01*
X117742228Y-102207542D01*
X117586394Y-102444325D01*
X117503282Y-102715328D01*
X117499571Y-102998764D01*
X117575562Y-103271849D01*
X117722226Y-103507934D01*
X117586394Y-103714325D01*
X117503282Y-103985328D01*
X117499571Y-104268764D01*
X117575562Y-104541849D01*
X117678862Y-104708131D01*
X110743000Y-104708131D01*
X110743000Y-104095130D01*
X110897816Y-104081585D01*
X111170098Y-104008627D01*
X111425576Y-103889496D01*
X111645998Y-103735155D01*
X111810292Y-103930953D01*
X112042707Y-104065138D01*
X112284865Y-104107837D01*
X113156000Y-104107837D01*
X113156000Y-102490000D01*
X113158000Y-102490000D01*
X113158000Y-104107837D01*
X114040308Y-104107837D01*
X114384578Y-104015590D01*
X114598953Y-103835708D01*
X114733138Y-103603293D01*
X114775837Y-103361135D01*
X114775837Y-102490000D01*
X113158000Y-102490000D01*
X113156000Y-102490000D01*
X113156000Y-100870163D01*
X113158000Y-100870163D01*
X113158000Y-102488000D01*
X114775837Y-102488000D01*
X114775837Y-101605692D01*
X114706725Y-101347764D01*
X115848571Y-101347764D01*
X115924562Y-101620849D01*
X116074143Y-101861630D01*
X116285291Y-102050751D01*
X116541033Y-102173007D01*
X116820808Y-102218571D01*
X117102124Y-102183780D01*
X117362371Y-102071432D01*
X117580624Y-101890556D01*
X117739338Y-101655695D01*
X117826236Y-101384224D01*
X117830223Y-101079649D01*
X117797321Y-100966764D01*
X143534571Y-100966764D01*
X143610562Y-101239849D01*
X143760143Y-101480630D01*
X143971291Y-101669751D01*
X144227033Y-101792007D01*
X144506808Y-101837571D01*
X144788124Y-101802780D01*
X145048371Y-101690432D01*
X145266624Y-101509556D01*
X145425338Y-101274695D01*
X145512236Y-101003224D01*
X145516223Y-100698649D01*
X145436461Y-100424996D01*
X145283949Y-100186061D01*
X145070505Y-99999534D01*
X144813290Y-99880411D01*
X144532979Y-99838269D01*
X144252108Y-99876494D01*
X143993254Y-99992014D01*
X143777228Y-100175542D01*
X143621394Y-100412325D01*
X143538282Y-100683328D01*
X143534571Y-100966764D01*
X117797321Y-100966764D01*
X117750461Y-100805996D01*
X117597949Y-100567061D01*
X117384505Y-100380534D01*
X117127290Y-100261411D01*
X116846979Y-100219269D01*
X116566108Y-100257494D01*
X116307254Y-100373014D01*
X116091228Y-100556542D01*
X115935394Y-100793325D01*
X115852282Y-101064328D01*
X115848571Y-101347764D01*
X114706725Y-101347764D01*
X114683590Y-101261424D01*
X114503708Y-101047047D01*
X114271293Y-100912862D01*
X114029135Y-100870163D01*
X113158000Y-100870163D01*
X113156000Y-100870163D01*
X112273692Y-100870163D01*
X111929424Y-100962410D01*
X111715047Y-101142292D01*
X111653828Y-101248327D01*
X111425576Y-101088504D01*
X111170098Y-100969373D01*
X110897816Y-100896415D01*
X110743000Y-100882870D01*
X110743000Y-98934773D01*
X121131790Y-98934773D01*
X121207781Y-99207858D01*
X121357362Y-99448639D01*
X121568510Y-99637760D01*
X121824252Y-99760016D01*
X122104027Y-99805580D01*
X122385343Y-99770789D01*
X122645590Y-99658441D01*
X122863843Y-99477565D01*
X123022557Y-99242704D01*
X123109455Y-98971233D01*
X123109932Y-98934764D01*
X129183571Y-98934764D01*
X129259562Y-99207849D01*
X129409143Y-99448630D01*
X129620291Y-99637751D01*
X129876033Y-99760007D01*
X130155808Y-99805571D01*
X130437124Y-99770780D01*
X130697371Y-99658432D01*
X130915624Y-99477556D01*
X131074338Y-99242695D01*
X131161236Y-98971224D01*
X131165223Y-98666649D01*
X131085461Y-98392996D01*
X130932949Y-98154061D01*
X130719505Y-97967534D01*
X130462290Y-97848411D01*
X130181979Y-97806269D01*
X129901108Y-97844494D01*
X129642254Y-97960014D01*
X129426228Y-98143542D01*
X129270394Y-98380325D01*
X129187282Y-98651328D01*
X129183571Y-98934764D01*
X123109932Y-98934764D01*
X123113442Y-98666658D01*
X123033680Y-98393005D01*
X122881168Y-98154070D01*
X122757233Y-98045764D01*
X124230571Y-98045764D01*
X124306562Y-98318849D01*
X124456143Y-98559630D01*
X124667291Y-98748751D01*
X124923033Y-98871007D01*
X125202808Y-98916571D01*
X125484124Y-98881780D01*
X125744371Y-98769432D01*
X125962624Y-98588556D01*
X126121338Y-98353695D01*
X126208236Y-98082224D01*
X126212223Y-97777649D01*
X126132461Y-97503996D01*
X125979949Y-97265061D01*
X125766505Y-97078534D01*
X125509290Y-96959411D01*
X125228979Y-96917269D01*
X124948108Y-96955494D01*
X124689254Y-97071014D01*
X124473228Y-97254542D01*
X124317394Y-97491325D01*
X124234282Y-97762328D01*
X124230571Y-98045764D01*
X122757233Y-98045764D01*
X122667724Y-97967543D01*
X122410509Y-97848420D01*
X122130198Y-97806278D01*
X121849327Y-97844503D01*
X121590473Y-97960023D01*
X121374447Y-98143551D01*
X121218613Y-98380334D01*
X121135501Y-98651337D01*
X121131790Y-98934773D01*
X110743000Y-98934773D01*
X110743000Y-97918764D01*
X116864571Y-97918764D01*
X116940562Y-98191849D01*
X117090143Y-98432630D01*
X117301291Y-98621751D01*
X117557033Y-98744007D01*
X117836808Y-98789571D01*
X118118124Y-98754780D01*
X118378371Y-98642432D01*
X118596624Y-98461556D01*
X118755338Y-98226695D01*
X118842236Y-97955224D01*
X118846223Y-97650649D01*
X118766461Y-97376996D01*
X118613949Y-97138061D01*
X118400505Y-96951534D01*
X118143290Y-96832411D01*
X117862979Y-96790269D01*
X117582108Y-96828494D01*
X117323254Y-96944014D01*
X117107228Y-97127542D01*
X116951394Y-97364325D01*
X116868282Y-97635328D01*
X116864571Y-97918764D01*
X110743000Y-97918764D01*
X110743000Y-95378764D01*
X115086571Y-95378764D01*
X115162562Y-95651849D01*
X115312143Y-95892630D01*
X115523291Y-96081751D01*
X115779033Y-96204007D01*
X116058808Y-96249571D01*
X116340124Y-96214780D01*
X116600371Y-96102432D01*
X116818624Y-95921556D01*
X116949585Y-95727762D01*
X126008571Y-95727762D01*
X126084562Y-96000847D01*
X126234143Y-96241628D01*
X126445291Y-96430749D01*
X126701033Y-96553005D01*
X126980808Y-96598569D01*
X127262124Y-96563778D01*
X127522371Y-96451430D01*
X127740624Y-96270554D01*
X127899338Y-96035693D01*
X127906357Y-96013764D01*
X128802571Y-96013764D01*
X128878562Y-96286849D01*
X129028143Y-96527630D01*
X129239291Y-96716751D01*
X129495033Y-96839007D01*
X129774808Y-96884571D01*
X130056124Y-96849780D01*
X130316371Y-96737432D01*
X130418196Y-96653045D01*
X130442955Y-96698176D01*
X130623214Y-96933518D01*
X130836995Y-97138886D01*
X131079381Y-97309554D01*
X131344794Y-97441594D01*
X131627125Y-97531969D01*
X131919879Y-97578599D01*
X132216316Y-97580410D01*
X132344178Y-97561643D01*
X132366137Y-97785597D01*
X132441609Y-98029405D01*
X132564563Y-98253060D01*
X132729979Y-98447421D01*
X132931096Y-98604552D01*
X133159703Y-98718034D01*
X133406458Y-98783229D01*
X133661283Y-98797476D01*
X133809916Y-98775528D01*
X133854143Y-98846720D01*
X134065291Y-99035841D01*
X134321033Y-99158097D01*
X134600808Y-99203661D01*
X134882124Y-99168870D01*
X135142371Y-99056522D01*
X135360624Y-98875646D01*
X135425408Y-98779781D01*
X135438458Y-98783229D01*
X135693283Y-98797476D01*
X135945768Y-98760192D01*
X136185599Y-98672901D01*
X136402980Y-98539167D01*
X136589029Y-98364455D01*
X136736147Y-98155902D01*
X136838326Y-97922025D01*
X136891482Y-97671943D01*
X136891868Y-97561395D01*
X136999879Y-97578599D01*
X137296316Y-97580410D01*
X137589617Y-97537360D01*
X137873032Y-97450442D01*
X138140037Y-97321653D01*
X138384491Y-97153959D01*
X138600765Y-96951218D01*
X138783884Y-96718097D01*
X138929636Y-96459958D01*
X139034663Y-96182742D01*
X139097315Y-95889244D01*
X139109220Y-95488105D01*
X139064085Y-95191407D01*
X138975683Y-94908452D01*
X138845499Y-94642124D01*
X138676527Y-94398552D01*
X138472656Y-94183342D01*
X138238578Y-94001445D01*
X137979681Y-93857049D01*
X137701920Y-93753475D01*
X137411688Y-93693106D01*
X137115666Y-93677333D01*
X136820662Y-93706518D01*
X136533467Y-93779991D01*
X136260691Y-93896058D01*
X136008611Y-94052050D01*
X135783026Y-94244378D01*
X135589127Y-94468615D01*
X135431378Y-94719602D01*
X135313409Y-94991561D01*
X135237935Y-95278234D01*
X135206690Y-95573027D01*
X135220396Y-95869153D01*
X135278736Y-96159800D01*
X135335753Y-96316029D01*
X135199966Y-96350893D01*
X134970573Y-96462776D01*
X134768363Y-96618499D01*
X134617630Y-96793124D01*
X134562789Y-96714218D01*
X134377965Y-96538211D01*
X134161523Y-96402964D01*
X133922307Y-96314000D01*
X133905897Y-96311460D01*
X133954663Y-96182742D01*
X134017315Y-95889244D01*
X134029220Y-95488105D01*
X133984085Y-95191407D01*
X133895683Y-94908452D01*
X133765499Y-94642124D01*
X133596527Y-94398552D01*
X133467644Y-94262501D01*
X133618371Y-94197432D01*
X133836624Y-94016556D01*
X133995338Y-93781695D01*
X134082236Y-93510224D01*
X134086223Y-93205649D01*
X134006461Y-92931996D01*
X133853949Y-92693061D01*
X133640505Y-92506534D01*
X133383290Y-92387411D01*
X133102979Y-92345269D01*
X132822108Y-92383494D01*
X132563254Y-92499014D01*
X132347228Y-92682542D01*
X132191394Y-92919325D01*
X132108282Y-93190328D01*
X132104571Y-93473764D01*
X132163107Y-93684123D01*
X132035666Y-93677333D01*
X131740662Y-93706518D01*
X131453467Y-93779991D01*
X131180691Y-93896058D01*
X130928611Y-94052050D01*
X130703026Y-94244378D01*
X130509127Y-94468615D01*
X130351378Y-94719602D01*
X130233409Y-94991561D01*
X130231931Y-94997177D01*
X130081290Y-94927411D01*
X129800979Y-94885269D01*
X129520108Y-94923494D01*
X129261254Y-95039014D01*
X129045228Y-95222542D01*
X128889394Y-95459325D01*
X128806282Y-95730328D01*
X128802571Y-96013764D01*
X127906357Y-96013764D01*
X127986236Y-95764222D01*
X127990223Y-95459647D01*
X127910461Y-95185994D01*
X127757949Y-94947059D01*
X127544505Y-94760532D01*
X127287290Y-94641409D01*
X127006979Y-94599267D01*
X126726108Y-94637492D01*
X126467254Y-94753012D01*
X126251228Y-94936540D01*
X126095394Y-95173323D01*
X126012282Y-95444326D01*
X126008571Y-95727762D01*
X116949585Y-95727762D01*
X116977338Y-95686695D01*
X117064236Y-95415224D01*
X117067012Y-95203122D01*
X117102124Y-95198780D01*
X117362371Y-95086432D01*
X117580624Y-94905556D01*
X117739338Y-94670695D01*
X117826236Y-94399224D01*
X117830223Y-94094649D01*
X117750461Y-93820996D01*
X117597949Y-93582061D01*
X117384505Y-93395534D01*
X117127290Y-93276411D01*
X116846979Y-93234269D01*
X116566108Y-93272494D01*
X116307254Y-93388014D01*
X116091228Y-93571542D01*
X115935394Y-93808325D01*
X115852282Y-94079328D01*
X115849625Y-94282299D01*
X115804108Y-94288494D01*
X115545254Y-94404014D01*
X115329228Y-94587542D01*
X115173394Y-94824325D01*
X115090282Y-95095328D01*
X115086571Y-95378764D01*
X110743000Y-95378764D01*
X110743000Y-94141077D01*
X110978808Y-94179481D01*
X111260124Y-94144690D01*
X111520371Y-94032342D01*
X111738624Y-93851466D01*
X111897338Y-93616605D01*
X111984236Y-93345134D01*
X111988223Y-93040559D01*
X111908461Y-92766906D01*
X111755949Y-92527971D01*
X111542505Y-92341444D01*
X111285290Y-92222321D01*
X111004979Y-92180179D01*
X110743000Y-92215833D01*
X110743000Y-91822764D01*
X114959571Y-91822764D01*
X115012627Y-92013430D01*
X114963282Y-92174328D01*
X114959571Y-92457764D01*
X115035562Y-92730849D01*
X115185143Y-92971630D01*
X115396291Y-93160751D01*
X115652033Y-93283007D01*
X115931808Y-93328571D01*
X116213124Y-93293780D01*
X116473371Y-93181432D01*
X116691624Y-93000556D01*
X116850338Y-92765695D01*
X116908254Y-92584764D01*
X122071571Y-92584764D01*
X122147562Y-92857849D01*
X122297143Y-93098630D01*
X122508291Y-93287751D01*
X122764033Y-93410007D01*
X123043808Y-93455571D01*
X123325124Y-93420780D01*
X123585371Y-93308432D01*
X123803624Y-93127556D01*
X123962338Y-92892695D01*
X124049236Y-92621224D01*
X124053223Y-92316649D01*
X124020321Y-92203764D01*
X126516571Y-92203764D01*
X126592562Y-92476849D01*
X126742143Y-92717630D01*
X126953291Y-92906751D01*
X127209033Y-93029007D01*
X127488808Y-93074571D01*
X127770124Y-93039780D01*
X127887538Y-92989093D01*
X127971033Y-93029007D01*
X128250808Y-93074571D01*
X128532124Y-93039780D01*
X128792371Y-92927432D01*
X129010624Y-92746556D01*
X129169338Y-92511695D01*
X129256236Y-92240224D01*
X129260223Y-91935649D01*
X129180461Y-91661996D01*
X129027949Y-91423061D01*
X128814505Y-91236534D01*
X128557290Y-91117411D01*
X128276979Y-91075269D01*
X127996108Y-91113494D01*
X127889531Y-91161057D01*
X127795290Y-91117411D01*
X127514979Y-91075269D01*
X127234108Y-91113494D01*
X126975254Y-91229014D01*
X126759228Y-91412542D01*
X126603394Y-91649325D01*
X126520282Y-91920328D01*
X126516571Y-92203764D01*
X124020321Y-92203764D01*
X123973461Y-92042996D01*
X123820949Y-91804061D01*
X123607505Y-91617534D01*
X123350290Y-91498411D01*
X123069979Y-91456269D01*
X122789108Y-91494494D01*
X122530254Y-91610014D01*
X122314228Y-91793542D01*
X122158394Y-92030325D01*
X122075282Y-92301328D01*
X122071571Y-92584764D01*
X116908254Y-92584764D01*
X116937236Y-92494224D01*
X116941223Y-92189649D01*
X116888914Y-92010184D01*
X116937236Y-91859224D01*
X116941223Y-91554649D01*
X116861461Y-91280996D01*
X116720888Y-91060764D01*
X120077661Y-91060764D01*
X120153652Y-91333849D01*
X120303233Y-91574630D01*
X120514381Y-91763751D01*
X120770123Y-91886007D01*
X121049898Y-91931571D01*
X121331214Y-91896780D01*
X121591461Y-91784432D01*
X121809714Y-91603556D01*
X121968428Y-91368695D01*
X122055326Y-91097224D01*
X122059313Y-90792649D01*
X121979551Y-90518996D01*
X121827039Y-90280061D01*
X121613595Y-90093534D01*
X121356380Y-89974411D01*
X121076069Y-89932269D01*
X120795198Y-89970494D01*
X120536344Y-90086014D01*
X120320318Y-90269542D01*
X120164484Y-90506325D01*
X120081372Y-90777328D01*
X120077661Y-91060764D01*
X116720888Y-91060764D01*
X116708949Y-91042061D01*
X116495505Y-90855534D01*
X116238290Y-90736411D01*
X115957979Y-90694269D01*
X115677108Y-90732494D01*
X115418254Y-90848014D01*
X115202228Y-91031542D01*
X115046394Y-91268325D01*
X114963282Y-91539328D01*
X114959571Y-91822764D01*
X110743000Y-91822764D01*
X110743000Y-91014130D01*
X110897816Y-91000585D01*
X111170098Y-90927627D01*
X111425576Y-90808496D01*
X111645998Y-90654155D01*
X111810292Y-90849953D01*
X112042707Y-90984138D01*
X112284865Y-91026837D01*
X113156000Y-91026837D01*
X113156000Y-89409000D01*
X113158000Y-89409000D01*
X113158000Y-91026837D01*
X114040308Y-91026837D01*
X114384578Y-90934590D01*
X114598953Y-90754708D01*
X114733138Y-90522293D01*
X114775837Y-90280135D01*
X114775837Y-89409000D01*
X113158000Y-89409000D01*
X113156000Y-89409000D01*
X113156000Y-87789163D01*
X113158000Y-87789163D01*
X113158000Y-89407000D01*
X114775837Y-89407000D01*
X114775837Y-88901764D01*
X121144481Y-88901764D01*
X121220472Y-89174849D01*
X121370053Y-89415630D01*
X121581201Y-89604751D01*
X121836943Y-89727007D01*
X122116718Y-89772571D01*
X122398034Y-89737780D01*
X122658281Y-89625432D01*
X122876534Y-89444556D01*
X123035248Y-89209695D01*
X123122146Y-88938224D01*
X123122623Y-88901764D01*
X128675571Y-88901764D01*
X128751562Y-89174849D01*
X128901143Y-89415630D01*
X129112291Y-89604751D01*
X129368033Y-89727007D01*
X129647808Y-89772571D01*
X129929124Y-89737780D01*
X130149519Y-89642636D01*
X130126690Y-89858027D01*
X130140396Y-90154153D01*
X130198736Y-90444800D01*
X130300369Y-90723276D01*
X130442955Y-90983176D01*
X130623214Y-91218518D01*
X130836995Y-91423886D01*
X131079381Y-91594554D01*
X131344794Y-91726594D01*
X131627125Y-91816969D01*
X131919879Y-91863599D01*
X132216316Y-91865410D01*
X132509617Y-91822360D01*
X132793032Y-91735442D01*
X133060037Y-91606653D01*
X133304491Y-91438959D01*
X133520765Y-91236218D01*
X133703884Y-91003097D01*
X133785598Y-90858375D01*
X133947096Y-90984552D01*
X134175703Y-91098034D01*
X134422458Y-91163229D01*
X134677283Y-91177476D01*
X134929768Y-91140192D01*
X135169599Y-91052901D01*
X135386980Y-90919167D01*
X135453545Y-90856658D01*
X135522955Y-90983176D01*
X135703214Y-91218518D01*
X135916995Y-91423886D01*
X136058718Y-91523676D01*
X135865254Y-91610014D01*
X135649228Y-91793542D01*
X135493394Y-92030325D01*
X135410282Y-92301328D01*
X135406571Y-92584764D01*
X135482562Y-92857849D01*
X135632143Y-93098630D01*
X135843291Y-93287751D01*
X136099033Y-93410007D01*
X136378808Y-93455571D01*
X136660124Y-93420780D01*
X136920371Y-93308432D01*
X137138624Y-93127556D01*
X137297338Y-92892695D01*
X137384236Y-92621224D01*
X137388223Y-92316649D01*
X137308461Y-92042996D01*
X137194712Y-91864789D01*
X137296316Y-91865410D01*
X137589617Y-91822360D01*
X137873032Y-91735442D01*
X138140037Y-91606653D01*
X138384491Y-91438959D01*
X138600765Y-91236218D01*
X138783884Y-91003097D01*
X138929636Y-90744958D01*
X139034663Y-90467742D01*
X139097315Y-90174244D01*
X139109220Y-89773105D01*
X139064085Y-89476407D01*
X138975683Y-89193452D01*
X138845499Y-88927124D01*
X138676527Y-88683552D01*
X138472656Y-88468342D01*
X138238578Y-88286445D01*
X137979681Y-88142049D01*
X137701920Y-88038475D01*
X137411688Y-87978106D01*
X137115666Y-87962333D01*
X136820662Y-87991518D01*
X136533467Y-88064991D01*
X136260691Y-88181058D01*
X136008611Y-88337050D01*
X135783026Y-88529378D01*
X135589127Y-88753615D01*
X135451337Y-88972846D01*
X135393965Y-88918211D01*
X135177523Y-88782964D01*
X134938307Y-88694000D01*
X134686088Y-88654955D01*
X134431170Y-88667422D01*
X134183966Y-88730893D01*
X133954573Y-88842776D01*
X133787254Y-88971629D01*
X133765499Y-88927124D01*
X133596527Y-88683552D01*
X133392656Y-88468342D01*
X133158578Y-88286445D01*
X133105021Y-88256575D01*
X133233338Y-88066695D01*
X133320236Y-87795224D01*
X133320713Y-87758764D01*
X139216571Y-87758764D01*
X139292562Y-88031849D01*
X139442143Y-88272630D01*
X139653291Y-88461751D01*
X139909033Y-88584007D01*
X140188808Y-88629571D01*
X140470124Y-88594780D01*
X140730371Y-88482432D01*
X140948624Y-88301556D01*
X141107338Y-88066695D01*
X141194236Y-87795224D01*
X141198223Y-87490649D01*
X141165321Y-87377764D01*
X143407571Y-87377764D01*
X143483562Y-87650849D01*
X143633143Y-87891630D01*
X143844291Y-88080751D01*
X144100033Y-88203007D01*
X144379808Y-88248571D01*
X144661124Y-88213780D01*
X144921371Y-88101432D01*
X145139624Y-87920556D01*
X145298338Y-87685695D01*
X145385236Y-87414224D01*
X145389223Y-87109649D01*
X145309461Y-86835996D01*
X145156949Y-86597061D01*
X144943505Y-86410534D01*
X144686290Y-86291411D01*
X144405979Y-86249269D01*
X144125108Y-86287494D01*
X143866254Y-86403014D01*
X143650228Y-86586542D01*
X143494394Y-86823325D01*
X143411282Y-87094328D01*
X143407571Y-87377764D01*
X141165321Y-87377764D01*
X141118461Y-87216996D01*
X140965949Y-86978061D01*
X140752505Y-86791534D01*
X140495290Y-86672411D01*
X140214979Y-86630269D01*
X139934108Y-86668494D01*
X139675254Y-86784014D01*
X139459228Y-86967542D01*
X139303394Y-87204325D01*
X139220282Y-87475328D01*
X139216571Y-87758764D01*
X133320713Y-87758764D01*
X133324223Y-87490649D01*
X133244461Y-87216996D01*
X133091949Y-86978061D01*
X132878505Y-86791534D01*
X132621290Y-86672411D01*
X132340979Y-86630269D01*
X132060108Y-86668494D01*
X131801254Y-86784014D01*
X131585228Y-86967542D01*
X131429394Y-87204325D01*
X131346282Y-87475328D01*
X131342571Y-87758764D01*
X131418562Y-88031849D01*
X131442144Y-88069809D01*
X131180691Y-88181058D01*
X130928611Y-88337050D01*
X130703026Y-88529378D01*
X130646040Y-88595281D01*
X130577461Y-88359996D01*
X130424949Y-88121061D01*
X130211505Y-87934534D01*
X129954290Y-87815411D01*
X129673979Y-87773269D01*
X129393108Y-87811494D01*
X129134254Y-87927014D01*
X128918228Y-88110542D01*
X128762394Y-88347325D01*
X128679282Y-88618328D01*
X128675571Y-88901764D01*
X123122623Y-88901764D01*
X123126133Y-88633649D01*
X123046371Y-88359996D01*
X122893859Y-88121061D01*
X122680415Y-87934534D01*
X122423200Y-87815411D01*
X122142889Y-87773269D01*
X121862018Y-87811494D01*
X121603164Y-87927014D01*
X121387138Y-88110542D01*
X121231304Y-88347325D01*
X121148192Y-88618328D01*
X121144481Y-88901764D01*
X114775837Y-88901764D01*
X114775837Y-88524692D01*
X114683590Y-88180424D01*
X114503708Y-87966047D01*
X114271293Y-87831862D01*
X114029135Y-87789163D01*
X113158000Y-87789163D01*
X113156000Y-87789163D01*
X112273692Y-87789163D01*
X111929424Y-87881410D01*
X111715047Y-88061292D01*
X111653828Y-88167327D01*
X111425576Y-88007504D01*
X111170098Y-87888373D01*
X110897816Y-87815415D01*
X110743000Y-87801870D01*
X110743000Y-86436908D01*
X110752124Y-86435780D01*
X111012371Y-86323432D01*
X111230624Y-86142556D01*
X111389338Y-85907695D01*
X111476236Y-85636224D01*
X111480074Y-85343000D01*
X126022885Y-85343000D01*
X126107143Y-85478630D01*
X126318291Y-85667751D01*
X126574033Y-85790007D01*
X126853808Y-85835571D01*
X127135124Y-85800780D01*
X127395371Y-85688432D01*
X127613624Y-85507556D01*
X127724828Y-85343000D01*
X130250037Y-85343000D01*
X130313652Y-85571611D01*
X130463233Y-85812392D01*
X130569316Y-85907408D01*
X130308979Y-85868269D01*
X130028108Y-85906494D01*
X129769254Y-86022014D01*
X129553228Y-86205542D01*
X129476577Y-86322011D01*
X129408949Y-86216061D01*
X129195505Y-86029534D01*
X128938290Y-85910411D01*
X128657979Y-85868269D01*
X128377108Y-85906494D01*
X128118254Y-86022014D01*
X127902228Y-86205542D01*
X127746394Y-86442325D01*
X127663282Y-86713328D01*
X127659571Y-86996764D01*
X127735562Y-87269849D01*
X127885143Y-87510630D01*
X128096291Y-87699751D01*
X128352033Y-87822007D01*
X128631808Y-87867571D01*
X128913124Y-87832780D01*
X129173371Y-87720432D01*
X129391624Y-87539556D01*
X129476285Y-87414277D01*
X129536143Y-87510630D01*
X129747291Y-87699751D01*
X130003033Y-87822007D01*
X130282808Y-87867571D01*
X130564124Y-87832780D01*
X130824371Y-87720432D01*
X131042624Y-87539556D01*
X131201338Y-87304695D01*
X131288236Y-87033224D01*
X131292223Y-86728649D01*
X131212461Y-86454996D01*
X131059949Y-86216061D01*
X130959885Y-86128616D01*
X131209898Y-86169333D01*
X131491214Y-86134542D01*
X131751461Y-86022194D01*
X131969714Y-85841318D01*
X132128428Y-85606457D01*
X132212761Y-85343000D01*
X145359747Y-85343000D01*
X145641960Y-85281608D01*
X145832599Y-85159092D01*
X145974930Y-84994835D01*
X146065217Y-84797131D01*
X146069530Y-84767131D01*
X149754321Y-84767131D01*
X149754321Y-86778518D01*
X149754321Y-86778518D01*
G37*
X149754321Y-86778518D02*
X149612979Y-86757269D01*
X149332108Y-86795494D01*
X149073254Y-86911014D01*
X148857228Y-87094542D01*
X148701394Y-87331325D01*
X148618282Y-87602328D01*
X148614571Y-87885764D01*
X148690562Y-88158849D01*
X148840143Y-88399630D01*
X149051291Y-88588751D01*
X149307033Y-88711007D01*
X149586808Y-88756571D01*
X149754321Y-88735854D01*
X149754320Y-102037611D01*
X149485979Y-101997269D01*
X149205108Y-102035494D01*
X148946254Y-102151014D01*
X148730228Y-102334542D01*
X148574394Y-102571325D01*
X148491282Y-102842328D01*
X148487571Y-103125764D01*
X148563562Y-103398849D01*
X148713143Y-103639630D01*
X148924291Y-103828751D01*
X149180033Y-103951007D01*
X149459808Y-103996571D01*
X149741124Y-103961780D01*
X149754320Y-103956083D01*
X149754320Y-104577611D01*
X149485979Y-104537269D01*
X149205108Y-104575494D01*
X148946254Y-104691014D01*
X148926106Y-104708131D01*
X136514287Y-104708131D01*
X136374155Y-104508002D01*
X136569953Y-104343708D01*
X136704138Y-104111293D01*
X136746837Y-103869135D01*
X136746837Y-102113692D01*
X136654590Y-101769424D01*
X136474708Y-101555047D01*
X136242293Y-101420862D01*
X136000135Y-101378163D01*
X134244692Y-101378163D01*
X133900424Y-101470410D01*
X133686047Y-101650292D01*
X133551862Y-101882707D01*
X133509163Y-102124865D01*
X133509163Y-103880308D01*
X133601410Y-104224578D01*
X133781292Y-104438953D01*
X133887327Y-104500172D01*
X133741712Y-104708131D01*
X119301516Y-104708131D01*
X119390338Y-104576695D01*
X119477236Y-104305224D01*
X119481223Y-104000649D01*
X119401461Y-103726996D01*
X119258093Y-103502387D01*
X119390338Y-103306695D01*
X119477236Y-103035224D01*
X119481223Y-102730649D01*
X119401461Y-102456996D01*
X119260888Y-102236764D01*
X129183571Y-102236764D01*
X129259562Y-102509849D01*
X129409143Y-102750630D01*
X129620291Y-102939751D01*
X129876033Y-103062007D01*
X130155808Y-103107571D01*
X130437124Y-103072780D01*
X130697371Y-102960432D01*
X130915624Y-102779556D01*
X131074338Y-102544695D01*
X131161236Y-102273224D01*
X131165223Y-101968649D01*
X131085461Y-101694996D01*
X130932949Y-101456061D01*
X130719505Y-101269534D01*
X130462290Y-101150411D01*
X130181979Y-101108269D01*
X129901108Y-101146494D01*
X129642254Y-101262014D01*
X129426228Y-101445542D01*
X129270394Y-101682325D01*
X129187282Y-101953328D01*
X129183571Y-102236764D01*
X119260888Y-102236764D01*
X119248949Y-102218061D01*
X119035505Y-102031534D01*
X118778290Y-101912411D01*
X118497979Y-101870269D01*
X118217108Y-101908494D01*
X117958254Y-102024014D01*
X117742228Y-102207542D01*
X117586394Y-102444325D01*
X117503282Y-102715328D01*
X117499571Y-102998764D01*
X117575562Y-103271849D01*
X117722226Y-103507934D01*
X117586394Y-103714325D01*
X117503282Y-103985328D01*
X117499571Y-104268764D01*
X117575562Y-104541849D01*
X117678862Y-104708131D01*
X110743000Y-104708131D01*
X110743000Y-104095130D01*
X110897816Y-104081585D01*
X111170098Y-104008627D01*
X111425576Y-103889496D01*
X111645998Y-103735155D01*
X111810292Y-103930953D01*
X112042707Y-104065138D01*
X112284865Y-104107837D01*
X113156000Y-104107837D01*
X113156000Y-102490000D01*
X113158000Y-102490000D01*
X113158000Y-104107837D01*
X114040308Y-104107837D01*
X114384578Y-104015590D01*
X114598953Y-103835708D01*
X114733138Y-103603293D01*
X114775837Y-103361135D01*
X114775837Y-102490000D01*
X113158000Y-102490000D01*
X113156000Y-102490000D01*
X113156000Y-100870163D01*
X113158000Y-100870163D01*
X113158000Y-102488000D01*
X114775837Y-102488000D01*
X114775837Y-101605692D01*
X114706725Y-101347764D01*
X115848571Y-101347764D01*
X115924562Y-101620849D01*
X116074143Y-101861630D01*
X116285291Y-102050751D01*
X116541033Y-102173007D01*
X116820808Y-102218571D01*
X117102124Y-102183780D01*
X117362371Y-102071432D01*
X117580624Y-101890556D01*
X117739338Y-101655695D01*
X117826236Y-101384224D01*
X117830223Y-101079649D01*
X117797321Y-100966764D01*
X143534571Y-100966764D01*
X143610562Y-101239849D01*
X143760143Y-101480630D01*
X143971291Y-101669751D01*
X144227033Y-101792007D01*
X144506808Y-101837571D01*
X144788124Y-101802780D01*
X145048371Y-101690432D01*
X145266624Y-101509556D01*
X145425338Y-101274695D01*
X145512236Y-101003224D01*
X145516223Y-100698649D01*
X145436461Y-100424996D01*
X145283949Y-100186061D01*
X145070505Y-99999534D01*
X144813290Y-99880411D01*
X144532979Y-99838269D01*
X144252108Y-99876494D01*
X143993254Y-99992014D01*
X143777228Y-100175542D01*
X143621394Y-100412325D01*
X143538282Y-100683328D01*
X143534571Y-100966764D01*
X117797321Y-100966764D01*
X117750461Y-100805996D01*
X117597949Y-100567061D01*
X117384505Y-100380534D01*
X117127290Y-100261411D01*
X116846979Y-100219269D01*
X116566108Y-100257494D01*
X116307254Y-100373014D01*
X116091228Y-100556542D01*
X115935394Y-100793325D01*
X115852282Y-101064328D01*
X115848571Y-101347764D01*
X114706725Y-101347764D01*
X114683590Y-101261424D01*
X114503708Y-101047047D01*
X114271293Y-100912862D01*
X114029135Y-100870163D01*
X113158000Y-100870163D01*
X113156000Y-100870163D01*
X112273692Y-100870163D01*
X111929424Y-100962410D01*
X111715047Y-101142292D01*
X111653828Y-101248327D01*
X111425576Y-101088504D01*
X111170098Y-100969373D01*
X110897816Y-100896415D01*
X110743000Y-100882870D01*
X110743000Y-98934773D01*
X121131790Y-98934773D01*
X121207781Y-99207858D01*
X121357362Y-99448639D01*
X121568510Y-99637760D01*
X121824252Y-99760016D01*
X122104027Y-99805580D01*
X122385343Y-99770789D01*
X122645590Y-99658441D01*
X122863843Y-99477565D01*
X123022557Y-99242704D01*
X123109455Y-98971233D01*
X123109932Y-98934764D01*
X129183571Y-98934764D01*
X129259562Y-99207849D01*
X129409143Y-99448630D01*
X129620291Y-99637751D01*
X129876033Y-99760007D01*
X130155808Y-99805571D01*
X130437124Y-99770780D01*
X130697371Y-99658432D01*
X130915624Y-99477556D01*
X131074338Y-99242695D01*
X131161236Y-98971224D01*
X131165223Y-98666649D01*
X131085461Y-98392996D01*
X130932949Y-98154061D01*
X130719505Y-97967534D01*
X130462290Y-97848411D01*
X130181979Y-97806269D01*
X129901108Y-97844494D01*
X129642254Y-97960014D01*
X129426228Y-98143542D01*
X129270394Y-98380325D01*
X129187282Y-98651328D01*
X129183571Y-98934764D01*
X123109932Y-98934764D01*
X123113442Y-98666658D01*
X123033680Y-98393005D01*
X122881168Y-98154070D01*
X122757233Y-98045764D01*
X124230571Y-98045764D01*
X124306562Y-98318849D01*
X124456143Y-98559630D01*
X124667291Y-98748751D01*
X124923033Y-98871007D01*
X125202808Y-98916571D01*
X125484124Y-98881780D01*
X125744371Y-98769432D01*
X125962624Y-98588556D01*
X126121338Y-98353695D01*
X126208236Y-98082224D01*
X126212223Y-97777649D01*
X126132461Y-97503996D01*
X125979949Y-97265061D01*
X125766505Y-97078534D01*
X125509290Y-96959411D01*
X125228979Y-96917269D01*
X124948108Y-96955494D01*
X124689254Y-97071014D01*
X124473228Y-97254542D01*
X124317394Y-97491325D01*
X124234282Y-97762328D01*
X124230571Y-98045764D01*
X122757233Y-98045764D01*
X122667724Y-97967543D01*
X122410509Y-97848420D01*
X122130198Y-97806278D01*
X121849327Y-97844503D01*
X121590473Y-97960023D01*
X121374447Y-98143551D01*
X121218613Y-98380334D01*
X121135501Y-98651337D01*
X121131790Y-98934773D01*
X110743000Y-98934773D01*
X110743000Y-97918764D01*
X116864571Y-97918764D01*
X116940562Y-98191849D01*
X117090143Y-98432630D01*
X117301291Y-98621751D01*
X117557033Y-98744007D01*
X117836808Y-98789571D01*
X118118124Y-98754780D01*
X118378371Y-98642432D01*
X118596624Y-98461556D01*
X118755338Y-98226695D01*
X118842236Y-97955224D01*
X118846223Y-97650649D01*
X118766461Y-97376996D01*
X118613949Y-97138061D01*
X118400505Y-96951534D01*
X118143290Y-96832411D01*
X117862979Y-96790269D01*
X117582108Y-96828494D01*
X117323254Y-96944014D01*
X117107228Y-97127542D01*
X116951394Y-97364325D01*
X116868282Y-97635328D01*
X116864571Y-97918764D01*
X110743000Y-97918764D01*
X110743000Y-95378764D01*
X115086571Y-95378764D01*
X115162562Y-95651849D01*
X115312143Y-95892630D01*
X115523291Y-96081751D01*
X115779033Y-96204007D01*
X116058808Y-96249571D01*
X116340124Y-96214780D01*
X116600371Y-96102432D01*
X116818624Y-95921556D01*
X116949585Y-95727762D01*
X126008571Y-95727762D01*
X126084562Y-96000847D01*
X126234143Y-96241628D01*
X126445291Y-96430749D01*
X126701033Y-96553005D01*
X126980808Y-96598569D01*
X127262124Y-96563778D01*
X127522371Y-96451430D01*
X127740624Y-96270554D01*
X127899338Y-96035693D01*
X127906357Y-96013764D01*
X128802571Y-96013764D01*
X128878562Y-96286849D01*
X129028143Y-96527630D01*
X129239291Y-96716751D01*
X129495033Y-96839007D01*
X129774808Y-96884571D01*
X130056124Y-96849780D01*
X130316371Y-96737432D01*
X130418196Y-96653045D01*
X130442955Y-96698176D01*
X130623214Y-96933518D01*
X130836995Y-97138886D01*
X131079381Y-97309554D01*
X131344794Y-97441594D01*
X131627125Y-97531969D01*
X131919879Y-97578599D01*
X132216316Y-97580410D01*
X132344178Y-97561643D01*
X132366137Y-97785597D01*
X132441609Y-98029405D01*
X132564563Y-98253060D01*
X132729979Y-98447421D01*
X132931096Y-98604552D01*
X133159703Y-98718034D01*
X133406458Y-98783229D01*
X133661283Y-98797476D01*
X133809916Y-98775528D01*
X133854143Y-98846720D01*
X134065291Y-99035841D01*
X134321033Y-99158097D01*
X134600808Y-99203661D01*
X134882124Y-99168870D01*
X135142371Y-99056522D01*
X135360624Y-98875646D01*
X135425408Y-98779781D01*
X135438458Y-98783229D01*
X135693283Y-98797476D01*
X135945768Y-98760192D01*
X136185599Y-98672901D01*
X136402980Y-98539167D01*
X136589029Y-98364455D01*
X136736147Y-98155902D01*
X136838326Y-97922025D01*
X136891482Y-97671943D01*
X136891868Y-97561395D01*
X136999879Y-97578599D01*
X137296316Y-97580410D01*
X137589617Y-97537360D01*
X137873032Y-97450442D01*
X138140037Y-97321653D01*
X138384491Y-97153959D01*
X138600765Y-96951218D01*
X138783884Y-96718097D01*
X138929636Y-96459958D01*
X139034663Y-96182742D01*
X139097315Y-95889244D01*
X139109220Y-95488105D01*
X139064085Y-95191407D01*
X138975683Y-94908452D01*
X138845499Y-94642124D01*
X138676527Y-94398552D01*
X138472656Y-94183342D01*
X138238578Y-94001445D01*
X137979681Y-93857049D01*
X137701920Y-93753475D01*
X137411688Y-93693106D01*
X137115666Y-93677333D01*
X136820662Y-93706518D01*
X136533467Y-93779991D01*
X136260691Y-93896058D01*
X136008611Y-94052050D01*
X135783026Y-94244378D01*
X135589127Y-94468615D01*
X135431378Y-94719602D01*
X135313409Y-94991561D01*
X135237935Y-95278234D01*
X135206690Y-95573027D01*
X135220396Y-95869153D01*
X135278736Y-96159800D01*
X135335753Y-96316029D01*
X135199966Y-96350893D01*
X134970573Y-96462776D01*
X134768363Y-96618499D01*
X134617630Y-96793124D01*
X134562789Y-96714218D01*
X134377965Y-96538211D01*
X134161523Y-96402964D01*
X133922307Y-96314000D01*
X133905897Y-96311460D01*
X133954663Y-96182742D01*
X134017315Y-95889244D01*
X134029220Y-95488105D01*
X133984085Y-95191407D01*
X133895683Y-94908452D01*
X133765499Y-94642124D01*
X133596527Y-94398552D01*
X133467644Y-94262501D01*
X133618371Y-94197432D01*
X133836624Y-94016556D01*
X133995338Y-93781695D01*
X134082236Y-93510224D01*
X134086223Y-93205649D01*
X134006461Y-92931996D01*
X133853949Y-92693061D01*
X133640505Y-92506534D01*
X133383290Y-92387411D01*
X133102979Y-92345269D01*
X132822108Y-92383494D01*
X132563254Y-92499014D01*
X132347228Y-92682542D01*
X132191394Y-92919325D01*
X132108282Y-93190328D01*
X132104571Y-93473764D01*
X132163107Y-93684123D01*
X132035666Y-93677333D01*
X131740662Y-93706518D01*
X131453467Y-93779991D01*
X131180691Y-93896058D01*
X130928611Y-94052050D01*
X130703026Y-94244378D01*
X130509127Y-94468615D01*
X130351378Y-94719602D01*
X130233409Y-94991561D01*
X130231931Y-94997177D01*
X130081290Y-94927411D01*
X129800979Y-94885269D01*
X129520108Y-94923494D01*
X129261254Y-95039014D01*
X129045228Y-95222542D01*
X128889394Y-95459325D01*
X128806282Y-95730328D01*
X128802571Y-96013764D01*
X127906357Y-96013764D01*
X127986236Y-95764222D01*
X127990223Y-95459647D01*
X127910461Y-95185994D01*
X127757949Y-94947059D01*
X127544505Y-94760532D01*
X127287290Y-94641409D01*
X127006979Y-94599267D01*
X126726108Y-94637492D01*
X126467254Y-94753012D01*
X126251228Y-94936540D01*
X126095394Y-95173323D01*
X126012282Y-95444326D01*
X126008571Y-95727762D01*
X116949585Y-95727762D01*
X116977338Y-95686695D01*
X117064236Y-95415224D01*
X117067012Y-95203122D01*
X117102124Y-95198780D01*
X117362371Y-95086432D01*
X117580624Y-94905556D01*
X117739338Y-94670695D01*
X117826236Y-94399224D01*
X117830223Y-94094649D01*
X117750461Y-93820996D01*
X117597949Y-93582061D01*
X117384505Y-93395534D01*
X117127290Y-93276411D01*
X116846979Y-93234269D01*
X116566108Y-93272494D01*
X116307254Y-93388014D01*
X116091228Y-93571542D01*
X115935394Y-93808325D01*
X115852282Y-94079328D01*
X115849625Y-94282299D01*
X115804108Y-94288494D01*
X115545254Y-94404014D01*
X115329228Y-94587542D01*
X115173394Y-94824325D01*
X115090282Y-95095328D01*
X115086571Y-95378764D01*
X110743000Y-95378764D01*
X110743000Y-94141077D01*
X110978808Y-94179481D01*
X111260124Y-94144690D01*
X111520371Y-94032342D01*
X111738624Y-93851466D01*
X111897338Y-93616605D01*
X111984236Y-93345134D01*
X111988223Y-93040559D01*
X111908461Y-92766906D01*
X111755949Y-92527971D01*
X111542505Y-92341444D01*
X111285290Y-92222321D01*
X111004979Y-92180179D01*
X110743000Y-92215833D01*
X110743000Y-91822764D01*
X114959571Y-91822764D01*
X115012627Y-92013430D01*
X114963282Y-92174328D01*
X114959571Y-92457764D01*
X115035562Y-92730849D01*
X115185143Y-92971630D01*
X115396291Y-93160751D01*
X115652033Y-93283007D01*
X115931808Y-93328571D01*
X116213124Y-93293780D01*
X116473371Y-93181432D01*
X116691624Y-93000556D01*
X116850338Y-92765695D01*
X116908254Y-92584764D01*
X122071571Y-92584764D01*
X122147562Y-92857849D01*
X122297143Y-93098630D01*
X122508291Y-93287751D01*
X122764033Y-93410007D01*
X123043808Y-93455571D01*
X123325124Y-93420780D01*
X123585371Y-93308432D01*
X123803624Y-93127556D01*
X123962338Y-92892695D01*
X124049236Y-92621224D01*
X124053223Y-92316649D01*
X124020321Y-92203764D01*
X126516571Y-92203764D01*
X126592562Y-92476849D01*
X126742143Y-92717630D01*
X126953291Y-92906751D01*
X127209033Y-93029007D01*
X127488808Y-93074571D01*
X127770124Y-93039780D01*
X127887538Y-92989093D01*
X127971033Y-93029007D01*
X128250808Y-93074571D01*
X128532124Y-93039780D01*
X128792371Y-92927432D01*
X129010624Y-92746556D01*
X129169338Y-92511695D01*
X129256236Y-92240224D01*
X129260223Y-91935649D01*
X129180461Y-91661996D01*
X129027949Y-91423061D01*
X128814505Y-91236534D01*
X128557290Y-91117411D01*
X128276979Y-91075269D01*
X127996108Y-91113494D01*
X127889531Y-91161057D01*
X127795290Y-91117411D01*
X127514979Y-91075269D01*
X127234108Y-91113494D01*
X126975254Y-91229014D01*
X126759228Y-91412542D01*
X126603394Y-91649325D01*
X126520282Y-91920328D01*
X126516571Y-92203764D01*
X124020321Y-92203764D01*
X123973461Y-92042996D01*
X123820949Y-91804061D01*
X123607505Y-91617534D01*
X123350290Y-91498411D01*
X123069979Y-91456269D01*
X122789108Y-91494494D01*
X122530254Y-91610014D01*
X122314228Y-91793542D01*
X122158394Y-92030325D01*
X122075282Y-92301328D01*
X122071571Y-92584764D01*
X116908254Y-92584764D01*
X116937236Y-92494224D01*
X116941223Y-92189649D01*
X116888914Y-92010184D01*
X116937236Y-91859224D01*
X116941223Y-91554649D01*
X116861461Y-91280996D01*
X116720888Y-91060764D01*
X120077661Y-91060764D01*
X120153652Y-91333849D01*
X120303233Y-91574630D01*
X120514381Y-91763751D01*
X120770123Y-91886007D01*
X121049898Y-91931571D01*
X121331214Y-91896780D01*
X121591461Y-91784432D01*
X121809714Y-91603556D01*
X121968428Y-91368695D01*
X122055326Y-91097224D01*
X122059313Y-90792649D01*
X121979551Y-90518996D01*
X121827039Y-90280061D01*
X121613595Y-90093534D01*
X121356380Y-89974411D01*
X121076069Y-89932269D01*
X120795198Y-89970494D01*
X120536344Y-90086014D01*
X120320318Y-90269542D01*
X120164484Y-90506325D01*
X120081372Y-90777328D01*
X120077661Y-91060764D01*
X116720888Y-91060764D01*
X116708949Y-91042061D01*
X116495505Y-90855534D01*
X116238290Y-90736411D01*
X115957979Y-90694269D01*
X115677108Y-90732494D01*
X115418254Y-90848014D01*
X115202228Y-91031542D01*
X115046394Y-91268325D01*
X114963282Y-91539328D01*
X114959571Y-91822764D01*
X110743000Y-91822764D01*
X110743000Y-91014130D01*
X110897816Y-91000585D01*
X111170098Y-90927627D01*
X111425576Y-90808496D01*
X111645998Y-90654155D01*
X111810292Y-90849953D01*
X112042707Y-90984138D01*
X112284865Y-91026837D01*
X113156000Y-91026837D01*
X113156000Y-89409000D01*
X113158000Y-89409000D01*
X113158000Y-91026837D01*
X114040308Y-91026837D01*
X114384578Y-90934590D01*
X114598953Y-90754708D01*
X114733138Y-90522293D01*
X114775837Y-90280135D01*
X114775837Y-89409000D01*
X113158000Y-89409000D01*
X113156000Y-89409000D01*
X113156000Y-87789163D01*
X113158000Y-87789163D01*
X113158000Y-89407000D01*
X114775837Y-89407000D01*
X114775837Y-88901764D01*
X121144481Y-88901764D01*
X121220472Y-89174849D01*
X121370053Y-89415630D01*
X121581201Y-89604751D01*
X121836943Y-89727007D01*
X122116718Y-89772571D01*
X122398034Y-89737780D01*
X122658281Y-89625432D01*
X122876534Y-89444556D01*
X123035248Y-89209695D01*
X123122146Y-88938224D01*
X123122623Y-88901764D01*
X128675571Y-88901764D01*
X128751562Y-89174849D01*
X128901143Y-89415630D01*
X129112291Y-89604751D01*
X129368033Y-89727007D01*
X129647808Y-89772571D01*
X129929124Y-89737780D01*
X130149519Y-89642636D01*
X130126690Y-89858027D01*
X130140396Y-90154153D01*
X130198736Y-90444800D01*
X130300369Y-90723276D01*
X130442955Y-90983176D01*
X130623214Y-91218518D01*
X130836995Y-91423886D01*
X131079381Y-91594554D01*
X131344794Y-91726594D01*
X131627125Y-91816969D01*
X131919879Y-91863599D01*
X132216316Y-91865410D01*
X132509617Y-91822360D01*
X132793032Y-91735442D01*
X133060037Y-91606653D01*
X133304491Y-91438959D01*
X133520765Y-91236218D01*
X133703884Y-91003097D01*
X133785598Y-90858375D01*
X133947096Y-90984552D01*
X134175703Y-91098034D01*
X134422458Y-91163229D01*
X134677283Y-91177476D01*
X134929768Y-91140192D01*
X135169599Y-91052901D01*
X135386980Y-90919167D01*
X135453545Y-90856658D01*
X135522955Y-90983176D01*
X135703214Y-91218518D01*
X135916995Y-91423886D01*
X136058718Y-91523676D01*
X135865254Y-91610014D01*
X135649228Y-91793542D01*
X135493394Y-92030325D01*
X135410282Y-92301328D01*
X135406571Y-92584764D01*
X135482562Y-92857849D01*
X135632143Y-93098630D01*
X135843291Y-93287751D01*
X136099033Y-93410007D01*
X136378808Y-93455571D01*
X136660124Y-93420780D01*
X136920371Y-93308432D01*
X137138624Y-93127556D01*
X137297338Y-92892695D01*
X137384236Y-92621224D01*
X137388223Y-92316649D01*
X137308461Y-92042996D01*
X137194712Y-91864789D01*
X137296316Y-91865410D01*
X137589617Y-91822360D01*
X137873032Y-91735442D01*
X138140037Y-91606653D01*
X138384491Y-91438959D01*
X138600765Y-91236218D01*
X138783884Y-91003097D01*
X138929636Y-90744958D01*
X139034663Y-90467742D01*
X139097315Y-90174244D01*
X139109220Y-89773105D01*
X139064085Y-89476407D01*
X138975683Y-89193452D01*
X138845499Y-88927124D01*
X138676527Y-88683552D01*
X138472656Y-88468342D01*
X138238578Y-88286445D01*
X137979681Y-88142049D01*
X137701920Y-88038475D01*
X137411688Y-87978106D01*
X137115666Y-87962333D01*
X136820662Y-87991518D01*
X136533467Y-88064991D01*
X136260691Y-88181058D01*
X136008611Y-88337050D01*
X135783026Y-88529378D01*
X135589127Y-88753615D01*
X135451337Y-88972846D01*
X135393965Y-88918211D01*
X135177523Y-88782964D01*
X134938307Y-88694000D01*
X134686088Y-88654955D01*
X134431170Y-88667422D01*
X134183966Y-88730893D01*
X133954573Y-88842776D01*
X133787254Y-88971629D01*
X133765499Y-88927124D01*
X133596527Y-88683552D01*
X133392656Y-88468342D01*
X133158578Y-88286445D01*
X133105021Y-88256575D01*
X133233338Y-88066695D01*
X133320236Y-87795224D01*
X133320713Y-87758764D01*
X139216571Y-87758764D01*
X139292562Y-88031849D01*
X139442143Y-88272630D01*
X139653291Y-88461751D01*
X139909033Y-88584007D01*
X140188808Y-88629571D01*
X140470124Y-88594780D01*
X140730371Y-88482432D01*
X140948624Y-88301556D01*
X141107338Y-88066695D01*
X141194236Y-87795224D01*
X141198223Y-87490649D01*
X141165321Y-87377764D01*
X143407571Y-87377764D01*
X143483562Y-87650849D01*
X143633143Y-87891630D01*
X143844291Y-88080751D01*
X144100033Y-88203007D01*
X144379808Y-88248571D01*
X144661124Y-88213780D01*
X144921371Y-88101432D01*
X145139624Y-87920556D01*
X145298338Y-87685695D01*
X145385236Y-87414224D01*
X145389223Y-87109649D01*
X145309461Y-86835996D01*
X145156949Y-86597061D01*
X144943505Y-86410534D01*
X144686290Y-86291411D01*
X144405979Y-86249269D01*
X144125108Y-86287494D01*
X143866254Y-86403014D01*
X143650228Y-86586542D01*
X143494394Y-86823325D01*
X143411282Y-87094328D01*
X143407571Y-87377764D01*
X141165321Y-87377764D01*
X141118461Y-87216996D01*
X140965949Y-86978061D01*
X140752505Y-86791534D01*
X140495290Y-86672411D01*
X140214979Y-86630269D01*
X139934108Y-86668494D01*
X139675254Y-86784014D01*
X139459228Y-86967542D01*
X139303394Y-87204325D01*
X139220282Y-87475328D01*
X139216571Y-87758764D01*
X133320713Y-87758764D01*
X133324223Y-87490649D01*
X133244461Y-87216996D01*
X133091949Y-86978061D01*
X132878505Y-86791534D01*
X132621290Y-86672411D01*
X132340979Y-86630269D01*
X132060108Y-86668494D01*
X131801254Y-86784014D01*
X131585228Y-86967542D01*
X131429394Y-87204325D01*
X131346282Y-87475328D01*
X131342571Y-87758764D01*
X131418562Y-88031849D01*
X131442144Y-88069809D01*
X131180691Y-88181058D01*
X130928611Y-88337050D01*
X130703026Y-88529378D01*
X130646040Y-88595281D01*
X130577461Y-88359996D01*
X130424949Y-88121061D01*
X130211505Y-87934534D01*
X129954290Y-87815411D01*
X129673979Y-87773269D01*
X129393108Y-87811494D01*
X129134254Y-87927014D01*
X128918228Y-88110542D01*
X128762394Y-88347325D01*
X128679282Y-88618328D01*
X128675571Y-88901764D01*
X123122623Y-88901764D01*
X123126133Y-88633649D01*
X123046371Y-88359996D01*
X122893859Y-88121061D01*
X122680415Y-87934534D01*
X122423200Y-87815411D01*
X122142889Y-87773269D01*
X121862018Y-87811494D01*
X121603164Y-87927014D01*
X121387138Y-88110542D01*
X121231304Y-88347325D01*
X121148192Y-88618328D01*
X121144481Y-88901764D01*
X114775837Y-88901764D01*
X114775837Y-88524692D01*
X114683590Y-88180424D01*
X114503708Y-87966047D01*
X114271293Y-87831862D01*
X114029135Y-87789163D01*
X113158000Y-87789163D01*
X113156000Y-87789163D01*
X112273692Y-87789163D01*
X111929424Y-87881410D01*
X111715047Y-88061292D01*
X111653828Y-88167327D01*
X111425576Y-88007504D01*
X111170098Y-87888373D01*
X110897816Y-87815415D01*
X110743000Y-87801870D01*
X110743000Y-86436908D01*
X110752124Y-86435780D01*
X111012371Y-86323432D01*
X111230624Y-86142556D01*
X111389338Y-85907695D01*
X111476236Y-85636224D01*
X111480074Y-85343000D01*
X126022885Y-85343000D01*
X126107143Y-85478630D01*
X126318291Y-85667751D01*
X126574033Y-85790007D01*
X126853808Y-85835571D01*
X127135124Y-85800780D01*
X127395371Y-85688432D01*
X127613624Y-85507556D01*
X127724828Y-85343000D01*
X130250037Y-85343000D01*
X130313652Y-85571611D01*
X130463233Y-85812392D01*
X130569316Y-85907408D01*
X130308979Y-85868269D01*
X130028108Y-85906494D01*
X129769254Y-86022014D01*
X129553228Y-86205542D01*
X129476577Y-86322011D01*
X129408949Y-86216061D01*
X129195505Y-86029534D01*
X128938290Y-85910411D01*
X128657979Y-85868269D01*
X128377108Y-85906494D01*
X128118254Y-86022014D01*
X127902228Y-86205542D01*
X127746394Y-86442325D01*
X127663282Y-86713328D01*
X127659571Y-86996764D01*
X127735562Y-87269849D01*
X127885143Y-87510630D01*
X128096291Y-87699751D01*
X128352033Y-87822007D01*
X128631808Y-87867571D01*
X128913124Y-87832780D01*
X129173371Y-87720432D01*
X129391624Y-87539556D01*
X129476285Y-87414277D01*
X129536143Y-87510630D01*
X129747291Y-87699751D01*
X130003033Y-87822007D01*
X130282808Y-87867571D01*
X130564124Y-87832780D01*
X130824371Y-87720432D01*
X131042624Y-87539556D01*
X131201338Y-87304695D01*
X131288236Y-87033224D01*
X131292223Y-86728649D01*
X131212461Y-86454996D01*
X131059949Y-86216061D01*
X130959885Y-86128616D01*
X131209898Y-86169333D01*
X131491214Y-86134542D01*
X131751461Y-86022194D01*
X131969714Y-85841318D01*
X132128428Y-85606457D01*
X132212761Y-85343000D01*
X145359747Y-85343000D01*
X145641960Y-85281608D01*
X145832599Y-85159092D01*
X145974930Y-84994835D01*
X146065217Y-84797131D01*
X146069530Y-84767131D01*
X149754321Y-84767131D01*
X149754321Y-86778518D01*
M02*
